<svg xmlns="http://www.w3.org/2000/svg" width="290.33" height="73.163" viewBox="0 0 290.33 73.163">
  <g id="bn_englishmenu" transform="translate(-650 -213)">
    <path id="長方形_1_-_アウトライン" data-name="長方形 1 - アウトライン" d="M2.9,2.9V70.26H287.426V2.9H2.9M0,0H290.33V73.163H0Z" transform="translate(650 213)"/>
    <path id="パス_1" data-name="パス 1" d="M4.171-13.524H15.307v-2.447H7.067v-5.942h6.741V-24.36H7.067v-5.119h7.965v-2.447H4.171Zm14.981,0H21.9v-8.664c0-2-.225-4.12-.375-6.017h.125l1.923,3.845,6.092,10.836h2.971v-18.4H29.888v8.589c0,2,.225,4.22.375,6.117h-.125l-1.923-3.9L22.123-31.925H19.152ZM44.3-13.2a8.256,8.256,0,0,0,5.818-2.147v-7.965H43.846v2.372h3.645v4.32a4.557,4.557,0,0,1-2.9.9c-3.8,0-5.818-2.672-5.818-7.041,0-4.32,2.272-6.966,5.693-6.966a5.068,5.068,0,0,1,3.82,1.648l1.548-1.848A7.331,7.331,0,0,0,44.37-32.25c-4.869,0-8.564,3.6-8.564,9.588C35.806-16.645,39.4-13.2,44.3-13.2Zm9.338-.325H64.32v-2.447H56.53V-31.925h-2.9Zm13.932,0h2.9v-18.4h-2.9Zm12.959.325c4.02,0,6.467-2.4,6.467-5.343,0-2.7-1.573-4.045-3.745-4.969l-2.522-1.074c-1.5-.6-2.971-1.2-2.971-2.8,0-1.448,1.223-2.347,3.1-2.347a5.853,5.853,0,0,1,4.045,1.648l1.523-1.848a7.871,7.871,0,0,0-5.568-2.322c-3.5,0-6.042,2.172-6.042,5.069,0,2.672,1.973,4.07,3.745,4.819l2.547,1.1c1.7.749,2.946,1.273,2.946,2.946,0,1.548-1.248,2.6-3.471,2.6a7.125,7.125,0,0,1-4.894-2.172l-1.7,2A9.168,9.168,0,0,0,80.524-13.2Zm9.937-.325h2.9v-8.364h7.865v8.364h2.9v-18.4h-2.9v7.515H93.358v-7.515h-2.9Zm24.094,0h2.6v-9.088c0-1.648-.225-4.02-.35-5.693h.1l1.448,4.245,3.221,8.764h1.8l3.2-8.764,1.473-4.245h.1c-.15,1.673-.375,4.045-.375,5.693v9.088h2.7v-18.4h-3.346l-3.321,9.313c-.424,1.223-.774,2.472-1.2,3.7h-.125c-.424-1.223-.8-2.472-1.223-3.7l-3.371-9.313h-3.321Zm20.724,0h11.136v-2.447h-8.24v-5.942h6.741V-24.36h-6.741v-5.119h7.965v-2.447H135.28Zm14.981,0h2.747v-8.664c0-2-.225-4.12-.375-6.017h.125l1.923,3.845,6.092,10.836h2.971v-18.4H161v8.589c0,2,.225,4.22.375,6.117h-.125l-1.923-3.9-6.092-10.811h-2.971Zm25.068.325c4.07,0,6.816-2.222,6.816-8.215V-31.925h-2.8v10.711c0,4.145-1.7,5.493-4.02,5.493-2.3,0-3.945-1.348-3.945-5.493V-31.925h-2.9v10.512C168.488-15.421,171.259-13.2,175.329-13.2Z" transform="translate(702.252 272.541)"/>
  </g>
</svg>
