<svg xmlns="http://www.w3.org/2000/svg" width="179.728" height="60.32" viewBox="0 0 179.728 60.32"><defs><style>.a{fill:#1a1a1a;}</style></defs><g transform="translate(-155.784 -4749.296)"><path class="a" d="M9.152,8.688A.37.37,0,0,1,8.768,8.3V8.192a.37.37,0,0,1,.384-.384h1.824a.37.37,0,0,1,.384.384V8.3a.37.37,0,0,1-.384.384Zm0,2.064a.37.37,0,0,1-.384-.384V10.24a.357.357,0,0,1,.384-.368h1.824a.357.357,0,0,1,.384.368v.128a.37.37,0,0,1-.384.384ZM4.928,8.688A.37.37,0,0,1,4.544,8.3V8.192a.37.37,0,0,1,.384-.384H6.752a.37.37,0,0,1,.384.384V8.3a.37.37,0,0,1-.384.384Zm0,2.064a.37.37,0,0,1-.384-.384V10.24a.357.357,0,0,1,.384-.368H6.752a.357.357,0,0,1,.384.368v.128a.37.37,0,0,1-.384.384ZM7.136,14.1c0,.816-.048,1.632-.048,2.448,0,.48.176.512.88.512.672,0,.848-.016.848-.5,0-.816-.048-1.648-.048-2.464v-.7c.016-.1.048-.192.176-.192a.223.223,0,0,1,.144.048,18.454,18.454,0,0,0,3.76,2.72,7.24,7.24,0,0,0,1.488.688c.288,0,.8-.848.8-1.12,0-.144-.192-.24-.32-.288A19.118,19.118,0,0,1,9.9,12.24.174.174,0,0,1,9.84,12.1c0-.112.1-.144.192-.144H11.1c.16,0,.192.1.256.224.08.16.272.16.768.16.688,0,.9.016.9-.336,0-.288-.032-.672-.032-1.008V8.128c0-.32.016-.592.016-.816,0-.48-.1-.736-.688-.736-.448,0-.9.032-1.344.032H9.152a.339.339,0,0,1-.384-.384V6.08c0-.272.128-.384.384-.384h3.584c.656,0,1.3.032,1.952.032.368,0,.352-.192.352-.72s.016-.72-.352-.72c-.656,0-1.3.032-1.952.032H9.216c-.288,0-.432-.112-.432-.416,0-.32-.016-.544.176-.688.1-.08.176-.128.176-.224,0-.208-.256-.208-.4-.224C8.4,2.752,7.664,2.7,7.36,2.7c-.144,0-.288.032-.288.208,0,.064.016.112.016.16a5.027,5.027,0,0,1,.048.848c-.016.3-.16.4-.448.4H3.264c-.64,0-1.28-.032-1.936-.032-.368,0-.368.16-.368.72s0,.72.368.72c.656,0,1.3-.032,1.936-.032H6.752c.272,0,.384.112.384.384v.144c0,.256-.112.384-.384.384H4.992c-.448,0-.9-.032-1.344-.032S2.96,6.72,2.96,7.2c0,.3.016.624.016.928v2.864c0,.336-.032.672-.032,1.008,0,.352.208.336.864.336.5,0,.672,0,.752-.176.048-.112.1-.208.256-.208H5.824c.1,0,.192.032.192.144a.238.238,0,0,1-.064.144,19.7,19.7,0,0,1-4.8,2.928c-.176.08-.368.16-.368.352,0,.3.48,1.088.8,1.088a7.654,7.654,0,0,0,1.52-.656,16.325,16.325,0,0,0,3.728-2.7.174.174,0,0,1,.144-.064c.112,0,.16.1.16.208ZM31.28,15.584c0-.272-1.072-1.36-1.312-1.6-.528-.544-1.072-1.056-1.648-1.552a.5.5,0,0,0-.336-.176c-.24,0-1.04.576-1.04.816,0,.144.176.272.272.368a15.544,15.544,0,0,1,2.608,2.72c.128.16.224.3.384.3C30.432,16.464,31.28,15.888,31.28,15.584Zm-8.7-2.512c0-.128-.208-.224-.72-.48a3.343,3.343,0,0,0-.8-.32c-.112,0-.176.144-.224.224a12.685,12.685,0,0,1-2.752,2.8c-.128.112-.352.256-.352.416,0,.256.752.848,1.008.848a.823.823,0,0,0,.448-.24,15.2,15.2,0,0,0,2.752-2.8c.192-.24.208-.24.4-.256C22.432,13.264,22.576,13.2,22.576,13.072ZM25.456,4c-.016-.416-.016-.64.176-.784.128-.08.208-.112.208-.208,0-.176-.256-.192-.384-.208-.3-.016-1.152-.1-1.424-.1-.144,0-.288.016-.288.208a.443.443,0,0,0,.016.144A9.093,9.093,0,0,1,23.808,4c-.016.32-.128.448-.448.448H19.9c-.656,0-1.3-.032-1.952-.032-.352,0-.352.176-.352.736s0,.752.352.752c.656,0,1.3-.032,1.952-.032h9.488c.64,0,1.28.032,1.936.032.368,0,.368-.176.368-.752s0-.736-.368-.736c-.656,0-1.3.032-1.936.032H25.9C25.584,4.448,25.456,4.32,25.456,4Zm-3.6,6.16a.4.4,0,0,1-.432-.432V8.7a.434.434,0,0,1,.432-.448h5.536a.447.447,0,0,1,.448.448V9.728c-.032.272-.16.432-.448.432ZM23.392,11.5c.3,0,.448.128.448.448v2.256c0,1.056.016,1.152-.864,1.152-.416,0-.752-.048-.928-.048-.272,0-.32.256-.32.464a2.4,2.4,0,0,0,.16.9c.144.32.352.352.832.352,1.168,0,2.736,0,2.736-1.568,0-.384-.048-.768-.048-1.152V11.952c0-.32.144-.448.448-.448h1.776c.112,0,.16.048.192.16.064.208.224.208.8.208.624,0,.816.016.816-.336,0-.32-.016-.624-.016-.944V8.384c0-.3.016-.592.016-.9,0-.432-.224-.608-.64-.608-.464,0-.912.016-1.376.016H21.84c-.448,0-.8-.016-1.088-.016-.656,0-.928.08-.928.608,0,.3.016.592.016.9v2.192c0,.3-.032.624-.032.944,0,.352.208.336.864.336.512,0,.656,0,.752-.16.048-.112.1-.192.224-.192ZM37.376,6.48c-.528,0-1.072-.016-1.6-.016-.352,0-.384.144-.384.832,0,.624.048.88.4.88.208,0,1.168-.064,1.6-.064L39.648,8.1a.328.328,0,0,1,.336.336,8.475,8.475,0,0,1-.416,1.536A11.05,11.05,0,0,1,36.1,14.8c-.1.08-.224.16-.224.288,0,.288.912,1.04,1.216,1.04.288,0,1.248-1.008,1.472-1.248A13.311,13.311,0,0,0,41.7,8.656c.048-.24.112-.576.512-.576l1.616-.016c.72,0,.944-.032.944.4a28.71,28.71,0,0,1-.48,3.824c-.24,1.136-.576,1.568-1.52,1.568-.384,0-.752-.064-.912-.064a.261.261,0,0,0-.288.288,3.41,3.41,0,0,0,.416,1.12.506.506,0,0,0,.56.32,6.172,6.172,0,0,0,.928-.064,2.322,2.322,0,0,0,2.08-1.392,20.064,20.064,0,0,0,.9-4.544c.032-.3.256-2.08.256-2.24a1.276,1.276,0,0,0-.912-.928c-.016,0-1.3.064-1.76.064L42.5,6.432a.357.357,0,0,1-.384-.368c0-.16.1-1.12.128-1.344.048-.5.032-.512.224-.688.064-.064.176-.176.176-.272,0-.112-.144-.16-.24-.176-.16-.048-1.568-.32-1.664-.32-.224,0-.208.208-.208.368-.016.384-.1,2.1-.128,2.416a.5.5,0,0,1-.48.416Zm24.5-1.472a1.337,1.337,0,0,1,.112-.688c.08-.08.144-.128.144-.224,0-.144-.192-.16-.32-.192a13.981,13.981,0,0,0-1.584-.16c-.128,0-.192.032-.192.16a1.576,1.576,0,0,0,.032.272,8.5,8.5,0,0,1,.048,1.1V8.752a20.011,20.011,0,0,1-.192,3.088,4.517,4.517,0,0,1-2.848,3.536c-.128.064-.432.192-.432.336,0,.288,1.1,1.088,1.344,1.088a7.369,7.369,0,0,0,1.76-1.12A5.428,5.428,0,0,0,61.7,11.968a24.324,24.324,0,0,0,.176-3.408ZM55.6,6.5c0-.368-.016-.656-.016-.9a1.472,1.472,0,0,1,.176-.928.355.355,0,0,0,.08-.176c0-.144-.224-.144-.56-.208-.224-.032-1.216-.176-1.376-.176-.112,0-.144.048-.144.16,0,.1.016.192.016.288.016.416.048.832.048,1.264V9.2c0,.752-.048,1.488-.048,2.24,0,.432.208.48.96.48s.9-.064.9-.56c0-.72-.032-1.456-.032-2.176ZM79.664,9.408l-.464-.4c-.144-.128-.24-.192-.32-.192-.1,0-.176.08-.32.256a1.9,1.9,0,0,1-1.536.848,4.22,4.22,0,0,1-2.032-.752,5.225,5.225,0,0,0-2.7-.944A3.435,3.435,0,0,0,69.52,9.76a.614.614,0,0,0-.16.336c0,.112.08.224.24.368l.448.384c.144.128.24.192.336.192s.176-.1.3-.272a1.951,1.951,0,0,1,1.536-.832,4.306,4.306,0,0,1,2.1.768,5.123,5.123,0,0,0,2.656.912,3.539,3.539,0,0,0,2.768-1.5.614.614,0,0,0,.16-.336C79.9,9.664,79.824,9.552,79.664,9.408Zm8.96-4.64,1.36-.048c.288-.016.416.144.416.416v1.1c0,.3-.128.448-.448.448H88.88c-.048-.016-.064-.016-.064-.064,0-.016.016-.032.032-.048.08-.048.192-.112.192-.24a4.028,4.028,0,0,0-.512-1.056.6.6,0,0,1-.144-.3C88.384,4.832,88.5,4.784,88.624,4.768Zm3.84-.24c.5-.064,1.008-.1,1.5-.176h.048a.193.193,0,0,1,.208.208.272.272,0,0,1-.016.112A10.861,10.861,0,0,1,93.232,6.4a.547.547,0,0,1-.576.288H92.5c-.32,0-.448-.144-.448-.448V5.024C92.048,4.72,92.16,4.56,92.464,4.528ZM90.4,8.7c-.016.48-.048.976-.048,1.456,0,.5.16.512.864.512.72,0,.864-.016.864-.512,0-.448-.016-.9-.016-1.344,0-.08.032-.16.128-.16a.13.13,0,0,1,.128.064A16.9,16.9,0,0,0,94.48,10.7a.165.165,0,0,1,.064.128c0,.1-.08.128-.144.144H87.856c-.08-.016-.16-.048-.16-.144,0-.048.032-.08.08-.112a13.345,13.345,0,0,0,2.336-2.112c.048-.048.08-.08.144-.08C90.352,8.528,90.384,8.624,90.4,8.7Zm1.552,5.856a.37.37,0,0,1,.384-.384H93.9a.357.357,0,0,1,.368.384v.24a.344.344,0,0,1-.368.368H92.336a.357.357,0,0,1-.384-.368ZM90,14.176a.37.37,0,0,1,.384.384v.24a.357.357,0,0,1-.384.368H88.464a.357.357,0,0,1-.384-.368v-.24a.37.37,0,0,1,.384-.384Zm2.336-1.024a.37.37,0,0,1-.384-.384v-.16a.37.37,0,0,1,.384-.384H93.9a.357.357,0,0,1,.368.384v.16a.357.357,0,0,1-.368.384Zm-1.952-.384a.37.37,0,0,1-.384.384H88.464a.37.37,0,0,1-.384-.384v-.16a.37.37,0,0,1,.384-.384H90a.37.37,0,0,1,.384.384Zm5.92-.816a4.713,4.713,0,0,0,1.168.528c.3,0,.9-.768.9-1.072,0-.176-.176-.256-.32-.32a14.826,14.826,0,0,1-4.064-2.72.2.2,0,0,1-.064-.144c0-.128.1-.16.192-.16h1.84c.64,0,1.28.032,1.936.032.368,0,.368-.16.368-.72s0-.736-.368-.736c-.656,0-1.3.048-1.936.048h-.768c-.128-.016-.256-.064-.256-.208a.309.309,0,0,1,.048-.16c.24-.352.576-.928.656-1.04.1-.144.16-.16.336-.176.064-.016.208-.032.208-.16,0-.192-.8-.464-1.04-.56a.15.15,0,0,1-.08-.112.137.137,0,0,1,.112-.128c.176-.032.9-.208.976-.208a.511.511,0,0,1,.224.048.521.521,0,0,0,.208.064A.155.155,0,0,0,96.72,3.9a.912.912,0,0,0-.256-.448c-.16-.16-.288-.3-.4-.432-.272-.3-.416-.464-.528-.464a.767.767,0,0,0-.272.08c-1.68.64-5.712.832-7.584.832-.672,0-1.328-.032-2-.032-.256,0-.448.016-.448.336,0,1.072.416,1.024.688,1.024h1.312a.042.042,0,0,1,.048.048c0,.032,0,.048-.032.064-.144.064-.464.192-.464.384a4.73,4.73,0,0,0,.432.784c.064.1.128.192.144.224a.309.309,0,0,1,.048.16c0,.16-.128.208-.272.224H86.5c-.656,0-1.312-.048-1.952-.048-.368,0-.352.192-.352.736,0,.528-.016.72.352.72.64,0,1.3-.032,1.952-.032h1.776c.1,0,.192.032.192.16a.146.146,0,0,1-.064.128,14.849,14.849,0,0,1-3.92,2.576c-.32.144-.5.208-.5.384,0,.32.48,1.1.832,1.1a4.907,4.907,0,0,0,1.248-.592.382.382,0,0,1,.144-.032c.16,0,.224.112.24.256V15.52c0,.16-.032,1.056-.032,1.072,0,.368.24.352.848.352.72,0,.832,0,.848-.336.032-.144.08-.224.256-.224H94c.1,0,.24.016.24.224v.064c0,.352.256.336.864.336.624,0,.848.016.848-.352,0-.256-.048-.736-.048-1.072V12.592a4.344,4.344,0,0,1,.016-.448c.016-.144.08-.24.224-.24A.27.27,0,0,1,96.3,11.952Zm6.64-2.368c-.592.016-1.168-.032-1.76-.032-.368,0-.368.16-.368.72,0,.544,0,.72.368.72.592,0,1.168-.048,1.76-.032.3,0,.448.128.448.448v3.024c-.032.3-.112.464-.416.512-.416.08-.752.08-1.008.112-.592.048-.752.08-.752.288a8.324,8.324,0,0,0,.176.816c.032.112.064.224.08.3.112.4.144.56.32.56.112,0,.16-.064.208-.16.1-.208.144-.24.5-.288a50.939,50.939,0,0,0,5.6-1.1c.4-.1.528-.144.528-.672,0-.352.032-.832-.32-.832-.1,0-1.9.384-2.816.56-.032,0-.064.016-.112.016-.224,0-.32-.176-.32-.384V11.408c0-.32.144-.448.448-.448h1.44a.51.51,0,0,1,.576.4,10.132,10.132,0,0,0,3.728,4.384,11.469,11.469,0,0,0,2.736,1.36c.352,0,.928-.9.928-1.216,0-.192-.224-.256-.368-.32a13.035,13.035,0,0,1-2.9-1.568.306.306,0,0,1-.112-.224.358.358,0,0,1,.128-.24c.256-.176.512-.368.752-.544.192-.144.432-.352.624-.48a.244.244,0,0,1,.16-.064.68.68,0,0,1,.176.032.407.407,0,0,0,.112.032.164.164,0,0,0,.16-.176,4.54,4.54,0,0,0-1.344-1.248c-.1,0-.176.112-.3.24a15.529,15.529,0,0,1-1.3,1.216.568.568,0,0,1-.3.128.408.408,0,0,1-.32-.176,6.558,6.558,0,0,1-.8-1.168.223.223,0,0,1-.048-.144c0-.16.144-.208.288-.224h3.072c.64,0,1.3.032,1.936.032.368,0,.368-.176.368-.72s0-.72-.368-.72c-.656,0-1.3.032-1.936.032H105.44c-.256,0-.384-.112-.384-.384V9.088c0-.272.128-.384.384-.384h4.64c.56,0,1.12.032,1.7.032.336,0,.336-.144.336-.64,0-.512,0-.656-.336-.656-.576,0-1.136.032-1.7.032h-4.64c-.256,0-.384-.112-.384-.368v-.1c0-.256.128-.368.384-.368h4.576c.592,0,1.184.032,1.776.032.32,0,.336-.128.336-.64,0-.528-.016-.656-.336-.656-.592,0-1.184.032-1.776.032H105.44c-.256,0-.384-.112-.384-.384v-.08c0-.256.128-.368.384-.368h6.1c.464,0,.928.032,1.392.032.352,0,.352-.144.352-.688,0-.56,0-.688-.352-.688-.464,0-.928.032-1.392.032H105.36c-.416,0-.816-.032-1.216-.032-.512,0-.784.16-.784.72,0,.336.032.7.032,1.12V9.136A.392.392,0,0,1,102.944,9.584Zm25.488-4.576a1.337,1.337,0,0,1,.112-.688c.08-.08.144-.128.144-.224,0-.144-.192-.16-.32-.192a13.981,13.981,0,0,0-1.584-.16c-.128,0-.192.032-.192.16a1.576,1.576,0,0,0,.032.272,8.5,8.5,0,0,1,.048,1.1V8.752a20.011,20.011,0,0,1-.192,3.088,4.517,4.517,0,0,1-2.848,3.536c-.128.064-.432.192-.432.336,0,.288,1.1,1.088,1.344,1.088a7.369,7.369,0,0,0,1.76-1.12,5.428,5.428,0,0,0,1.952-3.712,24.323,24.323,0,0,0,.176-3.408ZM122.16,6.5c0-.368-.016-.656-.016-.9a1.472,1.472,0,0,1,.176-.928.355.355,0,0,0,.08-.176c0-.144-.224-.144-.56-.208-.224-.032-1.216-.176-1.376-.176-.112,0-.144.048-.144.16,0,.1.016.192.016.288.016.416.048.832.048,1.264V9.2c0,.752-.048,1.488-.048,2.24,0,.432.208.48.96.48s.9-.064.9-.56c0-.72-.032-1.456-.032-2.176Zm15.28,2.288c-.672,0-1.776-.048-1.984-.048-.416,0-.448.128-.448,1.024,0,.5.016.8.432.8.672,0,1.344-.032,2-.032h7.36c.656,0,1.328.032,2,.032.416,0,.432-.3.432-.816,0-.88-.016-1.008-.448-1.008-.208,0-1.248.048-1.984.048Zm20.576-3.072c-.128-.016-.272-.08-.272-.24a.569.569,0,0,1,.128-.32c.1-.16.176-.3.224-.4.256-.448.272-.48.512-.576.08-.032.16-.08.16-.176,0-.112-.56-.384-.832-.5a5.589,5.589,0,0,0-1.008-.432c-.176,0-.24.272-.288.4a14.887,14.887,0,0,1-4.176,5.744c-.1.08-.256.176-.256.3,0,.272,1.056.944,1.344.944a.855.855,0,0,0,.512-.3A23.692,23.692,0,0,0,156.128,7.7c.208-.288.32-.416.7-.416H159.9c.24,0,.64,0,.64.32a9.826,9.826,0,0,1-.832,1.92c-.128.24-.256.528-.544.528a.755.755,0,0,1-.4-.176A13.186,13.186,0,0,0,156.8,8.9c-.368,0-.976.976-.976,1.2,0,.144.192.224.3.272.592.288,1.136.576,1.712.912a.4.4,0,0,1,.256.368.623.623,0,0,1-.24.4,9.847,9.847,0,0,1-4.576,2.88c-.16.048-.7.128-.7.368,0,.224.752,1.248,1.168,1.248a8.237,8.237,0,0,0,1.92-.816,13.092,13.092,0,0,0,3.5-2.7c.144-.16.32-.384.544-.384a.534.534,0,0,1,.352.176c.288.24.32.24.64.528a.4.4,0,0,0,.24.128c.32,0,1.04-.96,1.04-1.216,0-.208-.7-.688-.9-.832-.16-.112-.288-.208-.288-.416a.976.976,0,0,1,.176-.448,26.379,26.379,0,0,0,1.44-2.848,4.078,4.078,0,0,1,.368-.688.357.357,0,0,0,.1-.208c0-.288-.64-1.168-.944-1.168a.4.4,0,0,0-.144.016,3.965,3.965,0,0,1-.784.048Zm6.832-2.544c-.08-.16-.624-.848-.752-.848-.176,0-.832.368-.832.576a.335.335,0,0,0,.112.208q.5.672.96,1.392c.064.1.128.208.24.208.192,0,.832-.4.832-.64a3.22,3.22,0,0,0-.48-.784C164.9,3.232,164.864,3.2,164.848,3.168Zm-2.464.032c-.176,0-.832.368-.832.56a.427.427,0,0,0,.112.224,14.9,14.9,0,0,1,.976,1.424c.048.08.1.176.208.176.208,0,.832-.4.832-.64A6.2,6.2,0,0,0,162.384,3.2Zm8.336,5.584c-.672,0-1.776-.048-1.984-.048-.416,0-.448.128-.448,1.024,0,.5.016.8.432.8.672,0,1.344-.032,2-.032h7.36c.656,0,1.328.032,2,.032.416,0,.432-.3.432-.816,0-.88-.016-1.008-.448-1.008-.208,0-1.248.048-1.984.048Z" transform="translate(155 4746.977)"/><path class="a" d="M25.6,47.04c-.8,0-1.12-.36-1.12-1.12V43.56c0-.8.32-1.12,1.12-1.12h3.68c.8,0,1.12.32,1.12,1.12v2.36c0,.76-.32,1.12-1.12,1.12Zm0-8.32a1.145,1.145,0,0,1-1.12-1.12V35.4a1.118,1.118,0,0,1,1.12-1.12h3.68A1.094,1.094,0,0,1,30.4,35.4v2.2a1.118,1.118,0,0,1-1.12,1.12Zm9.8-.08c-.76,0-1.04-.32-1.04-1.08v-1.6c0-1.12.04-2.28.04-3.4,0-1.52-.4-2.08-1.92-2.08-1,0-1.96.08-2.92.08H18.24c-1.12,0-2.2-.08-3-.08s-.76.48-.76,1.92c0,1.4-.08,1.96.72,1.96,1.04,0,2.04-.08,3.04-.08h1.24c.76,0,1.12.32,1.12,1.12v2.2a.98.98,0,0,1-1.12,1.12H17.6c-1.52,0-3-.12-4.48-.12-1.04,0-1,.48-1,1.96s-.04,1.96,1,1.96c1.48,0,3-.08,4.48-.08h1.88c.76,0,1.12.32,1.12,1.12v2.36a.98.98,0,0,1-1.12,1.12h-.16c-1.52,0-3.08-.12-4.6-.12-1,0-.96.52-.96,2s-.04,1.96.96,1.96c1.52,0,3.04-.08,4.56-.08.48,0,.96.2.96.8v.24a13.353,13.353,0,0,1-6.44,9.08c-.36.24-1,.56-1,1,0,.8,1.68,2.68,2.52,2.68a3.653,3.653,0,0,0,1.72-.84A17.031,17.031,0,0,0,24.16,51.8c.2-.76.44-1,1.24-1h4.28c.4,0,.56.24.8.56.28.36.6.4,1.92.4,1.44,0,2.04.04,2.04-1.08,0-1.44-.08-2.88-.08-4.28V43.56c0-.72.28-1.04,1.04-1.08.52.04,1.08.04,1.6.04,1.04,0,1-.52,1-1.96s.04-1.96-1-1.96C36.44,38.6,35.92,38.64,35.4,38.64Zm-25.28.68a59.385,59.385,0,0,0,3.08-7.16c.32-.88.32-1,.84-1.2.2-.08.52-.24.52-.52,0-.48-.48-.6-1.2-.88a1.354,1.354,0,0,0-.32-.12,22.21,22.21,0,0,0-2.64-.88c-.48,0-.6.48-.72.84A42.7,42.7,0,0,1,2.28,44a2.274,2.274,0,0,0-.72,1.36c0,.68,1.6,2.8,2.28,2.8.64,0,1.56-1.36,1.92-1.84a.356.356,0,0,1,.32-.2c.24,0,.32.24.32.44v11.4c0,1.76-.08,3.52-.08,5.32,0,1.16.48,1.32,2.12,1.32,1.68,0,2.12-.16,2.12-1.32,0-1.76-.08-3.52-.08-5.32V43.32c0-1.2.04-2,.44-2.32.24-.16.48-.28.48-.6,0-.48-.6-.48-.96-.52-.2-.04-.36-.12-.36-.36C10.08,39.44,10.12,39.4,10.12,39.32Zm54.36,4.4a.924.924,0,0,1-.96-.96v-.28a.924.924,0,0,1,.96-.96h4.56a.924.924,0,0,1,.96.96v.28a.924.924,0,0,1-.96.96Zm0,5.16a.924.924,0,0,1-.96-.96V47.6a.893.893,0,0,1,.96-.92h4.56a.893.893,0,0,1,.96.92v.32a.924.924,0,0,1-.96.96ZM53.92,43.72a.924.924,0,0,1-.96-.96v-.28a.924.924,0,0,1,.96-.96h4.56a.924.924,0,0,1,.96.96v.28a.924.924,0,0,1-.96.96Zm0,5.16a.924.924,0,0,1-.96-.96V47.6a.893.893,0,0,1,.96-.92h4.56a.893.893,0,0,1,.96.92v.32a.924.924,0,0,1-.96.96Zm5.52,8.36c0,2.04-.12,4.08-.12,6.12,0,1.2.44,1.28,2.2,1.28,1.68,0,2.12-.04,2.12-1.24,0-2.04-.12-4.12-.12-6.16V55.48c.04-.24.12-.48.44-.48a.558.558,0,0,1,.36.12,46.134,46.134,0,0,0,9.4,6.8,18.1,18.1,0,0,0,3.72,1.72c.72,0,2-2.12,2-2.8,0-.36-.48-.6-.8-.72A47.8,47.8,0,0,1,66.36,52.6a.434.434,0,0,1-.16-.36c0-.28.24-.36.48-.36h2.68c.4,0,.48.24.64.56.2.4.68.4,1.92.4,1.72,0,2.24.04,2.24-.84,0-.72-.08-1.68-.08-2.52V42.32c0-.8.04-1.48.04-2.04,0-1.2-.24-1.84-1.72-1.84-1.12,0-2.24.08-3.36.08H64.48a.849.849,0,0,1-.96-.96V37.2c0-.68.32-.96.96-.96h8.96c1.64,0,3.24.08,4.88.08.92,0,.88-.48.88-1.8s.04-1.8-.88-1.8c-1.64,0-3.24.08-4.88.08h-8.8c-.72,0-1.08-.28-1.08-1.04,0-.8-.04-1.36.44-1.72.24-.2.44-.32.44-.56,0-.52-.64-.52-1-.56-.84-.04-2.68-.16-3.44-.16-.36,0-.72.08-.72.52,0,.16.04.28.04.4a12.567,12.567,0,0,1,.12,2.12c-.04.76-.4,1-1.12,1H49.76c-1.6,0-3.2-.08-4.84-.08-.92,0-.92.4-.92,1.8s0,1.8.92,1.8c1.64,0,3.24-.08,4.84-.08h8.72c.68,0,.96.28.96.96v.36c0,.64-.28.96-.96.96h-4.4c-1.12,0-2.24-.08-3.36-.08S49,38.8,49,40c0,.76.04,1.56.04,2.32v7.16c0,.84-.08,1.68-.08,2.52,0,.88.52.84,2.16.84,1.24,0,1.68,0,1.88-.44.12-.28.24-.52.64-.52h2.52c.24,0,.48.08.48.36a.6.6,0,0,1-.16.36,49.241,49.241,0,0,1-12,7.32c-.44.2-.92.4-.92.88,0,.76,1.2,2.72,2,2.72a19.134,19.134,0,0,0,3.8-1.64,40.812,40.812,0,0,0,9.32-6.76.434.434,0,0,1,.36-.16c.28,0,.4.24.4.52Zm48.6,1.52a1.145,1.145,0,0,1-1.12,1.12h-1.04a1.118,1.118,0,0,1-1.12-1.12V56.08a1.118,1.118,0,0,1,1.12-1.12h1.04a1.145,1.145,0,0,1,1.12,1.12Zm11.84,1.12a1.145,1.145,0,0,1-1.12-1.12V56.08a1.145,1.145,0,0,1,1.12-1.12h1.2a1.118,1.118,0,0,1,1.12,1.12v2.68a1.118,1.118,0,0,1-1.12,1.12Zm-8.2-3.8a1.145,1.145,0,0,1,1.12-1.12h1.08A1.118,1.118,0,0,1,115,56.08v2.68a1.118,1.118,0,0,1-1.12,1.12H112.8a1.145,1.145,0,0,1-1.12-1.12Zm-10.96,2.68c0,.68-.24,1.08-1,1.08-1,0-2.04-.08-3.04-.08-.96,0-.96.44-.96,1.92,0,1.36,0,1.84.92,1.84,1.32,0,2.64-.08,4-.08H126.2c1.8,0,2.92.08,3.64.08,1.28,0,1.24-.28,1.24-1.84,0-1.44.04-1.92-.92-1.92-1,0-2,.12-3,.08-.76-.04-1-.4-1-1.08V55.8c0-.88.04-1.72.04-2.6,0-1.52-.72-1.76-2.08-1.76-.96,0-1.92.04-2.88.04h-15.6c-.96,0-1.96-.04-2.96-.04-1.48,0-2,.36-2,1.88,0,.84.04,1.64.04,2.48ZM126.2,31.84a1.544,1.544,0,0,0,.32-.8c0-.72-4.08-2.52-4.52-2.52-.6,0-1.44,1.48-1.44,1.84,0,.4.72.68,1.8,1.16.28.12.6.24.92.4.08.08.16.12.16.28s-.16.24-.32.24h-4.16a1,1,0,0,1-1.16-1.04c0-.68,0-1,.4-1.24.32-.16.68-.32.68-.68,0-.56-.8-.52-1.36-.56-.76-.08-2.52-.24-3.16-.24-.56,0-.88.04-.88.6,0,.2.2,1.84.2,2.08,0,.76-.32,1.08-1.04,1.08h-7.8c-1.24,0-2.44-.08-3.68-.08-1.28,0-2.2.24-2.2,1.76,0,.72.08,1.4.08,2.44v1.4a20.165,20.165,0,0,1-3.2,11.52,1.186,1.186,0,0,0-.28.6c0,.8,1.96,2.08,2.88,2.08.6,0,1.04-.72,1.68-1.8a23,23,0,0,0,2.64-8c.12-.76.52-1,1.24-1h2.4c.6,0,.92-.04.92.6,0,3.84-.6,4-2.08,4-.64,0-1.36-.16-2-.16-.52,0-.56.44-.56.88a5.7,5.7,0,0,0,.36,2c.24.68.6.8,1.72.8,1.6,0,4.36-.12,5.32-1.6.92-1.4,1.16-6.36,1.16-8.16a1.53,1.53,0,0,0-1.68-1.48H104c-.64,0-.92-.28-.92-.92v-.6c0-.68.28-.96.92-.96h9c.8.08,1.12.28,1.28,1.04a28.166,28.166,0,0,0,1.84,6,1.267,1.267,0,0,1,.16.64,1.125,1.125,0,0,1-.52.96,37.312,37.312,0,0,1-3.92,2.64c-.4.2-1.08.48-1.08,1.04,0,.52,1.32,2.28,2.48,2.28,1,0,3.84-2.12,4.68-2.8a1.246,1.246,0,0,1,.72-.28,1.111,1.111,0,0,1,.8.4c1.8,1.84,4.28,3.6,6.96,3.6a3.886,3.886,0,0,0,3.68-2.08,11.316,11.316,0,0,0,1.36-4.16c0-.96-1.76-1.72-2.72-1.72-.68,0-.76.32-.88.92-.36,1.76-.64,3.16-1.96,3.16-1.2,0-2.8-1.44-3.6-2.28a1.17,1.17,0,0,1-.32-.76,1.232,1.232,0,0,1,.36-.8c.84-.88,1.52-1.68,2.04-2.32.8-.92,1.32-1.48,1.56-1.52.32-.04.92-.04.92-.48,0-.4-.8-.92-1.76-1.56a6.425,6.425,0,0,0-1.92-1.04c-.32,0-.44.24-.6.48a22.707,22.707,0,0,1-2.2,2.96.713.713,0,0,1-.52.24c-.32,0-.44-.2-.56-.44a21.749,21.749,0,0,1-.88-3.04v-.28c0-.56.4-.8.92-.8h6.04c1.6,0,3.16.12,4.76.12.96,0,.92-.44.92-1.76,0-1.4.04-1.76-.92-1.76-1.2,0-2.4.08-3.6.08-.2,0-.4-.08-.4-.36A.569.569,0,0,1,126.2,31.84Z" transform="translate(155 4744.977)"/></g></svg>