<svg xmlns="http://www.w3.org/2000/svg" width="232.759" height="99.703" viewBox="0 0 232.759 99.703"><defs><style>.a{fill:#1a1a1a;}</style></defs><path class="a" d="M12.164-19.319c-.374,0-.547.4-.719.691a4.1,4.1,0,0,1-2.158,2.014,15.744,15.744,0,0,1-4.488.892c-.6.058-.863.086-.863.46a7.866,7.866,0,0,0,.748,2.33c.115.23.288.6.6.6a6.605,6.605,0,0,0,1.323-.46,5.527,5.527,0,0,1,.949-.345.192.192,0,0,1,.2.173.711.711,0,0,1-.115.259A15.856,15.856,0,0,0,5.058-4.5c0,4.172,2.676,7.078,6.905,7.078a8.544,8.544,0,0,0,7.711-4.718,16.02,16.02,0,0,0,1.352-6.675c0-.432-.058-.863-.058-1.323,0-.144,0-.374.2-.374.23,0,.633.921.719,1.151.2.4.719,1.554,1.208,1.554.374,0,2.33-.921,2.33-1.554,0-.316-.316-.662-.518-.892a19.548,19.548,0,0,1-4.2-8.372c-.086-.547-.115-.978-.806-.978-.547,0-2.647.374-2.647,1.007a1.015,1.015,0,0,0,.086.4,18.415,18.415,0,0,1,1.266,7.279c0,2.589-.288,6.013-1.87,8.142A6.091,6.091,0,0,1,11.877-.33C9.143-.33,7.964-2.2,7.964-4.761a13.473,13.473,0,0,1,2.1-6.848,20.214,20.214,0,0,1,3.711-4.69c.23-.2.834-.662.834-.978C14.61-17.909,12.912-19.319,12.164-19.319Zm27.477-.029a1.518,1.518,0,0,0,.086.345,18.285,18.285,0,0,1,.547,1.9c.288,1.18,1.093,4.229,1.439,5.265a.985.985,0,0,1,.115.518.893.893,0,0,1-.489.748c-2.388,1.554-4.977,3.6-4.977,6.732A5.064,5.064,0,0,0,39.008.591a10.784,10.784,0,0,0,5.9,1.237,68.9,68.9,0,0,0,7.912-.46c.575-.144.6-.46.6-1.208V-.186c0-.6-.029-1.784-.432-1.784a.8.8,0,0,0-.259.029,43.422,43.422,0,0,1-7.509.748A11.5,11.5,0,0,1,41.4-1.711c-.892-.316-1.9-1.036-1.9-2.072a3.623,3.623,0,0,1,1.41-2.589,29.249,29.249,0,0,1,5.179-3.4,52.91,52.91,0,0,1,7.106-3.309c.23-.086.547-.173.547-.46a5.753,5.753,0,0,0-.834-1.755c-.173-.288-.662-1.151-1.036-1.151a1.84,1.84,0,0,0-.748.288c-.748.489-5.351,3.194-5.869,3.194-.489,0-.575-.489-.662-.863a39.345,39.345,0,0,1-.892-5.15c-.058-.662,0-1.093-.806-1.093a10.682,10.682,0,0,0-1.381.144C40.59-19.779,39.641-19.779,39.641-19.348ZM81.1-6.832c1.007,0,2.014.086,3.021.086.6,0,.6-.288.6-1.208,0-.892,0-1.208-.6-1.208-1.007,0-2.014.058-3.021.058h-9.61c-1.007,0-2.014-.058-3.021-.058-.6,0-.6.23-.6,1.208,0,.949,0,1.208.6,1.208,1.007,0,2.014-.086,3.021-.086Zm.058-3.855c1.007,0,2.014.058,3.021.058.6,0,.575-.288.575-1.208s.029-1.208-.575-1.208c-1.007,0-2.014.058-3.021.058H71.519c-1.036,0-2.043-.058-3.05-.058-.575,0-.575.259-.575,1.208s0,1.208.575,1.208c1.007,0,2.014-.058,3.05-.058Zm3.913-3.884c1.007,0,2.014.058,3.05.058.633,0,.6-.316.6-1.266,0-.921.029-1.237-.6-1.237-1.007,0-2.043.058-3.05.058H67.722c-1.007,0-2.014-.058-3.05-.058-.6,0-.6.259-.6,1.237s0,1.266.6,1.266c1.036,0,2.043-.058,3.05-.058Zm-3.654-3.942c.949,0,1.87.058,2.82.058.6,0,.6-.259.6-1.237s0-1.237-.6-1.237c-.949,0-1.87.058-2.82.058H71.289c-.949,0-1.87-.058-2.82-.058-.6,0-.6.259-.6,1.237,0,.949.029,1.237.6,1.237.949,0,1.87-.058,2.82-.058ZM71.117.246a.8.8,0,0,1-.806-.806V-1.941c.058-.489.288-.777.806-.777H81.561a.763.763,0,0,1,.806.777V-.56a.823.823,0,0,1-.806.806ZM82.309,3.152c-.029.806.288.777,1.525.777,1.151,0,1.525.029,1.525-.662S85.3,1.886,85.3,1.2V-2.171c0-.6.058-1.208.058-1.841,0-.978-.691-1.122-1.5-1.122s-1.611.029-2.417.029H71.232c-.806,0-1.611-.029-2.417-.029-.834,0-1.5.173-1.5,1.122,0,.633.058,1.237.058,1.841V1.2c0,.691-.086,1.352-.086,2.043,0,.719.4.691,1.525.691,1.237,0,1.525.029,1.554-.777a.458.458,0,0,1,.518-.518h10.9C82.136,2.634,82.28,2.806,82.309,3.152ZM96.09-15.78a12.888,12.888,0,0,0,.316,2.072c.086.316.23.949.633.949a2.221,2.221,0,0,0,.432-.058c1.841-.489,4.431-.892,6.358-1.18.288-.029,1.611-.259,1.813-.259s.432.086.432.345c0,.144-.173.345-.489.691a12.779,12.779,0,0,0-3.165,8.257c0,5.61,4.2,7.164,9.092,7.164.489,0,.719-.058.921-.489a8.143,8.143,0,0,0,.432-2.359c0-.46-.23-.489-.662-.489-.316,0-.949.029-1.439.029-2.935,0-5.064-.806-5.064-4.143a10.772,10.772,0,0,1,1.381-5.064,8.743,8.743,0,0,1,4.891-4.287,14.252,14.252,0,0,1,4.776-.6c.691-.029,1.295.029,1.295-.6a13.09,13.09,0,0,0-.259-2.1c-.058-.345-.115-.719-.547-.719a1.641,1.641,0,0,0-.374.029c-2.158.345-4.344.633-6.531.892-4.172.489-8.372.921-12.573,1.18C96.493-16.442,96.09-16.528,96.09-15.78Zm21.751,1.669c-.345,0-1.467.748-1.467,1.093a.687.687,0,0,0,.2.374,24.343,24.343,0,0,1,1.87,2.388c.115.144.23.374.432.374.345,0,1.467-.806,1.467-1.208A11.692,11.692,0,0,0,117.841-14.111Zm-3.481,1.582c-.316,0-1.467.719-1.467,1.065,0,.144.173.316.259.4.633.777,1.266,1.582,1.841,2.417.115.144.2.345.4.345.316,0,1.467-.777,1.467-1.208A11.143,11.143,0,0,0,114.36-12.529Zm28.886,5.7c1.007,0,2.014.086,3.021.086.6,0,.6-.288.6-1.208,0-.892,0-1.208-.6-1.208-1.007,0-2.014.058-3.021.058h-9.61c-1.007,0-2.014-.058-3.021-.058-.6,0-.6.23-.6,1.208,0,.949,0,1.208.6,1.208,1.007,0,2.014-.086,3.021-.086Zm.058-3.855c1.007,0,2.014.058,3.021.058.6,0,.575-.288.575-1.208s.029-1.208-.575-1.208c-1.007,0-2.014.058-3.021.058h-9.638c-1.036,0-2.043-.058-3.05-.058-.575,0-.575.259-.575,1.208s0,1.208.575,1.208c1.007,0,2.014-.058,3.05-.058Zm3.913-3.884c1.007,0,2.014.058,3.05.058.633,0,.6-.316.6-1.266,0-.921.029-1.237-.6-1.237-1.007,0-2.043.058-3.05.058H129.867c-1.007,0-2.014-.058-3.05-.058-.6,0-.6.259-.6,1.237s0,1.266.6,1.266c1.036,0,2.043-.058,3.05-.058Zm-3.654-3.942c.949,0,1.87.058,2.82.058.6,0,.6-.259.6-1.237s0-1.237-.6-1.237c-.949,0-1.87.058-2.82.058H133.435c-.949,0-1.87-.058-2.82-.058-.6,0-.6.259-.6,1.237,0,.949.029,1.237.6,1.237.949,0,1.87-.058,2.82-.058ZM133.262.246a.8.8,0,0,1-.806-.806V-1.941c.058-.489.288-.777.806-.777h10.444a.763.763,0,0,1,.806.777V-.56a.823.823,0,0,1-.806.806Zm11.192,2.906c-.029.806.288.777,1.525.777,1.151,0,1.525.029,1.525-.662s-.058-1.381-.058-2.072V-2.171c0-.6.058-1.208.058-1.841,0-.978-.691-1.122-1.5-1.122s-1.611.029-2.417.029H133.378c-.806,0-1.611-.029-2.417-.029-.834,0-1.5.173-1.5,1.122,0,.633.058,1.237.058,1.841V1.2c0,.691-.086,1.352-.086,2.043,0,.719.4.691,1.525.691,1.237,0,1.525.029,1.554-.777a.458.458,0,0,1,.518-.518h10.9C144.282,2.634,144.426,2.806,144.454,3.152ZM164.566-18.11c0,.46.633.6,1.841.921a60.821,60.821,0,0,0,6.617,1.295c.46,0,.633-.288.777-.863a12.4,12.4,0,0,0,.288-1.755c0-.432-.316-.432-.719-.46a30.1,30.1,0,0,1-7.193-1.439,1.01,1.01,0,0,0-.46-.173c-.345,0-.46.288-.575.547A6.741,6.741,0,0,0,164.566-18.11Zm5.467,3.6a16.521,16.521,0,0,0-7.682,2.33c-.345.173-.863.432-.863.892,0,.662.921,2.733,1.611,2.733a1.3,1.3,0,0,0,.6-.288,9.585,9.585,0,0,1,6.157-2.7,3.709,3.709,0,0,1,4,3.97c0,4-4.258,7.135-7.711,8.229-.259.086-.575.2-.575.489,0,.46,1.18,2.417,2.043,2.417A8.477,8.477,0,0,0,170.09,2.49c3.654-2.215,6.991-5.783,6.991-10.3C177.081-12.04,174.118-14.514,170.032-14.514Zm24.973-4.834a1.518,1.518,0,0,0,.086.345,18.282,18.282,0,0,1,.547,1.9c.288,1.18,1.093,4.229,1.439,5.265a.985.985,0,0,1,.115.518.893.893,0,0,1-.489.748c-2.388,1.554-4.977,3.6-4.977,6.732A5.064,5.064,0,0,0,194.373.591a10.784,10.784,0,0,0,5.9,1.237,68.9,68.9,0,0,0,7.912-.46c.575-.144.6-.46.6-1.208V-.186c0-.6-.029-1.784-.432-1.784a.8.8,0,0,0-.259.029,43.421,43.421,0,0,1-7.509.748,11.5,11.5,0,0,1-3.827-.518c-.892-.316-1.9-1.036-1.9-2.072a3.623,3.623,0,0,1,1.41-2.589,29.249,29.249,0,0,1,5.179-3.4,52.91,52.91,0,0,1,7.106-3.309c.23-.086.547-.173.547-.46a5.752,5.752,0,0,0-.834-1.755c-.173-.288-.662-1.151-1.036-1.151a1.84,1.84,0,0,0-.748.288c-.748.489-5.351,3.194-5.869,3.194-.489,0-.575-.489-.662-.863a39.34,39.34,0,0,1-.892-5.15c-.058-.662,0-1.093-.806-1.093a10.682,10.682,0,0,0-1.381.144C195.955-19.779,195.005-19.779,195.005-19.348Zm24.8,17.378c0,.259.316.432.518.547A17.72,17.72,0,0,1,224.7,2.49c.144.173.345.432.575.432.662,0,2.1-1.582,2.1-2.215,0-.719-4.949-4.69-5.61-4.69A3.929,3.929,0,0,0,219.806-1.97ZM16.307,29.238a.6.6,0,0,1-.691-.633v-.144l.23-1.813c.086-.575.316-.777.892-.777h2.388c.748,0,1.007.029,1.007.834,0,.288-.115,1.41-.144,1.784-.058.547-.316.748-.863.748Zm-7.02,0c-.4,0-.719-.173-.719-.633,0-.173.115-.806.173-1.18.2-1.525.23-1.554,1.122-1.554h2.618c.4,0,.719.173.719.6,0,.058-.029.144-.029.2l-.23,1.784c-.086.575-.316.719-.892.777Zm6.243,6.071c-.4,0-.719-.173-.719-.6v-.144l.259-2.014c.086-.575.345-.748.892-.748H18.9c.4,0,.719.173.719.633v.115l-.259,2.014c-.086.575-.345.748-.921.748ZM7.993,32.518a.8.8,0,0,1,.921-.719H11.7c.4,0,.719.144.719.6v.144l-.259,2.014c-.086.575-.345.748-.921.748H8.367c-.345,0-.691-.144-.691-.575v-.173C7.791,33.87,7.906,33.209,7.993,32.518Zm13.494,6.1a.817.817,0,0,1,.921-.719c.921,0,1.956.058,2.848.058.662,0,.662-.345.662-1.352,0-1.036,0-1.352-.662-1.352-.806,0-1.582.029-2.388.058-.374-.029-.662-.2-.662-.6v-.144c.086-.691.173-1.352.259-2.014A.734.734,0,0,1,23.3,31.8c1.007,0,1.985.058,2.992.058.662,0,.633-.345.633-1.352s.029-1.352-.633-1.352c-.921,0-1.841.058-2.762.086-.489-.058-.691-.259-.691-.748.086-.806.23-2.7.23-3.481,0-1.381-.374-1.669-1.726-1.669-.662,0-1.323.058-1.985.058H9.892c-.662,0-1.352-.058-2.043-.058-1.295,0-1.525.4-1.611,1.381-.144,1.266-.259,2.5-.4,3.769-.115.518-.316.748-.863.748-.921.029-1.841-.086-2.791-.086-.662,0-.633.374-.633,1.352s-.029,1.352.633,1.352c.719,0,1.669-.029,2.388-.058.345.029.633.173.633.575v.173c-.259,1.41-.46,2.791-.748,4.172-.058.2-.4,1.755-.4,1.87,0,.633,1.87.834,2.273.834.518,0,.547-.259.662-.806.173-.547.374-.719.949-.719H18c.259,0,.575.086.575.4a.511.511,0,0,1-.115.288,2.337,2.337,0,0,1-1.9.575h-.575c-.777,0-1.669-.086-1.956-.086-.518,0-.575.46-.575.892,0,1.813.748,1.669,2.129,1.669C19.07,41.639,20.623,41.61,21.486,38.618Zm.662-17.435c1.093,0,2.187.058,3.309.058.691,0,.691-.288.691-1.352,0-1.093.029-1.381-.691-1.381-1.122,0-2.215.058-3.309.058H9.949c-.259-.029-.489-.115-.489-.4a.4.4,0,0,1,.086-.259c.23-.374.288-.547.719-.662.173-.058.432-.144.432-.4,0-.288-.432-.374-.633-.46a23.165,23.165,0,0,0-2.273-.633c-.23,0-.288.144-.374.345a30.826,30.826,0,0,1-5.38,7.25c-.23.23-.633.518-.633.806,0,.46,1.323,1.41,1.813,1.41a.983.983,0,0,0,.691-.374,38.328,38.328,0,0,0,3.021-3.424,1.181,1.181,0,0,1,1.237-.575ZM40.159,30.59a.823.823,0,0,1,.806-.806h8.66a.823.823,0,0,1,.806.806v5.064a.823.823,0,0,1-.806.806h-8.66a.823.823,0,0,1-.806-.806Zm.806-3.539a.823.823,0,0,1-.806-.806v-4.6a.823.823,0,0,1,.806-.806h8.66a.823.823,0,0,1,.806.806v4.6a.823.823,0,0,1-.806.806ZM50.373,39.97a.8.8,0,0,0-.029.259c0,.777.345.777,1.64.777s1.64.029,1.64-.777c0-1.208-.086-2.388-.086-3.6V22.218c0-.921.058-1.841.058-2.762,0-1.18-.489-1.467-1.582-1.467-.834,0-1.669.058-2.5.058h-8.4c-.863,0-1.7-.058-2.532-.058-1.122,0-1.582.345-1.582,1.5,0,.921.058,1.813.058,2.733V36.69c0,1.18-.086,2.388-.086,3.6,0,.777.4.777,1.64.777,1.352,0,1.64,0,1.64-.806V39.97c0-.46.2-.662.662-.662h8.775C50.142,39.308,50.344,39.509,50.373,39.97Zm29.462-10.5a.642.642,0,0,1,.691.662v.316a.665.665,0,0,1-.691.691H72.555a.665.665,0,0,1-.691-.691V30.13a.642.642,0,0,1,.691-.662Zm-7.279-1.928a.665.665,0,0,1-.691-.691v-.23a.665.665,0,0,1,.691-.691h7.279a.665.665,0,0,1,.691.691v.23a.665.665,0,0,1-.691.691Zm4.373-8a34.682,34.682,0,0,0,4.4,3.827.256.256,0,0,1,.144.23c0,.144-.144.2-.288.23-.575,0-1.151.029-1.755.029h-.978c-.518,0-.748-.2-.777-.748a.885.885,0,0,1,.316-.719c.2-.173.345-.23.345-.432,0-.345-.46-.374-.719-.4-.432-.058-1.9-.2-2.273-.2-.288,0-.46.086-.46.4a1.77,1.77,0,0,0,.029.374c.029.345.058.806.086.978-.029.547-.259.748-.806.748H73.044c-.46,0-.892,0-1.352-.029-.2-.029-.288-.115-.288-.23s.058-.173.144-.259a42.172,42.172,0,0,0,4.344-3.827.753.753,0,0,1,.518-.259A.729.729,0,0,1,76.928,19.542Zm2.5,13.7c.834,0,1.669.058,2.532.058.949,0,1.439-.23,1.439-1.266,0-.777-.029-1.525-.029-2.273v-2.33c0-.633.029-1.266.029-1.9.029-.23.115-.432.4-.432a.464.464,0,0,1,.259.086,22.131,22.131,0,0,0,3.855,1.956c.691,0,1.439-1.64,1.439-2.244,0-.345-.23-.432-.662-.6-3.539-1.554-7.567-3.913-10.127-6.819a.549.549,0,0,1-.086-.23c0-.086.086-.144.144-.173a.437.437,0,0,0,.288-.374c0-.288-.316-.432-.547-.489-.46-.115-2.388-.633-2.733-.633-.316,0-.4.2-.691.6C72.5,19.859,68.1,22.621,64.125,24.462c-.259.115-.575.288-.575.6,0,.518.921,2.043,1.726,2.043a13.387,13.387,0,0,0,3.136-1.582.464.464,0,0,1,.259-.086c.288,0,.374.2.4.432.029.518.029,1.036.029,1.554V37.38a.766.766,0,0,1-.748.892,13.636,13.636,0,0,1-1.525.173c-1.266.144-1.5.144-1.5.518a15.341,15.341,0,0,0,.547,1.928c.259.777.316.978.633.978a.376.376,0,0,0,.4-.288c.144-.316.23-.374.949-.489,2.906-.489,5.783-.978,8.66-1.726.691-.173.892-.259.892-1.18v-.374c0-.892-.173-1.122-.518-1.122-.173,0-3.654.777-4.287.921H72.44c-.432,0-.575-.316-.575-.662V34.043c0-.575.23-.806.806-.806h1.64a1.066,1.066,0,0,1,1.122.662,16.369,16.369,0,0,0,7.308,6.215,18.569,18.569,0,0,0,4.8,1.5c.834,0,1.381-1.467,1.381-2.158,0-.575-.432-.575-.921-.662a19.429,19.429,0,0,1-4.4-1.323.4.4,0,0,1-.288-.345.415.415,0,0,1,.23-.374c.863-.547,1.64-1.093,2.5-1.64.115-.058.173-.144.316-.144a4.292,4.292,0,0,0,.547.115.294.294,0,0,0,.259-.316,6.445,6.445,0,0,0-2.5-2.129c-.144,0-.374.23-.489.345a33.885,33.885,0,0,1-2.935,2.446,1.3,1.3,0,0,1-.633.23,1.029,1.029,0,0,1-.6-.259,10.684,10.684,0,0,1-1.669-1.554.352.352,0,0,1-.086-.259c0-.259.2-.316.4-.345Zm36.885-13.7c-.316,0-1.381.921-1.381,1.237,0,.144.144.259.259.345.691.633,1.582,1.554,2.187,2.244.086.115.23.288.374.288.374,0,1.352-.949,1.352-1.352A11.062,11.062,0,0,0,116.316,19.542ZM113.094,21.5c-.259,0-1.352.892-1.352,1.237a.473.473,0,0,0,.23.345c.633.6,1.208,1.208,1.64,1.669.489.518.806.863.921.863.374,0,1.381-.921,1.381-1.323A10.831,10.831,0,0,0,113.094,21.5Zm-7.6,1.352c-1.554,0-2.877,1.381-3.97,2.33A28.085,28.085,0,0,1,96.9,28.634c-.23.115-.892.4-.892.691,0,.489,1.841,2.877,2.388,2.877.259,0,.518-.316.691-.489,1.007-1.093,2.5-2.388,3.654-3.4.633-.575,1.956-1.956,2.733-1.956.6,0,1.237.748,2.158,1.813a43.569,43.569,0,0,0,7.365,7.193,8.672,8.672,0,0,0,2.273,1.295c.777,0,2.129-2.158,2.129-2.7,0-.316-.316-.46-.575-.575-3.625-1.784-6.5-4.661-9.12-7.682C108.606,24.433,107.368,22.851,105.5,22.851Zm27.016-.777c-.46,0-.489.432-.489,1.266,0,.2-.029.4-.029.633a45.954,45.954,0,0,1-.691,6.272c-.173.949-.4,1.9-.662,2.82a4.419,4.419,0,0,0-.288,1.007c0,.834,1.928,1.122,2.187,1.122.4,0,.633-.316.863-.6,1.813-2.273,4.862-4.8,7.883-4.8,1.841,0,3.453,1.065,3.453,3.05,0,2.446-2.129,3.337-4.172,3.855a19.22,19.22,0,0,1-3.827.575c-.374.029-.719.058-.719.518a5.987,5.987,0,0,0,.489,1.87c.259.547.432.806,1.065.806a19.232,19.232,0,0,0,3.74-.777c3.481-1.036,6.531-2.762,6.531-6.848,0-3.625-2.733-5.984-6.272-5.984-2.733,0-4.46,1.151-6.589,2.647a.642.642,0,0,1-.374.173c-.2,0-.288-.173-.288-.345a4.366,4.366,0,0,1,.086-.6c.288-1.323.46-2.676.691-4,.115-.575.144-.834.6-1.122.115-.058.259-.144.259-.316,0-.23-.316-.316-.518-.4A20.428,20.428,0,0,0,132.514,22.074Zm1.841-3.309c0,.316.374.46.662.633a23.549,23.549,0,0,1,3.625,2.446c.23.173.6.575.921.575.6,0,1.784-1.755,1.784-2.273,0-.489-1.669-1.41-2.1-1.669a19.9,19.9,0,0,0-3.28-1.813C135.276,16.665,134.356,18.391,134.356,18.765Zm30.728-2.129c-.316,0-.46.086-.46.4,0,.2.029.547.029.892,0,1.266-.115,2.992-.115,3.769a1.866,1.866,0,0,1-.144.863c-.345.691-4,1.323-4.862,1.439-.345.058-.949.058-.949.518a8.5,8.5,0,0,0,.6,1.956c.144.374.374.806.834.806A19.886,19.886,0,0,0,163.5,26.1a1.747,1.747,0,0,1,.518-.144c.259,0,.374.2.374.432s-.058.489-.058.748a2.7,2.7,0,0,1-.345,1.352c-1.323,2.388-2.676,4.747-4.229,7.02a3.073,3.073,0,0,0-.575,1.036c0,.489,1.669,1.9,2.158,1.9.173,0,.288-.173.374-.345.288-.547,1.18-2.1,1.5-2.618.288-.432.489-.863.69-.863s.259.23.259.374c0,1.295-.173,4.488-.173,4.747,0,.575.518.575,1.208.575,2.129,0,2.1-.288,2.1-.489,0-.316-.086-1.87-.144-3.05-.029-.489-.086-1.352-.086-1.525,0-.662-.115-4.172,0-4.546a9.611,9.611,0,0,1,1.611-1.841,28.962,28.962,0,0,1,3.136-2.791,4.321,4.321,0,0,1,2.244-1.151c.863,0,.863,1.007.863,1.64,0,2.589-.374,5.208-.374,7.8,0,1.813.23,4.6,2.647,4.6a7.444,7.444,0,0,0,4.057-1.669c.316-.23,1.381-.978,1.381-1.381,0-.46-.834-2.618-1.323-2.618a.824.824,0,0,0-.547.316c-.518.575-1.755,1.813-2.532,1.813-.662,0-.633-1.007-.633-1.7,0-1.208.086-2.5.144-3.74.086-1.467.144-2.963.144-4.46a5.233,5.233,0,0,0-.518-2.733,3.107,3.107,0,0,0-2.474-1.266,6.778,6.778,0,0,0-4.172,2.043c-.691.575-1.841,1.611-2.446,2.244-.058.058-.144.144-.23.144-.173,0-.23-.144-.23-.288a2.238,2.238,0,0,1,.058-.46c.086-.2.633-1.208.777-1.41.058-.086.173-.2.173-.316a2.062,2.062,0,0,0-.978-1.323c-.259-.086-.46-.173-.46-.489,0-.4.2-1.813.259-2.3.173-1.18.144-1.266.518-1.582a.644.644,0,0,0,.23-.432c0-.173-.173-.259-.316-.316C167.788,16.953,165.4,16.636,165.083,16.636ZM200.961,36.69c0,.46-.23.978-.777.978-.863,0-2.244-.489-2.244-1.525a1.192,1.192,0,0,1,1.237-1.151A1.758,1.758,0,0,1,200.961,36.69Zm2.676-18.644a3.925,3.925,0,0,0-1.093.316,26.664,26.664,0,0,1-7.279,1.065h-.691c-.863,0-.892.058-.892.719,0,.489.086,2.647.719,2.647.46,0,4.517-.834,5.208-1.007a6.9,6.9,0,0,1,.691-.115c.23,0,.489.086.489.345,0,.288-.518.806-.748,1.036a115.292,115.292,0,0,1-8.948,9.034c-.259.2-.691.518-.691.863,0,.46,1.467,2.072,2.072,2.072a.39.39,0,0,0,.316-.2c1.036-1.18,2.072-2.359,3.194-3.453a8.734,8.734,0,0,1,6.445-2.82c2.5,0,4.862,1.151,4.862,3.942a4.676,4.676,0,0,1-3.481,4.431c-.23,0-.316-.173-.345-.374a2.861,2.861,0,0,0-.518-1.841,4.693,4.693,0,0,0-3.827-2.043,3.613,3.613,0,0,0-3.683,3.481c0,2.935,3.4,3.913,5.783,3.913,4.632,0,9.149-2.647,9.149-7.739a5.946,5.946,0,0,0-3.424-5.582,8.438,8.438,0,0,0-3.539-.863,5.467,5.467,0,0,0-1.18.115,1.684,1.684,0,0,1-.374.058c-.259,0-.489-.144-.489-.374a.86.86,0,0,1,.288-.489,27.863,27.863,0,0,1,4.172-3.855c.316-.23.633-.4.633-.6C206.456,20.233,204.788,18.046,203.637,18.046ZM10.726,57.857c-1.266,0-2.5-.058-3.74-.058-.719,0-.691.432-.691,1.439,0,1.323-.058,1.755.719,1.755,1.237,0,2.474-.058,3.711-.058h5.956c.432,0,.834.058.834.489a2.842,2.842,0,0,1-.489.978,28.525,28.525,0,0,1-12.832,10.9c-.259.086-.6.23-.6.575,0,.518,1.323,2.446,1.928,2.446a4.819,4.819,0,0,0,1.266-.547,32.028,32.028,0,0,0,7.193-5.035,1.379,1.379,0,0,1,.863-.489,1.014,1.014,0,0,1,.662.259,30.6,30.6,0,0,1,6.358,5.7.962.962,0,0,0,.719.432c.6,0,2.187-1.7,2.187-2.3a.55.55,0,0,0-.2-.4c-.662-.691-1.381-1.352-2.072-1.956a46.2,46.2,0,0,0-4.862-3.711.769.769,0,0,1-.432-.691.786.786,0,0,1,.23-.547,41.709,41.709,0,0,0,3.74-5.467c.115-.2.288-.489.46-.748a5.569,5.569,0,0,0,.633-1.122c0-.374-1.237-1.956-1.841-1.956-.173,0-.46.058-.633.058a7.736,7.736,0,0,1-1.237.058Zm44.739-.173a1.554,1.554,0,1,1-1.554,1.554A1.547,1.547,0,0,1,55.465,57.684Zm0-1.323a2.863,2.863,0,1,0,2.848,2.877A2.861,2.861,0,0,0,55.465,56.361Zm-5.208,4.373c-.432,0-2.158,1.151-2.158,1.669a.889.889,0,0,0,.316.575A41.508,41.508,0,0,1,54.055,72.3c.115.259.23.518.575.518.489,0,2.7-1.007,2.7-1.726,0-1.093-3.8-6.7-4.632-7.826a20.26,20.26,0,0,0-1.928-2.33A.693.693,0,0,0,50.258,60.734Zm-9.782-.575c-.259,0-.4.46-.489.662a32.611,32.611,0,0,1-7.452,10.444.582.582,0,0,0-.23.4c0,.6,2.014,1.784,2.446,1.784.489,0,1.381-1.036,1.7-1.41a44.618,44.618,0,0,0,6.3-9.034,1.2,1.2,0,0,1,.489-.575c.173-.086.46-.2.46-.4,0-.316-1.237-.949-1.525-1.093A8.026,8.026,0,0,0,40.475,60.158Zm38.266,2.877a1.533,1.533,0,0,1,.662-1.295,56.067,56.067,0,0,0,3.942-4.316,1.556,1.556,0,0,1,1.122-.691c.144-.058.288-.115.288-.288,0-.345-.806-.834-1.122-1.036a10.621,10.621,0,0,0-1.956-1.18c-.2,0-.374.288-.46.432A24.386,24.386,0,0,1,77.3,59.525,41.384,41.384,0,0,1,66,67.15c-.2.086-.46.2-.46.489a4.844,4.844,0,0,0,2.244,2.3c.748,0,5.323-3.05,6.186-3.683.23-.173.834-.662,1.122-.662.547,0,.46.633.46.806v7.826c0,1.237-.058,2.474-.058,3.711,0,.748.288.834,1.87.834,1.065,0,1.439-.086,1.439-.863,0-1.237-.058-2.5-.058-3.769Zm25.2-5.179c-1.266,0-2.5-.058-3.74-.058-.719,0-.691.432-.691,1.439,0,1.323-.058,1.755.719,1.755,1.237,0,2.474-.058,3.711-.058H109.9c.432,0,.834.058.834.489a2.842,2.842,0,0,1-.489.978,28.525,28.525,0,0,1-12.832,10.9c-.259.086-.6.23-.6.575,0,.518,1.323,2.446,1.928,2.446A4.819,4.819,0,0,0,100,75.781a32.028,32.028,0,0,0,7.193-5.035,1.379,1.379,0,0,1,.863-.489,1.014,1.014,0,0,1,.662.259,30.6,30.6,0,0,1,6.358,5.7.962.962,0,0,0,.719.432c.6,0,2.187-1.7,2.187-2.3a.55.55,0,0,0-.2-.4c-.662-.691-1.381-1.352-2.072-1.956a46.2,46.2,0,0,0-4.862-3.711.769.769,0,0,1-.432-.691.786.786,0,0,1,.23-.547,41.709,41.709,0,0,0,3.74-5.467c.115-.2.288-.489.46-.748a5.569,5.569,0,0,0,.633-1.122c0-.374-1.237-1.956-1.841-1.956-.173,0-.46.058-.633.058a7.736,7.736,0,0,1-1.237.058Zm27.563,2.5c-.949,0-1.928-.029-2.877-.029-.633,0-.691.259-.691,1.5,0,1.122.086,1.582.719,1.582.374,0,2.1-.115,2.877-.115l4.057-.029a.59.59,0,0,1,.6.6,15.241,15.241,0,0,1-.748,2.762,19.869,19.869,0,0,1-6.243,8.689c-.173.144-.4.288-.4.518,0,.518,1.64,1.87,2.187,1.87.518,0,2.244-1.813,2.647-2.244a23.937,23.937,0,0,0,5.639-11.192c.086-.432.2-1.036.921-1.036l2.906-.029c1.295,0,1.7-.058,1.7.719a51.627,51.627,0,0,1-.863,6.876c-.432,2.043-1.036,2.82-2.733,2.82-.691,0-1.352-.115-1.64-.115a.47.47,0,0,0-.518.518,6.132,6.132,0,0,0,.748,2.014.909.909,0,0,0,1.007.575,11.1,11.1,0,0,0,1.669-.115c1.784-.259,2.963-.806,3.74-2.5.892-1.956,1.323-5.956,1.611-8.171.058-.547.46-3.74.46-4.028a2.3,2.3,0,0,0-1.64-1.669c-.029,0-2.33.115-3.165.115l-2.762.029a.642.642,0,0,1-.691-.662c0-.288.173-2.014.23-2.417.086-.892.058-.921.4-1.237.115-.115.316-.316.316-.489,0-.2-.259-.288-.432-.316-.288-.086-2.82-.575-2.992-.575-.4,0-.374.374-.374.662-.029.691-.173,3.769-.23,4.344a.891.891,0,0,1-.863.748Zm33.921-.345c0-.46,0-.921.029-1.352a1.105,1.105,0,0,1,.259-.892c.115-.115.259-.2.259-.374,0-.288-.345-.316-.6-.374-.432-.115-1.87-.345-2.33-.4a6.072,6.072,0,0,0-.6-.086.309.309,0,0,0-.316.345c0,.144.058.748.086.949.029.489.029,1.122.029,1.755v11.71c0,1.065-.058,2.129-.058,3.107,0,.489.029.748.374,1.007a10.1,10.1,0,0,0,2.273,1.065,1.724,1.724,0,0,0,.719-.288,10.725,10.725,0,0,1,1.007-.46,51.515,51.515,0,0,0,12.659-7.481c.691-.575,1.381-1.151,2.014-1.784a.832.832,0,0,0,.316-.518c0-.575-.978-2.474-1.439-2.474-.259,0-.518.288-.691.46a39.908,39.908,0,0,1-11.048,7.567,12.449,12.449,0,0,1-2.359.921c-.518,0-.575-.46-.575-1.18ZM194.344,64.5c-1.208,0-3.194-.086-3.568-.086-.748,0-.806.23-.806,1.841,0,.892.029,1.439.777,1.439,1.208,0,2.417-.058,3.6-.058h13.235c1.18,0,2.388.058,3.6.058.748,0,.777-.547.777-1.467,0-1.582-.029-1.813-.806-1.813-.374,0-2.244.086-3.568.086Zm38.179,6.7c.719,0,.863-.144.892-.863l.173-7.106c.058-1.9.259-5.754.259-6.33,0-.489-.173-.6-.806-.6h-2.014c-.633,0-.806.115-.806.6,0,.575.2,4.431.259,6.157l.2,7.279c.029.719.173.863.892.863Zm-.374,2.244a2.151,2.151,0,0,0-2.215,2.3,1.867,1.867,0,0,0,1.985,1.9,2.12,2.12,0,0,0,2.244-2.215A1.927,1.927,0,0,0,232.149,73.451Z" transform="translate(-1.404 20.93)"/></svg>