<svg xmlns="http://www.w3.org/2000/svg" width="548.1" height="78.625" viewBox="0 0 548.1 78.625"><defs><style>.a{fill:#1a1a1a;}</style></defs><path class="a" d="M14.98-26.215c-.455,0-.665.49-.875.84a4.985,4.985,0,0,1-2.625,2.45A19.152,19.152,0,0,1,6.02-21.84c-.735.07-1.05.1-1.05.56a9.569,9.569,0,0,0,.91,2.835c.14.28.35.735.735.735a8.036,8.036,0,0,0,1.61-.56,6.723,6.723,0,0,1,1.155-.42.234.234,0,0,1,.245.21.865.865,0,0,1-.14.315c-1.855,3.22-3.15,6.23-3.15,9.975,0,5.075,3.255,8.61,8.4,8.61a10.394,10.394,0,0,0,9.38-5.74,19.488,19.488,0,0,0,1.645-8.12c0-.525-.07-1.05-.07-1.61,0-.175,0-.455.245-.455.28,0,.77,1.12.875,1.4.245.49.875,1.89,1.47,1.89.455,0,2.835-1.12,2.835-1.89,0-.385-.385-.805-.63-1.085a23.78,23.78,0,0,1-5.11-10.185c-.1-.665-.14-1.19-.98-1.19-.665,0-3.22.455-3.22,1.225a1.235,1.235,0,0,0,.1.49A22.4,22.4,0,0,1,22.82-16c0,3.15-.35,7.315-2.275,9.905A7.41,7.41,0,0,1,14.63-3.115c-3.325,0-4.76-2.275-4.76-5.39a16.39,16.39,0,0,1,2.555-8.33,24.591,24.591,0,0,1,4.515-5.7c.28-.245,1.015-.805,1.015-1.19C17.955-24.5,15.89-26.215,14.98-26.215ZM48.4-26.25a1.846,1.846,0,0,0,.105.42,22.244,22.244,0,0,1,.665,2.31c.35,1.435,1.33,5.145,1.75,6.405a1.2,1.2,0,0,1,.14.63,1.086,1.086,0,0,1-.595.91c-2.905,1.89-6.055,4.375-6.055,8.19A6.161,6.161,0,0,0,47.635-2C49.945-.63,52.22-.49,54.81-.49a83.816,83.816,0,0,0,9.625-.56c.7-.175.735-.56.735-1.47v-.42c0-.735-.035-2.17-.525-2.17a.969.969,0,0,0-.315.035,52.822,52.822,0,0,1-9.135.91A13.987,13.987,0,0,1,50.54-4.8c-1.085-.385-2.31-1.26-2.31-2.52a4.408,4.408,0,0,1,1.715-3.15,35.581,35.581,0,0,1,6.3-4.13A64.366,64.366,0,0,1,64.89-18.62c.28-.1.665-.21.665-.56a7,7,0,0,0-1.015-2.135c-.21-.35-.805-1.4-1.26-1.4a2.239,2.239,0,0,0-.91.35c-.91.6-6.51,3.885-7.14,3.885-.595,0-.7-.6-.805-1.05A47.862,47.862,0,0,1,53.34-25.8c-.07-.805,0-1.33-.98-1.33a13,13,0,0,0-1.68.175C49.56-26.775,48.4-26.775,48.4-26.25ZM98.84-11.025c1.225,0,2.45.105,3.675.105.735,0,.735-.35.735-1.47,0-1.085,0-1.47-.735-1.47-1.225,0-2.45.07-3.675.07H87.15c-1.225,0-2.45-.07-3.675-.07-.735,0-.735.28-.735,1.47,0,1.155,0,1.47.735,1.47,1.225,0,2.45-.105,3.675-.105Zm.07-4.69c1.225,0,2.45.07,3.675.07.735,0,.7-.35.7-1.47s.035-1.47-.7-1.47c-1.225,0-2.45.07-3.675.07H87.185c-1.26,0-2.485-.07-3.71-.07-.7,0-.7.315-.7,1.47s0,1.47.7,1.47c1.225,0,2.45-.07,3.71-.07Zm4.76-4.725c1.225,0,2.45.07,3.71.07.77,0,.735-.385.735-1.54,0-1.12.035-1.5-.735-1.5-1.225,0-2.485.07-3.71.07h-21.1c-1.225,0-2.45-.07-3.71-.07-.735,0-.735.315-.735,1.5s0,1.54.735,1.54c1.26,0,2.485-.07,3.71-.07Zm-4.445-4.795c1.155,0,2.275.07,3.43.07.735,0,.735-.315.735-1.5s0-1.505-.735-1.505c-1.155,0-2.275.07-3.43.07H86.9c-1.155,0-2.275-.07-3.43-.07-.735,0-.735.315-.735,1.505,0,1.155.035,1.5.735,1.5,1.155,0,2.275-.07,3.43-.07ZM86.695-2.415a.978.978,0,0,1-.98-.98v-1.68c.07-.595.35-.945.98-.945H99.4a.928.928,0,0,1,.98.945v1.68a1,1,0,0,1-.98.98ZM100.31,1.12c-.035.98.35.945,1.855.945,1.4,0,1.855.035,1.855-.8s-.07-1.68-.07-2.52v-4.1c0-.735.07-1.47.07-2.24,0-1.19-.84-1.365-1.82-1.365s-1.96.035-2.94.035H86.835c-.98,0-1.96-.035-2.94-.035-1.015,0-1.82.21-1.82,1.365,0,.77.07,1.505.07,2.24v4.1c0,.84-.1,1.645-.1,2.485,0,.875.49.84,1.855.84,1.505,0,1.855.035,1.89-.945a.557.557,0,0,1,.63-.63H99.68C100.1.49,100.275.7,100.31,1.12Zm16.765-23.03a15.678,15.678,0,0,0,.385,2.52c.105.385.28,1.155.77,1.155a2.7,2.7,0,0,0,.525-.07c2.24-.6,5.39-1.085,7.735-1.435.35-.035,1.96-.315,2.205-.315s.525.1.525.42c0,.175-.21.42-.6.84a15.545,15.545,0,0,0-3.85,10.045c0,6.825,5.11,8.715,11.06,8.715.6,0,.875-.07,1.12-.6a9.9,9.9,0,0,0,.525-2.87c0-.56-.28-.6-.805-.6-.385,0-1.155.035-1.75.035-3.57,0-6.16-.98-6.16-5.04a13.1,13.1,0,0,1,1.68-6.16,10.636,10.636,0,0,1,5.95-5.215,17.337,17.337,0,0,1,5.81-.735c.84-.035,1.575.035,1.575-.735a15.924,15.924,0,0,0-.315-2.555c-.07-.42-.14-.875-.665-.875a2,2,0,0,0-.455.035c-2.625.42-5.285.77-7.945,1.085-5.075.595-10.185,1.12-15.295,1.435C117.565-22.715,117.075-22.82,117.075-21.91Zm26.46,2.03c-.42,0-1.785.91-1.785,1.33a.836.836,0,0,0,.245.455,29.615,29.615,0,0,1,2.275,2.905c.14.175.28.455.525.455.42,0,1.785-.98,1.785-1.47A14.224,14.224,0,0,0,143.535-19.88ZM139.3-17.955c-.385,0-1.785.875-1.785,1.3,0,.175.21.385.315.49.77.945,1.54,1.925,2.24,2.94.14.175.245.42.49.42.385,0,1.785-.945,1.785-1.47C142.345-14.7,139.685-17.955,139.3-17.955Zm35.14,6.93c1.225,0,2.45.105,3.675.105.735,0,.735-.35.735-1.47,0-1.085,0-1.47-.735-1.47-1.225,0-2.45.07-3.675.07H162.75c-1.225,0-2.45-.07-3.675-.07-.735,0-.735.28-.735,1.47,0,1.155,0,1.47.735,1.47,1.225,0,2.45-.105,3.675-.105Zm.07-4.69c1.225,0,2.45.07,3.675.07.735,0,.7-.35.7-1.47s.035-1.47-.7-1.47c-1.225,0-2.45.07-3.675.07H162.785c-1.26,0-2.485-.07-3.71-.07-.7,0-.7.315-.7,1.47s0,1.47.7,1.47c1.225,0,2.45-.07,3.71-.07Zm4.76-4.725c1.225,0,2.45.07,3.71.07.77,0,.735-.385.735-1.54,0-1.12.035-1.5-.735-1.5-1.225,0-2.485.07-3.71.07H158.165c-1.225,0-2.45-.07-3.71-.07-.735,0-.735.315-.735,1.5s0,1.54.735,1.54c1.26,0,2.485-.07,3.71-.07Zm-4.445-4.795c1.155,0,2.275.07,3.43.07.735,0,.735-.315.735-1.5s0-1.505-.735-1.505c-1.155,0-2.275.07-3.43.07h-12.32c-1.155,0-2.275-.07-3.43-.07-.735,0-.735.315-.735,1.505,0,1.155.035,1.5.735,1.5,1.155,0,2.275-.07,3.43-.07Zm-12.53,22.82a.978.978,0,0,1-.98-.98v-1.68c.07-.595.35-.945.98-.945H175a.928.928,0,0,1,.98.945v1.68a1,1,0,0,1-.98.98ZM175.91,1.12c-.035.98.35.945,1.855.945,1.4,0,1.855.035,1.855-.8s-.07-1.68-.07-2.52v-4.1c0-.735.07-1.47.07-2.24,0-1.19-.84-1.365-1.82-1.365s-1.96.035-2.94.035H162.435c-.98,0-1.96-.035-2.94-.035-1.015,0-1.82.21-1.82,1.365,0,.77.07,1.505.07,2.24v4.1c0,.84-.1,1.645-.1,2.485,0,.875.49.84,1.855.84,1.505,0,1.855.035,1.89-.945a.557.557,0,0,1,.63-.63H175.28C175.7.49,175.875.7,175.91,1.12Zm24.465-25.865c0,.56.77.735,2.24,1.12a73.989,73.989,0,0,0,8.05,1.575c.56,0,.77-.35.945-1.05a15.077,15.077,0,0,0,.35-2.135c0-.525-.385-.525-.875-.56-2.415-.245-6.545-.805-8.75-1.75a1.229,1.229,0,0,0-.56-.21c-.42,0-.56.35-.7.665A8.2,8.2,0,0,0,200.375-24.745Zm6.65,4.375a20.1,20.1,0,0,0-9.345,2.835c-.42.21-1.05.525-1.05,1.085,0,.805,1.12,3.325,1.96,3.325a1.587,1.587,0,0,0,.735-.35c2.17-1.82,4.55-3.29,7.49-3.29a4.512,4.512,0,0,1,4.865,4.83c0,4.865-5.18,8.68-9.38,10.01-.315.105-.7.245-.7.6,0,.56,1.435,2.94,2.485,2.94a10.313,10.313,0,0,0,3.01-1.3c4.445-2.7,8.505-7.035,8.505-12.53C215.6-17.36,211.995-20.37,207.025-20.37Zm30.38-5.88a1.846,1.846,0,0,0,.105.42,22.246,22.246,0,0,1,.665,2.31c.35,1.435,1.33,5.145,1.75,6.405a1.2,1.2,0,0,1,.14.63,1.086,1.086,0,0,1-.6.91c-2.9,1.89-6.055,4.375-6.055,8.19A6.161,6.161,0,0,0,236.635-2C238.945-.63,241.22-.49,243.81-.49a83.816,83.816,0,0,0,9.625-.56c.7-.175.735-.56.735-1.47v-.42c0-.735-.035-2.17-.525-2.17a.969.969,0,0,0-.315.035,52.822,52.822,0,0,1-9.135.91,13.987,13.987,0,0,1-4.655-.63c-1.085-.385-2.31-1.26-2.31-2.52a4.408,4.408,0,0,1,1.715-3.15,35.581,35.581,0,0,1,6.3-4.13,64.366,64.366,0,0,1,8.645-4.025c.28-.1.665-.21.665-.56a7,7,0,0,0-1.015-2.135c-.21-.35-.805-1.4-1.26-1.4a2.239,2.239,0,0,0-.91.35c-.91.6-6.51,3.885-7.14,3.885-.6,0-.7-.6-.805-1.05A47.862,47.862,0,0,1,242.34-25.8c-.07-.805,0-1.33-.98-1.33a13,13,0,0,0-1.68.175C238.56-26.775,237.4-26.775,237.4-26.25Zm30.17,21.14c0,.315.385.525.63.665a21.556,21.556,0,0,1,5.32,4.76c.175.21.42.525.7.525.8,0,2.555-1.925,2.555-2.7,0-.875-6.02-5.705-6.825-5.705A4.78,4.78,0,0,0,267.575-5.11ZM20.02,35.085a.736.736,0,0,1-.84-.77V34.14l.28-2.2c.1-.7.385-.945,1.085-.945H23.45c.91,0,1.225.035,1.225,1.015,0,.35-.14,1.715-.175,2.17-.07.665-.385.91-1.05.91Zm-8.54,0c-.49,0-.875-.21-.875-.77,0-.21.14-.98.21-1.435.245-1.855.28-1.89,1.365-1.89h3.185c.49,0,.875.21.875.735,0,.07-.035.175-.035.245l-.28,2.17c-.1.7-.385.875-1.085.945Zm7.6,7.385c-.49,0-.875-.21-.875-.735V41.56l.315-2.45c.1-.7.42-.91,1.085-.91h3.57c.49,0,.875.21.875.77v.14l-.315,2.45c-.105.7-.42.91-1.12.91Zm-9.17-3.4a.97.97,0,0,1,1.12-.875h3.4c.49,0,.875.175.875.735v.175l-.315,2.45c-.105.7-.42.91-1.12.91h-3.5c-.42,0-.84-.175-.84-.7v-.21C9.66,40.72,9.8,39.915,9.905,39.075Zm16.415,7.42a.993.993,0,0,1,1.12-.875c1.12,0,2.38.07,3.465.07.805,0,.805-.42.805-1.645,0-1.26,0-1.645-.805-1.645-.98,0-1.925.035-2.905.07-.455-.035-.805-.245-.805-.735V41.56c.105-.84.21-1.645.315-2.45a.893.893,0,0,1,1.015-.91c1.225,0,2.415.07,3.64.07.805,0,.77-.42.77-1.645s.035-1.645-.77-1.645c-1.12,0-2.24.07-3.36.1-.595-.07-.84-.315-.84-.91.105-.98.28-3.29.28-4.235,0-1.68-.455-2.03-2.1-2.03-.8,0-1.61.07-2.415.07H12.215c-.805,0-1.645-.07-2.485-.07-1.575,0-1.855.49-1.96,1.68-.175,1.54-.315,3.045-.49,4.585-.14.63-.385.91-1.05.91-1.12.035-2.24-.1-3.395-.1-.805,0-.77.455-.77,1.645s-.035,1.645.77,1.645c.875,0,2.03-.035,2.905-.07.42.035.77.21.77.7v.21c-.315,1.715-.56,3.4-.91,5.075-.07.245-.49,2.135-.49,2.275,0,.77,2.275,1.015,2.765,1.015.63,0,.665-.315.8-.98.21-.665.455-.875,1.155-.875h12.25c.315,0,.7.1.7.49a.622.622,0,0,1-.14.35,2.844,2.844,0,0,1-2.31.7h-.7c-.945,0-2.03-.1-2.38-.1-.63,0-.7.56-.7,1.085,0,2.205.91,2.03,2.59,2.03C23.38,50.17,25.27,50.135,26.32,46.495Zm.805-21.21c1.33,0,2.66.07,4.025.07.84,0,.84-.35.84-1.645,0-1.33.035-1.68-.84-1.68-1.365,0-2.7.07-4.025.07H12.285c-.315-.035-.6-.14-.6-.49a.489.489,0,0,1,.1-.315c.28-.455.35-.665.875-.805.21-.07.525-.175.525-.49,0-.35-.525-.455-.77-.56a28.18,28.18,0,0,0-2.765-.77c-.28,0-.35.175-.455.42A37.5,37.5,0,0,1,2.66,27.91c-.28.28-.77.63-.77.98C1.89,29.45,3.5,30.6,4.1,30.6a1.2,1.2,0,0,0,.84-.455A46.626,46.626,0,0,0,8.61,25.985a1.436,1.436,0,0,1,1.5-.7ZM49.035,36.73a1,1,0,0,1,.98-.98H60.55a1,1,0,0,1,.98.98v6.16a1,1,0,0,1-.98.98H50.015a1,1,0,0,1-.98-.98Zm.98-4.305a1,1,0,0,1-.98-.98v-5.6a1,1,0,0,1,.98-.98H60.55a1,1,0,0,1,.98.98v5.6a1,1,0,0,1-.98.98ZM61.46,48.14a.969.969,0,0,0-.035.315c0,.945.42.945,2,.945s1.995.035,1.995-.945c0-1.47-.105-2.905-.105-4.375V26.545c0-1.12.07-2.24.07-3.36,0-1.435-.6-1.785-1.925-1.785-1.015,0-2.03.07-3.045.07H50.19c-1.05,0-2.065-.07-3.08-.07-1.365,0-1.925.42-1.925,1.82,0,1.12.07,2.2.07,3.325V44.15c0,1.435-.1,2.9-.1,4.375,0,.945.49.945,1.995.945,1.645,0,1.995,0,1.995-.98v-.35c0-.56.245-.805.805-.805H60.62C61.18,47.335,61.425,47.58,61.46,48.14ZM97.3,35.365a.781.781,0,0,1,.84.805v.385a.809.809,0,0,1-.84.84H88.445a.809.809,0,0,1-.84-.84V36.17a.781.781,0,0,1,.84-.805ZM88.445,33.02a.809.809,0,0,1-.84-.84V31.9a.809.809,0,0,1,.84-.84H97.3a.809.809,0,0,1,.84.84v.28a.809.809,0,0,1-.84.84Zm5.32-9.73a42.19,42.19,0,0,0,5.355,4.655.312.312,0,0,1,.175.28c0,.175-.175.245-.35.28-.7,0-1.4.035-2.135.035H95.62c-.63,0-.91-.245-.945-.91a1.076,1.076,0,0,1,.385-.875c.245-.21.42-.28.42-.525,0-.42-.56-.455-.875-.49-.525-.07-2.31-.245-2.765-.245-.35,0-.56.1-.56.49a2.153,2.153,0,0,0,.035.455c.035.42.07.98.1,1.19-.035.665-.315.91-.98.91h-1.4c-.56,0-1.085,0-1.645-.035-.245-.035-.35-.14-.35-.28s.07-.21.175-.315A51.3,51.3,0,0,0,92.5,23.255a.915.915,0,0,1,.63-.315A.887.887,0,0,1,93.765,23.29ZM96.81,39.95c1.015,0,2.03.07,3.08.07,1.155,0,1.75-.28,1.75-1.54,0-.945-.035-1.855-.035-2.765V32.88c0-.77.035-1.54.035-2.31.035-.28.14-.525.49-.525a.565.565,0,0,1,.315.1c.735.42,4.025,2.38,4.69,2.38.84,0,1.75-1.995,1.75-2.73,0-.42-.28-.525-.8-.735-4.305-1.89-9.205-4.76-12.32-8.3a.668.668,0,0,1-.105-.28c0-.105.105-.175.175-.21a.532.532,0,0,0,.35-.455c0-.35-.385-.525-.665-.595-.56-.14-2.9-.77-3.325-.77-.385,0-.49.245-.84.735-2.975,4.48-8.33,7.84-13.16,10.08-.315.14-.7.35-.7.735,0,.63,1.12,2.485,2.1,2.485.7,0,3.115-1.5,3.815-1.925a.565.565,0,0,1,.315-.105c.35,0,.455.245.49.525.035.63.035,1.26.035,1.89V44.99a.932.932,0,0,1-.91,1.085,16.587,16.587,0,0,1-1.855.21c-1.54.175-1.82.175-1.82.63a18.661,18.661,0,0,0,.665,2.345c.315.945.385,1.19.77,1.19a.458.458,0,0,0,.49-.35c.175-.385.28-.455,1.155-.595,3.535-.6,7.035-1.19,10.535-2.1.84-.21,1.085-.315,1.085-1.435v-.455c0-1.085-.21-1.365-.63-1.365-.21,0-4.445.945-5.215,1.12h-.21c-.525,0-.7-.385-.7-.805V40.93c0-.7.28-.98.98-.98h2a1.3,1.3,0,0,1,1.365.8,19.913,19.913,0,0,0,8.89,7.56c1.225.56,4.55,1.82,5.845,1.82,1.015,0,1.68-1.785,1.68-2.625,0-.7-.525-.7-1.12-.8a23.636,23.636,0,0,1-5.355-1.61.487.487,0,0,1-.35-.42.5.5,0,0,1,.28-.455c1.05-.665,1.995-1.33,3.045-2,.14-.07.21-.175.385-.175a5.221,5.221,0,0,0,.665.14.357.357,0,0,0,.315-.385c0-.49-2.555-2.59-3.045-2.59-.175,0-.455.28-.6.42a41.221,41.221,0,0,1-3.57,2.975,1.586,1.586,0,0,1-.77.28,1.252,1.252,0,0,1-.735-.315,13,13,0,0,1-2.03-1.89.428.428,0,0,1-.1-.315c0-.315.245-.385.49-.42Zm44.87-16.66c-.385,0-1.68,1.12-1.68,1.5,0,.175.175.315.315.42.84.77,1.925,1.89,2.66,2.73.105.14.28.35.455.35.455,0,1.645-1.155,1.645-1.645C145.075,26.195,142.03,23.29,141.68,23.29Zm-3.92,2.38c-.315,0-1.645,1.085-1.645,1.5a.576.576,0,0,0,.28.42c.77.735,1.47,1.47,2,2.03.6.63.98,1.05,1.12,1.05.455,0,1.68-1.12,1.68-1.61C141.19,28.61,138.145,25.67,137.76,25.67Zm-9.24,1.645c-1.89,0-3.5,1.68-4.83,2.835a34.166,34.166,0,0,1-5.635,4.2c-.28.14-1.085.49-1.085.84,0,.6,2.24,3.5,2.9,3.5.315,0,.63-.385.84-.595,1.225-1.33,3.045-2.905,4.445-4.13.77-.7,2.38-2.38,3.325-2.38.735,0,1.5.91,2.625,2.205a53,53,0,0,0,8.96,8.75,10.549,10.549,0,0,0,2.765,1.575c.945,0,2.59-2.625,2.59-3.29,0-.385-.385-.56-.7-.7-4.41-2.17-7.91-5.67-11.1-9.345C132.3,29.24,130.795,27.315,128.52,27.315Zm32.865-.945c-.56,0-.6.525-.6,1.54,0,.245-.035.49-.035.77a55.908,55.908,0,0,1-.84,7.63c-.21,1.155-.49,2.31-.8,3.43a5.377,5.377,0,0,0-.35,1.225c0,1.015,2.345,1.365,2.66,1.365.49,0,.77-.385,1.05-.735,2.205-2.765,5.915-5.845,9.59-5.845,2.24,0,4.2,1.295,4.2,3.71,0,2.975-2.59,4.06-5.075,4.69a23.382,23.382,0,0,1-4.655.7c-.455.035-.875.07-.875.63a7.284,7.284,0,0,0,.6,2.275c.315.665.525.98,1.295.98a23.4,23.4,0,0,0,4.55-.945c4.235-1.26,7.945-3.36,7.945-8.33,0-4.41-3.325-7.28-7.63-7.28-3.325,0-5.425,1.4-8.015,3.22a.781.781,0,0,1-.455.21c-.245,0-.35-.21-.35-.42a5.311,5.311,0,0,1,.1-.735c.35-1.61.56-3.255.84-4.865.14-.7.175-1.015.735-1.365.14-.07.315-.175.315-.385,0-.28-.385-.385-.63-.49A24.85,24.85,0,0,0,161.385,26.37Zm2.24-4.025c0,.385.455.56.8.77a28.647,28.647,0,0,1,4.41,2.975c.28.21.735.7,1.12.7.735,0,2.17-2.135,2.17-2.765,0-.595-2.03-1.715-2.555-2.03-.63-.385-3.465-2.2-3.99-2.2C164.745,19.79,163.625,21.89,163.625,22.345ZM201,19.755c-.385,0-.56.1-.56.49,0,.245.035.665.035,1.085,0,1.54-.14,3.64-.14,4.585a2.27,2.27,0,0,1-.175,1.05c-.42.84-4.865,1.61-5.915,1.75-.42.07-1.155.07-1.155.63a10.342,10.342,0,0,0,.735,2.38c.175.455.455.98,1.015.98a24.191,24.191,0,0,0,4.235-1.435,2.125,2.125,0,0,1,.63-.175c.315,0,.455.245.455.525s-.07.6-.07.91a3.288,3.288,0,0,1-.42,1.645c-1.61,2.905-3.255,5.775-5.145,8.54a3.738,3.738,0,0,0-.7,1.26c0,.6,2.03,2.31,2.625,2.31.21,0,.35-.21.455-.42.35-.665,1.435-2.555,1.82-3.185.35-.525.6-1.05.84-1.05s.315.28.315.455c0,1.575-.21,5.46-.21,5.775,0,.7.63.7,1.47.7,2.59,0,2.555-.35,2.555-.6,0-.385-.105-2.275-.175-3.71-.035-.6-.1-1.645-.1-1.855,0-.805-.14-5.075,0-5.53a11.69,11.69,0,0,1,1.96-2.24,35.234,35.234,0,0,1,3.815-3.395,5.257,5.257,0,0,1,2.73-1.4c1.05,0,1.05,1.225,1.05,2,0,3.15-.455,6.335-.455,9.485,0,2.205.28,5.6,3.22,5.6a9.056,9.056,0,0,0,4.935-2.03c.385-.28,1.68-1.19,1.68-1.68,0-.56-1.015-3.185-1.61-3.185a1,1,0,0,0-.665.385c-.63.7-2.135,2.205-3.08,2.205-.805,0-.77-1.225-.77-2.065,0-1.47.1-3.045.175-4.55.1-1.785.175-3.6.175-5.425a6.366,6.366,0,0,0-.63-3.325,3.779,3.779,0,0,0-3.01-1.54c-1.925,0-3.675,1.26-5.075,2.485-.84.7-2.24,1.96-2.975,2.73-.07.07-.175.175-.28.175-.21,0-.28-.175-.28-.35a2.72,2.72,0,0,1,.07-.56c.1-.245.77-1.47.945-1.715.07-.105.21-.245.21-.385a2.508,2.508,0,0,0-1.19-1.61c-.315-.105-.56-.21-.56-.6,0-.49.245-2.205.315-2.8.21-1.435.175-1.54.63-1.925a.784.784,0,0,0,.28-.525c0-.21-.21-.315-.385-.385C204.295,20.14,201.39,19.755,201,19.755Zm43.645,24.4c0,.56-.28,1.19-.945,1.19-1.05,0-2.73-.6-2.73-1.855a1.45,1.45,0,0,1,1.505-1.4A2.139,2.139,0,0,1,244.65,44.15ZM247.9,21.47a4.775,4.775,0,0,0-1.33.385,32.437,32.437,0,0,1-8.855,1.295h-.84c-1.05,0-1.085.07-1.085.875,0,.6.1,3.22.875,3.22.56,0,5.495-1.015,6.335-1.225a8.4,8.4,0,0,1,.84-.14c.28,0,.6.105.6.42,0,.35-.63.98-.91,1.26a140.247,140.247,0,0,1-10.885,10.99c-.315.245-.84.63-.84,1.05,0,.56,1.785,2.52,2.52,2.52a.475.475,0,0,0,.385-.245c1.26-1.435,2.52-2.87,3.885-4.2a10.625,10.625,0,0,1,7.84-3.43c3.045,0,5.915,1.4,5.915,4.8a5.688,5.688,0,0,1-4.235,5.39c-.28,0-.385-.21-.42-.455a3.481,3.481,0,0,0-.63-2.24,5.709,5.709,0,0,0-4.655-2.485,4.395,4.395,0,0,0-4.48,4.235c0,3.57,4.13,4.76,7.035,4.76,5.635,0,11.13-3.22,11.13-9.415a7.234,7.234,0,0,0-4.165-6.79,10.265,10.265,0,0,0-4.3-1.05,6.65,6.65,0,0,0-1.435.14,2.049,2.049,0,0,1-.455.07c-.315,0-.6-.175-.6-.455a1.046,1.046,0,0,1,.35-.6,33.9,33.9,0,0,1,5.075-4.69c.385-.28.77-.49.77-.735C251.335,24.13,249.3,21.47,247.9,21.47Zm30.275,2.66c-1.54,0-3.045-.07-4.55-.07-.875,0-.84.525-.84,1.75,0,1.61-.07,2.135.875,2.135,1.505,0,3.01-.07,4.515-.07h7.245c.525,0,1.015.07,1.015.6a3.457,3.457,0,0,1-.6,1.19c-3.535,5.53-9.415,10.885-15.61,13.265-.315.1-.735.28-.735.7,0,.63,1.61,2.975,2.345,2.975a5.863,5.863,0,0,0,1.54-.665,38.961,38.961,0,0,0,8.75-6.125,1.677,1.677,0,0,1,1.05-.595,1.233,1.233,0,0,1,.805.315,37.224,37.224,0,0,1,7.735,6.93,1.17,1.17,0,0,0,.875.525c.735,0,2.66-2.065,2.66-2.8a.668.668,0,0,0-.245-.49c-.8-.84-1.68-1.645-2.52-2.38A56.207,56.207,0,0,0,286.58,36.8a.935.935,0,0,1-.525-.84.956.956,0,0,1,.28-.665,50.738,50.738,0,0,0,4.55-6.65c.14-.245.35-.6.56-.91a6.774,6.774,0,0,0,.77-1.365c0-.455-1.505-2.38-2.24-2.38-.21,0-.56.07-.77.07a9.411,9.411,0,0,1-1.505.07Zm54.425-.21a1.89,1.89,0,1,1-1.89,1.89A1.882,1.882,0,0,1,332.605,23.92Zm0-1.61a3.483,3.483,0,1,0,3.465,3.5A3.48,3.48,0,0,0,332.605,22.31Zm-6.335,5.32c-.525,0-2.625,1.4-2.625,2.03a1.081,1.081,0,0,0,.385.7,50.494,50.494,0,0,1,6.86,11.34c.14.315.28.63.7.63.6,0,3.29-1.225,3.29-2.1,0-1.33-4.62-8.155-5.635-9.52a24.642,24.642,0,0,0-2.345-2.835A.843.843,0,0,0,326.27,27.63Zm-11.9-.7c-.315,0-.49.56-.6.805-1.785,4.515-5.565,9.345-9.065,12.7a.709.709,0,0,0-.28.49c0,.735,2.45,2.17,2.975,2.17.6,0,1.68-1.26,2.065-1.715a54.277,54.277,0,0,0,7.665-10.99,1.462,1.462,0,0,1,.6-.7c.21-.1.56-.245.56-.49,0-.385-1.505-1.155-1.855-1.33A9.764,9.764,0,0,0,314.37,26.93Zm46.55,3.5a1.865,1.865,0,0,1,.8-1.575,68.2,68.2,0,0,0,4.8-5.25,1.893,1.893,0,0,1,1.365-.84c.175-.07.35-.14.35-.35,0-.42-.98-1.015-1.365-1.26a12.922,12.922,0,0,0-2.38-1.435c-.245,0-.455.35-.56.525a29.666,29.666,0,0,1-4.76,5.915,50.343,50.343,0,0,1-13.755,9.275c-.245.105-.56.245-.56.6,0,.665,2.135,2.8,2.73,2.8.91,0,6.475-3.71,7.525-4.48.28-.21,1.015-.805,1.365-.805.665,0,.56.77.56.98v9.52c0,1.505-.07,3.01-.07,4.515,0,.91.35,1.015,2.275,1.015,1.295,0,1.75-.1,1.75-1.05,0-1.505-.07-3.045-.07-4.585Zm30.66-6.3c-1.54,0-3.045-.07-4.55-.07-.875,0-.84.525-.84,1.75,0,1.61-.07,2.135.875,2.135,1.505,0,3.01-.07,4.515-.07h7.245c.525,0,1.015.07,1.015.6a3.457,3.457,0,0,1-.6,1.19c-3.535,5.53-9.415,10.885-15.61,13.265-.315.1-.735.28-.735.7,0,.63,1.61,2.975,2.345,2.975a5.863,5.863,0,0,0,1.54-.665,38.961,38.961,0,0,0,8.75-6.125,1.677,1.677,0,0,1,1.05-.595,1.233,1.233,0,0,1,.805.315,37.224,37.224,0,0,1,7.735,6.93,1.17,1.17,0,0,0,.875.525c.735,0,2.66-2.065,2.66-2.8a.668.668,0,0,0-.245-.49c-.8-.84-1.68-1.645-2.52-2.38A56.207,56.207,0,0,0,399.98,36.8a.935.935,0,0,1-.525-.84.956.956,0,0,1,.28-.665,50.738,50.738,0,0,0,4.55-6.65c.14-.245.35-.6.56-.91a6.774,6.774,0,0,0,.77-1.365c0-.455-1.505-2.38-2.24-2.38-.21,0-.56.07-.77.07a9.411,9.411,0,0,1-1.505.07Zm33.53,3.045c-1.155,0-2.345-.035-3.5-.035-.77,0-.84.315-.84,1.82,0,1.365.105,1.925.875,1.925.455,0,2.555-.14,3.5-.14l4.935-.035a.718.718,0,0,1,.735.735,18.54,18.54,0,0,1-.91,3.36,24.171,24.171,0,0,1-7.6,10.57c-.21.175-.49.35-.49.63,0,.63,1.995,2.275,2.66,2.275.63,0,2.73-2.2,3.22-2.73a29.119,29.119,0,0,0,6.86-13.615c.105-.525.245-1.26,1.12-1.26l3.535-.035c1.575,0,2.065-.07,2.065.875a62.8,62.8,0,0,1-1.05,8.365c-.525,2.485-1.26,3.43-3.325,3.43-.84,0-1.645-.14-1.995-.14a.571.571,0,0,0-.63.63,7.459,7.459,0,0,0,.91,2.45,1.106,1.106,0,0,0,1.225.7,13.5,13.5,0,0,0,2.03-.14c2.17-.315,3.6-.98,4.55-3.045,1.085-2.38,1.61-7.245,1.96-9.94.07-.665.56-4.55.56-4.9a2.792,2.792,0,0,0-1.995-2.03c-.035,0-2.835.14-3.85.14l-3.36.035a.781.781,0,0,1-.84-.805c0-.35.21-2.45.28-2.94.1-1.085.07-1.12.49-1.5.14-.14.385-.385.385-.6,0-.245-.315-.35-.525-.385-.35-.105-3.43-.7-3.64-.7-.49,0-.455.455-.455.805-.035.84-.21,4.585-.28,5.285a1.084,1.084,0,0,1-1.05.91Zm41.265-.42c0-.56,0-1.12.035-1.645a1.345,1.345,0,0,1,.315-1.085c.14-.14.315-.245.315-.455,0-.35-.42-.385-.735-.455-.525-.14-2.275-.42-2.835-.49a7.388,7.388,0,0,0-.735-.105.376.376,0,0,0-.385.42c0,.175.07.91.105,1.155.035.6.035,1.365.035,2.135V40.475c0,1.3-.07,2.59-.07,3.78,0,.595.035.91.455,1.225a12.292,12.292,0,0,0,2.765,1.3,2.1,2.1,0,0,0,.875-.35,13.046,13.046,0,0,1,1.225-.56,62.667,62.667,0,0,0,15.4-9.1c.84-.7,1.68-1.4,2.45-2.17a1.012,1.012,0,0,0,.385-.63c0-.7-1.19-3.01-1.75-3.01-.315,0-.63.35-.84.56a48.548,48.548,0,0,1-13.44,9.205,15.143,15.143,0,0,1-2.87,1.12c-.63,0-.7-.56-.7-1.435Zm35.175,5.46c-1.47,0-3.885-.1-4.34-.1-.91,0-.98.28-.98,2.24,0,1.085.035,1.75.945,1.75,1.47,0,2.94-.07,4.375-.07h16.1c1.435,0,2.9.07,4.375.07.91,0,.945-.665.945-1.785,0-1.925-.035-2.2-.98-2.2-.455,0-2.73.1-4.34.1Zm46.445,8.155c.875,0,1.05-.175,1.085-1.05l.21-8.645c.07-2.31.315-7,.315-7.7,0-.6-.21-.735-.98-.735h-2.45c-.77,0-.98.14-.98.735,0,.7.245,5.39.315,7.49l.245,8.855c.035.875.21,1.05,1.085,1.05Zm-.455,2.73a2.617,2.617,0,0,0-2.7,2.8,2.271,2.271,0,0,0,2.415,2.31,2.579,2.579,0,0,0,2.73-2.695A2.344,2.344,0,0,0,547.54,43.1Z" transform="translate(-1.89 28.175)"/></svg>