<svg xmlns="http://www.w3.org/2000/svg" width="225.993" height="217.88" viewBox="0 0 225.993 217.88"><g transform="translate(-151 -1005.5)"><path d="M13.142-6.518c1.042,0,2.494.034,3.4.068V-8.158c-.871.051-2.323.068-3.4.068H9.488v-2.084h2.955c.905,0,2.254.017,3.057.051V-11.8c-.751.017-2.118.051-3.057.051H9.488V-14.17a34.347,34.347,0,0,0,4.953-1.076,2.406,2.406,0,0,0,.342.017c.154,0,.239-.051.239-.171,0-.068-.051-.1-.154-.2l-1.11-1.161A43.012,43.012,0,0,1,1.563-15.143a6.776,6.776,0,0,1,.461,1.588c3.484-.188,4.492-.239,5.79-.393v2.2H4.893c-.888,0-2.374-.034-3.074-.051v1.674c.734-.017,2.22-.051,3.074-.051H7.814v2.084H4.159c-.974,0-2.511-.017-3.4-.068V-6.45c.922-.034,2.459-.068,3.4-.068H7.814V-3.7c0,.649-.068.717-.7.717-.512,0-.888-.017-1.605-.068a8.464,8.464,0,0,1,.273,1.9c2.1-.017,2.579-.068,3.108-.376.478-.29.666-.751.666-1.691,0-.256,0-.751-.017-1.059C9.488-5.527,9.5-5.852,9.488-6.518ZM29.5-10.89h3.4v7.31c0,.581-.085.666-.683.666a12.265,12.265,0,0,1-1.3-.068,7.4,7.4,0,0,1,.325,1.81h.068a4.7,4.7,0,0,0,2.562-.376c.427-.273.581-.666.581-1.52a1.361,1.361,0,0,0-.017-.188c-.017-1.366-.034-2.357-.034-3.006V-14.9c0-.547.034-1.213.051-1.52-.512.034-.991.034-1.708.034h-2.9c-.786,0-1.332,0-1.879-.034.034.307.051.974.051,1.52v2.767c0,.8-.017,1.383-.051,1.776H29.5Zm3.4-1.315H29.5v-.837h3.4Zm0-2.032H29.5v-.837h3.4ZM21.323-10.89h3.382v.529h1.554c-.034-.393-.051-.974-.051-1.776V-14.9c0-.547.017-1.213.051-1.52-.564.034-1.11.034-1.9.034H21.477c-.717,0-1.213,0-1.725-.034.034.307.051.974.051,1.52v9.8c0,1.759-.017,3.023-.051,4h1.64c-.051-.854-.068-2.186-.068-4Zm3.382-1.315H21.323v-.837h3.382Zm0-2.032H21.323v-.837h3.382ZM25.32-3.41h3.638v.7h1.588c-.034-.393-.051-.974-.051-1.776v-3.6c0-.547.034-1.213.051-1.52-.376.017-.734.034-1.23.034H24.961c-.5,0-.854-.017-1.23-.034.017.307.034.974.034,1.52v3.843c0,.854,0,1.418-.034,1.827H25.32Zm3.638-1.435H25.32v-.922h3.638Zm0-2.357H25.32v-.939h3.638Zm15.491-9.838a9.284,9.284,0,0,1-1.076,2.408,11.4,11.4,0,0,1-1.2.051,14.31,14.31,0,0,1-2.306-.137L39.8-13.111a12.26,12.26,0,0,0,1.537.085c.359,0,.547,0,1.247-.034A19.71,19.71,0,0,1,38.642-8.55l1.486,1.264c1.264-1.742,2.8-2.818,4-2.818.8,0,1.093.325,1.247,1.281a10.759,10.759,0,0,0-3.4,2.254A3.208,3.208,0,0,0,41.033-4.3a2.479,2.479,0,0,0,1.452,2.425,8.546,8.546,0,0,0,3.552.461A32.9,32.9,0,0,0,51.229-1.8a3.05,3.05,0,0,1-.034-.512,11.719,11.719,0,0,1,.1-1.349,24.214,24.214,0,0,1-5.5.547c-2.2,0-2.989-.325-2.989-1.247a2.272,2.272,0,0,1,.939-1.657,8.645,8.645,0,0,1,1.708-1.093v2.562H47.13V-7.8c1.964-.871,2.852-1.23,4.424-1.793h.222c.137,0,.239-.051.239-.154a.369.369,0,0,0-.1-.239L50.7-11.2c-1.435.7-2.869,1.366-3.689,1.691a2.16,2.16,0,0,0-2.289-1.93,3.756,3.756,0,0,0-1.588.325c.325-.444.922-1.383,1.281-2a40.661,40.661,0,0,0,5.09-.564l-.41-1.537a20.066,20.066,0,0,1-3.843.529,11.6,11.6,0,0,0,.769-1.537c.256-.1.325-.171.325-.273a.2.2,0,0,0-.171-.188Zm18.89,6.046H62.98c-.871,0-2-.017-2.716-.051V-9.37c.717-.017,1.845-.051,2.716-.051h6.234c.786,0,2,.034,2.733.051v-1.674c-.734.034-1.947.051-2.733.051h-.393v-2.135h.239c.649,0,1.759.017,2.391.051v-1.657c-.6.017-1.708.051-2.391.051h-.239v-1.571c.239-.154.325-.239.325-.342s-.1-.154-.29-.171l-1.725-.12c.034.444.051,1.076.051,2.2h-2.2v-1.571c.239-.154.325-.239.325-.342s-.1-.154-.29-.171l-1.725-.12c.034.444.051,1.076.051,2.2-.734,0-1.657-.034-2.272-.051v1.657c.666-.034,1.571-.051,2.272-.051Zm1.64,0v-2.135h2.2v2.135ZM63.9-1.633h4.441v.41h1.691c-.034-.649-.051-1.64-.051-3.006v-1.52c0-1.708,0-2.152.051-2.716-.461.017-.871.034-1.452.034h-4.9c-.6,0-1.008-.017-1.452-.034.017.547.051,1.691.051,2.716v1.623c0,1.332-.017,2.323-.051,3.006H63.9Zm0-4.219V-6.911h4.441v1.059Zm0,1.52h4.441v1.161H63.9ZM56.063-13.9A18.646,18.646,0,0,1,55.6-9.422a4.351,4.351,0,0,1,1.23.683,22.482,22.482,0,0,0,.512-4.509l.12-.068a.164.164,0,0,0,.1-.154c0-.1-.051-.171-.188-.188Zm3.3.29a14.429,14.429,0,0,1,.854,2.289l1.23-.564a9.929,9.929,0,0,0-1.008-2.272Zm-1.845-3.211c.068.529.1,2.22.1,5.021v5.722c0,2.2-.017,3.877-.068,4.987h1.793c-.051-1.093-.085-2.75-.085-4.987V-11.8c0-3.518.017-3.809.017-4.406.239-.137.325-.222.325-.325,0-.085-.1-.154-.256-.171Zm20.393.837c.017,1.161.034,1.759.034,2.818,0,1.144-.017,1.725-.085,3.979-.034,1.093-.051,2.135-.051,3.006,0,2,.376,3.126,1.264,3.877a4.047,4.047,0,0,0,2.784.82A7.6,7.6,0,0,0,87.01-3.307a9.348,9.348,0,0,0,2.1-2.647,18.153,18.153,0,0,1-1.5-1.452,6.633,6.633,0,0,1-2.716,3.279,5.612,5.612,0,0,1-2.852.82q-1.742,0-2.152-1.127a6.924,6.924,0,0,1-.256-2.511c0-.529.017-1.383.051-2.494.051-1.605.085-2.9.1-3.775.034-1.3.051-1.588.051-2.084.222-.085.325-.2.325-.359,0-.12-.137-.2-.325-.222Zm17.4,3.126c.854.085,1.981.12,3.177.12.239,0,1.008,0,2.323-.034.017,1.452.017,1.64.034,2.323-.529.017-.6.017-.8.017-1.52,0-2.186-.222-2.835-.974l-1.213,1.025a3.3,3.3,0,0,0,.8.82,5.6,5.6,0,0,0,3.177.769c.222,0,.478-.017.888-.034.051,1.11.085,1.674.085,1.708,0,.137.017.342.034.6a15.186,15.186,0,0,0-2.1-.188c-2.186,0-3.467.956-3.467,2.6,0,1.588,1.383,2.562,3.655,2.562a3.555,3.555,0,0,0,2.921-1.042,2.911,2.911,0,0,0,.7-1.9,13.467,13.467,0,0,1,3.228,1.93,6.293,6.293,0,0,1,.956-1.452,18.367,18.367,0,0,0-4.15-2.118c-.051-.922-.1-1.827-.137-2.75a29.26,29.26,0,0,0,3.911-.512l-.393-1.605a27.94,27.94,0,0,1-3.552.478c-.034-.82-.034-1.247-.034-1.708V-12.8c2.05-.1,2.733-.154,4.338-.325l-.222-1.623a33.739,33.739,0,0,1-4.116.342c.017-.512.034-.888.034-1.776.239-.137.307-.222.307-.325,0-.12-.085-.171-.273-.188l-1.93-.171a15.863,15.863,0,0,1,.154,2.494c-1.264.034-1.964.051-2.118.051a24.3,24.3,0,0,1-3.262-.154Zm5.7,7.874a3.883,3.883,0,0,1-.017.41,1.355,1.355,0,0,1-.478,1.059,2.333,2.333,0,0,1-1.571.444c-1.127,0-1.845-.427-1.845-1.093,0-.717.632-1.11,1.793-1.11A9.312,9.312,0,0,1,101.015-4.981ZM124.79-16.629a9.525,9.525,0,0,1,2.067,1.776l.854-.939a11.01,11.01,0,0,0-2.169-1.708Zm-2.357.5a9.524,9.524,0,0,1,2.067,1.776l.854-.939A11.01,11.01,0,0,0,123.184-17ZM119.6-16.9c.051.6.068,1.247.068,2.835-2,.085-3.621.12-5.517.12-.752,0-1.247-.017-2.2-.034l.12,1.81c2.545-.12,2.647-.12,5.038-.2,1.23-.034,1.674-.051,2.562-.085.017.342.017.734.017,1.059,0,.12,0,.273.017.666a3.559,3.559,0,0,0-2-.615,2.51,2.51,0,0,0-2.442,2.733,3.314,3.314,0,0,0,3.108,3.587,2.335,2.335,0,0,0,1.383-.41,4.113,4.113,0,0,1-1.879,1.81,11.8,11.8,0,0,1-2.374.871,5.632,5.632,0,0,1,.871,1.725,10.779,10.779,0,0,0,3.5-1.827,5.828,5.828,0,0,0,1.862-4.526,7,7,0,0,0-.256-1.845v-3.279c1.742-.068,2.835-.1,3.3-.1.956,0,1.315,0,1.93-.017l-.051-1.776c-1.264.12-3.126.222-5.175.29,0-.6.017-1.332.034-2.1.222-.171.29-.256.29-.376,0-.137-.137-.2-.342-.222Zm-2.664,8.266a1.085,1.085,0,0,1,1.042-1.213,2.054,2.054,0,0,1,1.93,1.964,1.22,1.22,0,0,1-1.264,1.3A1.931,1.931,0,0,1,116.933-8.636Zm13.014,3.57a20.118,20.118,0,0,1,3.126,3.86l1.554-1.178a22.528,22.528,0,0,0-3.348-3.843ZM15.107,26.769H12.374c-.359,0-.974-.017-1.366-.034v1.5c.2-.017.427-.017.632-.017A11.427,11.427,0,0,0,12.7,31.705l-.222.222a8.877,8.877,0,0,1-3.757,2.22,5.6,5.6,0,0,1,.734,1.469,10.732,10.732,0,0,0,4.031-2.579,11.374,11.374,0,0,0,2.306,2.374,6.164,6.164,0,0,1,1.059-1.332,9.532,9.532,0,0,1-2.374-2.272,12.227,12.227,0,0,0,1.588-3.877c.393-.188.393-.2.393-.307a.294.294,0,0,0-.137-.222l-.991-.905Zm-.683,1.452a10.408,10.408,0,0,1-.769,2.152,9.437,9.437,0,0,1-.632-2.152Zm-6.8-.956V25.284H9.2v.529h1.571c-.034-.41-.051-.974-.051-1.776V21.7c0-.444.017-1.127.051-1.4-.393.017-.734.017-1.23.017H7.284c-.5,0-.854,0-1.23-.017.034.307.051.956.051,1.5V33.755c0,.854-.017,1.418-.051,1.81H7.626V32.457H9.18c.461,0,1.008.017,1.366.034V30.868c-.376.017-1.008.034-1.366.034H7.626V28.836H9.18c.461,0,1.008,0,1.366.017V27.248l-1.366.017ZM9.2,23.849H7.626v-2.1H9.2Zm4.936,1.691v.376H15.79c-.034-.393-.051-.974-.051-1.776V21.8c0-.547.017-1.2.051-1.5-.393.017-.734.017-1.247.017H12.818c-.359,0-1.042,0-1.366-.017v1.469c.325-.017.905-.017,1.366-.017h1.315v2.374H12.818l-1.366-.017v1.469c.359-.017.905-.034,1.366-.034ZM2.519,31.33H3.766v.939H5.32c-.034-.666-.051-1.571-.051-3.006V23.832c0-1.025.017-2.186.051-2.716-.325.017-.615.017-1.008.017H1.973c-.393,0-.683,0-1.008-.017.034.547.051.974.051,2.716v6.2c0,1.349-.017,2.357-.051,3.006H2.519Zm1.247-1.435H2.519v-3.04H3.766Zm0-4.458H2.519V22.568H3.766ZM33.4,19.7a11.693,11.693,0,0,0,0,15.952H34.85a13.278,13.278,0,0,1-2.835-7.976A13.278,13.278,0,0,1,34.85,19.7Zm6.234,12.348h1.4v.786h1.605c-.034-.649-.051-1.571-.051-3.006V23.883c0-1.025.034-2.169.051-2.716-.307.017-.6.017-1.008.017H39.018c-.393,0-.683,0-1.008-.017.034.547.051.751.051,2.716v6.78c0,1.366-.017,2.357-.051,3.006h1.623Zm0-6.285v-3.04h1.4v3.04Zm0,1.537h1.4v3.228h-1.4Zm7.7-2.34H45.508c-.769,0-1.742-.017-2.391-.051v1.657c.7-.017,1.657-.034,2.391-.034H51.2c.649,0,1.759.017,2.391.034V24.908c-.6.034-1.708.051-2.391.051h-2.22V23.422h1.9c.512,0,1.23,0,1.708.034v-1.64c-.478.017-1.2.034-1.708.034h-1.9c0-.769,0-1.144.017-1.486.222-.154.325-.239.325-.342s-.12-.154-.307-.171l-1.725-.12c.034.444.051,1.042.051,2.118H45.559c-.5,0-1.213-.017-1.691-.034v1.64c.478-.034,1.2-.034,1.691-.034h1.776Zm3.962,4.97c.666,0,1.623.017,2.186.051V28.324c-.547.017-1.486.051-2.169.051a6.149,6.149,0,0,1,.034-.991c.222-.12.307-.222.307-.325,0-.085-.1-.154-.256-.171l-1.862-.12a11.272,11.272,0,0,1,.1,1.605H45.713c-.751,0-1.725-.034-2.374-.051V29.98c.7-.034,1.657-.051,2.374-.051h3.945v3.4c0,.632-.068.7-.734.7-.41,0-.683-.017-1.178-.051a8.742,8.742,0,0,1,.325,1.793h.307a4.011,4.011,0,0,0,2.374-.427,1.6,1.6,0,0,0,.6-1.469c0-.171,0-.5-.017-.82-.017-.581-.034-.939-.034-1.247ZM45.115,31.3a12.662,12.662,0,0,1,2.22,2.34l1.281-1.144a12.188,12.188,0,0,0-2.459-2.306ZM66.4,25.83h3.4v7.31c0,.581-.085.666-.683.666a12.264,12.264,0,0,1-1.3-.068,7.4,7.4,0,0,1,.325,1.81h.068a4.7,4.7,0,0,0,2.562-.376c.427-.273.581-.666.581-1.52a1.361,1.361,0,0,0-.017-.188c-.017-1.366-.034-2.357-.034-3.006V21.816c0-.547.034-1.213.051-1.52-.512.034-.991.034-1.708.034h-2.9c-.786,0-1.332,0-1.879-.034.034.307.051.974.051,1.52v2.767c0,.8-.017,1.383-.051,1.776H66.4Zm3.4-1.315H66.4v-.837h3.4Zm0-2.032H66.4v-.837h3.4ZM58.215,25.83H61.6v.529h1.554c-.034-.393-.051-.974-.051-1.776V21.816c0-.547.017-1.213.051-1.52-.564.034-1.11.034-1.9.034H58.368c-.717,0-1.213,0-1.725-.034.034.307.051.974.051,1.52v9.8c0,1.759-.017,3.023-.051,4h1.64c-.051-.854-.068-2.186-.068-4ZM61.6,24.515H58.215v-.837H61.6Zm0-2.032H58.215v-.837H61.6Zm.615,10.828h3.638v.7h1.588c-.034-.393-.051-.974-.051-1.776v-3.6c0-.547.034-1.213.051-1.52-.376.017-.734.034-1.23.034H61.853c-.5,0-.854-.017-1.23-.034.017.307.034.974.034,1.52v3.843c0,.854,0,1.418-.034,1.827h1.588Zm3.638-1.435H62.211v-.922h3.638Zm0-2.357H62.211V28.58h3.638Zm10.282,6.131a11.647,11.647,0,0,0,0-15.952H74.7a13.278,13.278,0,0,1,2.835,7.976A13.278,13.278,0,0,1,74.7,35.651ZM99.786,19.682A9.284,9.284,0,0,1,98.71,22.09a11.4,11.4,0,0,1-1.2.051A14.309,14.309,0,0,1,95.208,22L95.14,23.61a12.261,12.261,0,0,0,1.537.085c.359,0,.547,0,1.247-.034a19.71,19.71,0,0,1-3.945,4.509l1.486,1.264c1.264-1.742,2.8-2.818,4-2.818.8,0,1.093.325,1.247,1.281a10.759,10.759,0,0,0-3.4,2.254,3.208,3.208,0,0,0-.939,2.272,2.479,2.479,0,0,0,1.452,2.425,8.546,8.546,0,0,0,3.552.461,32.9,32.9,0,0,0,5.192-.393,3.05,3.05,0,0,1-.034-.512,11.717,11.717,0,0,1,.1-1.349,24.214,24.214,0,0,1-5.5.547c-2.2,0-2.989-.325-2.989-1.247a2.272,2.272,0,0,1,.939-1.657,8.645,8.645,0,0,1,1.708-1.093v2.562h1.674V28.921c1.964-.871,2.852-1.23,4.424-1.793h.222c.137,0,.239-.051.239-.154a.369.369,0,0,0-.1-.239l-1.213-1.213c-1.435.7-2.869,1.366-3.689,1.691a2.16,2.16,0,0,0-2.289-1.93,3.756,3.756,0,0,0-1.588.325c.325-.444.922-1.383,1.281-2a40.661,40.661,0,0,0,5.09-.564l-.41-1.537a20.066,20.066,0,0,1-3.843.529,11.6,11.6,0,0,0,.769-1.537c.256-.1.325-.171.325-.273a.2.2,0,0,0-.171-.188Zm18.787,12.57c-1.076.2-2.135.359-3.143.478l.632,1.623a.317.317,0,0,0,.239.2c.1,0,.2-.1.342-.342a61.019,61.019,0,0,0,6.4-1.537l-.239-1.4c-.888.239-1.776.461-2.664.649V30.254h1.076c.393,0,1.059.017,1.366.034v-1.5c-.307.017-.974.034-1.366.034h-1.076c.017-1.025.017-1.042.017-1.332.239-.154.325-.239.325-.342s-.1-.154-.29-.171l-1.674-.12c.034.41.051,1.127.051,1.964h-1.144c-.393,0-1.059-.017-1.366-.034v1.5c.307-.017.974-.034,1.366-.034h1.144Zm6.336-4.851a14.4,14.4,0,0,1,1.725,1.776l1.008-1.452a10.162,10.162,0,0,0-2.733-2.289v-.512c0-3.074.017-3.809.017-4.406.239-.137.325-.222.325-.325,0-.085-.1-.154-.256-.171l-1.742-.12c.085.547.12,3.416.12,5.021v5.722c0,2.169-.034,3.792-.085,4.987h1.708c-.051-1.093-.085-2.75-.085-4.987Zm-11.785.717c-.683.222-1.383.444-2.084.649l.717,1.605c.051.137.137.2.239.2s.154-.068.222-.2l.1-.2c.273-.1.547-.2.8-.307v3.211c0,.632-.068.717-.632.717-.2,0-.649-.017-1.093-.034a11.372,11.372,0,0,1,.29,1.725c1.657-.017,2.084-.068,2.528-.342.393-.222.529-.564.529-1.281,0-.256,0-.359-.017-1.23-.017-.615-.034-2.664-.034-3.245v-.188c.581-.273,1.213-.564,1.964-.939L116.3,26.8c-.512.239-1.042.478-1.605.717V24.874h.188c.393,0,1.059.017,1.366.034V23.337c-.307.017-.974.017-1.366.017H114.7c.017-2.306.017-2.374.017-2.886.239-.137.325-.222.325-.325,0-.085-.1-.154-.256-.171l-1.759-.12c.051.427.085,1.605.1,3.5h-.342c-.393,0-1.059,0-1.366-.017v1.571c.307-.017.974-.034,1.366-.034h.342Zm5.448-2.955h-1.366c-.393,0-1.059-.017-1.366-.034v1.5c.307-.017.974-.034,1.366-.034h4.355c.393,0,1.042.017,1.349.034v-1.5c-.29.017-.974.034-1.349.034h-1.418V23.473h.837c.393,0,1.059,0,1.366.017v-1.5c-.29.017-.956.034-1.366.034h-.837v-.1c0-.82.017-1.093.017-1.418.239-.137.325-.222.325-.325s-.1-.154-.29-.171l-1.674-.12c.034.427.051,1.127.051,2.015v.12h-.734c-.41,0-1.076-.017-1.366-.034v1.5c.307-.017.974-.017,1.366-.017h.734Zm22.049,1.178c0,3.535-.376,5.055-1.537,6.251a7.8,7.8,0,0,1-1.93,1.349,4.486,4.486,0,0,1,1.076,1.554,10.5,10.5,0,0,0,1.725-1.2,6.519,6.519,0,0,0,2.118-3.689,32.721,32.721,0,0,0,.273-4.765,25.3,25.3,0,0,0,3.228-.393l-.2-1.793a19.96,19.96,0,0,1-3.023.41l-.034-2.835c.29-.154.359-.239.359-.376s-.137-.222-.325-.239l-1.879-.1c.051.512.051.8.068,1.23.034,1.674.051,1.93.068,2.408-.905.051-1.691.085-2.306.085a17.1,17.1,0,0,1-2.818-.085V26c.751.017,1.793.034,2.254.034.939,0,1.708-.034,2.886-.1Zm-8.881-5.773c-.051.444-.1.905-.188,1.435a34.745,34.745,0,0,0-.632,6.627,33.657,33.657,0,0,0,.478,5.944,7.511,7.511,0,0,1,1.81-.5,32.94,32.94,0,0,1-.512-5.944,32.526,32.526,0,0,1,.769-6.593c.324-.137.41-.222.41-.359,0-.12-.1-.222-.273-.256Zm16.652,11.084a20.117,20.117,0,0,1,3.126,3.86l1.554-1.178a22.527,22.527,0,0,0-3.348-3.843ZM11.383,56.419V69.468h1.691V57.956h3.091V56.419Zm13.732,2.118.649-.461A7.315,7.315,0,0,0,24.3,56.334l-1.144.8a7.275,7.275,0,0,1,1.11,1.4h-.837c-.991,0-2.528-.034-3.4-.068v1.657c.922-.034,2.459-.068,3.4-.068h2.835V61H24.073c-.974,0-2.511-.034-3.4-.068v1.657c.922-.034,2.459-.068,3.4-.068h2.186v.905H22.843c-.991,0-2.528-.034-3.416-.068V65.01c.939-.034,2.476-.068,3.416-.068h8.523c1.042,0,2.494.034,3.416.068V63.353c-.871.034-2.34.068-3.416.068H27.9v-.905h2.22c1.042,0,2.494.017,3.4.068V60.928c-.871.034-2.323.068-3.4.068H27.9v-.939h2.938c1.042,0,2.494.034,3.4.068V58.469c-.854.034-2.323.068-3.4.068h-.991c.41-.683.478-.82.666-1.093.325-.034.461-.1.461-.222a.239.239,0,0,0-.154-.2l-1.64-.683a12.387,12.387,0,0,1-1.042,2.2ZM27.13,68.614a6.856,6.856,0,0,0,2.289,2.05A15.12,15.12,0,0,0,34.27,72.32a5.224,5.224,0,0,1,.8-1.486,17.17,17.17,0,0,1-4.7-1.4,6.1,6.1,0,0,1-2.067-1.554H31.4c1.042,0,2.494.034,3.4.068V66.291c-.871.051-2.323.068-3.4.068h-3.57q.051-.256.1-.564c.325-.12.41-.188.41-.325s-.12-.2-.359-.239l-1.691-.2c-.034.444-.068.888-.137,1.332H22.843c-.991,0-2.528-.017-3.416-.068v1.657c.939-.034,2.476-.068,3.416-.068h2.869a3.938,3.938,0,0,1-1.571,1.605c-1.247.751-2.511,1.093-5.141,1.418a4.05,4.05,0,0,1,.6,1.469,14.438,14.438,0,0,0,3.45-.683A6.311,6.311,0,0,0,27.1,68.682Zm20.068-1.3c0,2.2-.034,3.894-.085,5h1.742c-.068-1.11-.085-2.75-.085-5v-.581a13.374,13.374,0,0,0,3.911,4.3,5.649,5.649,0,0,1,1.093-1.418,12.665,12.665,0,0,1-4.611-4.885h2.272c.564,0,1.52.017,2.032.034V63.148c-.512.017-1.383.034-2.032.034H48.77V60.723H50.9c.564,0,1.52.017,2.05.034V59.135c-.512.017-1.383.034-2.05.034H48.77c0-.666,0-1.315.017-1.981.222-.137.307-.222.307-.325,0-.085-.1-.154-.239-.171l-1.759-.12c.034.307.051.632.068.956.017.547.017,1.093.017,1.64H45.713c-.649,0-1.52-.017-2.032-.034v1.623c.512-.017,1.469-.034,2.032-.034H47.2v2.459H45.132c-.649,0-1.52-.017-2.032-.034v1.623c.512-.017,1.469-.034,2.032-.034h1.64a11.592,11.592,0,0,1-2.733,2.75,19.9,19.9,0,0,1-4.1,2.374,5.551,5.551,0,0,1,.922,1.52,20.669,20.669,0,0,0,3.979-2.408A13.535,13.535,0,0,0,47.2,66.684Zm-7.464-1.093H41.17v.666h1.537c-.034-.649-.051-1.554-.051-2.989V60.911c0-1.025.034-2.169.051-2.716-.307.017-.6.034-1.008.034H39.188c-.393,0-.683-.017-1.008-.034.034.564.051,1.093.051,2.716v4.15q0,2.024-.051,2.972h1.554Zm0-1.4V59.647H41.17v5.175Zm19.727-7.361c.017,1.161.034,1.759.034,2.818,0,1.144-.017,1.725-.085,3.979-.034,1.093-.051,2.135-.051,3.006,0,2,.376,3.125,1.264,3.877a4.048,4.048,0,0,0,2.784.82,7.6,7.6,0,0,0,5.158-1.827,9.348,9.348,0,0,0,2.1-2.647,18.156,18.156,0,0,1-1.5-1.452,6.633,6.633,0,0,1-2.716,3.279,5.612,5.612,0,0,1-2.852.82q-1.742,0-2.152-1.127a6.924,6.924,0,0,1-.256-2.511c0-.529.017-1.383.051-2.494.051-1.605.085-2.9.1-3.775.034-1.3.051-1.588.051-2.084.222-.085.325-.2.325-.359,0-.12-.137-.2-.325-.222ZM75.5,58.554c.051.307.12,1.742.12,2.835,0,1.008.12,2.9.256,4.065a8.538,8.538,0,0,0,1.264,3.689A2.749,2.749,0,0,0,79.5,70.629a1.97,1.97,0,0,0,1.23-.444,5.849,5.849,0,0,0,1.2-1.827c.171-.41.239-.6.342-.82a8.823,8.823,0,0,1-1.486-1.093C80.264,68,79.82,68.75,79.41,68.75c-.376,0-.871-.615-1.264-1.571a16.466,16.466,0,0,1-.717-5.055V60.4c0-.376.017-.512.051-.974.239-.12.342-.239.342-.376,0-.12-.171-.256-.376-.273Zm9.137,2.1a12.634,12.634,0,0,1,2.22,2.955,15.386,15.386,0,0,1,1.315,3.5l1.759-.786a13.194,13.194,0,0,0-3.979-6.661Zm13.51,11.716V59.323H96.455V70.834H93.364v1.537ZM118.231,56.4a9.284,9.284,0,0,1-1.076,2.408,11.4,11.4,0,0,1-1.2.051,14.309,14.309,0,0,1-2.306-.137l-.068,1.605a12.259,12.259,0,0,0,1.537.085c.359,0,.547,0,1.247-.034a19.709,19.709,0,0,1-3.945,4.509l1.486,1.264c1.264-1.742,2.8-2.818,4-2.818.8,0,1.093.325,1.247,1.281a10.759,10.759,0,0,0-3.4,2.254,3.208,3.208,0,0,0-.939,2.272,2.479,2.479,0,0,0,1.452,2.425,8.546,8.546,0,0,0,3.552.461,32.9,32.9,0,0,0,5.192-.393,3.049,3.049,0,0,1-.034-.512,11.719,11.719,0,0,1,.1-1.349,24.213,24.213,0,0,1-5.5.547c-2.2,0-2.989-.324-2.989-1.247a2.272,2.272,0,0,1,.939-1.657,8.645,8.645,0,0,1,1.708-1.093v2.562h1.674V65.642c1.964-.871,2.852-1.23,4.424-1.793h.222c.137,0,.239-.051.239-.154a.369.369,0,0,0-.1-.239l-1.213-1.213c-1.435.7-2.869,1.366-3.689,1.691A2.16,2.16,0,0,0,118.5,62a3.756,3.756,0,0,0-1.588.325c.325-.444.922-1.383,1.281-2a40.659,40.659,0,0,0,5.09-.564l-.41-1.537a20.067,20.067,0,0,1-3.843.529,11.6,11.6,0,0,0,.769-1.537c.256-.1.325-.171.325-.273a.2.2,0,0,0-.171-.188Zm20.478,4.936h3.382c.905,0,2.272.017,3.057.051V59.7c-.751.034-2.118.068-3.057.068h-3.382V58.434c0-.427,0-.871.017-1.315.222-.154.307-.239.307-.342,0-.085-.1-.154-.239-.171l-1.9-.12c.068.547.068,1.11.085,1.657,0,.547,0,1.076.017,1.623h-3.535c-.871,0-2.357-.034-3.057-.068v1.691c.734-.034,2.22-.051,3.057-.051H137V66.1l-.6-1.3a36.745,36.745,0,0,1-6.627,3.962l.854,1.64a.3.3,0,0,0,.256.171c.154,0,.239-.137.29-.461A32.537,32.537,0,0,0,137,66.359v3.45c0,.632-.068.717-.649.717-.376,0-.8-.034-1.537-.085a11.692,11.692,0,0,1,.41,1.845c1.964-.017,2.408-.068,2.938-.342.461-.222.6-.547.6-1.281,0-.273-.017-.717-.017-1.264-.017-1.657-.034-2.357-.034-3.228V65.42a15.708,15.708,0,0,0,6.063,5.465,7.982,7.982,0,0,1,1.11-1.657,13.879,13.879,0,0,1-4.987-3.5,24.1,24.1,0,0,0,3.023-2.459c.512-.034.529-.068.529-.171a.294.294,0,0,0-.137-.239l-1.469-1.008c-.324.376-.717.786-1.093,1.161a17.6,17.6,0,0,1-1.845,1.537,12.212,12.212,0,0,1-1.2-1.981Zm-7.225,1.52a15.611,15.611,0,0,1,2.391,2.9l1.4-1.11a12.162,12.162,0,0,0-2.545-2.886Zm8.147-5a10.663,10.663,0,0,1,2.391,1.742l.991-1.144a9.178,9.178,0,0,0-2.511-1.708Zm17.028-.41c-.085,1.008-.154,1.588-.324,2.852a10.964,10.964,0,0,0-3.365,1.093c-.12-.581-.188-.991-.359-2.391.222-.154.273-.222.273-.325s-.12-.2-.307-.2l-1.845-.068a26.243,26.243,0,0,1,.547,2.6c.068.393.171.82.256,1.247a6.8,6.8,0,0,0-2.767,5.243c0,2.067,1.059,3.365,2.733,3.365,1.144,0,1.845-.393,2.989-1.623.1.137.359.461.786,1.008a5.929,5.929,0,0,1,1.383-1.315,13.744,13.744,0,0,1-1.008-1.178,21.97,21.97,0,0,0,2.135-5.995c2.6.034,4.253,1.5,4.253,3.775,0,2.169-1.2,3.484-4.1,4.526a5.456,5.456,0,0,1,.888,1.64,10.341,10.341,0,0,0,3.006-1.657,5.748,5.748,0,0,0,2.067-4.526,4.807,4.807,0,0,0-3.091-4.7,6.886,6.886,0,0,0-2.8-.564c.171-.905.222-1.264.342-2.015.239-.1.325-.171.325-.273a.254.254,0,0,0-.2-.2ZM152,63.951a21.6,21.6,0,0,0,1.623,3.843A2.892,2.892,0,0,1,151.5,69.28c-.649,0-1.093-.717-1.093-1.827A4.991,4.991,0,0,1,152,63.951Zm2.613,2.323a16.809,16.809,0,0,1-1.247-3.348,6.655,6.655,0,0,1,2.767-1.11c-.085.359-.342,1.4-.512,1.913A14.849,14.849,0,0,1,154.61,66.274Zm18.429-1.349a14.323,14.323,0,0,0-1.332-3.04l-1.127.6a7.107,7.107,0,0,1,.427.888c-.5.051-1.008.085-1.5.1a32.7,32.7,0,0,0,2.545-3.911c.256-.068.376-.137.376-.256a.32.32,0,0,0-.188-.239l-1.452-.683a16.164,16.164,0,0,1-1.178,2.391c-.222-.2-.461-.376-.7-.564a23.211,23.211,0,0,0,1.383-2.6c.239-.051.359-.137.359-.239a.287.287,0,0,0-.154-.222l-1.366-.564a18.651,18.651,0,0,1-1.3,2.869c-.171-.12-.342-.239-.529-.359l-.734,1.2a15.881,15.881,0,0,1,2.22,1.793c-.325.5-.649.974-.991,1.469-.376,0-.769.017-1.2.017l.444,1.605c.034.137.137.239.222.239s.171-.068.307-.239c.427-.051.905-.12,1.366-.188v3.775c0,1.571-.017,2.75-.068,3.5h1.759c-.051-.751-.068-1.93-.068-3.5V64.754c.29-.034.581-.085.871-.137.068.256.154.529.239.854Zm5.26-5.192h2.237c.564,0,1.52.017,2.049.034V58.161c-.512.034-1.383.051-2.049.051H178.3V57.153c.239-.137.342-.239.342-.342,0-.085-.12-.154-.307-.171l-1.691-.1c.017.6.034.8.034,1.571v.1h-1.913c-.649,0-1.537-.017-2.049-.051v1.605c.529-.017,1.486-.034,2.049-.034h1.913v.956h-1.486c-.5,0-1.213-.017-1.708-.034v1.588c.5-.017,1.213-.034,1.708-.034h4.782c.5,0,1.213.017,1.691.034V60.655c-.478.017-1.2.034-1.691.034H178.3Zm-2.989,3.211c-.683,0-1.554-.017-2.254-.051.017.547.017.6.017,1.281v.666c0,.325,0,.461-.017.939h1.64V64.429h5.79v1.349h1.64c-.017-.393-.017-.683-.017-.974v-.632c0-.359,0-.956.017-1.3-1.127.068-1.383.068-2.118.068Zm-4.492,3.467a14.867,14.867,0,0,1,1.008,3.552l1.5-.632a12.578,12.578,0,0,0-1.281-3.484Zm-3.792-.376v.239a13.148,13.148,0,0,1-.615,4.321,6.546,6.546,0,0,1,1.366.581,17.28,17.28,0,0,0,.666-4.424c.085-.068.256-.154.256-.29,0-.1-.068-.171-.2-.188Zm12.348-.325c.239-.154.324-.239.324-.342s-.1-.154-.324-.171l-1.64-.137c0,.307.017.871.017,1.11v4.594c0,1.076.461,1.332,2.391,1.332,2.494,0,2.7-.222,2.784-3.211a13.792,13.792,0,0,1-1.537-.5c-.017,2-.085,2.186-.905,2.186-.922,0-1.11-.1-1.11-.717Zm-4.1-.751c.034.427.034.7.034,1.076a4.589,4.589,0,0,1-.922,3.228A5.824,5.824,0,0,1,171.6,71a5.758,5.758,0,0,1,.871,1.349,6.646,6.646,0,0,0,3.16-2c.956-1.093,1.2-1.964,1.315-4.731.256-.137.342-.239.342-.325,0-.1-.154-.188-.393-.2Zm20.683-1.9c0,3.535-.376,5.055-1.537,6.251a7.8,7.8,0,0,1-1.93,1.349,4.487,4.487,0,0,1,1.076,1.554,10.5,10.5,0,0,0,1.725-1.2,6.519,6.519,0,0,0,2.118-3.689,32.724,32.724,0,0,0,.273-4.765,25.3,25.3,0,0,0,3.228-.393l-.2-1.793a19.959,19.959,0,0,1-3.023.41l-.034-2.835c.29-.154.359-.239.359-.376s-.137-.222-.325-.239l-1.879-.1c.051.512.051.8.068,1.23.034,1.674.051,1.93.068,2.408-.905.051-1.691.085-2.306.085a17.1,17.1,0,0,1-2.818-.085v1.845c.751.017,1.793.034,2.254.034.939,0,1.708-.034,2.886-.1Zm-8.881-5.773c-.051.444-.1.905-.188,1.435a34.744,34.744,0,0,0-.632,6.627,33.657,33.657,0,0,0,.478,5.944,7.511,7.511,0,0,1,1.81-.5,32.94,32.94,0,0,1-.512-5.944,32.526,32.526,0,0,1,.769-6.593c.325-.137.41-.222.41-.359,0-.12-.1-.222-.273-.256Zm19.846,2.425c2.289-.393,2.7-.444,5.841-.854a38.454,38.454,0,0,1-7.088,5.961l1.042,1.52a9.951,9.951,0,0,1,5.944-2.254c2.1,0,3.348,1.008,3.348,2.716a3.146,3.146,0,0,1-.82,2.084,3.8,3.8,0,0,1-2.067,1.161,4.211,4.211,0,0,0,.051-.666c0-1.52-1.059-2.425-2.818-2.425a2.412,2.412,0,0,0-2.681,2.357c0,1.64,1.281,2.545,3.638,2.545,3.945,0,6.61-2.015,6.61-4.987a3.7,3.7,0,0,0-1.178-2.938,5.686,5.686,0,0,0-3.706-1.332,6.866,6.866,0,0,0-2.835.615c.512-.444.871-.769,1.11-.974.956-.8,1.879-1.657,2.8-2.494.2-.171.5-.461.888-.8.461-.154.512-.188.512-.342,0-.085-.034-.154-.154-.273l-1.127-1.161a11.6,11.6,0,0,1-2.323.325c-4.048.307-4.253.307-5.243.307Zm4.56,10.589c-.171.017-.324.034-.461.034-1.23,0-1.879-.376-1.879-1.076,0-.547.478-.939,1.161-.939.82,0,1.264.478,1.264,1.366A2.046,2.046,0,0,1,211.484,70.3Z" transform="translate(150.24 1023)"/><path d="M3.783-8.064a3.6,3.6,0,0,0-.991,2.476A2.931,2.931,0,0,0,4-3.162C5.1-2.428,6.84-2.1,9.59-2.1a28.707,28.707,0,0,0,4.7-.325c-.017-.29-.017-.41-.017-.615,0-.427.017-.905.051-1.469a18.968,18.968,0,0,1-4.748.547,10.581,10.581,0,0,1-4.065-.581,1.409,1.409,0,0,1-.854-1.315,1.969,1.969,0,0,1,.5-1.332Zm.5-4.851c2.084.085,3.04.1,4.27.1,1.81,0,2.869-.034,4.782-.171l-.1-1.827a34.964,34.964,0,0,1-4.372.239c-1.52,0-3.313-.051-4.509-.12ZM24.534-10.66l1.178-1.674c.256-.034.342-.085.342-.188,0-.068-.051-.085-.171-.222l-.649-.837a1.956,1.956,0,0,1-.683.342c.034-1.11.068-1.879.085-2.306.171-.12.222-.171.222-.256s-.085-.154-.222-.154l-1.81-.085a25.979,25.979,0,0,1,.1,3.04,29.259,29.259,0,0,1-2.972.256l.171,1.879c.8-.2,2.357-.529,2.8-.6L22.894-8.85a33.236,33.236,0,0,1-3.5,4.919L20.5-2.445a23.51,23.51,0,0,0,1.93-2.681c.222-.342.239-.359.41-.649-.034,2.254-.051,2.921-.137,4.475l1.879-.051c-.034-.905-.068-2.921-.085-6.029a30.47,30.47,0,0,1,2.425-2.869c1.332-1.452,2.118-2.05,2.63-2.05a.916.916,0,0,1,.547.222,1.852,1.852,0,0,1,.273,1.213c0,.478-.051,1.776-.137,3.33-.085,1.537-.12,2.357-.12,3.023a2.751,2.751,0,0,0,.325,1.605,2.312,2.312,0,0,0,1.947.786c1.605,0,2.34-.632,3.228-2.784-.376-.2-1.059-.6-1.5-.871-.5,1.452-.922,2-1.554,2-.512,0-.615-.171-.615-1.11,0-.154.017-.307.017-.444.137-2.63.222-4.987.222-5.722a3.563,3.563,0,0,0-.461-2.05A2.1,2.1,0,0,0,30-13.871a4.313,4.313,0,0,0-3.177,1.623c-.6.632-1.144,1.23-2.289,2.511Zm18.856-5.6a22.306,22.306,0,0,1-.717,3.552c-.974.1-2.545.239-3.928.342l.359,1.862c.564-.085.581-.1,1.076-.188.939-.171.974-.154,2.135-.325A23.611,23.611,0,0,1,41.323-8.1a22.939,22.939,0,0,1-2.579,5.055,5.338,5.338,0,0,1,1.52.939,28.081,28.081,0,0,0,2.75-5.687c.427-1.144.939-2.681,1.144-3.433a9.746,9.746,0,0,1,1.52-.085c1.144,0,1.366.359,1.366,2.34,0,.427-.034.974-.085,1.554a7.2,7.2,0,0,1-.717,2.989,1.442,1.442,0,0,1-1.383.666,7.958,7.958,0,0,1-1.469-.154,8.721,8.721,0,0,1,.154,1.862c.29.034.922.068,1.418.068a3,3,0,0,0,2.733-1.264C48.428-4.409,48.77-6.459,48.77-9.6c0-1.657-.307-2.391-1.2-2.886a3.772,3.772,0,0,0-1.9-.393c-.393,0-.974.017-1.264.034.325-1.178.393-1.469.632-2.579.29-.154.342-.2.342-.325s-.1-.2-.256-.222Zm5.038,2.886a13.911,13.911,0,0,1,4.1,4.628L54.013-9.96a15.718,15.718,0,0,0-4.424-4.56Zm10.965-.854c-.068.837-.12,1.213-.273,2.237a31.968,31.968,0,0,0-.512,5.09c0,.171.034.461.034.751v.273l1.605.034a7.261,7.261,0,0,1,5.5-2.938c1.64,0,2.681.854,2.681,2.2,0,2.118-2.289,3.33-6.268,3.33-.256,0-.683-.017-1.213-.034a10.139,10.139,0,0,1,.273,1.9c3.775-.068,5.26-.325,6.917-1.264A4.316,4.316,0,0,0,70.324-6.63a3.423,3.423,0,0,0-.7-2.254A4.723,4.723,0,0,0,65.9-10.353a7.445,7.445,0,0,0-3.928,1.127,6.453,6.453,0,0,0-1.64,1.2,27.184,27.184,0,0,1,.8-5.175c.256-.051.41-.154.41-.29s-.085-.2-.273-.256Zm1.571-.939a15.284,15.284,0,0,1,5.09,1.913l.888-1.623A16.6,16.6,0,0,0,61.63-16.74Zm21.964,1.9a6.4,6.4,0,0,1,2.1.325A4.2,4.2,0,0,1,88.171-8.73a4.086,4.086,0,0,1-1.879,3.587,10.284,10.284,0,0,1-3.023,1.23,5.782,5.782,0,0,1,.837,1.691,10.961,10.961,0,0,0,3.587-1.691,5.435,5.435,0,0,0,2.323-4.731,5.549,5.549,0,0,0-2.272-4.748,8.259,8.259,0,0,0-4.765-1.4,7.775,7.775,0,0,0-5.585,2.237,7.132,7.132,0,0,0-2.152,5.073c0,2.494,1.213,4.219,2.972,4.219,1.332,0,2.374-1.008,3.4-3.245a35.3,35.3,0,0,0,1.9-6.131c.12-.051.188-.1.188-.188s-.034-.12-.188-.188Zm-1.178.085a6.061,6.061,0,0,1-.2,1.332,29.3,29.3,0,0,1-1.366,4.219c-.786,1.759-1.435,2.63-2,2.63-.683,0-1.23-1.076-1.23-2.459A6.076,6.076,0,0,1,81.75-13.188ZM97.514-2.65h6.934V-1.8h1.725c-.034-.649-.051-1.571-.051-3.006v-8.13c0-1.025.017-2.186.051-2.716-.461.017-.871.017-1.452.017H97.24c-.581,0-.991,0-1.452-.017.034.547.051.991.051,2.716v8.386c0,1.349-.017,2.357-.051,2.989h1.725Zm6.934-1.588H97.514v-4.2h6.934Zm0-5.79H97.514v-4.031h6.934Zm14.159,4H116.9l-1.349-.017v1.605c.359-.017.888-.017,1.349-.017h1.708c0,1.11-.017,2.237-.068,3.348h1.793c-.051-1.11-.085-2.237-.085-3.348h1.725c.461,0,.991,0,1.349.017V-6.049l-1.349.017h-1.725V-10.2a19.86,19.86,0,0,0,1.742,2.425,18.839,18.839,0,0,0,4.628,4.1,5.49,5.49,0,0,1,1.059-1.469,20.132,20.132,0,0,1-6.968-6.78H123.7c1.042,0,2.494.034,3.4.068v-1.708c-.871.051-2.323.068-3.4.068h-3.45c0-.905.017-1.827.017-2.733.239-.154.325-.239.325-.325,0-.1-.1-.171-.256-.188l-1.827-.12a13.457,13.457,0,0,1,.085,1.657c.017.564,0,1.144.017,1.708h-3.433c-.974,0-2.511-.017-3.4-.068v1.708c.922-.034,2.459-.068,3.4-.068h2.818a19.971,19.971,0,0,1-3.091,4,23.188,23.188,0,0,1-3.792,3.108,3.808,3.808,0,0,1,.939,1.418,23.819,23.819,0,0,0,3.86-3.3,16.736,16.736,0,0,0,2.7-3.433Zm19.658-7.242a6.4,6.4,0,0,1,2.1.325,4.2,4.2,0,0,1,3.143,4.219,4.086,4.086,0,0,1-1.879,3.587,10.284,10.284,0,0,1-3.023,1.23,5.782,5.782,0,0,1,.837,1.691,10.961,10.961,0,0,0,3.587-1.691,5.435,5.435,0,0,0,2.323-4.731,5.549,5.549,0,0,0-2.272-4.748,8.259,8.259,0,0,0-4.765-1.4,7.775,7.775,0,0,0-5.585,2.237,7.132,7.132,0,0,0-2.152,5.073c0,2.494,1.213,4.219,2.972,4.219,1.332,0,2.374-1.008,3.4-3.245a35.3,35.3,0,0,0,1.9-6.131c.12-.051.188-.1.188-.188s-.034-.12-.188-.188Zm-1.178.085a6.06,6.06,0,0,1-.2,1.332,29.3,29.3,0,0,1-1.366,4.219c-.786,1.759-1.435,2.63-2,2.63-.683,0-1.23-1.076-1.23-2.459A6.076,6.076,0,0,1,137.086-13.188ZM3.424,24.2c1.093-.068,1.469-.085,2.647-.154.956-.051,1.708-.085,2.152-.12l2.613-.154a15.594,15.594,0,0,1-2.22,3.792A17.174,17.174,0,0,1,1.46,32.926a3.5,3.5,0,0,1,1.178,1.605,19.445,19.445,0,0,0,6.507-4.851A19.133,19.133,0,0,1,14.389,34.5l1.418-1.418a20.25,20.25,0,0,0-5.585-4.68,18.43,18.43,0,0,0,2.6-4.936c.222-.068.307-.137.307-.239,0-.051-.034-.1-.12-.171l-1.264-1.161-.256.325-3.348.1c-1.64.051-2.442.068-4.953.085Zm20.6,3.6a16.191,16.191,0,0,1,3.365,2.7,15.477,15.477,0,0,1-5.722,3.621,4.465,4.465,0,0,1,1.093,1.588,17.415,17.415,0,0,0,6.627-4.663,16.244,16.244,0,0,0,3.04-6.524c.256-.12.376-.239.376-.376,0-.085-.034-.085-.188-.256l-1.161-1.213-.256.307H26.584c.222-.461.325-.7.769-1.862.307-.12.359-.154.359-.273,0-.1-.051-.154-.222-.222l-1.725-.6a13.875,13.875,0,0,1-5.465,7.6,4.341,4.341,0,0,1,1.281,1.383,18.226,18.226,0,0,0,4.133-4.389h4.851A11.846,11.846,0,0,1,28.6,28.981a3.988,3.988,0,0,1-.512-.478,14.186,14.186,0,0,0-3.006-2.067Zm15.457-4.936a15.292,15.292,0,0,1,3.45,3.006l1.452-1.5a14.979,14.979,0,0,0-3.757-2.955Zm1.93,11.494a.441.441,0,0,0,.29.2c.12,0,.188-.1.256-.342A27.474,27.474,0,0,0,47.847,30.4,19.343,19.343,0,0,0,52.6,24.335,6.042,6.042,0,0,1,51.314,22.9a25.241,25.241,0,0,1-1.657,2.784,18.438,18.438,0,0,1-3.689,3.792,25.406,25.406,0,0,1-5.67,3.211Zm28.01-14a10.379,10.379,0,0,1,2.067,1.759l.837-.922a11.754,11.754,0,0,0-2.152-1.725Zm-1.332,1.469a9.936,9.936,0,0,1,2.05,1.776l.854-.939a10.94,10.94,0,0,0-2.152-1.708ZM60.913,27.8a16.191,16.191,0,0,1,3.365,2.7,15.477,15.477,0,0,1-5.722,3.621,4.465,4.465,0,0,1,1.093,1.588,17.414,17.414,0,0,0,6.627-4.663,16.244,16.244,0,0,0,3.04-6.524c.256-.12.376-.239.376-.376,0-.085-.034-.085-.188-.256l-1.161-1.213-.256.307H63.475c.222-.461.325-.7.769-1.862.307-.12.359-.154.359-.273,0-.1-.051-.154-.222-.222l-1.725-.6a13.875,13.875,0,0,1-5.465,7.6,4.341,4.341,0,0,1,1.281,1.383A18.226,18.226,0,0,0,62.6,24.626h4.851a11.846,11.846,0,0,1-1.964,4.355,3.988,3.988,0,0,1-.512-.478,14.186,14.186,0,0,0-3.006-2.067Zm28.71-.974c-.734.034-1.947.051-2.733.051H78.214c-.871,0-2-.017-2.716-.051V28.69c.717-.034,1.845-.051,2.716-.051H86.89c.786,0,2,.017,2.733.051Zm15.064-5.79a9.922,9.922,0,0,1,2.067,1.759l.854-.922a11.009,11.009,0,0,0-2.169-1.708Zm-1.332,1.469a10.482,10.482,0,0,1,2.067,1.776l.854-.939a11.529,11.529,0,0,0-2.169-1.708Zm-2.938,3.348v-1.5c0-2.067.017-3.057.034-3.416.222-.137.29-.222.29-.325s-.085-.154-.256-.171l-2.015-.12c.068.41.085,1.793.085,4.031v6.9c0,1.691-.034,3.108-.1,4h2.032c-.034-.837-.068-2.186-.068-4V26.521a18.19,18.19,0,0,1,5.243,3.433l1.247-1.64A24.086,24.086,0,0,0,101,24.83Zm23.091-2.272c-1.076.683-1.793,1.11-2.135,1.3l-2.835,1.605a14.1,14.1,0,0,1-.666-5.226c.154-.12.222-.222.222-.342,0-.1-.137-.188-.29-.188l-2.015-.017a9.888,9.888,0,0,1,.29,1.81c.307,3.074.393,3.518.8,4.611a2.811,2.811,0,0,0,.12.273c-2.613,1.708-3.484,2.818-3.484,4.424a2.9,2.9,0,0,0,1.264,2.476c.888.6,2.237.871,4.424.871a33.117,33.117,0,0,0,5.79-.5,8.206,8.206,0,0,1-.034-.854,8.6,8.6,0,0,1,.051-1.059,25.652,25.652,0,0,1-5.807.615c-2.681,0-3.792-.444-3.792-1.571,0-1.605,1.708-2.835,8.728-6.336.41-.017.529-.051.529-.188a.423.423,0,0,0-.12-.273Zm11.665-3.723a17.874,17.874,0,0,1-.8,2.7l-.068.2c-.649.017-1.025.034-1.23.034-.529,0-1.332-.034-1.827-.085l-.017,1.691c1.008.034,1.076.051,1.247.051.239,0,.974-.034,1.281-.051a31.83,31.83,0,0,1-3.587,6.627,4.042,4.042,0,0,1,1.64.905,46.1,46.1,0,0,0,3.757-7.634c.342-.034.7-.085,1.042-.12a14.289,14.289,0,0,0,2.152-.41L138.5,22.2a12.839,12.839,0,0,1-1.981.41c-.154.017-.325.051-.393.051.068-.171.12-.273.171-.41.222-.6.273-.717.564-1.366.222-.1.29-.171.29-.29,0-.085-.068-.171-.2-.2Zm5.158,4.543a12.034,12.034,0,0,1,4.219,1.691l.837-1.554a10.894,10.894,0,0,0-4.475-1.674Zm.051,1.178a2.871,2.871,0,0,0-1.127,2.152,9.6,9.6,0,0,0,.12,1.349l.2,1.332a7.44,7.44,0,0,0-1.81-.239c-1.793,0-3.04,1.008-3.04,2.459,0,1.554,1.435,2.647,3.518,2.647,1.64,0,2.494-.376,2.9-1.264a4.179,4.179,0,0,0,.273-1.349,19.68,19.68,0,0,1,2.75,1.827,3.641,3.641,0,0,1,.956-1.537,20.536,20.536,0,0,0-3.706-2.015c-.051-.444-.085-.7-.171-1.213A13.857,13.857,0,0,1,141,27.751a1.4,1.4,0,0,1,.615-1.213Zm-.649,6.593c0,1.127-.41,1.588-1.418,1.588-1.2,0-1.879-.41-1.879-1.127,0-.581.564-.956,1.452-.956a5.237,5.237,0,0,1,1.845.359Zm11.955-9.086c2.289-.393,2.7-.444,5.841-.854a38.454,38.454,0,0,1-7.088,5.961l1.042,1.52a9.951,9.951,0,0,1,5.944-2.254c2.1,0,3.348,1.008,3.348,2.716a3.146,3.146,0,0,1-.82,2.084,3.8,3.8,0,0,1-2.067,1.161,4.211,4.211,0,0,0,.051-.666c0-1.52-1.059-2.425-2.818-2.425a2.412,2.412,0,0,0-2.681,2.357c0,1.64,1.281,2.545,3.638,2.545,3.945,0,6.61-2.015,6.61-4.987a3.7,3.7,0,0,0-1.178-2.938,5.686,5.686,0,0,0-3.706-1.332,6.865,6.865,0,0,0-2.835.615c.512-.444.871-.769,1.11-.974.956-.8,1.879-1.657,2.8-2.494.2-.171.5-.461.888-.8.461-.154.512-.188.512-.342,0-.085-.034-.154-.154-.273L159,20.544a11.594,11.594,0,0,1-2.323.325c-4.048.307-4.253.307-5.243.307Zm4.56,10.589c-.171.017-.324.034-.461.034-1.23,0-1.879-.376-1.879-1.076,0-.547.478-.939,1.161-.939.82,0,1.264.478,1.264,1.366A2.046,2.046,0,0,1,156.249,33.678ZM3.424,60.919c1.093-.068,1.469-.085,2.647-.154.956-.051,1.708-.085,2.152-.12l2.613-.154a15.594,15.594,0,0,1-2.22,3.792A17.174,17.174,0,0,1,1.46,69.646a3.5,3.5,0,0,1,1.178,1.605A19.445,19.445,0,0,0,9.146,66.4a19.133,19.133,0,0,1,5.243,4.816L15.807,69.8a20.25,20.25,0,0,0-5.585-4.68,18.43,18.43,0,0,0,2.6-4.936c.222-.068.307-.137.307-.239,0-.051-.034-.1-.12-.171l-1.264-1.161-.256.325-3.348.1c-1.64.051-2.442.068-4.953.085Zm29.052-3.792a1.742,1.742,0,0,0,0,3.484,1.742,1.742,0,0,0,0-3.484Zm0,.82a.915.915,0,0,1,.905.922.9.9,0,0,1-.905.905.914.914,0,1,1,0-1.827ZM23.834,60.2a14.63,14.63,0,0,1-1.383,3.143A17.5,17.5,0,0,1,19,67.836a5.563,5.563,0,0,1,1.588,1.418,21.936,21.936,0,0,0,4.9-7.737c.273-.085.359-.137.359-.256a.239.239,0,0,0-.154-.188Zm4.953,1.008A23.152,23.152,0,0,1,31.5,64.933a20.8,20.8,0,0,1,1.862,3.809l1.879-1.025a21.248,21.248,0,0,0-1.81-3.535,19.838,19.838,0,0,0-3.211-4.048Zm18.07,1.247c.376-.393,1.076-1.127,1.161-1.23s2.067-2.63,2.254-2.886c.239-.068.342-.154.342-.29q0-.1-.2-.2l-1.64-.751a14.915,14.915,0,0,1-2.681,3.638A29.213,29.213,0,0,1,38.8,66.35c.137.171.307.393.581.683a5.353,5.353,0,0,1,.6.837,33.415,33.415,0,0,0,5.585-4.15c.017.5.017,1.23.017,1.742v3.587a29.171,29.171,0,0,1-.085,3.006h1.964c-.017-.512-.051-1.793-.051-3.006v-3.6c0-1.281,0-1.879.017-2.442.2-.12.273-.2.273-.307s-.1-.171-.239-.188Zm11.9-1.537c1.093-.068,1.469-.085,2.647-.154.956-.051,1.708-.085,2.152-.12l2.613-.154a15.594,15.594,0,0,1-2.22,3.792A17.174,17.174,0,0,1,56.8,69.646a3.5,3.5,0,0,1,1.178,1.605A19.445,19.445,0,0,0,64.482,66.4a19.133,19.133,0,0,1,5.243,4.816L71.143,69.8a20.25,20.25,0,0,0-5.585-4.68,18.43,18.43,0,0,0,2.6-4.936c.222-.068.307-.137.307-.239,0-.051-.034-.1-.12-.171l-1.264-1.161-.256.325-3.348.1c-1.64.051-2.442.068-4.953.085ZM81.118,62.2a10.054,10.054,0,0,1-1.11,4.116c-.854,1.571-2,2.6-4.509,4.031a3.2,3.2,0,0,1,.991,1.52c4.424-2.442,6.063-4.9,6.439-9.7l3.86-.1v.547a21.689,21.689,0,0,1-.564,6.183c-.307.751-.666.956-1.708.956-.393,0-.888-.034-1.725-.12a9.4,9.4,0,0,1,.256,1.947c1.332.017,1.469.017,1.64.017,1.674,0,2.494-.393,3.006-1.486.5-1.025.8-3.689.8-7.02V61.739c.307-.188.307-.2.307-.307,0-.085-.017-.12-.171-.239l-1.178-.974-.239.222-4.2.1c.068-1.247.1-1.827.12-2.852.239-.137.325-.222.325-.342,0-.137-.12-.222-.307-.239l-1.913-.12a5.536,5.536,0,0,1,.034.751c0,.717-.034,2.135-.085,2.835-.683,0-3.143.051-3.416.051-.871,0-1.127,0-1.862-.051l.12,1.81c1.127-.085,3.655-.188,4.68-.188Zm16.072,8.9a.866.866,0,0,0,.256.1c.12,0,.2-.085.273-.325,5.431-2.425,7.327-3.587,10.5-6.422a9,9,0,0,1-.734-1.964,20.408,20.408,0,0,1-4.441,3.552,32.878,32.878,0,0,1-5.192,2.647V60.629c0-1.059,0-1.4.017-1.947.256-.154.324-.239.324-.325,0-.12-.085-.171-.29-.188l-2-.154c.034.461.051,1.213.051,2.562v6.661a11.4,11.4,0,0,1-.2,3.16Zm29.325-7.549c-.734.034-1.947.051-2.733.051h-8.676c-.871,0-2-.017-2.716-.051v1.862c.717-.034,1.845-.051,2.716-.051h8.676c.786,0,2,.017,2.733.051ZM136.779,56.5A9.284,9.284,0,0,1,135.7,58.9a11.4,11.4,0,0,1-1.2.051,14.31,14.31,0,0,1-2.306-.137l-.068,1.605a12.259,12.259,0,0,0,1.537.085c.359,0,.547,0,1.247-.034a19.709,19.709,0,0,1-3.945,4.509l1.486,1.264c1.264-1.742,2.8-2.818,4-2.818.8,0,1.093.325,1.247,1.281a10.759,10.759,0,0,0-3.4,2.254,3.208,3.208,0,0,0-.939,2.272,2.479,2.479,0,0,0,1.452,2.425,8.546,8.546,0,0,0,3.552.461,32.9,32.9,0,0,0,5.192-.393,3.049,3.049,0,0,1-.034-.512,11.719,11.719,0,0,1,.1-1.349,24.214,24.214,0,0,1-5.5.547c-2.2,0-2.989-.325-2.989-1.247a2.272,2.272,0,0,1,.939-1.657,8.645,8.645,0,0,1,1.708-1.093V68.98h1.674V65.735c1.964-.871,2.852-1.23,4.424-1.793h.222c.137,0,.239-.051.239-.154a.369.369,0,0,0-.1-.239l-1.213-1.213c-1.435.7-2.869,1.366-3.689,1.691a2.16,2.16,0,0,0-2.289-1.93,3.756,3.756,0,0,0-1.588.325c.325-.444.922-1.383,1.281-2a40.66,40.66,0,0,0,5.09-.564l-.41-1.537a20.066,20.066,0,0,1-3.843.529,11.6,11.6,0,0,0,.769-1.537c.256-.1.325-.171.325-.273a.2.2,0,0,0-.171-.188Zm15.73,14.466h7.617V71.7h1.759c-.034-.666-.051-1.571-.051-3.006V60.355c0-1.025.017-2.186.051-2.716-.461.017-.871.017-1.452.017H152.2c-.581,0-.991,0-1.452-.017.034.547.051,1.178.051,2.716v8.8c0,1.349-.017,2.357-.051,3.006h1.759Zm0-9.394V59.279h7.617v2.289Zm0,1.52h7.617v2.374h-7.617Zm0,3.894h7.617v2.374h-7.617Zm16.669-2.1a24.97,24.97,0,0,1-2.511.905l.632,1.605a.288.288,0,0,0,.256.188c.085,0,.171-.051.222-.188l.085-.2c.478-.2.922-.393,1.315-.581v3.279c0,.632-.068.7-.717.7-.376,0-.7-.017-1.264-.068a7.43,7.43,0,0,1,.376,1.81c1.776,0,2.237-.085,2.733-.461.427-.325.564-.751.564-1.691,0-.2-.017-.564-.017-.922-.017-1.281-.034-2.254-.034-3.023v-.376c.871-.41,1.657-.82,2.613-1.349l-.393-1.537c-.683.41-1.435.8-2.22,1.178V61.67h.854c.461,0,1.008.017,1.366.034V60.082c-.376.017-.991.034-1.366.034h-.854c0-2.306,0-2.374.017-2.886.222-.137.307-.222.307-.325,0-.085-.1-.154-.256-.171l-1.81-.12c.051.427.085,1.605.1,3.5H168.2c-.376,0-.991-.017-1.366-.034V61.7c.359-.017.905-.034,1.366-.034h.974Zm10.692,6.729v.632h1.657c-.034-.393-.051-.974-.051-1.776V66.179c0-.547.017-1.213.051-1.5-.376.017-.734.017-1.23.017H175.31c-.512,0-.854,0-1.23-.017.017.29.034.956.034,1.5v4.389c0,.837-.017,1.4-.034,1.81h1.657v-.769Zm0-1.469h-4.133V68.878h4.133Zm0-2.733h-4.133V66.162h4.133Zm-4.338-10.128c.239-.137.324-.239.324-.342s-.1-.154-.307-.171l-1.708-.12c.034.529.034.769.034,1.588v3.587c0,1.64.359,1.845,3.143,1.845,5.073,0,5.175-.068,5.277-3.313a6.511,6.511,0,0,1-1.571-.581c0,.273-.017.786-.034,1.042-.034.615-.085.837-.222.974-.222.239-.854.29-3.108.29-1.708,0-1.827-.034-1.827-.717v-1.11a22.969,22.969,0,0,0,5.226-1.571c.188.017.273.034.342.034.154,0,.256-.068.256-.171,0-.051-.034-.12-.137-.222l-1.161-1.161a20.968,20.968,0,0,1-4.526,1.759Zm13.151.273c.017,1.161.034,1.759.034,2.818,0,1.144-.017,1.725-.085,3.979-.034,1.093-.051,2.135-.051,3.006,0,2,.376,3.125,1.264,3.877a4.048,4.048,0,0,0,2.784.82,7.6,7.6,0,0,0,5.158-1.827,9.348,9.348,0,0,0,2.1-2.647,18.156,18.156,0,0,1-1.5-1.452,6.633,6.633,0,0,1-2.716,3.279,5.612,5.612,0,0,1-2.852.82q-1.742,0-2.152-1.127a6.924,6.924,0,0,1-.256-2.511c0-.529.017-1.383.051-2.494.051-1.605.085-2.9.1-3.775.034-1.3.051-1.588.051-2.084.222-.085.325-.2.325-.359,0-.12-.137-.2-.325-.222Zm16.106,3.689c.751-.188,2.63-.444,8.864-1.178-2.921,1.827-4.167,3.655-4.167,6.1a4.807,4.807,0,0,0,2.067,4.15c1.178.837,2.494,1.247,5.073,1.554a5.492,5.492,0,0,1,.6-1.862,17.842,17.842,0,0,1-3.16-.581c-1.862-.615-2.681-1.623-2.681-3.365a4.266,4.266,0,0,1,.5-2.118,7.638,7.638,0,0,1,2.647-2.784,9.593,9.593,0,0,1,2.75-1.5c.5-.068.529-.068.529-.239,0-.085-.017-.12-.12-.256l-.871-1.127a6.856,6.856,0,0,1-2.647.564c-2.835.273-7.464.547-9.411.547h-.188Zm20.068,5.892a2.6,2.6,0,1,0,2.6,2.6A2.6,2.6,0,0,0,224.857,67.136Zm0,1.23a1.375,1.375,0,1,1-1.383,1.366A1.37,1.37,0,0,1,224.857,68.366Z" transform="translate(149.54 1151.001)"/></g></svg>