<svg xmlns="http://www.w3.org/2000/svg" width="51.922" height="23.374" viewBox="0 0 51.922 23.374"><path d="M5.72-10.764c0,1.716-.026,2.912-.078,3.8h2.6c-.026-.754-.052-2.08-.052-3.8V-12.61a17.446,17.446,0,0,1,2.444,2.34l1.56-2.132a19.063,19.063,0,0,0-4-2.964v-.78h2.158c.7,0,1.508.026,2.08.052v-2.392c-.6.026-1.534.026-2.08.026H8.19v-2.366c.364-.208.494-.364.494-.52,0-.13-.156-.234-.442-.26l-2.6-.182c.052.65.078,1.638.078,3.328H3.276c-.546,0-1.482,0-2.08-.026v2.392c.572-.026,1.378-.052,2.08-.052H5.3a20.544,20.544,0,0,1-4.732,5.98,11.561,11.561,0,0,1,1.3,2.288,18.7,18.7,0,0,0,3.848-4.68ZM20.982-8.138a9.019,9.019,0,0,1-.052.988h2.6c-.052-.6-.078-1.482-.078-2.7v-8.788c0-.832.026-1.82.078-2.288-.572.026-1.118.052-1.872.052H15.314c-.78,0-1.3-.026-1.9-.052.052.468.078,1.456.078,2.288V-9.7c0,1.274-.026,2.132-.078,2.73h2.6c-.026-.286-.026-.676-.026-1.17Zm.026-2.262H15.964v-1.352h5.044Zm0-3.484H15.964v-1.274h5.044Zm0-3.406H15.964v-1.378h5.044ZM7.124-6.162a10.88,10.88,0,0,1,.13,2.392v3.3c0,1.846.624,2.054,5.824,2.054,6.084,0,6.552-.312,6.708-4.238a13.545,13.545,0,0,1-2.5-.65A4.708,4.708,0,0,1,17-1.378c-.286.52-.858.6-4.342.6a16.48,16.48,0,0,1-2.34-.156c-.468-.1-.572-.286-.572-.91V-4.03A6.98,6.98,0,0,1,9.8-5.122c.364-.156.52-.312.52-.494,0-.156-.182-.286-.416-.312Zm-3.536.65A9.017,9.017,0,0,1,.91-.832,7.328,7.328,0,0,1,2.7.962a10.487,10.487,0,0,0,2.86-4.81c.39-.1.494-.182.494-.364A.35.35,0,0,0,5.8-4.55Zm7.8.156a19.527,19.527,0,0,1,3.3,3.432l1.794-1.768a17.466,17.466,0,0,0-3.64-3.276Zm8.034,1.248A18.973,18.973,0,0,1,22.906.91l2.21-1.69A29.019,29.019,0,0,0,23.478-3.2,15.545,15.545,0,0,0,21.19-5.59Zm11.1-14.664c.078.468.182,2.652.182,4.316,0,1.534.182,4.42.39,6.188A13,13,0,0,0,33.02-2.652C34.06-1.092,35.178-.39,36.608-.39a3,3,0,0,0,1.872-.676A8.9,8.9,0,0,0,40.3-3.848c.26-.624.364-.91.52-1.248A13.432,13.432,0,0,1,38.558-6.76c-.78,2.366-1.456,3.51-2.08,3.51-.572,0-1.326-.936-1.924-2.392a25.067,25.067,0,0,1-1.092-7.7v-2.626c0-.572.026-.78.078-1.482.364-.182.52-.364.52-.572,0-.182-.26-.39-.572-.416Zm13.91,3.2a19.232,19.232,0,0,1,3.38,4.5,23.423,23.423,0,0,1,2,5.33l2.678-1.2a20.086,20.086,0,0,0-6.058-10.14Z" transform="translate(-0.572 21.788)"/></svg>