<svg xmlns="http://www.w3.org/2000/svg" width="20" height="16.263" viewBox="0 0 20 16.263"><defs><style>.a{fill:#707070;}</style></defs><path class="a" d="M9.283,22.263A11.6,11.6,0,0,0,20.959,10.587c0-.176,0-.352-.008-.528A8.36,8.36,0,0,0,23,7.928a8.317,8.317,0,0,1-2.36.649A4.129,4.129,0,0,0,22.448,6.3a8.163,8.163,0,0,1-2.61.993,4.1,4.1,0,0,0-7.1,2.809,4.534,4.534,0,0,0,.1.936,11.654,11.654,0,0,1-8.46-4.29,4.115,4.115,0,0,0,1.273,5.482A4.151,4.151,0,0,1,3.8,11.722v.056A4.113,4.113,0,0,0,7.09,15.8a4,4,0,0,1-1.08.144,4.049,4.049,0,0,1-.77-.072,4.1,4.1,0,0,0,3.834,2.85,8.231,8.231,0,0,1-5.1,1.76A7.894,7.894,0,0,1,3,20.43a11.674,11.674,0,0,0,6.283,1.833" transform="translate(-3 -6)"/></svg>