<svg xmlns="http://www.w3.org/2000/svg" width="109.018" height="24.336" viewBox="0 0 109.018 24.336"><path d="M9.464.832H19.37V1.846h2.574c-.052-.624-.078-1.482-.078-2.7v-4.5c0-.832.026-1.846.078-2.288-.91.026-1.716.026-2.886.026H15.132v-3.224h4.732c.858,0,2.314.052,3.12.078v-2.522c-.78.052-2.132.078-3.12.078H15.132V-15.6c.338-.234.494-.364.494-.52s-.182-.234-.468-.26l-2.574-.182c.026.91.052,1.222.052,2.418v6.526H9.776c-1.17,0-1.95,0-2.86-.026.026.442.052,1.456.052,2.288v4.5c0,1.274,0,2.132-.052,2.756H9.464Zm0-2.366V-5.252H19.37v3.718Zm2.47-17.81h-6.4c-1.118,0-2,0-2.86-.026.026.494.052,1.508.052,2.288v6.162C2.73-5.772,2.106-2.73.416,0a9.314,9.314,0,0,1,1.95,1.846C4.5-1.612,5.278-4.914,5.278-10.738V-17H19.344c1.508,0,3.848.052,5.174.1v-2.548c-1.326.078-3.562.1-5.174.1H14.43v-1.742c.364-.208.52-.364.52-.494,0-.156-.182-.26-.52-.286l-2.522-.182a12.551,12.551,0,0,1,.026,1.69ZM33.28-13.26H32.032c-.416,0-.936-.026-1.3-.026a29.964,29.964,0,0,0,2.184-2.626,17.056,17.056,0,0,0,1.638-2.548c.91.91,1.378,1.43,3.536,3.952l1.586-2.08a27.725,27.725,0,0,0-4.082-3.692c.7-.052.806-.156.806-.39a.459.459,0,0,0-.364-.416l-2.418-.884a18.461,18.461,0,0,1-5.226,7.41,8.59,8.59,0,0,1,1.274,2.288c.286-.26.572-.52.832-.806v2.028c.364-.026,1.04-.026,1.534-.026H33.28v1.9H31.2c-.572,0-1.508,0-2.08-.026v2.262c.546-.026,1.378-.052,2.08-.052h6.474c.7,0,1.508.026,2.08.052V-9.2c-.6.026-1.534.026-2.08.026H35.646v-1.9h1.56c.494,0,1.17,0,1.56.026v-2.262c-.39.026-1.066.052-1.56.052h-1.56v-1.768c.39-.208.52-.364.52-.52s-.156-.234-.468-.26l-2.47-.182c.026.39.052.962.052,1.664ZM47.606-3.38h2.34v1.794c0,.988-.1,1.066-1.274,1.066h-.624a9.4,9.4,0,0,1,.442,2.6h.39c2.106,0,2.652-.442,3.094-.962A2.2,2.2,0,0,0,52.364-.1c0-.624-.052-1.378-.052-1.664V-10.01c0-2.5.026-3.51.052-4.212-.988.052-2.47.1-3.848.1h-.91v-1.768H50.6c.754,0,1.846.026,2.574.052V-18.3c-.754.026-1.508.026-2.262.052L52.1-19.4a15.512,15.512,0,0,0-2.652-2.236l-1.4,1.4a21.538,21.538,0,0,1,2.106,1.976H47.606V-19.63c0-.468,0-.936.026-1.378.338-.208.494-.364.494-.494,0-.156-.156-.26-.442-.286l-2.6-.156c.078,1.222.078,2.47.078,3.692H42.328c-.754,0-1.846-.026-2.574-.052v2.47c.728-.026,1.82-.052,2.574-.052h2.834v1.768h-.806c-1.378,0-2.86-.052-3.874-.1.026.806.052,1.924.052,5.044v6.344c0,1.638-.026,4.056-.078,5.07H42.9V-3.38h2.262v1.508c0,1.638-.026,2.886-.052,3.8h2.574c-.052-.754-.078-2.08-.078-3.8Zm0-6.552v-2h2.34v2Zm0,2.236h2.34v2.08h-2.34Zm-2.444,2.08H42.9V-7.7h2.262Zm0-4.316H42.9v-2h2.262ZM35.932.676v.91h2.444c-.052-.65-.078-1.534-.078-2.7V-3.484c0-.832.026-1.846.078-2.314-.572.026-1.118.052-1.872.052H32.448c-.754,0-1.3-.026-1.872-.052.052.468.078,1.482.078,2.314V-.65c0,1.274-.026,2.158-.078,2.756H33.02V.676Zm0-2.158H33.02V-3.588h2.912ZM73.658-19.76c0-.52,0-.884.026-1.2.364-.208.494-.364.494-.52,0-.13-.156-.234-.442-.26l-2.652-.156c.052.494.078,1.144.1,2.132H66.976l-2.08-.026v2.236c.546-.026,1.378-.026,2.08-.026h4.212v1.04H68.224l-2.054-.026v2.236c.546-.026,1.352-.026,2.054-.026h2.964v1.092h-4.55c-.754,0-1.846-.026-2.6-.052v2.262c.754-.026,1.846-.052,2.6-.052H78.676c.754,0,1.846.026,2.574.052v-2.262c-.728.026-1.82.052-2.574.052H73.658v-1.092h3.224c.7,0,1.534,0,2.08.026v-2.236l-2.08.026H73.658v-1.04h4.758c.7,0,1.534,0,2.08.026v-2.236l-2.08.026ZM76.414-2v.442c0,.962-.13,1.092-1.144,1.092a15.381,15.381,0,0,1-1.82-.1,8.489,8.489,0,0,1,.494,2.678,11.182,11.182,0,0,0,3.536-.312C78.546,1.43,78.962.806,78.936-.6c0-.182-.026-.728-.052-1.222-.026-.78-.052-1.066-.052-1.534v-2.73c0-2.184,0-3.406.078-4.108-1.014.078-2.5.1-3.874.1H70.018c-1.378,0-2.86-.026-3.874-.1.052.884.052,1.664.052,5.07v2.288c0,1.638-.026,4.056-.078,5.07h2.574C68.666,1.3,68.666,1.17,68.64-2Zm-7.8-3.016h7.8v1.092h-7.8Zm7.8-1.924h-7.8V-8.086h7.8Zm-14.066-9.75v-2.054c0-.676,0-1.352.026-2.028.338-.208.468-.338.468-.494,0-.13-.156-.234-.364-.26L59.7-21.71c.1.806.156,3.38.156,7.644v8.71c0,3.354-.052,5.9-.13,7.592h2.756c-.1-1.664-.13-4.186-.13-7.592V-16.64a27.148,27.148,0,0,1,1.95,2.99L66.066-14.9a12.322,12.322,0,0,0-2.288-3.016Zm-4.992-.572a21.841,21.841,0,0,1-.832,6.552,6.071,6.071,0,0,1,1.924,1.326,27.678,27.678,0,0,0,.962-6.89l.208-.1a.227.227,0,0,0,.13-.234.265.265,0,0,0-.26-.286Zm49.088,14.4a21.209,21.209,0,0,0,2.028-6.994l.156-.052c.312-.1.442-.208.442-.39,0-.1-.052-.182-.234-.338L107.2-12.22l-.416.494h-6.058V-18.3h4.732v2.444c0,.572-.13.7-.754.7-.364,0-1.352-.052-1.742-.078a13.887,13.887,0,0,1,.338,2.47h.884c3.016,0,3.77-.468,3.77-2.34,0-.13-.026-1.612-.026-1.95v-1.43c0-.78.026-1.664.052-2.106-.572.026-1.092.026-1.872.026h-6.032c-.78,0-1.3,0-1.872-.026.026.468.052,1.456.052,2.288V-.624c0,1.3-.026,2.158-.052,2.782h2.574c-.026-.572-.052-1.586-.052-2.782v-8.84h.78a16.894,16.894,0,0,0,1.612,6.058c.156.338.338.65.494.936a14.009,14.009,0,0,1-2.6,2.808,14.4,14.4,0,0,1,1.43,1.95,20.606,20.606,0,0,0,2.6-2.808,18.533,18.533,0,0,0,2.834,2.47,6.045,6.045,0,0,1,1.56-1.924,15.657,15.657,0,0,1-3.146-2.574Zm-.338-6.6c-.13.806-.286,1.638-.494,2.444-.208.754-.468,1.482-.754,2.236a16.415,16.415,0,0,1-1.248-4.68Zm-12.22-3.614h1.742c.728,0,1.586.026,2,.052v-2.34c-.442.026-1.4.052-2,.052h-2.99v-1.95h2.314c.7,0,1.534.026,2.08.052v-2.34c-.572.026-1.508.052-2.08.052H92.638v-1.456c.364-.208.52-.364.52-.52s-.182-.234-.468-.26l-2.548-.182c.026.6.052,1.4.052,2.418H88.088c-.546,0-1.508-.026-2.08-.052v2.34c.546-.026,1.378-.052,2.08-.052h2.106v1.95H87.308c-.572,0-1.508-.026-2.08-.052v2.34c.546-.026,1.378-.052,2.08-.052h1.118l-1.586.754A15.6,15.6,0,0,1,88.374-9.1H87.308c-.572,0-1.508-.026-2.08-.052v2.34c.546-.026,1.378-.052,2.08-.052h2.886v1.95H88.088c-.546,0-1.508-.026-2.08-.052v2.34c.546-.026,1.378-.052,2.08-.052h2.106v.338c0,2.106-.026,3.536-.078,4.55h2.6c-.052-.936-.078-2.6-.078-4.55v-.338h2.314c.7,0,1.534.026,2.08.052v-2.34c-.572.026-1.508.052-2.08.052H92.638v-1.95h2.99c.858,0,1.586.026,1.924.052v-2.34c-.338.026-1.014.052-1.924.052H94.2c.364-.676.7-1.378,1.326-2.652.546-.182.6-.208.6-.364,0-.13-.1-.234-.286-.286Zm-.494,0a13.578,13.578,0,0,1-.468,1.456A23.822,23.822,0,0,1,91.832-9.1H89.024l1.534-.754a13.9,13.9,0,0,0-1.768-3.224Z" transform="translate(-0.416 22.048)"/></svg>