<svg xmlns="http://www.w3.org/2000/svg" width="325" height="216" viewBox="0 0 325 216">
  <g id="kv_txt01_sp" transform="translate(-733 -236)">
    <rect id="長方形_27" data-name="長方形 27" width="163" height="55" rx="1" transform="translate(733 270)" fill="#fff"/>
    <rect id="長方形_28" data-name="長方形 28" width="163" height="55" rx="1" transform="translate(733 397)" fill="#fff"/>
    <rect id="長方形_29" data-name="長方形 29" width="325" height="54" rx="1" transform="translate(733 334)" fill="#fff"/>
    <path id="パス_55" data-name="パス 55" d="M46.1-27.385c-2.459.1-6.607.193-9.645.193H12.34c-2.749,0-7.089-.1-9.6-.193v5.208c2.6-.1,6.944-.193,9.6-.193H36.452c2.942,0,7.089.048,9.645.193ZM59.936-8.626c-1.929-.048-3.858-.1-5.208-.145V-4c2.6-.1,6.944-.193,9.6-.193H89.69c2.942,0,7.041.1,9.6.193V-8.77c-1.4.048-3.327.1-5.256.145V-32.979c0-5.256.048-6.173.145-7.668-1.254.048-2.411.048-4.1.048H63.939c-1.688,0-2.845,0-4.147-.048.1,1.495.145,2.315.145,7.668Zm9.934-27.68V-8.578H64.759V-36.306Zm4.629,0h5.063V-8.578H74.5Zm9.693,0h5.063V-8.578H84.193Zm26.946-2.627a26.517,26.517,0,0,1-.22,3.434,147.807,147.807,0,0,0-1.145,17.656,50.488,50.488,0,0,0,1.585,13.385,30.737,30.737,0,0,1,4.887-1.321c-1.145-2.994-1.805-8.146-1.805-13.781a109.193,109.193,0,0,1,1.409-17.128c.749-.352.969-.528.969-.881,0-.308-.264-.572-.7-.616Zm12.5,8.762c2.422.088,5.24.176,8.234.176a106.763,106.763,0,0,0,10.963-.616l-.132-4.491a71.078,71.078,0,0,1-10.611.7c-3.831,0-5.548-.044-8.278-.264Zm-2.378,12.2c0,.264.044.793.044,2.51A10.711,10.711,0,0,0,123.2-9.037c1.849,2.422,5.328,3.39,12.46,3.39a72.059,72.059,0,0,0,8.938-.572,18.093,18.093,0,0,1,.66-4.843,65.2,65.2,0,0,1-8.85.749c-9.378,0-10.875-1.1-10.919-7.749Zm-90.36,46.4-8.053.193c.048-2.459.1-5.256.145-8.584.868-.434,1.013-.579,1.013-.868,0-.338-.386-.579-1.013-.627l-5.112-.434a52.523,52.523,0,0,1,.145,5.4l-.1,5.256-7.185.193c-1.591.048-3.231.1-3.761.1a28.719,28.719,0,0,1-3.231-.1l.1,5.063c3.327-.241,4.919-.386,6.9-.434l6.944-.145a63.068,63.068,0,0,1-1.157,7.86c-1.881-1.061-4.1-2.218-7.041-3.761l-2.411,4c3.135,1.688,5.594,3.038,7.86,4.485a19.834,19.834,0,0,1-5.112,6.9c-2.556,2.266-4.147,3.231-8.728,5.4a15.358,15.358,0,0,1,2.7,4.388A32.619,32.619,0,0,0,12.34,57.6a24.813,24.813,0,0,0,6.848-8.632c1.832,1.35,3.81,2.893,6.173,4.871l3.038-4.2c-3.183-2.508-5.353-4.2-7.475-5.594a4.017,4.017,0,0,0,.193-.723A56.9,56.9,0,0,0,22.612,33.3l7.137-.145v23.34c0,1.881.675,3.279,1.929,3.906,1.206.627,3.327.868,6.751.868a14.828,14.828,0,0,0,5.98-.868c1.977-.964,2.266-2.17,2.508-10.079-1.591-.289-3.424-.675-5.015-1.109-.241,5.835-.241,5.931-.579,6.414-.386.579-1.254.772-3.135.772-2.845,0-3.424-.338-3.424-2.17V31.416l.338-.1c.53-.145.772-.386.772-.723a1.027,1.027,0,0,0-.579-.82l-3.665-2.411ZM92.15,19.36a28.285,28.285,0,0,1,5.835,5.015l2.411-2.652A31.086,31.086,0,0,0,94.271,16.9ZM64.421,29.535c5.883.241,8.584.338,11.911.338,4.533,0,7.185-.1,11.911-.386l-.338-5.16a91.98,91.98,0,0,1-11.043.579c-3.858,0-4.774-.048-12.249-.338Zm-1.4,13.7c-2.17,2.845-2.8,4.437-2.8,6.992A8.275,8.275,0,0,0,63.65,57.07c3.086,2.074,8.005,2.99,15.769,2.99a81.054,81.054,0,0,0,13.261-.916c-.048-.82-.048-1.157-.048-1.736,0-1.206.048-2.556.145-4.147A53.558,53.558,0,0,1,79.37,54.8c-5.208,0-9.211-.579-11.477-1.64a3.979,3.979,0,0,1-2.411-3.713,5.561,5.561,0,0,1,1.4-3.761ZM88.388,23.555a28.015,28.015,0,0,1,5.835,4.967l2.411-2.6A31.086,31.086,0,0,0,90.51,21.1ZM141.1,28.908c-3.038,1.929-5.063,3.135-6.028,3.665l-8.005,4.533c-1.4-3.858-1.881-7.475-1.881-14.756.434-.338.627-.627.627-.964,0-.289-.386-.53-.82-.53l-5.69-.048a27.917,27.917,0,0,1,.82,5.112c.868,8.68,1.109,9.934,2.266,13.02a7.941,7.941,0,0,0,.338.772c-7.378,4.822-9.838,7.957-9.838,12.49a8.173,8.173,0,0,0,3.569,6.992c2.508,1.688,6.317,2.459,12.49,2.459a93.5,93.5,0,0,0,16.348-1.4,23.172,23.172,0,0,1-.1-2.411,24.3,24.3,0,0,1,.145-2.99,72.429,72.429,0,0,1-16.4,1.736c-7.571,0-10.706-1.254-10.706-4.437,0-4.533,4.822-8.005,24.642-17.891,1.157-.048,1.495-.145,1.495-.53a1.193,1.193,0,0,0-.338-.772Zm62.69,8.005c-2.459.1-6.607.193-9.645.193H170.03c-2.749,0-7.089-.1-9.6-.193v5.208c2.6-.1,6.944-.193,9.6-.193h24.112c2.942,0,7.089.048,9.645.193ZM242.8,40.482V35.129h3.086c1.3,0,2.845.048,3.858.1V30.982c-1.061.048-2.8.1-3.858.1H242.8v-4c.675-.386.916-.675.916-.964,0-.241-.289-.434-.868-.482l-4.437-.289c.1,1.64.1,2.218.1,4.437v1.3h-2.893c-1.061,0-2.8-.048-3.858-.1v4.244c1.013-.048,2.556-.1,3.858-.1h2.893v5.353h-1.784c-1.447,0-2.411-.048-3.52-.1.1.868.145,2.749.145,4.292v5.546c0,2.363-.048,3.954-.145,5.112h4.292V53.647H244V54.9h4.34c-.1-1.109-.145-2.749-.145-5.015V44.677c0-1.543.048-3.424.145-4.292-1.061.048-2.074.1-3.472.1ZM244,49.692h-6.51v-5.3H244Zm6.751,11.381V63.05h4.678c-.1-2.508-.145-5.449-.145-11.381V30.933c0-5.449.048-9.162.1-10.85-2.556.1-6.317.193-9.6.193H235.662c-3.279,0-7.041-.1-9.6-.193.048,1.688.1,3.81.1,10.85V51.669c0,5.449-.048,8.873-.145,11.381H230.7V61.073Zm0-4.244H230.7V24.568h20.061ZM220.472,32.043a81.311,81.311,0,0,0,3.81-10.85c1.013-.338,1.157-.434,1.157-.82,0-.289-.241-.53-.675-.675l-4.629-1.784a71.489,71.489,0,0,1-8.68,22.569,15.3,15.3,0,0,1,2.893,4.629,52.619,52.619,0,0,0,2.508-4.871V53.309c0,4.437-.048,7.716-.145,9.886h4.919c-.048-2.122-.1-5.546-.1-9.886V41.832c0-3.52,0-5.835.048-8.246.627-.386.916-.675.916-.964,0-.241-.289-.434-.772-.482Zm65.705-.866a16.5,16.5,0,0,1,5.416.837c5.24,1.717,8.1,5.548,8.1,10.875a10.533,10.533,0,0,1-4.843,9.246,26.511,26.511,0,0,1-7.793,3.17,14.906,14.906,0,0,1,2.157,4.359c5.107-1.761,6.781-2.51,9.246-4.359,4.051-2.95,5.988-6.869,5.988-12.2,0-5.284-2.025-9.51-5.856-12.24a21.291,21.291,0,0,0-12.284-3.61,20.044,20.044,0,0,0-14.4,5.768A18.386,18.386,0,0,0,266.364,46.1c0,6.428,3.126,10.875,7.661,10.875,3.434,0,6.12-2.6,8.762-8.366a90.992,90.992,0,0,0,4.887-15.807c.308-.132.484-.264.484-.484s-.088-.308-.484-.484Zm-3.038.22a15.628,15.628,0,0,1-.528,3.434,75.533,75.533,0,0,1-3.522,10.875c-2.025,4.535-3.7,6.781-5.151,6.781-1.761,0-3.17-2.774-3.17-6.34C270.767,39.278,276.579,32.365,283.139,31.4Z" transform="translate(740.363 319.456)"/>
    <path id="パス_58" data-name="パス 58" d="M478.763,83.027h-9.211c-2.749,0-7.089-.1-9.6-.193v4.774c2.6-.1,6.944-.145,9.6-.145h22.954c2.942,0,7.041.048,9.6.145V82.834c-2.459.1-6.558.193-9.6.193h-8.97V68.753h5.594c2.942,0,7.041.1,9.645.193V64.171c-2.459.1-6.607.193-9.645.193h-5.594V52.984H491.3c2.942,0,7.041.1,9.6.193V48.4c-2.459.1-6.558.145-9.6.145H470.807c-2.749,0-7.089-.048-9.6-.145v4.774c2.6-.1,6.944-.193,9.6-.193h7.957V64.364h-5.787c-2.749,0-7.137-.1-9.6-.193v4.774c2.6-.1,6.944-.193,9.6-.193h5.787Zm7.089-10.464a49.327,49.327,0,0,1,7.426,9.645l4-3.086a52.425,52.425,0,0,0-7.86-9.452ZM525.685,63.5c1.832-2.363,2.942-3.713,3.279-4.1.675-.1.916-.241.916-.53,0-.193-.193-.386-.434-.675l-2.074-2.363a5.035,5.035,0,0,1-1.591,1.109c0-1.736.193-4.967.289-8.439.434-.338.627-.53.627-.723,0-.241-.289-.434-.627-.482l-5.3-.482a42.674,42.674,0,0,1,.289,6.751v2.459c0,.386,0,.868-.048,1.495a64.767,64.767,0,0,1-7.523.579l.482,5.015c1.157-.289,3.665-.723,7.041-1.3,0,1.254,0,2.508-.048,2.99s-.048,1.206-.1,2.17a89.732,89.732,0,0,1-8.68,12.731l3.231,4.533,1.35-1.881a65.9,65.9,0,0,0,4.1-6.558c-.1,2.652-.1,3.424-.193,6.124-.145,3.617-.1,4.388-.241,5.883l5.449-.145c-.289-9.355-.289-10.175-.289-14.708v-2.17c1.254-1.3,3.231-3.376,5.883-6.221,3.858-4.147,7.764-6.365,11.043-6.365,3.858,0,5.594,3.424,5.594,10.9a27.7,27.7,0,0,1-.53,5.931,15.066,15.066,0,0,0-6.992-1.784c-4.871,0-8.246,2.8-8.246,6.9a6.515,6.515,0,0,0,3.617,5.835,11.335,11.335,0,0,0,4.726.868c3.617,0,6.462-1.061,8.15-3.038a9.872,9.872,0,0,0,1.4-2.122,27.472,27.472,0,0,1,3.81,4.147,23.337,23.337,0,0,1,2.942-3.665,37.909,37.909,0,0,0-5.015-4.919,32.228,32.228,0,0,0,1.061-9.452c0-8.921-3.906-14.226-10.513-14.226-3.135,0-6.462,1.4-9.741,4.147-1.543,1.35-2.942,2.845-7.089,7.619Zm20.591,15.576a8.1,8.1,0,0,1-.723,1.447,5.537,5.537,0,0,1-4.629,2.122c-2.652,0-4.051-.916-4.051-2.6,0-1.64,1.591-2.845,3.617-2.845A10.886,10.886,0,0,1,546.276,79.072Zm55.36-33.129a28.015,28.015,0,0,1,5.835,4.967l2.411-2.6a31.085,31.085,0,0,0-6.124-4.822ZM576.512,71.549a14.28,14.28,0,0,0-3.135,2.122,8.177,8.177,0,0,0-2.459,5.69c0,4.147,2.942,7.089,8.343,8.343,3.376.772,6.751,1.013,14.129,1.013,2.074,0,2.845,0,4.726-.1-.048-.868-.048-1.157-.145-2.122-.1-1.35-.1-1.688-.145-2.8-3.279.241-4.919.338-6.944.338-1.3,0-3.761-.1-5.546-.241a21.612,21.612,0,0,1-6.221-1.206c-2.218-.868-3.328-2.122-3.328-3.81,0-1.64.916-2.749,3.135-3.713ZM597.875,50.09a28.289,28.289,0,0,1,5.835,5.015l2.411-2.652A31.086,31.086,0,0,0,600,47.631Zm-17.168-4.2c1.688,5.739,1.929,6.365,2.026,6.848-2.411.193-6.655.338-8.873.338-.675,0-1.157,0-2.411-.048l.916,4.629c4.919-.1,6.558-.193,11.815-.627.723,1.832,1.495,3.569,2.363,5.3-4.292.338-6.751.434-9.982.434-1.543,0-5.256-.048-6.269-.1l.868,4.822c6.751-.145,12.635-.434,17.553-.916.868,1.688,1.591,2.942,2.122,3.81a20.611,20.611,0,0,0-2.845-.193,20.838,20.838,0,0,0-2.411.145,11.566,11.566,0,0,1,1.061,4c.675-.048.916-.048,1.35-.048,3.665,0,5.063.289,7.33,1.64l3.038-3.086c-2.074-2.845-3.231-4.485-3.472-4.871-.338-.53-.627-1.013-1.109-1.784.772-.145,1.784-.289,3.086-.482,2.893-.482,3.858-.675,6.558-1.3l-1.35-4.629A68.414,68.414,0,0,1,591.558,61.9a35.134,35.134,0,0,1-2.363-5.112,87.424,87.424,0,0,0,9.886-1.64l-1.3-4.629a54.383,54.383,0,0,1-10.127,1.832c-.434-1.4-.772-2.508-1.543-5.16.53-.53.579-.627.579-.916s-.241-.579-.723-.579Z" transform="translate(280.828 356.733)"/>
    <g id="グループ_116" data-name="グループ 116">
      <path id="パス_56" data-name="パス 56" d="M-76.117-10.881h-3.816V0h-2.709V-10.881h-3.816v-2.178h10.341Zm4.761,1.458a5.193,5.193,0,0,1,1.9.333,4.172,4.172,0,0,1,1.467.949,4.2,4.2,0,0,1,.945,1.5,5.6,5.6,0,0,1,.333,1.989,5.636,5.636,0,0,1-.333,1.994,4.239,4.239,0,0,1-.945,1.508A4.141,4.141,0,0,1-69.457-.2a5.193,5.193,0,0,1-1.9.333A5.255,5.255,0,0,1-73.269-.2a4.133,4.133,0,0,1-1.471-.954,4.291,4.291,0,0,1-.95-1.508,5.568,5.568,0,0,1-.338-1.994,5.532,5.532,0,0,1,.338-1.989,4.252,4.252,0,0,1,.95-1.5,4.163,4.163,0,0,1,1.471-.949A5.255,5.255,0,0,1-71.356-9.423Zm0,7.7a1.791,1.791,0,0,0,1.575-.734,3.813,3.813,0,0,0,.513-2.182,3.793,3.793,0,0,0-.513-2.174,1.791,1.791,0,0,0-1.575-.734,1.82,1.82,0,0,0-1.6.734,3.793,3.793,0,0,0-.513,2.174,3.812,3.812,0,0,0,.513,2.182A1.82,1.82,0,0,0-71.356-1.728Zm10.134-11.691v7.614h.414a.835.835,0,0,0,.369-.068.811.811,0,0,0,.27-.247l2.052-2.736a1.1,1.1,0,0,1,.347-.315,1,1,0,0,1,.49-.108h2.268L-57.676-5.9a2.465,2.465,0,0,1-.729.666,1.734,1.734,0,0,1,.36.333,4.021,4.021,0,0,1,.3.423L-54.877,0h-2.232a1.185,1.185,0,0,1-.5-.095.756.756,0,0,1-.342-.338l-2.088-3.411a.659.659,0,0,0-.261-.279,1,1,0,0,0-.4-.063h-.522V0h-2.484V-13.419Zm17.379,4.14-5,11.772a.978.978,0,0,1-.284.378A.877.877,0,0,1-49.657,3H-51.5l1.755-3.744-3.726-8.532H-51.3a.7.7,0,0,1,.459.135.789.789,0,0,1,.234.315l1.764,4.437q.1.261.175.526t.148.526q.162-.531.369-1.062l1.638-4.428a.652.652,0,0,1,.261-.324.731.731,0,0,1,.414-.126Zm6.291-.144a5.193,5.193,0,0,1,1.9.333,4.172,4.172,0,0,1,1.467.949,4.2,4.2,0,0,1,.945,1.5,5.6,5.6,0,0,1,.333,1.989,5.636,5.636,0,0,1-.333,1.994,4.239,4.239,0,0,1-.945,1.508A4.141,4.141,0,0,1-35.653-.2a5.193,5.193,0,0,1-1.9.333A5.255,5.255,0,0,1-39.465-.2a4.133,4.133,0,0,1-1.472-.954,4.291,4.291,0,0,1-.95-1.508,5.568,5.568,0,0,1-.337-1.994,5.532,5.532,0,0,1,.337-1.989,4.252,4.252,0,0,1,.95-1.5,4.163,4.163,0,0,1,1.472-.949A5.255,5.255,0,0,1-37.552-9.423Zm0,7.7a1.791,1.791,0,0,0,1.575-.734,3.813,3.813,0,0,0,.513-2.182,3.793,3.793,0,0,0-.513-2.174,1.791,1.791,0,0,0-1.575-.734,1.82,1.82,0,0,0-1.6.734,3.793,3.793,0,0,0-.513,2.174,3.813,3.813,0,0,0,.513,2.182A1.82,1.82,0,0,0-37.552-1.728Zm20.781-8.829a1.025,1.025,0,0,1-.257.3.562.562,0,0,1-.338.094.833.833,0,0,1-.427-.139q-.229-.139-.535-.3a5.189,5.189,0,0,0-.7-.3,2.79,2.79,0,0,0-.927-.14,2.05,2.05,0,0,0-1.4.419,1.4,1.4,0,0,0-.468,1.094,1.026,1.026,0,0,0,.256.715,2.229,2.229,0,0,0,.675.49,6.273,6.273,0,0,0,.949.369q.531.162,1.089.355a9.587,9.587,0,0,1,1.089.455,3.83,3.83,0,0,1,.95.657,3.011,3.011,0,0,1,.675.967,3.385,3.385,0,0,1,.256,1.391A4.465,4.465,0,0,1-16.2-2.462,3.959,3.959,0,0,1-17.1-1.1a4.145,4.145,0,0,1-1.444.913,5.361,5.361,0,0,1-1.948.333A6.165,6.165,0,0,1-21.726.018a7.138,7.138,0,0,1-1.188-.351,6.554,6.554,0,0,1-1.075-.54,4.728,4.728,0,0,1-.882-.7l.792-1.278a.8.8,0,0,1,.261-.239.668.668,0,0,1,.342-.094.933.933,0,0,1,.513.18q.27.18.621.4a5.027,5.027,0,0,0,.815.4,3.072,3.072,0,0,0,1.111.18,2.221,2.221,0,0,0,1.462-.432,1.581,1.581,0,0,0,.517-1.287,1.205,1.205,0,0,0-.257-.8,2.063,2.063,0,0,0-.67-.513,5.314,5.314,0,0,0-.945-.355q-.531-.148-1.089-.329a8.936,8.936,0,0,1-1.089-.432,3.369,3.369,0,0,1-.945-.666,3.154,3.154,0,0,1-.67-1.026A3.947,3.947,0,0,1-24.358-9.4a3.607,3.607,0,0,1,.288-1.413,3.585,3.585,0,0,1,.846-1.215,4.234,4.234,0,0,1,1.372-.855,5.024,5.024,0,0,1,1.868-.324,6.347,6.347,0,0,1,2.183.365,4.894,4.894,0,0,1,1.7,1.013Zm6.264,8.109a1.982,1.982,0,0,0,.76.567,2.364,2.364,0,0,0,.878.162A1.924,1.924,0,0,0-8.05-1.89a1.632,1.632,0,0,0,.634-.536,2.7,2.7,0,0,0,.41-.932,5.54,5.54,0,0,0,.144-1.35,6.084,6.084,0,0,0-.122-1.314,2.624,2.624,0,0,0-.342-.873,1.317,1.317,0,0,0-.536-.482,1.626,1.626,0,0,0-.7-.148,2.18,2.18,0,0,0-1.1.256,3.036,3.036,0,0,0-.842.752Zm-.144-5.616a5.52,5.52,0,0,1,.594-.562,3.84,3.84,0,0,1,.675-.441,3.61,3.61,0,0,1,.774-.288,3.705,3.705,0,0,1,.9-.1,2.973,2.973,0,0,1,1.372.319,3.07,3.07,0,0,1,1.075.927,4.6,4.6,0,0,1,.7,1.49,7.351,7.351,0,0,1,.252,2.016,6.307,6.307,0,0,1-.284,1.93A4.7,4.7,0,0,1-5.4-1.242,3.724,3.724,0,0,1-6.651-.23,3.62,3.62,0,0,1-8.284.135,3.261,3.261,0,0,1-9.567-.09,3.218,3.218,0,0,1-10.507-.7V3h-2.484V-9.279h1.53a.6.6,0,0,1,.621.432ZM1.283-9.279V0H-1.2V-9.279Zm.3-2.637a1.366,1.366,0,0,1-.126.585,1.621,1.621,0,0,1-.338.477,1.539,1.539,0,0,1-.495.324,1.577,1.577,0,0,1-.608.117,1.465,1.465,0,0,1-.58-.117,1.513,1.513,0,0,1-.481-.324,1.593,1.593,0,0,1-.329-.477,1.409,1.409,0,0,1-.122-.585,1.44,1.44,0,0,1,.122-.589,1.577,1.577,0,0,1,.329-.482,1.513,1.513,0,0,1,.481-.324,1.465,1.465,0,0,1,.58-.117,1.577,1.577,0,0,1,.608.117,1.54,1.54,0,0,1,.495.324,1.6,1.6,0,0,1,.338.482A1.4,1.4,0,0,1,1.58-11.916Zm10,4.707a1.008,1.008,0,0,1-.216.22.524.524,0,0,1-.306.077.647.647,0,0,1-.347-.1q-.167-.1-.382-.225a3.2,3.2,0,0,0-.513-.225,2.266,2.266,0,0,0-.738-.1,2.16,2.16,0,0,0-.968.2,1.81,1.81,0,0,0-.679.581,2.622,2.622,0,0,0-.4.918A5.184,5.184,0,0,0,6.9-4.653,3.561,3.561,0,0,0,7.47-2.475a1.852,1.852,0,0,0,1.562.756,2.592,2.592,0,0,0,.589-.058,2.076,2.076,0,0,0,.432-.149,1.709,1.709,0,0,0,.319-.2q.135-.108.257-.2a1.511,1.511,0,0,1,.243-.148.625.625,0,0,1,.274-.059.531.531,0,0,1,.45.216l.711.9a4.238,4.238,0,0,1-.846.761,4.344,4.344,0,0,1-.932.477,4.7,4.7,0,0,1-.977.243,7.254,7.254,0,0,1-.981.068,4.161,4.161,0,0,1-1.62-.32,3.873,3.873,0,0,1-1.341-.932,4.475,4.475,0,0,1-.914-1.5,5.715,5.715,0,0,1-.338-2.034,5.832,5.832,0,0,1,.3-1.89,4.293,4.293,0,0,1,.873-1.512,4.023,4.023,0,0,1,1.427-1,4.956,4.956,0,0,1,1.967-.365,4.713,4.713,0,0,1,1.863.342,4.482,4.482,0,0,1,1.44.99Zm9.144,1.476a2.6,2.6,0,0,0-.1-.738,1.717,1.717,0,0,0-.329-.621,1.593,1.593,0,0,0-.567-.428,1.946,1.946,0,0,0-.819-.157,1.885,1.885,0,0,0-1.4.5,2.56,2.56,0,0,0-.657,1.44ZM16.817-4.257a2.933,2.933,0,0,0,.743,1.908,2.255,2.255,0,0,0,1.633.6,2.878,2.878,0,0,0,.886-.122,4.259,4.259,0,0,0,.657-.27l.513-.27a.965.965,0,0,1,.455-.122.531.531,0,0,1,.45.216l.72.9A3.918,3.918,0,0,1,22-.653a4.691,4.691,0,0,1-.99.477,5.285,5.285,0,0,1-1.035.243,7.863,7.863,0,0,1-1.008.068,5.067,5.067,0,0,1-1.813-.32,4.115,4.115,0,0,1-1.467-.945A4.427,4.427,0,0,1,14.7-2.682a5.919,5.919,0,0,1-.36-2.151,5.082,5.082,0,0,1,.311-1.782,4.262,4.262,0,0,1,.9-1.458,4.266,4.266,0,0,1,1.422-.986,4.689,4.689,0,0,1,1.89-.365A4.618,4.618,0,0,1,20.5-9.14a3.64,3.64,0,0,1,1.3.824,3.706,3.706,0,0,1,.846,1.327,5,5,0,0,1,.3,1.8,3.194,3.194,0,0,1-.027.459.815.815,0,0,1-.09.288.329.329,0,0,1-.171.148.807.807,0,0,1-.279.041Z" transform="translate(821.868 249.428)" fill="rgba(255,255,255,0.85)"/>
      <path id="パス_57" data-name="パス 57" d="M11-7.875H7.792c-.855,0-2.205-.03-2.985-.06V-6.51c.81-.03,2.16-.06,2.985-.06h7.89c.915,0,2.19.03,2.985.06V-7.935c-.765.03-2.04.06-2.985.06h-3.21V-8.43h2.355c.69,0,1.74.015,2.385.045V-9.72c-.645.015-1.7.045-2.385.045H12.472v-.555h2.475c.795,0,1.98.015,2.685.045V-11.6c-.66.03-1.86.06-2.685.06H12.472v-.57c.21-.12.285-.21.285-.3s-.09-.135-.27-.15l-1.515-.105c.015.45.03.645.03,1.125H8.242c-.765,0-2.07-.03-2.685-.06v1.41c.645-.03,1.95-.045,2.685-.045H11v.555H8.737c-.78,0-1.77-.03-2.4-.045v1.335c.63-.03,1.62-.045,2.4-.045H11ZM8.752-1.14h6.075V-.9c0,.57-.075.63-.675.63a8.808,8.808,0,0,1-1.035-.06A5.541,5.541,0,0,1,13.4,1.215a5.88,5.88,0,0,0,2.04-.195c.615-.24.825-.63.825-1.545,0-.165-.015-.375-.015-.765,0-.555-.015-.885-.015-1.2V-3.75c0-1.65.015-1.965.045-2.355-.585.045-1.44.06-2.22.06H9.517c-.8,0-1.665-.015-2.25-.06.03.465.045.81.045,2.925v1.545c0,.945-.03,2.34-.045,2.925H8.752Zm0-1.815h6.075v.585H8.752Zm6.075-1.23H8.752V-4.77h6.075ZM24.082-1.71V-6.69c0-2.025,0-2.3.015-2.58.2-.12.285-.195.285-.285s-.1-.135-.255-.15l-1.6-.105c.045.465.06,1.41.06,3.12v4.785c0,1.38-.015,2.4-.045,3.075h1.545V-.33h8.925V.87h1.545c-.03-.69-.045-1.68-.045-3.06v-4.5c0-2.025,0-2.3.015-2.58.195-.12.27-.195.27-.285s-.09-.135-.24-.15l-1.6-.105c.045.465.06,1.41.06,3.12v4.98H29.3V-9.06c0-1.89,0-2.28.015-2.565.195-.12.285-.21.285-.3s-.105-.135-.255-.15l-1.65-.1c.045.48.075,1.425.075,3.12v7.35Z" transform="translate(946.868 250.66)" fill="rgba(255,255,255,0.85)"/>
      <path id="パス_59" data-name="パス 59" d="M40.874-3.213a.5.5,0,0,1,.378.162l1.071,1.143a5.1,5.1,0,0,1-1.966,1.53,6.843,6.843,0,0,1-2.795.522,6.655,6.655,0,0,1-2.637-.5,5.706,5.706,0,0,1-1.989-1.391,6.18,6.18,0,0,1-1.26-2.115,7.832,7.832,0,0,1-.441-2.673,7.87,7.87,0,0,1,.212-1.85A6.512,6.512,0,0,1,32.063-10a6.243,6.243,0,0,1,.976-1.332,5.89,5.89,0,0,1,1.292-1.012,6.208,6.208,0,0,1,1.57-.639,7.2,7.2,0,0,1,1.814-.22,7.088,7.088,0,0,1,1.363.126,6.6,6.6,0,0,1,1.2.351,5.514,5.514,0,0,1,1.031.544,5.764,5.764,0,0,1,.85.7l-.909,1.242a.848.848,0,0,1-.207.207.578.578,0,0,1-.342.09.764.764,0,0,1-.437-.153q-.22-.153-.54-.342a3.91,3.91,0,0,0-.8-.342,4.1,4.1,0,0,0-1.22-.153,3.733,3.733,0,0,0-1.5.3,3.265,3.265,0,0,0-1.174.859A3.958,3.958,0,0,0,34.268-8.4,5.94,5.94,0,0,0,34-6.534a5.588,5.588,0,0,0,.292,1.876,4.119,4.119,0,0,0,.8,1.391,3.372,3.372,0,0,0,1.188.859,3.637,3.637,0,0,0,1.453.292,7,7,0,0,0,.833-.045,3.449,3.449,0,0,0,.693-.153,3.062,3.062,0,0,0,.6-.279,3.717,3.717,0,0,0,.571-.432,1.112,1.112,0,0,1,.207-.135A.516.516,0,0,1,40.874-3.213Zm12.1-6.066V0H51.44a.579.579,0,0,1-.612-.432l-.162-.648a6.294,6.294,0,0,1-.576.5,3.7,3.7,0,0,1-.634.387,3.481,3.481,0,0,1-.729.252,3.794,3.794,0,0,1-.851.09A3.293,3.293,0,0,1,46.53-.117a2.7,2.7,0,0,1-.986-.729,3.224,3.224,0,0,1-.6-1.116,4.653,4.653,0,0,1-.207-1.422v-5.9h2.484v5.9a1.828,1.828,0,0,0,.355,1.2,1.3,1.3,0,0,0,1.057.428,2.164,2.164,0,0,0,.981-.229,3.587,3.587,0,0,0,.873-.626V-9.279Zm5.823,1.53A4.156,4.156,0,0,1,59.81-9a2.1,2.1,0,0,1,1.35-.459,1.665,1.665,0,0,1,1.026.3l-.162,1.836a.416.416,0,0,1-.139.247.434.434,0,0,1-.257.067,3.014,3.014,0,0,1-.414-.04,3.41,3.41,0,0,0-.5-.041,1.732,1.732,0,0,0-.608.1,1.526,1.526,0,0,0-.472.279,2.014,2.014,0,0,0-.374.441,4.214,4.214,0,0,0-.31.594V0H56.462V-9.279h1.467a.769.769,0,0,1,.522.135.852.852,0,0,1,.207.468Zm8.226,0A4.156,4.156,0,0,1,68.035-9a2.1,2.1,0,0,1,1.35-.459,1.665,1.665,0,0,1,1.026.3l-.162,1.836a.416.416,0,0,1-.139.247.434.434,0,0,1-.257.067,3.014,3.014,0,0,1-.414-.04,3.41,3.41,0,0,0-.5-.041,1.732,1.732,0,0,0-.607.1,1.526,1.526,0,0,0-.473.279,2.014,2.014,0,0,0-.373.441,4.215,4.215,0,0,0-.311.594V0H64.688V-9.279h1.467a.769.769,0,0,1,.522.135.852.852,0,0,1,.207.468Zm14.5-1.53-5,11.772a.978.978,0,0,1-.284.378A.877.877,0,0,1,75.7,3H73.858L75.613-.747,71.887-9.279h2.178a.7.7,0,0,1,.459.135.789.789,0,0,1,.234.315l1.764,4.437q.1.261.175.526t.148.526q.162-.531.369-1.062l1.638-4.428a.652.652,0,0,1,.261-.324.731.731,0,0,1,.414-.126Z" transform="translate(859.624 251.003)" fill="rgba(255,255,255,0.85)"/>
      <g id="パス_60" data-name="パス 60" transform="translate(891.868 249.793)" fill="rgba(255,255,255,0.85)">
        <path d="M -11.40749740600586 0.9999995827674866 C -13.28571701049805 0.9999995827674866 -14.59749698638916 0.002799580339342356 -14.59749698638916 -1.425000429153442 C -14.59749698638916 -2.755650520324707 -13.45842742919922 -3.685000419616699 -11.8274974822998 -3.685000419616699 C -11.35584163665771 -3.685000419616699 -10.92155075073242 -3.632547378540039 -10.35879611968994 -3.505772352218628 L -10.51633739471436 -4.52979040145874 C -10.59468746185303 -5.031230449676514 -10.62249755859375 -5.489770412445068 -10.62249755859375 -5.730000495910645 C -10.62249755859375 -6.436520576477051 -10.31693744659424 -7.023610591888428 -9.600787162780762 -7.693050384521484 L -9.538457870483398 -7.751320362091064 L -9.471107482910156 -7.698940277099609 L -8.391107559204102 -6.858940601348877 L -8.296417236328125 -6.785290241241455 L -8.385897636413574 -6.705410480499268 C -8.783596992492676 -6.350310325622559 -8.892497062683105 -6.137420654296875 -8.892497062683105 -5.715000629425049 C -8.892497062683105 -5.386290550231934 -8.827767372131348 -4.959320545196533 -8.668817520141602 -3.99120044708252 C -8.59740161895752 -3.562698841094971 -8.56706428527832 -3.341448783874512 -8.524833679199219 -2.979048013687134 C -7.311923980712891 -2.457804203033447 -6.874010562896729 -2.217669248580933 -5.30891752243042 -1.224430441856384 L -5.201377391815186 -1.156190395355225 L -5.293187618255615 -1.067920446395874 C -5.675087451934814 -0.7007004022598267 -5.888467311859131 -0.3573004305362701 -6.108587265014648 0.2443595826625824 L -6.157987594604492 0.3793995678424835 L -6.267387390136719 0.2860795855522156 C -6.750063896179199 -0.1256041079759598 -7.774358749389648 -0.8113564848899841 -8.531489372253418 -1.233771681785583 C -8.57792854309082 -0.7594621777534485 -8.651542663574219 -0.4271731674671173 -8.766117095947266 -0.1693904250860214 C -9.144587516784668 0.6506595611572266 -9.934357643127441 0.9999995827674866 -11.40749740600586 0.9999995827674866 Z M -11.72249698638916 -2.165000438690186 C -12.43628787994385 -2.165000438690186 -12.89749717712402 -1.874530434608459 -12.89749717712402 -1.425000429153442 C -12.89749717712402 -0.8593904376029968 -12.33254718780518 -0.5350004434585571 -11.34749698638916 -0.5350004434585571 C -10.52352714538574 -0.5350004434585571 -10.2024974822998 -0.8980804085731506 -10.2024974822998 -1.830000400543213 L -10.2024974822998 -1.878714799880981 C -10.80531215667725 -2.08427906036377 -11.23655128479004 -2.165000438690186 -11.72249698638916 -2.165000438690186 Z M -28.20749664306641 0.9999995827674866 C -30.08571815490723 0.9999995827674866 -31.39749717712402 0.002799580339342356 -31.39749717712402 -1.425000429153442 C -31.39749717712402 -2.755650520324707 -30.25842666625977 -3.685000419616699 -28.62749671936035 -3.685000419616699 C -28.15584182739258 -3.685000419616699 -27.72154998779297 -3.632547378540039 -27.1587963104248 -3.505772352218628 L -27.31633758544922 -4.52979040145874 C -27.39468765258789 -5.031230449676514 -27.4224967956543 -5.489770412445068 -27.4224967956543 -5.730000495910645 C -27.4224967956543 -6.436520576477051 -27.1169376373291 -7.023610591888428 -26.40078735351562 -7.693050384521484 L -26.33845710754395 -7.751320362091064 L -26.2711067199707 -7.698940277099609 L -25.19110679626465 -6.858940601348877 L -25.09641647338867 -6.785290241241455 L -25.18589782714844 -6.705410480499268 C -25.58359718322754 -6.350310325622559 -25.69249725341797 -6.137420654296875 -25.69249725341797 -5.715000629425049 C -25.69249725341797 -5.386290550231934 -25.62776756286621 -4.959320545196533 -25.46881675720215 -3.99120044708252 C -25.39740180969238 -3.562698841094971 -25.36706352233887 -3.341448545455933 -25.32483291625977 -2.979048013687134 C -24.11192321777344 -2.457803964614868 -23.67401123046875 -2.217669248580933 -22.10891723632812 -1.224430441856384 L -22.00137710571289 -1.156190395355225 L -22.09318733215332 -1.067920446395874 C -22.47508811950684 -0.7007004022598267 -22.68846702575684 -0.3573004305362701 -22.9085865020752 0.2443595826625824 L -22.95798683166504 0.3793995678424835 L -23.06738662719727 0.2860795855522156 C -23.55006408691406 -0.1256041079759598 -24.5743579864502 -0.8113565444946289 -25.33148956298828 -1.233771681785583 C -25.3779296875 -0.7594621777534485 -25.45154190063477 -0.4271731674671173 -25.56611824035645 -0.1693904250860214 C -25.94458770751953 0.6506595611572266 -26.7343578338623 0.9999995827674866 -28.20749664306641 0.9999995827674866 Z M -28.52249717712402 -2.165000438690186 C -29.23628807067871 -2.165000438690186 -29.6974983215332 -1.874530434608459 -29.6974983215332 -1.425000429153442 C -29.6974983215332 -0.8593904376029968 -29.13254737854004 -0.5350004434585571 -28.14749717712402 -0.5350004434585571 C -27.32352828979492 -0.5350004434585571 -27.00249671936035 -0.8980804085731506 -27.00249671936035 -1.830000400543213 L -27.00249671936035 -1.878714799880981 C -27.60531234741211 -2.08427906036377 -28.03655052185059 -2.165000438690186 -28.52249717712402 -2.165000438690186 Z M -17.03690719604492 -1.888500452041626 L -17.12651824951172 -1.963180422782898 C -17.63893699645996 -2.39020037651062 -17.96708679199219 -2.571500301361084 -18.53099822998047 -2.739150524139404 L -18.66218757629395 -2.778150320053101 L -18.58515739440918 -2.89128041267395 C -17.18341445922852 -4.950089454650879 -16.14596748352051 -6.852049827575684 -15.49990463256836 -8.547082901000977 C -15.8165283203125 -8.531062126159668 -16.3008975982666 -8.510000228881836 -16.47749710083008 -8.510000228881836 C -16.54090690612793 -8.510000228881836 -16.58789825439453 -8.512510299682617 -16.6815071105957 -8.517519950866699 C -16.81939697265625 -8.524889945983887 -17.0501880645752 -8.537240028381348 -17.57588768005371 -8.555060386657715 L -17.67347717285156 -8.558370590209961 L -17.67248725891113 -8.656010627746582 L -17.6574878692627 -10.14101028442383 L -17.65638732910156 -10.25076007843018 L -17.54720687866211 -10.23947048187256 C -17.09660720825195 -10.19286060333252 -16.38252830505371 -10.16499996185303 -15.9524974822998 -10.16499996185303 C -15.8517370223999 -10.16499996185303 -15.69852733612061 -10.16993045806885 -15.48648738861084 -10.1767406463623 C -15.33840560913086 -10.18150997161865 -15.15975666046143 -10.18725109100342 -14.94520950317383 -10.19309329986572 L -14.90736770629883 -10.30662059783936 C -14.42429733276367 -11.74074077606201 -14.26461696624756 -12.25227069854736 -14.20648765563965 -12.65914058685303 L -14.19008731842041 -12.77397060394287 L -14.0789270401001 -12.74083042144775 L -12.51892757415771 -12.27583026885986 C -12.36788749694824 -12.2381706237793 -12.26749706268311 -12.12944030761719 -12.26749706268311 -12 C -12.26749706268311 -11.82705783843994 -12.39566993713379 -11.74253082275391 -12.54637622833252 -11.67026901245117 C -12.78942203521729 -11.12676811218262 -12.83540534973145 -11.01726150512695 -13.023756980896 -10.51018047332764 C -13.04911708831787 -10.44256019592285 -13.07442760467529 -10.38420009613037 -13.10121726989746 -10.32241058349609 C -13.10368061065674 -10.31673240661621 -13.10616302490234 -10.31100940704346 -13.10866928100586 -10.30522632598877 C -13.05388927459717 -10.31357479095459 -12.99248695373535 -10.32284164428711 -12.93353748321533 -10.32939052581787 C -12.48100757598877 -10.37620067596436 -11.80476760864258 -10.51621055603027 -11.20996761322021 -10.68615055084229 L -11.10188770294189 -10.71703052520752 L -11.08379745483398 -10.6060905456543 L -10.85879707336426 -9.226090431213379 L -10.84406757354736 -9.135720252990723 L -10.9327974319458 -9.113100051879883 C -11.7160472869873 -8.913450241088867 -12.17855739593506 -8.825370788574219 -12.83620738983154 -8.750640869140625 C -12.9864673614502 -8.735600471496582 -13.14224720001221 -8.716609954833984 -13.29288768768311 -8.698240280151367 C -13.4247350692749 -8.682153701782227 -13.56046867370605 -8.665600776672363 -13.6929235458374 -8.651629447937012 C -15.02339458465576 -5.440006732940674 -15.58132362365723 -4.309360980987549 -16.97679710388184 -1.988470435142517 L -17.03690719604492 -1.888500452041626 Z M -33.83690643310547 -1.888500452041626 L -33.92651748657227 -1.963180422782898 C -34.43893814086914 -2.39020037651062 -34.76708602905273 -2.571500301361084 -35.33099746704102 -2.739150524139404 L -35.46218872070312 -2.778150320053101 L -35.38515853881836 -2.89128041267395 C -33.98341369628906 -4.950089454650879 -32.94596862792969 -6.852049827575684 -32.29990386962891 -8.547082901000977 C -32.61652755737305 -8.531062126159668 -33.10089874267578 -8.510000228881836 -33.27749633789062 -8.510000228881836 C -33.34090805053711 -8.510000228881836 -33.38789749145508 -8.512510299682617 -33.48150634765625 -8.517519950866699 C -33.6193962097168 -8.524889945983887 -33.85018920898438 -8.537240028381348 -34.37588882446289 -8.555060386657715 L -34.47347640991211 -8.558370590209961 L -34.47248840332031 -8.656010627746582 L -34.45748901367188 -10.14101028442383 L -34.45638656616211 -10.25076007843018 L -34.34720611572266 -10.23947048187256 C -33.8966064453125 -10.19286060333252 -33.18252563476562 -10.16499996185303 -32.75249862670898 -10.16499996185303 C -32.65173721313477 -10.16499996185303 -32.49852752685547 -10.16993045806885 -32.2864875793457 -10.1767406463623 C -32.13840484619141 -10.18150997161865 -31.95975685119629 -10.18725109100342 -31.74521064758301 -10.19309329986572 L -31.70736694335938 -10.30662059783936 C -31.22429656982422 -11.74074077606201 -31.06461715698242 -12.25227069854736 -31.0064868927002 -12.65914058685303 L -30.99008750915527 -12.77397060394287 L -30.87892723083496 -12.74083042144775 L -29.31892776489258 -12.27583026885986 C -29.16788673400879 -12.2381706237793 -29.06749725341797 -12.12944030761719 -29.06749725341797 -12 C -29.06749725341797 -11.82705783843994 -29.19567108154297 -11.74253082275391 -29.34637641906738 -11.67026901245117 C -29.58942222595215 -11.12676811218262 -29.63540458679199 -11.01726150512695 -29.82375717163086 -10.51018047332764 C -29.84911727905273 -10.44256019592285 -29.87442779541016 -10.38420009613037 -29.90121650695801 -10.32241058349609 C -29.9036808013916 -10.31673240661621 -29.90616416931152 -10.31100940704346 -29.90866851806641 -10.30522632598877 C -29.85388946533203 -10.31357479095459 -29.79248809814453 -10.32284164428711 -29.7335376739502 -10.32939052581787 C -29.28100776672363 -10.37620067596436 -28.60476684570312 -10.51621055603027 -28.00996780395508 -10.68615055084229 L -27.90188789367676 -10.71703052520752 L -27.88379669189453 -10.6060905456543 L -27.65879821777344 -9.226090431213379 L -27.64406776428223 -9.135720252990723 L -27.73279762268066 -9.113100051879883 C -28.51604652404785 -8.913450241088867 -28.97855758666992 -8.825370788574219 -29.63620758056641 -8.750640869140625 C -29.78646659851074 -8.735600471496582 -29.94224739074707 -8.716609954833984 -30.09288787841797 -8.698240280151367 C -30.22473526000977 -8.682153701782227 -30.3604679107666 -8.665600776672363 -30.49292373657227 -8.651629447937012 C -31.82339477539062 -5.440006732940674 -32.38132476806641 -4.309360980987549 -33.77679824829102 -1.988470435142517 L -33.83690643310547 -1.888500452041626 Z M -5.834277629852295 -7.030050277709961 L -5.924227237701416 -7.084420204162598 C -7.255987644195557 -7.889330387115479 -7.977457523345947 -8.178460121154785 -9.600247383117676 -8.557620048522949 L -9.711377143859863 -8.583590507507324 L -9.671047210693359 -8.690340042114258 L -9.161046981811523 -10.04034042358398 L -9.131417274475098 -10.11877059936523 L -9.049016952514648 -10.10328006744385 C -7.270697593688965 -9.768890380859375 -6.232667446136475 -9.38032054901123 -5.082277297973633 -8.618370056152344 L -5.006167411804199 -8.567960739135742 L -5.049447536468506 -8.487590789794922 L -5.784447193145752 -7.1225905418396 L -5.834277629852295 -7.030050277709961 Z M -22.63427734375 -7.030050277709961 L -22.72422790527344 -7.084420204162598 C -24.05598831176758 -7.889330387115479 -24.77745819091797 -8.178460121154785 -26.40024757385254 -8.557620048522949 L -26.51137733459473 -8.583590507507324 L -26.47104835510254 -8.690340042114258 L -25.9610481262207 -10.04034042358398 L -25.93141746520996 -10.11877059936523 L -25.84901809692383 -10.10328006744385 C -24.07069778442383 -9.768890380859375 -23.03266716003418 -9.38032054901123 -21.88227653503418 -8.618370056152344 L -21.80616760253906 -8.567960739135742 L -21.84944725036621 -8.487590789794922 L -22.58444786071777 -7.1225905418396 L -22.63427734375 -7.030050277709961 Z" stroke="none"/>
        <path d="M -30.90749740600586 -12.64500045776367 C -30.96749877929688 -12.22500038146973 -31.13249778747559 -11.70000076293945 -31.61249732971191 -10.27500057220459 L -31.6724967956543 -10.09500026702881 C -32.24249649047852 -10.07999992370605 -32.5724983215332 -10.06500053405762 -32.75249862670898 -10.06500053405762 C -33.21749877929688 -10.06500053405762 -33.9224967956543 -10.09500026702881 -34.35749816894531 -10.14000034332275 L -34.37249755859375 -8.655000686645508 C -33.48749542236328 -8.625 -33.42749786376953 -8.610000610351562 -33.27749633789062 -8.610000610351562 C -33.06749725341797 -8.610000610351562 -32.4224967956543 -8.640000343322754 -32.15249633789062 -8.655000686645508 C -32.7974967956543 -6.915000438690186 -33.86249542236328 -4.950000286102295 -35.30249786376953 -2.835000038146973 C -34.74749755859375 -2.670000076293945 -34.40249633789062 -2.49000072479248 -33.86249542236328 -2.039999961853027 C -32.43749618530273 -4.410000324249268 -31.89749717712402 -5.520000457763672 -30.56249618530273 -8.745000839233398 C -30.26249694824219 -8.77500057220459 -29.9474983215332 -8.820000648498535 -29.64749717712402 -8.850000381469727 C -28.98749732971191 -8.925000190734863 -28.52249717712402 -9.015000343322754 -27.75749778747559 -9.210000991821289 L -27.98249816894531 -10.59000015258789 C -28.61249732971191 -10.41000080108643 -29.28749847412109 -10.27500057220459 -29.72249603271484 -10.23000049591064 C -29.85749816894531 -10.21500015258789 -30.00749778747559 -10.1850004196167 -30.06749725341797 -10.1850004196167 C -30.00749778747559 -10.33500003814697 -29.96249771118164 -10.42500019073486 -29.9174976348877 -10.54500007629395 C -29.72249603271484 -11.07000064849854 -29.67749786376953 -11.17500019073486 -29.4224967956543 -11.7450008392334 C -29.22749710083008 -11.83500003814697 -29.1674976348877 -11.89500045776367 -29.1674976348877 -12 C -29.1674976348877 -12.07500076293945 -29.22749710083008 -12.15000057220459 -29.34749603271484 -12.18000030517578 L -30.90749740600586 -12.64500045776367 M -14.10749816894531 -12.64500045776367 C -14.1674976348877 -12.22500038146973 -14.33249664306641 -11.70000076293945 -14.81249809265137 -10.27500057220459 L -14.87249755859375 -10.09500026702881 C -15.44249725341797 -10.07999992370605 -15.77249717712402 -10.06500053405762 -15.9524974822998 -10.06500053405762 C -16.4174976348877 -10.06500053405762 -17.12249755859375 -10.09500026702881 -17.55749702453613 -10.14000034332275 L -17.5724983215332 -8.655000686645508 C -16.68749809265137 -8.625 -16.62749671936035 -8.610000610351562 -16.47749710083008 -8.610000610351562 C -16.26749801635742 -8.610000610351562 -15.62249755859375 -8.640000343322754 -15.35249710083008 -8.655000686645508 C -15.99749755859375 -6.915000438690186 -17.06249809265137 -4.950000286102295 -18.50249671936035 -2.835000038146973 C -17.9474983215332 -2.670000076293945 -17.60249710083008 -2.49000072479248 -17.06249809265137 -2.039999961853027 C -15.63749694824219 -4.410000324249268 -15.09749794006348 -5.520000457763672 -13.76249694824219 -8.745000839233398 C -13.46249771118164 -8.77500057220459 -13.14749717712402 -8.820000648498535 -12.84749794006348 -8.850000381469727 C -12.18749809265137 -8.925000190734863 -11.72249794006348 -9.015000343322754 -10.95749664306641 -9.210000991821289 L -11.18249702453613 -10.59000015258789 C -11.81249809265137 -10.41000080108643 -12.48749732971191 -10.27500057220459 -12.9224967956543 -10.23000049591064 C -13.05749702453613 -10.21500015258789 -13.20749664306641 -10.1850004196167 -13.26749801635742 -10.1850004196167 C -13.20749664306641 -10.33500003814697 -13.16249656677246 -10.42500019073486 -13.11749649047852 -10.54500007629395 C -12.9224967956543 -11.07000064849854 -12.87749671936035 -11.17500019073486 -12.62249755859375 -11.7450008392334 C -12.42749786376953 -11.83500003814697 -12.36749649047852 -11.89500045776367 -12.36749649047852 -12 C -12.36749649047852 -12.07500076293945 -12.42749786376953 -12.15000057220459 -12.5474967956543 -12.18000030517578 L -14.10749816894531 -12.64500045776367 M -25.86749649047852 -10.00500011444092 L -26.37749862670898 -8.655000686645508 C -24.77249717712402 -8.280000686645508 -24.03749656677246 -7.99500036239624 -22.6724967956543 -7.170000553131104 L -21.93749809265137 -8.534999847412109 C -23.09249687194824 -9.300000190734863 -24.11249732971191 -9.675000190734863 -25.86749649047852 -10.00500011444092 M -9.067497253417969 -10.00500011444092 L -9.577497482299805 -8.655000686645508 C -7.972496032714844 -8.280000686645508 -7.237499237060547 -7.99500036239624 -5.87249755859375 -7.170000553131104 L -5.137496948242188 -8.534999847412109 C -6.292495727539062 -9.300000190734863 -7.312496185302734 -9.675000190734863 -9.067497253417969 -10.00500011444092 M -26.33249664306641 -7.62000036239624 C -27.02249717712402 -6.975000381469727 -27.3224983215332 -6.40500020980835 -27.3224983215332 -5.730000495910645 C -27.3224983215332 -5.475000381469727 -27.2924976348877 -5.02500057220459 -27.21749877929688 -4.545000553131104 L -27.03749847412109 -3.375 C -27.6674976348877 -3.52500057220459 -28.13249778747559 -3.585000038146973 -28.62749862670898 -3.585000038146973 C -30.2024974822998 -3.585000038146973 -31.2974967956543 -2.700000762939453 -31.2974967956543 -1.425000190734863 C -31.2974967956543 -0.06000041961669922 -30.03749847412109 0.8999996185302734 -28.20749664306641 0.8999996185302734 C -26.76749801635742 0.8999996185302734 -26.01749801635742 0.5699996948242188 -25.65749740600586 -0.2100000381469727 C -25.53749847412109 -0.4800004959106445 -25.46249771118164 -0.8400001525878906 -25.4174976348877 -1.395000457763672 C -24.63749694824219 -0.9750003814697266 -23.51249694824219 -0.2250003814697266 -23.00249671936035 0.2100000381469727 C -22.77749824523926 -0.4050006866455078 -22.55249786376953 -0.7650003433227539 -22.16249656677246 -1.140000343322754 C -23.72249794006348 -2.130000114440918 -24.15749740600586 -2.370000839233398 -25.4174976348877 -2.910000801086426 C -25.46249771118164 -3.300000190734863 -25.49249649047852 -3.52500057220459 -25.56749725341797 -3.975000381469727 C -25.73249816894531 -4.980000495910645 -25.7924976348877 -5.385000228881836 -25.7924976348877 -5.715000629425049 C -25.7924976348877 -6.165000438690186 -25.6724967956543 -6.40500020980835 -25.25249862670898 -6.78000020980835 L -26.33249664306641 -7.62000036239624 M -28.14749717712402 -0.4350004196166992 C -29.1974983215332 -0.4350004196166992 -29.7974967956543 -0.7950000762939453 -29.7974967956543 -1.425000190734863 C -29.7974967956543 -1.935000419616699 -29.30249786376953 -2.265000343322754 -28.52249717712402 -2.265000343322754 C -27.99749755859375 -2.265000343322754 -27.5474967956543 -2.175000190734863 -26.90249633789062 -1.950000762939453 L -26.90249633789062 -1.830000877380371 C -26.90249633789062 -0.8400001525878906 -27.26249694824219 -0.4350004196166992 -28.14749717712402 -0.4350004196166992 M -9.532497406005859 -7.62000036239624 C -10.22249794006348 -6.975000381469727 -10.52249717712402 -6.40500020980835 -10.52249717712402 -5.730000495910645 C -10.52249717712402 -5.475000381469727 -10.49249649047852 -5.02500057220459 -10.4174976348877 -4.545000553131104 L -10.23749732971191 -3.375 C -10.86749649047852 -3.52500057220459 -11.33249664306641 -3.585000038146973 -11.8274974822998 -3.585000038146973 C -13.40249824523926 -3.585000038146973 -14.49749755859375 -2.700000762939453 -14.49749755859375 -1.425000190734863 C -14.49749755859375 -0.06000041961669922 -13.23749732971191 0.8999996185302734 -11.40749740600586 0.8999996185302734 C -9.967496871948242 0.8999996185302734 -9.217496871948242 0.5699996948242188 -8.857498168945312 -0.2100000381469727 C -8.737497329711914 -0.4800004959106445 -8.662496566772461 -0.8400001525878906 -8.617496490478516 -1.395000457763672 C -7.837497711181641 -0.9750003814697266 -6.712497711181641 -0.2250003814697266 -6.202495574951172 0.2100000381469727 C -5.977497100830078 -0.4050006866455078 -5.752498626708984 -0.7650003433227539 -5.362499237060547 -1.140000343322754 C -6.922496795654297 -2.130000114440918 -7.357498168945312 -2.370000839233398 -8.617496490478516 -2.910000801086426 C -8.662496566772461 -3.300000190734863 -8.692497253417969 -3.52500057220459 -8.767498016357422 -3.975000381469727 C -8.932497024536133 -4.980000495910645 -8.992496490478516 -5.385000228881836 -8.992496490478516 -5.715000629425049 C -8.992496490478516 -6.165000438690186 -8.87249755859375 -6.40500020980835 -8.452497482299805 -6.78000020980835 L -9.532497406005859 -7.62000036239624 M -11.34749794006348 -0.4350004196166992 C -12.39749717712402 -0.4350004196166992 -12.99749755859375 -0.7950000762939453 -12.99749755859375 -1.425000190734863 C -12.99749755859375 -1.935000419616699 -12.50249671936035 -2.265000343322754 -11.72249794006348 -2.265000343322754 C -11.1974983215332 -2.265000343322754 -10.74749755859375 -2.175000190734863 -10.10249710083008 -1.950000762939453 L -10.10249710083008 -1.830000877380371 C -10.10249710083008 -0.8400001525878906 -10.46249771118164 -0.4350004196166992 -11.34749794006348 -0.4350004196166992 M -31.07267761230469 -12.90293025970459 L -29.29417037963867 -12.37280368804932 C -29.09554290771484 -12.32133007049561 -28.96749877929688 -12.17545604705811 -28.96749877929688 -12 C -28.96749877929688 -11.78645992279053 -29.11330223083496 -11.67632007598877 -29.26975250244141 -11.59665203094482 C -29.49887466430664 -11.08397674560547 -29.54658508300781 -10.96920204162598 -29.73000717163086 -10.47536087036133 C -29.73607444763184 -10.45918655395508 -29.74211120605469 -10.44358730316162 -29.74814414978027 -10.42838191986084 C -29.74695777893066 -10.42851543426514 -29.74577331542969 -10.42864894866943 -29.74458694458008 -10.4287805557251 C -29.29660797119141 -10.47512054443359 -28.62710762023926 -10.61383056640625 -28.03743743896484 -10.78229999542236 L -27.8212776184082 -10.84407043457031 L -27.53063774108887 -9.061429977416992 L -27.70809745788574 -9.016200065612793 C -28.49635696411133 -8.81527042388916 -28.96212768554688 -8.726600646972656 -29.62491607666016 -8.651280403137207 C -29.77543640136719 -8.636210441589355 -29.93066787719727 -8.617280960083008 -30.08078765869141 -8.598970413208008 C -30.19351005554199 -8.585227012634277 -30.30907821655273 -8.571133613586426 -30.42325019836426 -8.558564186096191 C -31.73972320556641 -5.383206844329834 -32.3004264831543 -4.249841690063477 -33.69109725952148 -1.93694019317627 L -33.81130599975586 -1.737000465393066 L -33.99053955078125 -1.886360168457031 C -34.49084854125977 -2.303280830383301 -34.81069946289062 -2.480140686035156 -35.35948944091797 -2.643290519714355 L -35.62186813354492 -2.72130012512207 L -35.46781921386719 -2.94756031036377 C -34.10969543457031 -4.9422926902771 -33.09510040283203 -6.788097858428955 -32.44859313964844 -8.43968391418457 C -32.75251007080078 -8.425241470336914 -33.12622833251953 -8.409999847412109 -33.27749633789062 -8.409999847412109 C -33.34357833862305 -8.409999847412109 -33.39446640014648 -8.412720680236816 -33.48684692382812 -8.417660713195801 C -33.6243782043457 -8.425020217895508 -33.85455703735352 -8.43733024597168 -34.37927627563477 -8.455110549926758 L -34.57445526123047 -8.46173095703125 L -34.55526733398438 -10.36153030395508 L -34.33691787719727 -10.33894062042236 C -33.93612670898438 -10.29748058319092 -33.24016571044922 -10.26500034332275 -32.75249862670898 -10.26500034332275 C -32.65333557128906 -10.26500034332275 -32.50080871582031 -10.26990032196045 -32.28969573974609 -10.27669048309326 C -32.15788269042969 -10.28093242645264 -32.00189971923828 -10.28594779968262 -31.81794929504395 -10.29111576080322 L -31.80223846435547 -10.33825016021729 C -31.32129669189453 -11.76603031158447 -31.16249847412109 -12.27424049377441 -31.10548782348633 -12.67328071594238 L -31.07267761230469 -12.90293025970459 Z M -14.27267646789551 -12.90293025970459 L -12.49416923522949 -12.37280368804932 C -12.29554176330566 -12.32133007049561 -12.1674976348877 -12.17545604705811 -12.1674976348877 -12 C -12.1674976348877 -11.78645992279053 -12.31330299377441 -11.67632007598877 -12.46975326538086 -11.59665203094482 C -12.69887351989746 -11.08397674560547 -12.74658584594727 -10.96920204162598 -12.93000793457031 -10.47536087036133 C -12.93607521057129 -10.45918655395508 -12.94211006164551 -10.44358730316162 -12.94814300537109 -10.42838191986084 C -12.94695854187012 -10.42851543426514 -12.94577217102051 -10.42864894866943 -12.94458770751953 -10.4287805557251 C -12.49660682678223 -10.47512054443359 -11.82710647583008 -10.61383056640625 -11.2374382019043 -10.78229999542236 L -11.02127647399902 -10.84407043457031 L -10.73063659667969 -9.061429977416992 L -10.9080982208252 -9.016200065612793 C -11.69635772705078 -8.81527042388916 -12.1621265411377 -8.726600646972656 -12.82491683959961 -8.651280403137207 C -12.97543716430664 -8.636210441589355 -13.13066673278809 -8.617280960083008 -13.28078651428223 -8.598970413208008 C -13.39351081848145 -8.585227012634277 -13.50907897949219 -8.571133613586426 -13.62325096130371 -8.558564186096191 C -14.93972396850586 -5.383206844329834 -15.50042724609375 -4.249841690063477 -16.89109802246094 -1.93694019317627 L -17.01130676269531 -1.737000465393066 L -17.19053649902344 -1.886360168457031 C -17.69084739685059 -2.303280830383301 -18.01069831848145 -2.480140686035156 -18.55948829650879 -2.643290519714355 L -18.82186698913574 -2.72130012512207 L -18.66781806945801 -2.94756031036377 C -17.30969619750977 -4.9422926902771 -16.29509925842285 -6.788097858428955 -15.64859199523926 -8.43968391418457 C -15.9525089263916 -8.425241470336914 -16.32622909545898 -8.409999847412109 -16.47749710083008 -8.409999847412109 C -16.54357719421387 -8.409999847412109 -16.59446716308594 -8.412720680236816 -16.68684768676758 -8.417660713195801 C -16.82437705993652 -8.425020217895508 -17.05455780029297 -8.43733024597168 -17.57927703857422 -8.455110549926758 L -17.77445793151855 -8.46173095703125 L -17.75526809692383 -10.36153030395508 L -17.53691673278809 -10.33894062042236 C -17.13612747192383 -10.29748058319092 -16.44016647338867 -10.26500034332275 -15.9524974822998 -10.26500034332275 C -15.85333824157715 -10.26500034332275 -15.70080757141113 -10.26990032196045 -15.48969650268555 -10.27669048309326 C -15.35788536071777 -10.28093242645264 -15.20190238952637 -10.28594779968262 -15.01794815063477 -10.29111576080322 L -15.00223731994629 -10.33825016021729 C -14.52129745483398 -11.76603031158447 -14.36249732971191 -12.27424049377441 -14.30548667907715 -12.67328071594238 L -14.27267646789551 -12.90293025970459 Z M -25.99533843994141 -10.23254013061523 L -25.83053779602051 -10.20156002044678 C -24.03753662109375 -9.864410400390625 -22.98989677429199 -9.471940994262695 -21.82705688476562 -8.701740264892578 L -21.67484664916992 -8.600930213928223 L -22.5960578918457 -6.890110492706299 L -22.77594757080078 -6.998830318450928 C -24.09681701660156 -7.797160148620605 -24.81259727478027 -8.083980560302734 -26.42299652099609 -8.460250854492188 L -26.64524841308594 -8.512170791625977 L -25.99533843994141 -10.23254013061523 Z M -9.195337295532227 -10.23254013061523 L -9.030536651611328 -10.20156002044678 C -7.237537384033203 -9.864410400390625 -6.189895629882812 -9.471940994262695 -5.027057647705078 -8.701740264892578 L -4.874847412109375 -8.600930213928223 L -5.796058654785156 -6.890110492706299 L -5.975948333740234 -6.998830318450928 C -7.296817779541016 -7.797160148620605 -8.012596130371094 -8.083980560302734 -9.622997283935547 -8.460250854492188 L -9.845247268676758 -8.512170791625977 L -9.195337295532227 -10.23254013061523 Z M -26.34440612792969 -7.882640361785889 L -24.94034767150879 -6.790590286254883 L -25.11929702758789 -6.630810260772705 C -25.5210075378418 -6.272140502929688 -25.59249877929688 -6.079050540924072 -25.59249877929688 -5.715000629425049 C -25.59249877929688 -5.393710613250732 -25.52814865112305 -4.969800472259521 -25.37013626098633 -4.007400512695312 C -25.30161666870117 -3.596271514892578 -25.2697811126709 -3.365870475769043 -25.23224639892578 -3.048072814941406 C -24.05298042297363 -2.539737701416016 -23.60329055786133 -2.291227340698242 -22.05533790588379 -1.308870315551758 L -21.84026718139648 -1.172380447387695 L -22.02387809753418 -0.9958305358886719 C -22.39347648620605 -0.6404504776000977 -22.60041809082031 -0.306920051574707 -22.81467819213867 0.2787199020385742 L -22.91347694396973 0.5487899780273438 L -23.13228797912598 0.3621692657470703 C -23.58353614807129 -0.02272891998291016 -24.51320838928223 -0.6497306823730469 -25.24837875366211 -1.071816444396973 C -25.29647254943848 -0.665562629699707 -25.36853790283203 -0.3677234649658203 -25.4747371673584 -0.1287708282470703 C -25.87258720397949 0.7332897186279297 -26.68950653076172 1.09999942779541 -28.20749664306641 1.09999942779541 C -30.14459609985352 1.09999942779541 -31.49749755859375 0.06167984008789062 -31.49749755859375 -1.425000190734863 C -31.49749755859375 -2.814530372619629 -30.31730651855469 -3.785000324249268 -28.62749862670898 -3.785000324249268 C -28.18880081176758 -3.785000324249268 -27.78249359130859 -3.74048900604248 -27.27977180480957 -3.634521484375 L -27.41516876220703 -4.514590263366699 C -27.49428749084473 -5.020900249481201 -27.52249717712402 -5.474490642547607 -27.52249717712402 -5.730000495910645 C -27.52249717712402 -6.457130432128906 -27.19760704040527 -7.085080623626709 -26.46907806396484 -7.766110420227051 L -26.34440612792969 -7.882640361785889 Z M -27.10256004333496 -1.806946754455566 C -27.66448402404785 -1.994104385375977 -28.06045150756836 -2.065000534057617 -28.52249717712402 -2.065000534057617 C -29.175537109375 -2.065000534057617 -29.59749603271484 -1.813790321350098 -29.59749603271484 -1.425000190734863 C -29.59749603271484 -0.7119808197021484 -28.58346748352051 -0.6350002288818359 -28.14749717712402 -0.6350002288818359 C -27.38273811340332 -0.6350002288818359 -27.10734176635742 -0.9423160552978516 -27.10256004333496 -1.806946754455566 Z M -9.544406890869141 -7.882640361785889 L -8.140346527099609 -6.790590286254883 L -8.319297790527344 -6.630810260772705 C -8.72100830078125 -6.272140502929688 -8.792497634887695 -6.079050540924072 -8.792497634887695 -5.715000629425049 C -8.792497634887695 -5.393710613250732 -8.728147506713867 -4.969800472259521 -8.570137023925781 -4.007400512695312 C -8.501617431640625 -3.596271514892578 -8.469781875610352 -3.365870475769043 -8.432247161865234 -3.048072814941406 C -7.252979278564453 -2.539737701416016 -6.803291320800781 -2.291227340698242 -5.255336761474609 -1.308870315551758 L -5.040267944335938 -1.172380447387695 L -5.223876953125 -0.9958305358886719 C -5.593479156494141 -0.6404504776000977 -5.800418853759766 -0.306920051574707 -6.014678955078125 0.2787199020385742 L -6.113475799560547 0.5487899780273438 L -6.332286834716797 0.3621692657470703 C -6.783535003662109 -0.02272891998291016 -7.713207244873047 -0.6497306823730469 -8.448379516601562 -1.071816444396973 C -8.49647331237793 -0.665562629699707 -8.568536758422852 -0.3677234649658203 -8.674737930297852 -0.1287708282470703 C -9.072587966918945 0.7332897186279297 -9.889507293701172 1.09999942779541 -11.40749740600586 1.09999942779541 C -13.34459686279297 1.09999942779541 -14.6974983215332 0.06167984008789062 -14.6974983215332 -1.425000190734863 C -14.6974983215332 -2.814530372619629 -13.51730728149414 -3.785000324249268 -11.8274974822998 -3.785000324249268 C -11.38880157470703 -3.785000324249268 -10.98249435424805 -3.74048900604248 -10.47977256774902 -3.634521484375 L -10.61516761779785 -4.514590263366699 C -10.69428825378418 -5.020900249481201 -10.72249794006348 -5.474490642547607 -10.72249794006348 -5.730000495910645 C -10.72249794006348 -6.457130432128906 -10.39760780334473 -7.085080623626709 -9.669076919555664 -7.766110420227051 L -9.544406890869141 -7.882640361785889 Z M -10.30256080627441 -1.806946754455566 C -10.8644847869873 -1.994104385375977 -11.26045227050781 -2.065000534057617 -11.72249794006348 -2.065000534057617 C -12.37553787231445 -2.065000534057617 -12.7974967956543 -1.813790321350098 -12.7974967956543 -1.425000190734863 C -12.7974967956543 -0.7119808197021484 -11.78346824645996 -0.6350002288818359 -11.34749794006348 -0.6350002288818359 C -10.58273887634277 -0.6350002288818359 -10.30734252929688 -0.9423160552978516 -10.30256080627441 -1.806946754455566 Z" stroke="none" fill="#fff"/>
      </g>
    </g>
  </g>
</svg>
