<svg xmlns="http://www.w3.org/2000/svg" width="446" height="175" viewBox="0 0 446 175"><defs><style>.a{fill:#fff;}</style></defs><g transform="translate(-733 -534)"><g transform="translate(337 68)"><rect class="a" width="297" height="26" rx="1" transform="translate(396 466)"/><rect class="a" width="375" height="26" rx="1" transform="translate(396 501)"/><rect class="a" width="154" height="26" rx="1" transform="translate(396 536)"/><path d="M7.618-9.451A7.568,7.568,0,0,1,9.191-8.1l.7-.793A8.884,8.884,0,0,0,8.242-10.2ZM6.526-8.242A7.509,7.509,0,0,1,8.086-6.89l.7-.806A8.38,8.38,0,0,0,7.137-9ZM3.055-10.218c.013.884.026,1.339.026,2.145,0,.871-.013,1.326-.065,3.029-.026.832-.039,1.625-.039,2.3,0,1.508.286,2.366.962,2.938A3.081,3.081,0,0,0,6.058.819,5.788,5.788,0,0,0,9.984-.572a7.115,7.115,0,0,0,1.6-2.015,13.818,13.818,0,0,1-1.144-1.105A5.048,5.048,0,0,1,8.372-1.2,4.272,4.272,0,0,1,6.2-.572q-1.326,0-1.638-.858a5.271,5.271,0,0,1-.195-1.911c0-.4.013-1.053.039-1.9.039-1.222.065-2.21.078-2.873.026-.988.026-1.326.039-1.586.169-.065.247-.156.247-.273,0-.091-.1-.156-.247-.169ZM17.68-4.42c.442-.156.494-.169.585-.208a13.22,13.22,0,0,1,4.524-1.027c1.573,0,2.327.611,2.327,1.872,0,1.157-.689,1.911-2.106,2.353a12.758,12.758,0,0,1-3,.481A3.359,3.359,0,0,1,20.423.312c.741-.091.832-.1,1.131-.143A7.383,7.383,0,0,0,25.051-1a3.366,3.366,0,0,0,1.378-2.782c0-1.911-1.326-3.029-3.6-3.029a14.2,14.2,0,0,0-3.432.546c-1.4.338-1.495.364-2.249.507Zm20.865-6.4a15.991,15.991,0,0,1-2.184,2.574c-1.495,1.443-1.989,1.911-2.21,2.106-.572.494-.715.715-.715,1.053s.143.546.676,1.014a35.2,35.2,0,0,1,2.613,2.548,19.015,19.015,0,0,1,2.08,2.535L40.014.039A21.24,21.24,0,0,0,38.142-2.08a35.871,35.871,0,0,0-2.808-2.665c-.195-.156-.273-.26-.273-.338s.078-.156.247-.325c.325-.325,1.222-1.105,1.716-1.586.741-.715,1.573-1.573,2.509-2.587.325-.091.364-.13.364-.234s-.065-.169-.182-.247Zm10.647.468a2.814,2.814,0,0,1-.039.377,21.97,21.97,0,0,0-.286,3.64,10.4,10.4,0,0,0,.455,3.367L50.7-3.38a9.291,9.291,0,0,1-.442-3.094A13.906,13.906,0,0,1,50.6-9.711c.195-.052.273-.1.273-.208a.17.17,0,0,0-.156-.169Zm5.07.039c.013.182.039.377.078.767.1,1,.195,2.561.195,3.471,0,2.418-.351,3.484-1.391,4.381A7.2,7.2,0,0,1,50.076-.3a4.633,4.633,0,0,1,.7,1.326,11.161,11.161,0,0,0,3.2-1.482c1.469-1.105,2-2.574,2-5.447,0-.923-.091-2.639-.208-3.926.195-.091.273-.156.273-.273a.192.192,0,0,0-.208-.156Zm16.6,2.184c-.819.52-1.365.845-1.625.988L67.08-5.915a10.734,10.734,0,0,1-.507-3.978c.117-.091.169-.169.169-.26s-.1-.143-.221-.143l-1.534-.013a7.525,7.525,0,0,1,.221,1.378,11.478,11.478,0,0,0,.611,3.51,2.141,2.141,0,0,0,.091.208c-1.989,1.3-2.652,2.145-2.652,3.367A2.2,2.2,0,0,0,64.22.039,6.059,6.059,0,0,0,67.587.7,25.207,25.207,0,0,0,71.994.325a6.247,6.247,0,0,1-.026-.65,6.55,6.55,0,0,1,.039-.806,19.525,19.525,0,0,1-4.42.468C65.546-.663,64.7-1,64.7-1.859c0-1.222,1.3-2.158,6.643-4.823.312-.013.4-.039.4-.143a.322.322,0,0,0-.091-.208Zm16.146,1.04a10.913,10.913,0,0,1-1,.728,12.752,12.752,0,0,1-1.3.728,6.541,6.541,0,0,1-.52-.52c.3-.169.364-.221.455-.273.559-.377.7-.468.884-.572l.221-.052c.156-.039.221-.1.221-.2a.246.246,0,0,0-.091-.182l-.793-.767-.169.208H81.211c-.533,0-1.339-.013-1.807-.026v1.066c.468-.013,1.274-.039,1.807-.039H83.98c-.221.156-.468.312-.7.468l-.728-.065a4.833,4.833,0,0,1,.052.806v1.261c0,.468-.065.546-.494.546-.195,0-.377-.013-.767-.026a8.126,8.126,0,0,1,.169,1.144h.234c1.586,0,2-.208,2-1.027,0-.247-.013-.728-.013-.975v-.338a6.3,6.3,0,0,0,1.495,1.248,11,11,0,0,0,3.289,1.4,4.743,4.743,0,0,1,.611-1.118A11.26,11.26,0,0,1,85.943-4.8c-.1-.052-.195-.1-.286-.156a21.809,21.809,0,0,0,2.106-1.209c.26-.026.312-.052.312-.156,0-.052-.013-.078-.117-.143ZM80.171-5.356a8.261,8.261,0,0,1-.975.819A9.943,9.943,0,0,1,76.817-3.2a3,3,0,0,1,.611,1.066,11.93,11.93,0,0,0,4.329-3.315l.26-.091c.169-.065.221-.1.221-.195,0-.065-.039-.117-.117-.2l-.715-.7-.156.208H79.365c-.52,0-1.326-.013-1.807-.026V-5.33c.481-.013,1.287-.026,1.807-.026Zm6.318-3.653c.793,0,1.9.026,2.587.052v-1.131c-.663.026-1.768.052-2.587.052h-1.04c0-.2,0-.3.013-.481.182-.117.247-.182.247-.26s-.091-.117-.221-.13L84.188-11c.013.169.026.533.039.962H81.861v-.481c.182-.117.247-.182.247-.26s-.078-.117-.221-.13L80.587-11a8.126,8.126,0,0,1,.039.962h-.962c-.754,0-1.924-.026-2.6-.052v1.131c.7-.026,1.872-.052,2.6-.052h.962c0,.3-.013.546-.026.767h1.287c-.013-.169-.026-.442-.026-.767h2.366c-.013.247-.026.455-.039.637h1.3c-.013-.156-.026-.364-.039-.637Zm-7.7,7.488A3.73,3.73,0,0,1,77.337.325a4.055,4.055,0,0,1,.715.9A4.944,4.944,0,0,0,79.677-.845c.169-.052.221-.091.221-.169a.149.149,0,0,0-.117-.143Zm1.664.533a13.028,13.028,0,0,1,1.17,2.145L82.68.585A9.206,9.206,0,0,0,81.3-1.534Zm5.512.13a11.326,11.326,0,0,1,1.924,1.976l.9-.741a8.946,8.946,0,0,0-2.08-1.95ZM83.3-.936a12,12,0,0,1,1.339,2.08l1-.676A9.433,9.433,0,0,0,84.136-1.56ZM86.983-2.7c-.559.013-1.482.039-2.08.039H80.756c-.676,0-1.534-.026-2.08-.039v1.1c.546-.026,1.4-.039,2.08-.039H84.9c.6,0,1.521.013,2.08.039Zm7.956-7.514c.013.884.026,1.339.026,2.145,0,.871-.013,1.313-.065,3.029-.026.832-.039,1.625-.039,2.288,0,1.521.286,2.379.962,2.951a3.081,3.081,0,0,0,2.119.624,5.788,5.788,0,0,0,3.926-1.391,7.115,7.115,0,0,0,1.6-2.015,13.818,13.818,0,0,1-1.144-1.105,5.049,5.049,0,0,1-2.067,2.5,4.272,4.272,0,0,1-2.171.624q-1.326,0-1.638-.858a5.27,5.27,0,0,1-.195-1.911c0-.4.013-1.053.039-1.9.039-1.222.065-2.21.078-2.873.026-.988.039-1.209.039-1.586.169-.065.247-.156.247-.273,0-.091-.1-.156-.247-.169ZM108.472-7.41c.572-.143,2-.338,6.747-.9-2.223,1.391-3.172,2.782-3.172,4.641A3.659,3.659,0,0,0,113.62-.507,7.712,7.712,0,0,0,117.481.676a4.181,4.181,0,0,1,.455-1.417,13.581,13.581,0,0,1-2.4-.442,2.48,2.48,0,0,1-2.041-2.561,3.247,3.247,0,0,1,.377-1.612,5.814,5.814,0,0,1,2.015-2.119,7.3,7.3,0,0,1,2.093-1.144c.377-.052.4-.052.4-.182,0-.065-.013-.091-.091-.195l-.663-.858a5.219,5.219,0,0,1-2.015.429c-2.158.208-5.681.416-7.163.416H108.3Zm18.473-1.209a9.31,9.31,0,0,1-1.092,1.17V-10.4c.195-.1.26-.169.26-.247s-.091-.156-.247-.169l-1.313-.065c.039.988.052,1.937.052,3.939,0,4.1-.3,5.226-1.885,7.111a4.11,4.11,0,0,1,.949.949,9.2,9.2,0,0,0,1.378-2.145,6.6,6.6,0,0,0,.364-1.014,10.7,10.7,0,0,1,1.521,1.547l.923-.988a9.006,9.006,0,0,0-2.184-1.846,18.015,18.015,0,0,0,.182-2.769A19.206,19.206,0,0,0,127.7-7.618c.195,0,.286-.052.286-.156,0-.052-.013-.078-.143-.169ZM129.4-2.665c1.963,0,2.392-.208,2.392-1.17,0-.1-.013-.273-.013-.455-.013-.455-.026-.858-.026-1.092V-8.827a12.275,12.275,0,0,1,.039-1.43c.169-.1.234-.169.234-.247s-.078-.13-.195-.143l-1.456-.091a12.974,12.974,0,0,1,.1,1.911V-4.5c0,.494-.052.546-.611.546A7.829,7.829,0,0,1,129.012-4a7.243,7.243,0,0,1,.247,1.339Zm3-5.239a15.623,15.623,0,0,1,1.7,2.47l1.079-.819a13.17,13.17,0,0,0-1.859-2.366Zm-9.191-.39a9.519,9.519,0,0,1-.429,3.12,4.261,4.261,0,0,1,1.1.507,12.682,12.682,0,0,0,.429-3.146l.078-.052c.065-.039.117-.091.117-.143s-.078-.117-.156-.13Zm5.265-.247A12.18,12.18,0,0,1,126.841-4.3a4.738,4.738,0,0,1,1.183.715,16.326,16.326,0,0,0,1.625-4.225c.247-.078.312-.117.312-.2s-.091-.169-.247-.208Zm5.148,3.055a9.194,9.194,0,0,1-2.821,3.38,11.85,11.85,0,0,1-4.355,1.989,4.008,4.008,0,0,1,.676,1.2,13.144,13.144,0,0,0,4.212-1.95A11.774,11.774,0,0,0,134.5-4.446c.351-.039.39-.052.39-.2,0-.078-.026-.117-.208-.221Zm11.037-4.745c-.065.767-.117,1.209-.247,2.171a8.345,8.345,0,0,0-2.561.832c-.091-.442-.143-.754-.273-1.82.169-.117.208-.169.208-.247s-.091-.156-.234-.156l-1.4-.052a19.976,19.976,0,0,1,.416,1.976c.052.3.13.624.2.949a5.174,5.174,0,0,0-2.106,3.991c0,1.573.806,2.561,2.08,2.561a2.829,2.829,0,0,0,2.275-1.235c.078.1.273.351.6.767a4.513,4.513,0,0,1,1.053-1,10.461,10.461,0,0,1-.767-.9,16.723,16.723,0,0,0,1.625-4.563c1.976.026,3.237,1.144,3.237,2.873,0,1.651-.91,2.652-3.12,3.445a4.153,4.153,0,0,1,.676,1.248A7.872,7.872,0,0,0,148.6-.65,4.375,4.375,0,0,0,150.176-4.1a3.659,3.659,0,0,0-2.353-3.575,5.241,5.241,0,0,0-2.132-.429c.13-.689.169-.962.26-1.534.182-.078.247-.13.247-.208a.193.193,0,0,0-.156-.156Zm-3.549,4.953a16.435,16.435,0,0,0,1.235,2.925,2.2,2.2,0,0,1-1.612,1.131c-.494,0-.832-.546-.832-1.391A3.8,3.8,0,0,1,141.115-5.278ZM143.1-3.51a12.794,12.794,0,0,1-.949-2.548,5.065,5.065,0,0,1,2.106-.845c-.065.273-.26,1.066-.39,1.456A11.3,11.3,0,0,1,143.1-3.51Zm17.1-5.356a12.247,12.247,0,0,1-2.379.351c.247-1.248.26-1.326.338-1.742.182-.078.247-.117.247-.2a.194.194,0,0,0-.169-.156l-1.378-.26c-.013.143-.026.195-.039.338-.065.585-.078.689-.143,1.053-.13.754-.169.949-.182.988-.416.013-.689.013-.793.013a13.222,13.222,0,0,1-1.417-.065l-.026,1.261A13.037,13.037,0,0,0,155.6-7.2c.13,0,.156,0,.663-.013a38.746,38.746,0,0,1-2.2,7.28,3.948,3.948,0,0,1,1.352.546,59.157,59.157,0,0,0,2.145-7.852,18.421,18.421,0,0,0,2.808-.351Zm-1.924,6.331-.013.429a2.244,2.244,0,0,0,.767,1.976c.585.468,1.508.637,3.406.637A19.254,19.254,0,0,0,164.671.39a4.853,4.853,0,0,1,.208-1.365,19.072,19.072,0,0,1-2.782.182c-1.287,0-2.067-.195-2.366-.572a1.431,1.431,0,0,1-.247-.91l.013-.26Zm1.274-1.989a8.383,8.383,0,0,1,3.146-.559,13.837,13.837,0,0,1,1.664.117l.221-1.287a10.422,10.422,0,0,0-1.82-.143,10.559,10.559,0,0,0-3.653.637Zm17.472-4.3c0-.858.013-1.235.013-1.482.182-.1.247-.169.247-.247s-.078-.117-.221-.13l-1.365-.091c.026.351.039.923.039,1.95V-.559c0,1.2.364,1.43,2.327,1.43A4.976,4.976,0,0,0,180.479.52c.468-.3.559-.65.689-2.483a6.1,6.1,0,0,1-1.274-.416c-.026,1.3-.039,1.469-.156,1.651-.169.247-.572.338-1.6.338a2.971,2.971,0,0,1-.806-.078c-.234-.052-.312-.156-.312-.481V-5.655a16.822,16.822,0,0,0,3.289-1.807,2.36,2.36,0,0,0,.26.013c.117,0,.2-.039.2-.117a.244.244,0,0,0-.1-.169l-.988-.91a11.454,11.454,0,0,1-2.652,1.755Zm-3.042,9.945c-.052-.832-.065-2.093-.065-3.8V-6.942c0-2.5,0-2.9.013-3.354.169-.1.234-.169.234-.247s-.078-.117-.182-.13l-1.4-.091a14.785,14.785,0,0,1,.065,1.508c.013.559.013,1.118.013,1.677h-2.015c-.507,0-1.17-.013-1.56-.039v1.261c.4-.013,1.131-.039,1.56-.039h2.015v3.367c-.546.169-1.092.338-1.651.481-.728.195-1.456.351-2.2.494l.481,1.261a.236.236,0,0,0,.182.156c.078,0,.156-.065.26-.247.858-.247,2.015-.624,2.925-.949,0,.988-.026,1.963-.065,2.951Zm20.514-8.749-.182.234h-3.744c-.377,0-.949-.013-1.313-.039a9.4,9.4,0,0,0,.494-.949h4.667c.52,0,1.326.026,1.807.039V-9.607c-.481.026-1.287.039-1.807.039h-4.147c.091-.234.182-.481.286-.741.26-.052.325-.091.325-.195s-.052-.13-.208-.182l-1.157-.364a11.606,11.606,0,0,1-2.509,4.433,4.626,4.626,0,0,1,1.066.819,13.749,13.749,0,0,0,1-1.339c0,.3-.039.611-.065.91-.039.507-.1,1-.182,1.508-.468-.013-.975-.013-1.352-.039v1.235c.338-.013.767-.026,1.17-.039A29.653,29.653,0,0,1,187.9-.247l1.326.169c.052-.234.117-.481.169-.754h4.238c-.143.455-.338.507-1.183.507-.351,0-.572-.013-.9-.039a6.642,6.642,0,0,1,.286,1.417,8.432,8.432,0,0,0,1.794-.117,1.543,1.543,0,0,0,1.2-1.066,4.353,4.353,0,0,0,.143-.7c.468.013.988.026,1.339.039V-2.015c-.312.013-.78.026-1.209.026.039-.52.065-1.04.091-1.56.442,0,.923.013,1.248.026V-4.758c-.3.013-.78.026-1.209.039.013-.6.026-1.183.026-1.768.234-.1.247-.143.247-.221s-.013-.1-.1-.169Zm-2.106,5.655c.065-.533.13-1.053.182-1.586h1.365c-.013.533-.039,1.053-.091,1.586Zm.3-2.743c.052-.507.091-1.014.143-1.521h1.157c0,.507-.013,1.014-.026,1.521Zm-3.055,2.743c.1-.52.182-1.053.273-1.586h1.469c-.065.533-.143,1.053-.208,1.586Zm.455-2.743c.078-.507.143-1.014.221-1.521h1.313c-.039.507-.078,1.014-.13,1.521ZM185.042-10a10.4,10.4,0,0,1,1.43,1.69l1.04-.793a11.052,11.052,0,0,0-1.547-1.638Zm-.9,3a9.9,9.9,0,0,1,1.495,1.716l1.014-.819a11.659,11.659,0,0,0-1.625-1.69Zm1.95,2.067A24.489,24.489,0,0,1,184.236.247l1.04.637c.065.039.13.091.169.091a.142.142,0,0,0,.13-.143.849.849,0,0,0-.026-.143c.1-.312.143-.442.286-.832a31.027,31.027,0,0,0,1.391-4.238Zm23.5-3.2c.494,0,1.339.013,1.82.026V-9.347c-.455.013-1.3.026-1.82.026h-.767l.494-.819c.247-.026.351-.078.351-.169a.182.182,0,0,0-.117-.143l-1.222-.559a11.991,11.991,0,0,1-.793,1.69H206.05l.377-.26a5.894,5.894,0,0,0-1.1-1.43l-.91.637a6.008,6.008,0,0,1,.754,1.053h-.676c-.572,0-1.313-.013-1.82-.026V-8.1c.546-.013,1.274-.026,1.82-.026h1.742c-.065.273-.13.546-.221.819h-.975c-.442,0-.754-.013-1.1-.026.026.416.039,1.287.039,2.067v2.106c0,1-.013,1.768-.039,2.288h1.287v-.481h3.9v.3H210.4c-.026-.494-.039-1.261-.039-2.288V-5.265c0-1.066,0-1.586.039-2.067-.351.013-.663.026-1.1.026h-2.041c.117-.273.208-.546.312-.819Zm-4.381,2.47v-.533h3.9v.533Zm0,1.027h3.9v.546h-3.9Zm0,1.573h3.9v.585h-3.9ZM202.345-4.5c0-.676.013-.923.026-1.157-.286.026-.52.026-1.2.026h-.416c-.377,0-.923,0-1.222-.026v1.261c.312-.026.884-.039,1.222-.039h.351v2.964A14.633,14.633,0,0,1,199.316-.13l.7.975a.263.263,0,0,0,.182.117c.078,0,.13-.078.2-.286.169-.169.312-.3.4-.377a13.448,13.448,0,0,0,1.079-1.053A3.164,3.164,0,0,0,203.125.2a8.889,8.889,0,0,0,3.8.689c1.534,0,2.561-.013,4.5-.052a4.71,4.71,0,0,1,.247-1.274c-1.04.065-2.808.117-4.264.117a8.232,8.232,0,0,1-3.874-.559,2.643,2.643,0,0,1-1.183-.923Zm-2.522-5.083a12.647,12.647,0,0,1,1.6,1.963l1-.806a9.4,9.4,0,0,0-1.781-1.924ZM221.091-.3h-2.548c-.663,0-1.521-.013-2.067-.039V.871c.546-.026,1.4-.039,2.067-.039h6.136c.6,0,1.508.013,2.067.039V-.338c-.559.026-1.469.039-2.067.039h-2.34v-1h1.677c.377,0,.923.013,1.287.026V-2.418c-.364.026-.91.026-1.287.026h-1.677v-.9H224.3c.429,0,1.157.013,1.56.039V-4.407c-.39.013-1.053.026-1.56.026h-1.963v-1c.182-.1.247-.182.247-.26s-.078-.117-.221-.13l-1.313-.091c.026.312.039.741.039,1.482h-1.7c.091-.2.195-.416.3-.663l.117-.026c.156-.039.221-.091.221-.182s-.091-.169-.234-.208l-1.131-.351a8.663,8.663,0,0,1-1.794,3.354,5.652,5.652,0,0,1,.741.962,10.527,10.527,0,0,0,1.248-1.794h2.236v.9h-1.417c-.377,0-.923,0-1.287-.026v1.144c.364-.013.91-.026,1.287-.026h1.417Zm2.2-8.515h.546c.806,0,1.911.026,2.6.052v-1.17c-.663.026-1.781.052-2.6.052h-2.288v-.273a3.053,3.053,0,0,1,.013-.351c.182-.1.247-.182.247-.26s-.078-.117-.234-.13l-1.326-.091c.013.182.026.481.026.832v.273h-2.015c-.741,0-1.911-.026-2.587-.052v1.17c.7-.026,1.872-.052,2.587-.052h.442l-.6.3a8.032,8.032,0,0,1,.715,1.417H217c-.559,0-.988,0-1.43-.013.013.234.039.741.039,1.144v.988a16.754,16.754,0,0,1-.234,2.86,7.773,7.773,0,0,1-.754,2.093,7.5,7.5,0,0,1,.871,1.079,10.16,10.16,0,0,0,1.378-5.928V-6.006h7.2c.741,0,1.911.026,2.587.052v-1.2c-.676.026-1.781.052-2.587.052h-.845c.13-.26.273-.559.6-1.222.273-.078.3-.091.3-.182,0-.065-.065-.117-.143-.143Zm-.676,0a13.75,13.75,0,0,1-.663,1.716h-2.665l.754-.351a6.543,6.543,0,0,0-.728-1.365ZM235.6-.741h-2.483c-.741,0-1.911-.026-2.587-.052V.494c.7-.026,1.872-.039,2.587-.039H239.3c.793,0,1.9.013,2.587.039V-.793c-.663.026-1.768.052-2.587.052h-2.418V-4.589h1.508c.793,0,1.9.026,2.6.052V-5.824c-.663.026-1.781.052-2.6.052h-1.508V-8.84h2.093c.793,0,1.9.026,2.587.052v-1.287c-.663.026-1.768.039-2.587.039h-5.525c-.741,0-1.911-.013-2.587-.039v1.287c.7-.026,1.872-.052,2.587-.052H235.6v3.068h-1.56c-.741,0-1.924-.026-2.587-.052v1.287c.7-.026,1.872-.052,2.587-.052h1.56Zm1.911-2.821a13.3,13.3,0,0,1,2,2.6l1.079-.832a14.132,14.132,0,0,0-2.119-2.548Zm11.882-2.444c.494-.637.793-1,.884-1.105.182-.026.247-.065.247-.143,0-.052-.052-.1-.117-.182l-.559-.637a1.358,1.358,0,0,1-.429.3c0-.468.052-1.339.078-2.275.117-.091.169-.143.169-.195s-.078-.117-.169-.13l-1.43-.13a11.506,11.506,0,0,1,.078,1.82v.663c0,.1,0,.234-.013.4a17.46,17.46,0,0,1-2.028.156l.13,1.352c.312-.078.988-.195,1.9-.351,0,.338,0,.676-.013.806s-.013.325-.026.585a24.189,24.189,0,0,1-2.34,3.432l.871,1.222.364-.507a17.763,17.763,0,0,0,1.1-1.768c-.026.715-.026.923-.052,1.651-.039.975-.026,1.183-.065,1.586l1.469-.039c-.078-2.522-.078-2.743-.078-3.965v-.585c.338-.351.871-.91,1.586-1.677a4.492,4.492,0,0,1,2.977-1.716c1.04,0,1.508.923,1.508,2.938a7.467,7.467,0,0,1-.143,1.6,4.061,4.061,0,0,0-1.885-.481,1.967,1.967,0,0,0-2.223,1.859,1.756,1.756,0,0,0,.975,1.573,3.056,3.056,0,0,0,1.274.234,2.8,2.8,0,0,0,2.2-.819,2.661,2.661,0,0,0,.377-.572A7.409,7.409,0,0,1,257.036.013a6.293,6.293,0,0,1,.793-.988A10.221,10.221,0,0,0,256.477-2.3a8.687,8.687,0,0,0,.286-2.548c0-2.4-1.053-3.835-2.834-3.835A4.171,4.171,0,0,0,251.3-7.566a20.712,20.712,0,0,0-1.911,2.054Zm5.551,4.2a2.186,2.186,0,0,1-.2.39,1.493,1.493,0,0,1-1.248.572c-.715,0-1.092-.247-1.092-.7s.429-.767.975-.767A2.935,2.935,0,0,1,254.943-1.807Zm16.068-8.931A7.552,7.552,0,0,1,272.584-9.4l.65-.7a8.38,8.38,0,0,0-1.651-1.3Zm-6.773,6.9a3.851,3.851,0,0,0-.845.572,2.2,2.2,0,0,0-.663,1.534c0,1.118.793,1.911,2.249,2.249a16.4,16.4,0,0,0,3.809.273c.559,0,.767,0,1.274-.026-.013-.234-.013-.312-.039-.572C270-.169,270-.26,269.984-.559c-.884.065-1.326.091-1.872.091-.351,0-1.014-.026-1.495-.065a5.827,5.827,0,0,1-1.677-.325c-.6-.234-.9-.572-.9-1.027s.247-.741.845-1ZM270-9.62a7.625,7.625,0,0,1,1.573,1.352l.65-.715a8.379,8.379,0,0,0-1.651-1.3Zm-4.628-1.131c.455,1.547.52,1.716.546,1.846-.65.052-1.794.091-2.392.091-.182,0-.312,0-.65-.013l.247,1.248c1.326-.026,1.768-.052,3.185-.169.195.494.4.962.637,1.43-1.157.091-1.82.117-2.691.117-.416,0-1.417-.013-1.69-.026l.234,1.3c1.82-.039,3.406-.117,4.732-.247.234.455.429.793.572,1.027a5.557,5.557,0,0,0-.767-.052,5.618,5.618,0,0,0-.65.039,3.118,3.118,0,0,1,.286,1.079c.182-.013.247-.013.364-.013a3.172,3.172,0,0,1,1.976.442l.819-.832c-.559-.767-.871-1.209-.936-1.313-.091-.143-.169-.273-.3-.481.208-.039.481-.078.832-.13.78-.13,1.04-.182,1.768-.351l-.364-1.248a18.443,18.443,0,0,1-2.834.572,9.472,9.472,0,0,1-.637-1.378,23.568,23.568,0,0,0,2.665-.442L269.971-9.5a14.66,14.66,0,0,1-2.73.494c-.117-.377-.208-.676-.416-1.391.143-.143.156-.169.156-.247s-.065-.156-.2-.156Zm19.89,2.626c-.819.52-1.365.845-1.625.988l-2.158,1.222a10.734,10.734,0,0,1-.507-3.978c.117-.091.169-.169.169-.26s-.1-.143-.221-.143l-1.534-.013a7.525,7.525,0,0,1,.221,1.378,11.479,11.479,0,0,0,.611,3.51,2.141,2.141,0,0,0,.091.208c-1.989,1.3-2.652,2.145-2.652,3.367a2.2,2.2,0,0,0,.962,1.885A6.059,6.059,0,0,0,281.983.7,25.207,25.207,0,0,0,286.39.325a6.247,6.247,0,0,1-.026-.65,6.55,6.55,0,0,1,.039-.806,19.525,19.525,0,0,1-4.42.468c-2.041,0-2.886-.338-2.886-1.2,0-1.222,1.3-2.158,6.643-4.823.312-.013.4-.039.4-.143a.322.322,0,0,0-.091-.208ZM2.392,29.41V27.434h7.28c.741,0,1.937.026,2.587.052V26.251c-.78.026-1.573.052-2.353.052.26-.377.6-.858,1.027-1.482.221-.013.273-.052.273-.143a.182.182,0,0,0-.117-.156l-1.313-.585c-.169.39-.338.78-.546,1.157A10.557,10.557,0,0,1,8.463,26.3H6.838l.819-.572a5.009,5.009,0,0,0-1.43-1.651l-.806.663a8.019,8.019,0,0,1,.559.6,7.7,7.7,0,0,1,.637.962h-2.7l.793-.507a5.093,5.093,0,0,0-1.443-1.664l-.871.663a8.182,8.182,0,0,1,.559.611,7.555,7.555,0,0,1,.585.9H2.548c-.559,0-1,0-1.443-.013.026.234.039.741.039,1.144v1.859A10.946,10.946,0,0,1,.13,34.714a3.979,3.979,0,0,1,.819,1.118,11.417,11.417,0,0,0,.715-1.443L2,35.377a.259.259,0,0,0,.2.156c.078,0,.156-.078.26-.247,1.222-.247,2.119-.442,3.094-.689v1.495h1.2c-.026-.39-.039-1.053-.039-1.9V30.359h.221c.247,0,.585.013.78.026V29.4c-.2.013-.533.013-.78.013H5.356v-.52h.988c.26,0,.585,0,.78.013v-.962c-.221.013-.65.013-.78.013H3.5c-.143,0-.6-.013-.78-.013V28.9c.2-.013.533-.013.78-.013h.78v.52Zm.546.949V34.09c-.4.065-.819.1-1.222.143a10.436,10.436,0,0,0,.455-1.69,17.49,17.49,0,0,0,.208-2.184Zm1.144,0H5.551v.52H4.082Zm1.469,1.4V32.3H4.082v-.533Zm0,1.417v.468c-.481.1-.975.195-1.469.273V33.18Zm3.874-3.874c.1-.325.221-.7.338-1.118.195-.065.273-.1.273-.182s-.065-.13-.208-.169L8.71,27.525a10.579,10.579,0,0,1-1.937,4.732,3.043,3.043,0,0,1,.884.806c.338-.52.6-.949.819-1.365a6.477,6.477,0,0,0,.715,1.82,7.493,7.493,0,0,1-2.158,1.625,4.344,4.344,0,0,1,.637.988,9.064,9.064,0,0,0,1.937-1.4,2.97,2.97,0,0,0,.286-.286,7.6,7.6,0,0,0,2.041,1.547,3.182,3.182,0,0,1,.7-1.053A7.008,7.008,0,0,1,10.6,33.544a7.438,7.438,0,0,0,.65-1.4,10.1,10.1,0,0,0,.39-1.742H11.7c.234,0,.6.013.78.013V29.293c-.195,0-.585.013-.78.013ZM10.53,30.4a7.275,7.275,0,0,1-.273,1.17,6.117,6.117,0,0,1-.4.949A7.55,7.55,0,0,1,9.139,30.4Zm11.9,2.99c.13,0,.221-.052.221-.13a.205.205,0,0,0-.1-.156l-.624-.494h2.353l-.624.7a8.99,8.99,0,0,0,2.977,1.3,3.515,3.515,0,0,1,.572-.988,10.913,10.913,0,0,1-2.717-1.014H25.6c.494,0,1.339.013,1.82.039V31.49c-.455.013-1.3.039-1.82.039H25.09v-.715h.026c.494,0,1.339.013,1.807.039V29.7c-.442.013-1.287.039-1.807.039H25.09V29.41c.182-.117.247-.182.247-.273,0-.065-.078-.117-.234-.13l-1.235-.078c.013.338.026.507.026.806H22.256V29.41c.182-.117.247-.182.247-.273,0-.065-.091-.117-.234-.13l-1.235-.078c.013.338.026.507.026.806-.533,0-1.157-.026-1.586-.039v1.157c.468-.026,1.079-.039,1.586-.039v.715h-.286c-.572,0-1.313-.026-1.82-.039v1.157c.546-.026,1.274-.039,1.82-.039h.962a9.382,9.382,0,0,1-2.522.78,5.154,5.154,0,0,1,.377.819,2.8,2.8,0,0,1-1.014-.9V30.5c0-.468.013-.923.026-1.157-.286.026-.559.026-1.2.026h-.416c-.377,0-.923,0-1.222-.026v1.261c.312-.026.884-.039,1.222-.039h.351v3.068a14.633,14.633,0,0,1-1.794,1.339l.7.975a.263.263,0,0,0,.182.117c.078,0,.13-.078.2-.286.169-.169.312-.3.4-.377a13.2,13.2,0,0,0,1.157-1.131A3.192,3.192,0,0,0,19.461,35.3a8.542,8.542,0,0,0,3.835.689c1.885,0,2.015,0,4.355-.052a4.344,4.344,0,0,1,.247-1.274c-1.04.065-2.821.117-4.29.117a9.369,9.369,0,0,1-3.744-.442,9.669,9.669,0,0,0,2.405-.949Zm-.169-1.859v-.715h1.638v.715Zm-.7-4.641v.247H22.7c0-.234-.013-.728-.013-.988v-.689c0-.338,0-.793.013-1.014-.286.013-.494.013-.91.013H19.5c-.26,0-.364,0-.52-.013v.962c.117-.013.338-.013.52-.013h2.054v.637H19.747c-.325,0-.52,0-.754-.013.026.247.039.663.039,1.287v.676a.627.627,0,0,0,.546.715,7.27,7.27,0,0,0,1.5.078c1.833,0,2.028-.117,2.067-1.248a4.85,4.85,0,0,1-1.04-.26c0,.065-.013.195-.026.312-.026.195-.078.234-1.04.234-.884,0-.9,0-.9-.286v-.637Zm4.381,0v.247h1.144c0-.234-.013-.689-.013-.988v-.728c0-.351.013-.572.013-.975-.286.013-.494.013-.91.013H23.894c-.26,0-.364,0-.52-.013v.962c.117-.013.338-.013.52-.013h2.041v.637H24.154c-.338,0-.533,0-.754-.013.013.221.026.429.026,1.287v.676c0,.676.325.806,2.015.806a5.826,5.826,0,0,0,1.807-.169c.286-.156.39-.377.442-1.053a4.577,4.577,0,0,1-1.053-.3c-.026.455-.065.533-.468.533h-.507a7.937,7.937,0,0,1-.975-.039c-.13-.026-.156-.065-.156-.26v-.611ZM15.99,25.237a13.336,13.336,0,0,1,1.6,1.976l1-.806a9.8,9.8,0,0,0-1.781-1.937Zm17.693-.455c.013.884.026,1.339.026,2.145,0,.871-.013,1.313-.065,3.029-.026.832-.039,1.625-.039,2.288,0,1.521.286,2.379.962,2.951a3.081,3.081,0,0,0,2.119.624,5.788,5.788,0,0,0,3.926-1.391,7.115,7.115,0,0,0,1.6-2.015,13.818,13.818,0,0,1-1.144-1.1A5.048,5.048,0,0,1,39,33.8a4.272,4.272,0,0,1-2.171.624q-1.326,0-1.638-.858A5.27,5.27,0,0,1,35,31.659c0-.4.013-1.053.039-1.9.039-1.222.065-2.21.078-2.873.026-.988.039-1.209.039-1.586.169-.065.247-.156.247-.273,0-.091-.1-.156-.247-.169ZM53,26.134a12.247,12.247,0,0,1-2.379.351c.247-1.248.26-1.326.338-1.742.182-.078.247-.117.247-.195a.194.194,0,0,0-.169-.156l-1.378-.26c-.013.143-.026.195-.039.338-.065.585-.078.689-.143,1.053-.13.754-.169.949-.182.988-.416.013-.689.013-.793.013a13.221,13.221,0,0,1-1.417-.065L47.06,27.72A13.037,13.037,0,0,0,48.4,27.8c.13,0,.156,0,.663-.013a38.746,38.746,0,0,1-2.2,7.28,3.948,3.948,0,0,1,1.352.546,59.159,59.159,0,0,0,2.145-7.852,18.421,18.421,0,0,0,2.808-.351Zm-1.924,6.331-.013.429a2.244,2.244,0,0,0,.767,1.976c.585.468,1.508.637,3.406.637a19.254,19.254,0,0,0,2.236-.117,4.853,4.853,0,0,1,.208-1.365,19.072,19.072,0,0,1-2.782.182c-1.287,0-2.067-.195-2.366-.572a1.431,1.431,0,0,1-.247-.91l.013-.26Zm1.274-1.989a8.383,8.383,0,0,1,3.146-.559,13.837,13.837,0,0,1,1.664.117l.221-1.287a10.422,10.422,0,0,0-1.82-.143,10.559,10.559,0,0,0-3.653.637Zm18.915-.481c.494,0,1.339.013,1.82.026V28.747c-.455.026-1.3.039-1.82.039H68.315c.039-.52.065-1.066.065-1.664V26.3h2.574c.793,0,1.9.013,2.587.039v-1.3c-.65.026-1.768.039-2.587.039H64.545c-.754,0-1.924-.013-2.587-.039v1.3c.7-.026,1.872-.039,2.587-.039h2.522v.923c0,.572-.013,1.092-.052,1.56h-2.73c-.572,0-1.313-.013-1.82-.039v1.274c.546-.013,1.274-.026,1.82-.026h2.561a5.429,5.429,0,0,1-1.17,2.5,6.741,6.741,0,0,1-3.939,2.249,11.386,11.386,0,0,1,.507,1.2,8.124,8.124,0,0,0,4.576-2.743,6.617,6.617,0,0,0,1.014-1.924,6.639,6.639,0,0,0,1.326,2.08A9.979,9.979,0,0,0,73.1,35.962a5.524,5.524,0,0,1,.754-1.17,8.75,8.75,0,0,1-3.7-2.262,6.348,6.348,0,0,1-1.6-2.535Zm16.393-1.469c.377,0,.923.013,1.287.026V27.3c-.364.013-.91.026-1.287.026h-1.82c.078-.741.13-1.625.156-2.691.195-.078.247-.117.247-.195s-.065-.117-.26-.143l-1.144-.169a25.547,25.547,0,0,1-.169,3.2H84.24c-.377,0-.923-.013-1.3-.026v1.248c.377-.013.923-.026,1.3-.026h.195a4.563,4.563,0,0,1-1.651,2.366A7.3,7.3,0,0,1,80.4,32.049a6.937,6.937,0,0,1,.611,1.079,7.241,7.241,0,0,0,3.6-2.314,4.889,4.889,0,0,0,.754-1.326,7.046,7.046,0,0,0,3.2,3.51,5.4,5.4,0,0,1,.78-1.014,6.9,6.9,0,0,1-2.236-1.742,5.384,5.384,0,0,1-1.027-1.716Zm-4.485-2.119c.143-.039.208-.1.208-.2A.3.3,0,0,0,83.291,26l-.819-.793-.208.26H80.5q.117-.41.234-.858c.234-.078.247-.091.247-.169s-.026-.091-.221-.143l-1.079-.286a12.018,12.018,0,0,1-1.066,3.2,9.393,9.393,0,0,1-1.768,2.418,3.578,3.578,0,0,1,.819.871,11.546,11.546,0,0,0,.936-1.079,15.141,15.141,0,0,1,1.248.962,8.567,8.567,0,0,1-2.665,1.963,5.334,5.334,0,0,1,.689.975,9.184,9.184,0,0,0,3.276-2.639,9.68,9.68,0,0,0,1.807-4.212ZM80.9,28.89c-.1.195-.221.377-.338.559a10.745,10.745,0,0,0-1.365-.9,5.531,5.531,0,0,0,.351-.6A15.671,15.671,0,0,1,80.9,28.89Zm.845-2.288c-.1.4-.221.819-.364,1.209a14.984,14.984,0,0,0-1.391-.819c.052-.13.091-.26.143-.39Zm-3.211,6.565a4.376,4.376,0,0,1-1.508,2.158,3.7,3.7,0,0,1,.884.858,4.678,4.678,0,0,0,1.547-2.249c.182-.052.234-.091.234-.169,0-.052-.039-.1-.13-.143Zm1.872.754a12.266,12.266,0,0,1,1.157,2.145l1.144-.6a8.894,8.894,0,0,0-1.378-2.106Zm5.876.052a8.744,8.744,0,0,1,1.846,2.106l1.04-.819a7.536,7.536,0,0,0-2.093-2.067ZM83.3,33.83a11.816,11.816,0,0,1,1.326,2.106l1.092-.663a8.879,8.879,0,0,0-1.547-2.054Zm2.873-8.307a9.855,9.855,0,0,1,1.352,1.508l.871-.741a6.029,6.029,0,0,0-1.508-1.469Zm8.151,1.82c.832-.052,1.118-.065,2.015-.117.728-.039,1.3-.065,1.638-.091l1.989-.117A11.87,11.87,0,0,1,98.28,29.9a13.072,13.072,0,0,1-5.447,4.082,2.665,2.665,0,0,1,.9,1.222,14.8,14.8,0,0,0,4.953-3.692,14.563,14.563,0,0,1,3.991,3.666l1.079-1.079A15.414,15.414,0,0,0,99.5,30.541a14.029,14.029,0,0,0,1.976-3.757c.169-.052.234-.1.234-.182,0-.039-.026-.078-.091-.13l-.962-.884-.195.247-2.548.078c-1.248.039-1.859.052-3.77.065Zm23.387-2.886a1.326,1.326,0,0,0,0,2.652,1.326,1.326,0,1,0,0-2.652Zm0,.624a.7.7,0,0,1,.689.7.685.685,0,0,1-.689.689.7.7,0,1,1,0-1.391ZM111.137,26.8a11.136,11.136,0,0,1-1.053,2.392,13.317,13.317,0,0,1-2.626,3.419,4.235,4.235,0,0,1,1.209,1.079A16.7,16.7,0,0,0,112.4,27.8c.208-.065.273-.1.273-.195a.182.182,0,0,0-.117-.143Zm3.77.767a17.622,17.622,0,0,1,2.067,2.834,15.829,15.829,0,0,1,1.417,2.9l1.43-.78a16.174,16.174,0,0,0-1.378-2.691A15.1,15.1,0,0,0,116,26.745Zm15.028.949c.286-.3.819-.858.884-.936s1.573-2,1.716-2.2c.182-.052.26-.117.26-.221q0-.078-.156-.156l-1.248-.572A11.352,11.352,0,0,1,129.35,27.2a22.236,22.236,0,0,1-5.551,4.277c.1.13.234.3.442.52a4.073,4.073,0,0,1,.455.637,25.433,25.433,0,0,0,4.251-3.159c.013.377.013.936.013,1.326v2.73a22.2,22.2,0,0,1-.065,2.288h1.5c-.013-.39-.039-1.365-.039-2.288V30.788c0-.975,0-1.43.013-1.859.156-.091.208-.156.208-.234s-.078-.13-.182-.143Zm10.335-1.17c.832-.052,1.118-.065,2.015-.117.728-.039,1.3-.065,1.638-.091l1.989-.117a11.87,11.87,0,0,1-1.69,2.886,13.072,13.072,0,0,1-5.447,4.082,2.665,2.665,0,0,1,.9,1.222,14.8,14.8,0,0,0,4.953-3.692,14.563,14.563,0,0,1,3.991,3.666L149.7,34.1a15.414,15.414,0,0,0-4.251-3.562,14.028,14.028,0,0,0,1.976-3.757c.169-.052.234-.1.234-.182,0-.039-.026-.078-.091-.13l-.962-.884-.195.247-2.548.078c-1.248.039-1.859.052-3.77.065Zm14.547-2.288a7.829,7.829,0,0,1-.065,1.014,43.641,43.641,0,0,0-.338,5.213,14.907,14.907,0,0,0,.468,3.952,9.075,9.075,0,0,1,1.443-.39,12.718,12.718,0,0,1-.533-4.069,32.24,32.24,0,0,1,.416-5.057c.221-.1.286-.156.286-.26s-.078-.169-.208-.182Zm3.692,2.587c.715.026,1.547.052,2.431.052a31.523,31.523,0,0,0,3.237-.182l-.039-1.326a20.986,20.986,0,0,1-3.133.208c-1.131,0-1.638-.013-2.444-.078Zm-.7,3.6c0,.078.013.234.013.741a3.162,3.162,0,0,0,.559,1.9c.546.715,1.573,1,3.679,1a21.276,21.276,0,0,0,2.639-.169,5.342,5.342,0,0,1,.195-1.43,19.249,19.249,0,0,1-2.613.221c-2.769,0-3.211-.325-3.224-2.288Zm22.386-.221-.143.195h-3.809v-.546h3.575c.338,0,.754.013,1.027.026V29.579l-1.027.013h-3.575V29.02h2.7v.247h1.118c-.026-.3-.039-.741-.039-1.352V26.3c0-.416.026-.91.039-1.144-.455.013-.858.013-1.43.013h-.715c.065-.143.143-.325.26-.6.247-.091.286-.117.286-.195a.18.18,0,0,0-.143-.169l-1.352-.3a12.744,12.744,0,0,1-.221,1.261h-.2c-.572,0-.975,0-1.43-.013.026.234.039.728.039,1.144v5.07c0,.65-.013,1.079-.039,1.391h1.118v-.507h3.341c-.052.364-.1.715-.182,1.079a6.921,6.921,0,0,0-.78-1.053l-.7.429a9.375,9.375,0,0,1,.845,1.365l.546-.351a3.858,3.858,0,0,1-.273.754c-.156.325-.416.442-1,.442-.312,0-.533-.013-.767-.026a8.1,8.1,0,0,1,.208,1.274c.507-.013.676-.013.832-.026a2.233,2.233,0,0,0,1.339-.39c.546-.494.9-1.586,1.144-3.653.208-.078.273-.13.273-.221a.224.224,0,0,0-.1-.169Zm-1.248-3h-2.7v-.468h2.7Zm0-1.326h-2.7v-.52h2.7Zm-5.551,5.824c.351,0,.767.013,1.04.026V31.412c-.286.013-.767.013-1.04.013h-1.118a2.938,2.938,0,0,0,.013-.338v-.312h.858c.351,0,.767.013,1.04.026V29.67c-.286.013-.754.013-1.04.013h-.858V28.89c.143-.052.208-.1.208-.182s-.091-.117-.234-.13l-1.2-.078c.026.39.039.793.039,1.183h-.819c-.273,0-.741,0-1.027-.013V30.8c.273-.013.676-.026,1.027-.026h.832c0,.221-.013.429-.026.65H170.04c-.286,0-.754,0-1.04-.013v1.131c.273-.013.689-.026,1.04-.026h.9a3.066,3.066,0,0,1-.377.936,4.918,4.918,0,0,1-1.885,1.677,4.687,4.687,0,0,1,.7.975,5.412,5.412,0,0,0,1.833-1.482,4.291,4.291,0,0,0,.494-.767,10.334,10.334,0,0,1,1.391,1.7l.949-.9a12.465,12.465,0,0,0-.975-1.053c-.312-.273-.637-.546-.975-.793.026-.1.039-.195.065-.3Zm1.04-7.319c.117,0,.2-.065.2-.143,0-.039-.026-.078-.078-.13l-.767-.728a21.081,21.081,0,0,1-4.9.793,7.026,7.026,0,0,1,.351,1.079,31.981,31.981,0,0,0,4.979-.871ZM169,26.836a9.69,9.69,0,0,1,.923,2.041l1-.455a7.182,7.182,0,0,0-1.04-2Zm6.8,6.435a9.705,9.705,0,0,1,.533,1.846l.936-.325a9.215,9.215,0,0,0-.65-1.807Zm-2.444-4.329a16.569,16.569,0,0,0,1.1-2.548c.273-.1.3-.143.3-.234,0-.052-.039-.091-.143-.13l-1.144-.429a11.664,11.664,0,0,1-1.105,2.86Zm1.235,4.095a4.5,4.5,0,0,1-.6,2.093,3.786,3.786,0,0,1,.962.676,5.777,5.777,0,0,0,.6-2.249l.1-.052a.143.143,0,0,0,.052-.117c0-.065-.039-.1-.13-.13Zm2.3.026a8,8,0,0,1,.65,1.339c.026.065.052.156.1.273l.871-.442a9.209,9.209,0,0,0-.9-1.521Zm-6.3-6.786a9.225,9.225,0,0,1,.9,1.95l1-.468a7.176,7.176,0,0,0-1-1.924Zm22.789.6c-.819.52-1.365.845-1.625.988l-2.158,1.222a10.734,10.734,0,0,1-.507-3.978c.117-.091.169-.169.169-.26s-.1-.143-.221-.143l-1.534-.013a7.526,7.526,0,0,1,.221,1.378,11.478,11.478,0,0,0,.611,3.51,2.141,2.141,0,0,0,.091.208c-1.989,1.3-2.652,2.145-2.652,3.367a2.2,2.2,0,0,0,.962,1.885,6.059,6.059,0,0,0,3.367.663,25.207,25.207,0,0,0,4.407-.377,6.247,6.247,0,0,1-.026-.65,6.55,6.55,0,0,1,.039-.806,19.525,19.525,0,0,1-4.42.468c-2.041,0-2.886-.338-2.886-1.2,0-1.222,1.3-2.158,6.643-4.823.312-.013.4-.039.4-.143a.322.322,0,0,0-.091-.208Zm9.139-.1c.13-.325.286-.741.52-1.378.286-.078.325-.117.325-.208s-.052-.13-.234-.195l-1.209-.4a10.967,10.967,0,0,1-2.223,4.407,4.781,4.781,0,0,1,.936.91,10.707,10.707,0,0,0,1.313-1.924h3.042v2.249h-2.821c-.741,0-1.911-.013-2.587-.052V31.49c.7-.026,1.872-.052,2.587-.052h2.821v.884c0,1.677-.013,2.951-.052,3.8h1.443c-.039-.832-.052-2.093-.052-3.8v-.884H209c.793,0,1.9.026,2.587.052V30.177c-.663.039-1.768.052-2.587.052h-2.678V27.98h1.9c.767,0,1.911.026,2.587.052V26.719c-.676.026-1.82.052-2.587.052h-1.9c0-1.716,0-1.781.013-2.158.169-.1.234-.169.234-.247s-.078-.117-.2-.13l-1.469-.091c.039.325.065,1.209.078,2.626ZM219.18,24.5a16.978,16.978,0,0,1-.546,2.7c-.741.078-1.937.182-2.99.26l.273,1.417c.429-.065.442-.078.819-.143.715-.13.741-.117,1.625-.247a17.969,17.969,0,0,1-.754,2.223,17.46,17.46,0,0,1-1.963,3.848,4.063,4.063,0,0,1,1.157.715,21.374,21.374,0,0,0,2.093-4.329c.325-.871.715-2.041.871-2.613a7.418,7.418,0,0,1,1.157-.065c.871,0,1.04.273,1.04,1.781,0,.325-.026.741-.065,1.183a5.477,5.477,0,0,1-.546,2.275,1.1,1.1,0,0,1-1.053.507,6.058,6.058,0,0,1-1.118-.117,6.638,6.638,0,0,1,.117,1.417c.221.026.7.052,1.079.052a2.28,2.28,0,0,0,2.08-.962c.559-.884.819-2.444.819-4.836,0-1.261-.234-1.82-.91-2.2a2.871,2.871,0,0,0-1.443-.3c-.3,0-.741.013-.962.026.247-.9.3-1.118.481-1.963.221-.117.26-.156.26-.247s-.078-.156-.2-.169Zm3.835,2.2a10.588,10.588,0,0,1,3.12,3.523l1.131-.923a11.964,11.964,0,0,0-3.367-3.471Zm9.62-.65c-.052.637-.091.923-.208,1.7a24.333,24.333,0,0,0-.39,3.874c0,.13.026.351.026.572V32.4l1.222.026a5.527,5.527,0,0,1,4.186-2.236c1.248,0,2.041.65,2.041,1.677,0,1.612-1.742,2.535-4.771,2.535-.2,0-.52-.013-.923-.026a7.717,7.717,0,0,1,.208,1.443c2.873-.052,4-.247,5.265-.962a3.285,3.285,0,0,0,1.664-3.029,2.605,2.605,0,0,0-.533-1.716,3.6,3.6,0,0,0-2.834-1.118,5.667,5.667,0,0,0-2.99.858,4.912,4.912,0,0,0-1.248.91,20.692,20.692,0,0,1,.611-3.939c.195-.039.312-.117.312-.221s-.065-.156-.208-.195Zm1.2-.715a11.633,11.633,0,0,1,3.874,1.456l.676-1.235a12.632,12.632,0,0,0-4.043-1.417Zm21.749-.91a7.9,7.9,0,0,1,1.573,1.339l.637-.7a8.945,8.945,0,0,0-1.638-1.313Zm-1.014,1.118a7.563,7.563,0,0,1,1.56,1.352l.65-.715a8.327,8.327,0,0,0-1.638-1.3Zm-5.46,4.55a12.324,12.324,0,0,1,2.561,2.054,11.78,11.78,0,0,1-4.355,2.756,3.4,3.4,0,0,1,.832,1.209,13.255,13.255,0,0,0,5.044-3.549A12.365,12.365,0,0,0,255.5,27.59c.2-.091.286-.182.286-.286,0-.065-.026-.065-.143-.2l-.884-.923-.195.234h-3.51c.169-.351.247-.533.585-1.417.234-.091.273-.117.273-.208s-.039-.117-.169-.169l-1.313-.455a10.561,10.561,0,0,1-4.16,5.785,3.3,3.3,0,0,1,.975,1.053,13.873,13.873,0,0,0,3.146-3.341h3.692a9.017,9.017,0,0,1-1.5,3.315,3.037,3.037,0,0,1-.39-.364,10.8,10.8,0,0,0-2.288-1.573Zm14.1,5.564a.32.32,0,0,0,.221.169c.091,0,.156-.091.208-.26,1.17-.533,1.651-.767,2.249-1.066a14.885,14.885,0,0,0,3.718-2.639,15.36,15.36,0,0,0,2.665-3.549,7.653,7.653,0,0,1-1.04-1.079,12.581,12.581,0,0,1-4.173,4.784,18.365,18.365,0,0,1-4.667,2.314Zm.065-9.828a11.9,11.9,0,0,1,2.327,1.885l1.014-1.144a11.32,11.32,0,0,0-2.483-1.846Zm-1.716,3.107a11.584,11.584,0,0,1,2.34,1.9l1-1.157a11.585,11.585,0,0,0-2.47-1.846Zm19.76-4.953a7.066,7.066,0,0,1-.819,1.833,8.675,8.675,0,0,1-.91.039,10.892,10.892,0,0,1-1.755-.1l-.052,1.222a9.332,9.332,0,0,0,1.17.065c.273,0,.416,0,.949-.026a15,15,0,0,1-3,3.432l1.131.962a4.475,4.475,0,0,1,3.042-2.145c.611,0,.832.247.949.975a8.19,8.19,0,0,0-2.587,1.716,2.442,2.442,0,0,0-.715,1.729,1.887,1.887,0,0,0,1.105,1.846,6.5,6.5,0,0,0,2.7.351,25.044,25.044,0,0,0,3.952-.3,2.321,2.321,0,0,1-.026-.39,8.919,8.919,0,0,1,.078-1.027,18.43,18.43,0,0,1-4.186.416c-1.677,0-2.275-.247-2.275-.949a1.729,1.729,0,0,1,.715-1.261,6.579,6.579,0,0,1,1.3-.832v1.95h1.274v-2.47c1.495-.663,2.171-.936,3.367-1.365h.169c.1,0,.182-.039.182-.117a.281.281,0,0,0-.078-.182l-.923-.923c-1.092.533-2.184,1.04-2.808,1.287a1.644,1.644,0,0,0-1.742-1.469,2.859,2.859,0,0,0-1.209.247c.247-.338.7-1.053.975-1.521a30.948,30.948,0,0,0,3.874-.429l-.312-1.17a15.274,15.274,0,0,1-2.925.4,8.829,8.829,0,0,0,.585-1.17c.195-.078.247-.13.247-.208a.151.151,0,0,0-.13-.143ZM301.3,32.842a13.85,13.85,0,0,0,1.69-5.2l.117-.052c.169-.078.247-.143.247-.247a.349.349,0,0,0-.1-.234l-.819-.806-.221.273h-2.7c-.52,0-1.326-.013-1.807-.039v1.274c.208-.013.468-.026.741-.026a13.865,13.865,0,0,0,1.3,4.693c.052.1.1.195.156.286a10.138,10.138,0,0,1-2.4,2.21,4.65,4.65,0,0,1,.7,1.092,10.91,10.91,0,0,0,2.4-2.184A12.529,12.529,0,0,0,302.77,36a5.524,5.524,0,0,1,.871-.988A10.233,10.233,0,0,1,301.3,32.842Zm.442-5.07A12.881,12.881,0,0,1,300.6,31.62a13.55,13.55,0,0,1-1-3.848ZM297.232,25.8h.208c.494,0,1.339.013,1.82.039V24.574c-.455.013-1.3.026-1.82.026h-4.316c-.585,0-1.326-.013-1.82-.026v1.261c.429-.026,1-.039,1.495-.039v7.111c-.429.065-.9.143-1.469.234l.442,1.209c.078.208.091.234.2.234.078,0,.117-.039.247-.234,1.209-.286,2.665-.676,3.77-1.027v.1c0,1.2-.013,2.08-.039,2.665h1.326c-.026-.585-.039-1.469-.039-2.665Zm-1.248,0v1.378h-1.937V25.8Zm-1.937,5.135h1.937v1.235c-.65.169-1.287.351-1.937.494Zm1.937-2.6v1.443h-1.937V28.331Zm13.546-3.679a2.814,2.814,0,0,1-.039.377,21.97,21.97,0,0,0-.286,3.64,10.4,10.4,0,0,0,.455,3.367l1.378-.416a9.292,9.292,0,0,1-.442-3.094,13.907,13.907,0,0,1,.338-3.237c.2-.052.273-.1.273-.208a.17.17,0,0,0-.156-.169Zm5.07.039c.013.182.039.377.078.767.1,1,.195,2.561.195,3.471,0,2.418-.351,3.484-1.391,4.381a7.2,7.2,0,0,1-3.068,1.391,4.633,4.633,0,0,1,.7,1.326,11.161,11.161,0,0,0,3.2-1.482c1.469-1.1,2-2.574,2-5.447,0-.923-.091-2.639-.208-3.926.2-.091.273-.156.273-.273a.193.193,0,0,0-.208-.156Zm12.272,3.081a41.573,41.573,0,0,1-.247,5.707c-.182.962-.39,1.157-1.235,1.157-.325,0-.572-.013-.9-.039a5.006,5.006,0,0,1,.273,1.456,8.58,8.58,0,0,0,1.755-.117A1.5,1.5,0,0,0,327.7,34.87c.338-.975.416-2.119.455-7.4.2-.117.247-.169.247-.247,0-.052-.026-.091-.117-.169l-.91-.741-.2.286h-1.768V24.574c.234-.091.3-.143.3-.247s-.117-.182-.3-.195l-1.287-.117c.026.325.039.9.039,2.379V26.6c-.624,0-1.443-.013-1.963-.039v1.248c.507-.026,1.313-.039,1.937-.039-.117,3.6-.78,5.5-2.353,7.085a5.55,5.55,0,0,1,.7,1.157,9.19,9.19,0,0,0,.91-.975,8.483,8.483,0,0,0,1.495-3.172,18.094,18.094,0,0,0,.494-4.1Zm3.484,6.981h2.119v.806h1.287c-.026-.494-.039-1.248-.039-2.288V28.214c0-1.157,0-1.638.039-2.067-.247.013-.468.013-.767.013h-3.159c-.3,0-.52,0-.767-.013.026.4.039,1.287.039,2.067v5.4c0,1-.013,1.768-.039,2.288h1.287Zm2.119-1.183h-2.119V27.356h2.119Zm7.072,1.963c.481-.546,1.521-1.69,1.937-2.145,1.131-1.2,1.326-1.352,1.69-1.352s.494.273.715,1.586c.156.962.26,1.287.533,1.534a2.38,2.38,0,0,0,1.69.4,6.375,6.375,0,0,0,2.262-.338c-.013-.156-.026-.221-.026-.3a7.916,7.916,0,0,1,.13-1.131,6.434,6.434,0,0,1-2.34.468,1.018,1.018,0,0,1-.689-.182c-.13-.117-.182-.26-.325-1.092-.26-1.43-.533-1.859-1.209-1.859a1.57,1.57,0,0,0-.442.065c.286-.286.338-.351.663-.715.7-.767,1.521-1.651,1.768-1.885.4-.169.455-.208.455-.325s-.091-.221-.949-1.014a.845.845,0,0,1-.455.182c-2.262.26-4.225.416-5.759.468l.182,1.443c.611-.1,1.131-.195,2.379-.364.793-.1,1.248-.195,2.4-.377a42.942,42.942,0,0,1-5.655,5.824Zm1.287-9.906a20.378,20.378,0,0,1,4.225.871l.416-1.248a20.081,20.081,0,0,0-4.368-.91Zm18.447.507a12.246,12.246,0,0,1-2.379.351c.247-1.248.26-1.326.338-1.742.182-.078.247-.117.247-.195a.194.194,0,0,0-.169-.156l-1.378-.26c-.013.143-.026.195-.039.338-.065.585-.078.689-.143,1.053-.13.754-.169.949-.182.988-.416.013-.689.013-.793.013a13.221,13.221,0,0,1-1.417-.065l-.026,1.261a13.036,13.036,0,0,0,1.339.078c.13,0,.156,0,.663-.013a38.746,38.746,0,0,1-2.2,7.28,3.948,3.948,0,0,1,1.352.546,59.162,59.162,0,0,0,2.145-7.852,18.421,18.421,0,0,0,2.808-.351Zm-1.924,6.331-.013.429a2.244,2.244,0,0,0,.767,1.976c.585.468,1.508.637,3.406.637a19.254,19.254,0,0,0,2.236-.117,4.853,4.853,0,0,1,.208-1.365,19.072,19.072,0,0,1-2.782.182c-1.287,0-2.067-.195-2.366-.572a1.431,1.431,0,0,1-.247-.91l.013-.26Zm1.274-1.989a8.384,8.384,0,0,1,3.146-.559,13.837,13.837,0,0,1,1.664.117l.221-1.287a10.422,10.422,0,0,0-1.82-.143,10.559,10.559,0,0,0-3.653.637ZM2.873,70.65a.32.32,0,0,0,.221.169c.091,0,.156-.091.208-.26,1.17-.533,1.651-.767,2.249-1.066a14.884,14.884,0,0,0,3.718-2.639,15.36,15.36,0,0,0,2.665-3.549,7.652,7.652,0,0,1-1.04-1.079A12.58,12.58,0,0,1,6.721,67.01a18.365,18.365,0,0,1-4.667,2.314Zm.065-9.828a11.9,11.9,0,0,1,2.327,1.885l1.014-1.144A11.321,11.321,0,0,0,3.8,59.717ZM1.222,63.929a11.584,11.584,0,0,1,2.34,1.9l1-1.157a11.586,11.586,0,0,0-2.47-1.846Zm15.9-2.6a11.64,11.64,0,0,1,2.626,2.288l1.105-1.144a11.4,11.4,0,0,0-2.86-2.249Zm1.469,8.749a.336.336,0,0,0,.221.156c.091,0,.143-.078.195-.26a20.912,20.912,0,0,0,4.485-2.912A14.723,14.723,0,0,0,27.1,62.447a4.6,4.6,0,0,1-.975-1.092,19.212,19.212,0,0,1-1.261,2.119,14.034,14.034,0,0,1-2.808,2.886A19.338,19.338,0,0,1,17.745,68.8Zm23.686-11.4A1.333,1.333,0,1,0,43.6,60,1.332,1.332,0,0,0,42.276,58.677Zm0,.637a.7.7,0,0,1,0,1.391.7.7,0,1,1,0-1.391ZM40.742,60.77l-.195.221-4.108.091c-.754.013-1.209.026-1.7.026-1.04,0-1.742-.013-2.613-.039l.091,1.469c.715-.026,1.04-.039,1.573-.052.78-.026,1.677-.065,2.7-.091l3.614-.1A10.2,10.2,0,0,1,38.6,65.606a11.508,11.508,0,0,1-5.33,3.835,2.944,2.944,0,0,1,.871,1.274,19.157,19.157,0,0,0,1.82-.923,12.321,12.321,0,0,0,3.666-3.107A13.876,13.876,0,0,0,41.6,62.109c.2-.078.26-.13.26-.221a.224.224,0,0,0-.1-.169Zm12.831,8.788a.659.659,0,0,0,.195.078c.091,0,.156-.078.208-.26a16.188,16.188,0,0,0,4.6-3.38q-.332-.975-.468-1.521a13.056,13.056,0,0,1-4.043,3.263V62.655c0-1,0-1.2.013-1.469.182-.117.247-.182.247-.26s-.078-.117-.221-.13l-1.443-.091c.026.351.039.923.039,1.95v3.952a8.787,8.787,0,0,1-.156,2.418Zm-3.887-8.84c.026.416.039.611.039,1.053,0,.858-.026,1.69-.065,2.184a5.437,5.437,0,0,1-1.287,3.575A7.906,7.906,0,0,1,46.4,68.947a4.9,4.9,0,0,1,.91,1.118c.585-.351.806-.481,1.092-.689a5.522,5.522,0,0,0,2.171-2.795c.4-1.118.507-2.171.507-5.382.156-.065.26-.169.26-.247,0-.052-.091-.117-.169-.117ZM65.7,59.041a13.6,13.6,0,0,1-.611,2.054l-.052.156c-.494.013-.78.026-.936.026-.4,0-1.014-.026-1.391-.065L62.7,62.5c.767.026.819.039.949.039.182,0,.741-.026.975-.039a24.229,24.229,0,0,1-2.73,5.044,3.076,3.076,0,0,1,1.248.689A35.09,35.09,0,0,0,66,62.421c.26-.026.533-.065.793-.091a10.876,10.876,0,0,0,1.638-.312l-.195-1.2a9.771,9.771,0,0,1-1.508.312c-.117.013-.247.039-.3.039.052-.13.091-.208.13-.312.169-.455.208-.546.429-1.04.169-.078.221-.13.221-.221,0-.065-.052-.13-.156-.156ZM69.628,62.5a9.16,9.16,0,0,1,3.211,1.287l.637-1.183a8.292,8.292,0,0,0-3.406-1.274Zm.039.9a2.185,2.185,0,0,0-.858,1.638,7.305,7.305,0,0,0,.091,1.027l.156,1.014a5.663,5.663,0,0,0-1.378-.182c-1.365,0-2.314.767-2.314,1.872,0,1.183,1.092,2.015,2.678,2.015,1.248,0,1.9-.286,2.21-.962a3.181,3.181,0,0,0,.208-1.027,14.979,14.979,0,0,1,2.093,1.391,2.772,2.772,0,0,1,.728-1.17,15.63,15.63,0,0,0-2.821-1.534c-.039-.338-.065-.533-.13-.923a10.548,10.548,0,0,1-.195-1.508,1.069,1.069,0,0,1,.468-.923Zm-.494,5.018c0,.858-.312,1.209-1.079,1.209-.91,0-1.43-.312-1.43-.858,0-.442.429-.728,1.1-.728a3.986,3.986,0,0,1,1.4.273Zm19.734-4.381c-.663.026-1.781.052-2.6.052h-6.5c-.741,0-1.911-.026-2.587-.052v1.4c.7-.026,1.872-.052,2.587-.052h6.5c.793,0,1.911.013,2.6.052Zm4.875,5.057c-.52-.013-1.04-.026-1.4-.039v1.287c.7-.026,1.872-.052,2.587-.052H101.8c.793,0,1.9.026,2.587.052V69.051c-.377.013-.9.026-1.417.039V62.525c0-1.417.013-1.664.039-2.067-.338.013-.65.013-1.1.013H94.861c-.455,0-.767,0-1.118-.013.026.4.039.624.039,2.067Zm2.678-7.462V69.1H95.082V61.628Zm1.248,0h1.365V69.1H97.708Zm2.613,0h1.365V69.1h-1.365Zm16.965,1.638a7.568,7.568,0,0,1,1.573,1.352l.637-.715a8.327,8.327,0,0,0-1.638-1.3ZM116.272,64.4a7.49,7.49,0,0,1,1.56,1.339l.65-.715a8.327,8.327,0,0,0-1.638-1.3Zm-7.787-1.807c.572-.143,2-.338,6.747-.9-2.223,1.391-3.172,2.782-3.172,4.641a3.659,3.659,0,0,0,1.573,3.159,7.712,7.712,0,0,0,3.861,1.183,4.18,4.18,0,0,1,.455-1.417,13.581,13.581,0,0,1-2.4-.442,2.48,2.48,0,0,1-2.041-2.561,3.247,3.247,0,0,1,.377-1.612,5.814,5.814,0,0,1,2.015-2.119,7.3,7.3,0,0,1,2.093-1.144c.377-.052.4-.052.4-.182,0-.065-.013-.091-.091-.195l-.663-.858a5.219,5.219,0,0,1-2.015.429c-2.158.208-5.681.416-7.163.416h-.143Zm20.735-3.51c.039.455.052.949.052,2.158-1.521.065-2.756.091-4.2.091-.572,0-.949-.013-1.677-.026l.091,1.378c1.937-.091,2.015-.091,3.835-.156.936-.026,1.274-.039,1.95-.065.013.26.013.559.013.806,0,.091,0,.208.013.507a2.709,2.709,0,0,0-1.521-.468,1.91,1.91,0,0,0-1.859,2.08,2.522,2.522,0,0,0,2.366,2.73,1.777,1.777,0,0,0,1.053-.312,3.13,3.13,0,0,1-1.43,1.378,8.983,8.983,0,0,1-1.807.663,4.287,4.287,0,0,1,.663,1.313,8.2,8.2,0,0,0,2.665-1.391,4.436,4.436,0,0,0,1.417-3.445,5.331,5.331,0,0,0-.2-1.4v-2.5c1.326-.052,2.158-.078,2.509-.078.585,0,1,0,1.469-.013l-.039-1.352c-.962.091-2.379.169-3.939.221.013-.689.013-1.014.026-1.6.169-.13.221-.195.221-.286s-.1-.156-.26-.169Zm-2.028,6.292a.826.826,0,0,1,.793-.923,1.563,1.563,0,0,1,1.469,1.5.928.928,0,0,1-.962.988A1.47,1.47,0,0,1,127.192,65.372Zm13.143,1.7a1.983,1.983,0,1,0,1.976,1.976A1.978,1.978,0,0,0,140.335,67.075Zm0,.936a1.047,1.047,0,1,1-1.053,1.04A1.043,1.043,0,0,1,140.335,68.011Z" transform="translate(401 484)"/></g><g transform="translate(341 68)"><rect class="a" width="392" height="26" rx="1" transform="translate(392 580)"/><rect class="a" width="446" height="26" rx="1" transform="translate(392 615)"/><path d="M2.483-6.461c-.572,0-1.313-.013-1.807-.039v1.2c.533-.026,1.261-.039,1.807-.039V-3.3c-.52,0-1.092-.013-1.508-.026v1.183c.533-.013,1.261-.026,1.807-.026h7.449c.494,0,1.339.013,1.82.026V-3.328c-.4.013-1.092.026-1.612.026V-5.343h.13c.494,0,1.326.013,1.807.039V-6.5c-.442.026-1.287.039-1.807.039h-.13V-8.385c.494,0,1.079.013,1.469.039v-1.2c-.481.013-1.287.026-1.82.026H3.341c.13-.247.273-.507.416-.793.273-.065.312-.091.312-.182,0-.065-.065-.13-.182-.169L2.9-11.05A9.71,9.71,0,0,1,.546-7.826a4.51,4.51,0,0,1,.78.923A11.211,11.211,0,0,0,2.483-8.19ZM3.692-3.3V-5.343H4.745V-3.3Zm2.275,0V-5.343h1V-3.3Zm2.21,0V-5.343H9.23V-3.3ZM3.692-6.461V-8.385H4.745v1.924Zm2.275,0V-8.385h1v1.924Zm2.21,0V-8.385H9.23v1.924ZM1.937-1.833A4.277,4.277,0,0,1,.52.312a4,4,0,0,1,.9.819A5.031,5.031,0,0,0,2.873-1.144c.169-.052.221-.091.221-.169a.177.177,0,0,0-.13-.143Zm1.937.611A15.2,15.2,0,0,1,5.109,1.131L6.175.507A10.218,10.218,0,0,0,4.706-1.807Zm5.6.078a12.38,12.38,0,0,1,2.067,2.223l1-.767a9.725,9.725,0,0,0-2.288-2.171Zm-2.86-.039A14.849,14.849,0,0,1,8.125,1.105L9.152.416A10.954,10.954,0,0,0,7.423-1.82Zm19.058-5.6c.494,0,1.339.026,1.82.039V-8.008c-.455.026-1.287.039-1.82.039H23.582q.136-.663.234-1.326c.689-.1,1.482-.26,2.717-.494.156.013.221.013.26.013.1,0,.182-.052.182-.117a.244.244,0,0,0-.1-.169l-.949-.793a36.553,36.553,0,0,1-6.6.9,3.536,3.536,0,0,1,.312,1.144c1.378-.13,2.223-.208,2.951-.3-.065.377-.13.767-.234,1.144H20.7c-.572,0-1.313-.013-1.807-.039v1.261c.533-.013,1.261-.039,1.807-.039h1.17a5.843,5.843,0,0,1-3.185,2.613,5.87,5.87,0,0,1,.6,1.066,9.876,9.876,0,0,0,2.5-1.586,16.65,16.65,0,0,1,.091,1.872v2c0,.507-.052.546-.624.546A7.8,7.8,0,0,1,20.4-.325a6.2,6.2,0,0,1,.247,1.378h.1c1.963,0,2.4-.26,2.4-1.4A1.153,1.153,0,0,0,23.14-.52c-.013-.39-.039-.949-.039-1.157V-2.821c0-.819.026-1.183.039-1.43.169-.1.234-.169.234-.247s-.078-.13-.182-.143L21.8-4.732a5.228,5.228,0,0,0,.858-1.04,5.436,5.436,0,0,0,.429-.741c.884,1.638,1.937,2.418,4.2,3.25.247-.455.481-.845.676-1.157C25.987-5.005,25-5.577,24.128-6.786ZM25.4-2.717a12.158,12.158,0,0,1,1.547,2.6l1.079-.611A9.826,9.826,0,0,0,26.3-3.341ZM16.51-9.906a9.778,9.778,0,0,1,1.417,1.69l1.04-.793a9.849,9.849,0,0,0-1.547-1.638ZM15.7-7.1A10.975,10.975,0,0,1,17.2-5.382l1.014-.806a11.107,11.107,0,0,0-1.625-1.7Zm1.924,2.041A29.009,29.009,0,0,1,15.639.013l.923.767c.078.065.13.117.182.117.078,0,.117-.078.117-.182V.624C16.913.481,16.939.4,17,.26c.3-.728.351-.858.442-1.105.52-1.4.845-2.379,1.157-3.536ZM20.02-3.2A5.019,5.019,0,0,1,18.486-.637a3.757,3.757,0,0,1,.832.871A6.381,6.381,0,0,0,20.969-2.5c.182-.052.221-.078.221-.169a.147.147,0,0,0-.117-.13Zm3.3.611A12.692,12.692,0,0,1,24.856.026l1.053-.637A10,10,0,0,0,24.18-3.2ZM35.906-7.228a41.574,41.574,0,0,1-.247,5.707c-.182.962-.39,1.157-1.235,1.157-.325,0-.572-.013-.9-.039A5.006,5.006,0,0,1,33.8,1.053,8.58,8.58,0,0,0,35.555.936,1.5,1.5,0,0,0,36.738-.13c.338-.975.416-2.119.455-7.4.195-.117.247-.169.247-.247,0-.052-.026-.091-.117-.169l-.91-.741-.195.286H34.45v-2.028c.234-.091.3-.143.3-.247s-.117-.182-.3-.195l-1.287-.117c.026.325.039.9.039,2.379V-8.4c-.624,0-1.443-.013-1.963-.039v1.248c.507-.026,1.313-.039,1.937-.039-.117,3.6-.78,5.5-2.353,7.085a5.548,5.548,0,0,1,.7,1.157,9.187,9.187,0,0,0,.91-.975A8.482,8.482,0,0,0,33.93-3.133a18.1,18.1,0,0,0,.494-4.1ZM39.39-.247h2.119V.559H42.8c-.026-.494-.039-1.248-.039-2.288V-6.786c0-1.157,0-1.638.039-2.067-.247.013-.468.013-.767.013H38.87c-.3,0-.52,0-.767-.013.026.4.039,1.287.039,2.067v5.4c0,1-.013,1.768-.039,2.288H39.39ZM41.509-1.43H39.39V-7.644h2.119Zm4.979-.481a15.313,15.313,0,0,1,2.379,2.938L50.05.13A17.147,17.147,0,0,0,47.5-2.8ZM71.8-10.634a7.563,7.563,0,0,1,1.56,1.352l.65-.715a8.327,8.327,0,0,0-1.638-1.3ZM70.785-9.5a7.837,7.837,0,0,1,1.56,1.339l.65-.7a8.833,8.833,0,0,0-1.638-1.313Zm-.039.936H67.288a5.981,5.981,0,0,0,.312-.7l.286-.7c.247-.091.286-.13.286-.221s-.052-.13-.182-.169l-1.3-.429a10.369,10.369,0,0,1-1.014,2.366,11.689,11.689,0,0,1-2.808,3.367,3.98,3.98,0,0,1,1.027.975,13.933,13.933,0,0,0,2.8-3.237h3.653a8.661,8.661,0,0,1-1.859,3.952A10.135,10.135,0,0,1,64.077-.351,3.087,3.087,0,0,1,64.87.923C65.676.546,66,.377,66.469.117a10.708,10.708,0,0,0,3.406-2.951A11.252,11.252,0,0,0,71.76-7.462c.195-.078.26-.143.26-.234,0-.052-.026-.091-.117-.182l-.975-.884ZM84.2-.442a.659.659,0,0,0,.2.078c.091,0,.156-.078.208-.26A16.188,16.188,0,0,0,89.206-4q-.332-.975-.468-1.521a13.056,13.056,0,0,1-4.043,3.263V-7.345c0-1,0-1.2.013-1.469.182-.117.247-.182.247-.26s-.078-.117-.221-.13L83.291-9.3c.026.351.039.923.039,1.95v3.952a8.786,8.786,0,0,1-.156,2.418Zm-3.887-8.84c.026.416.039.611.039,1.053,0,.858-.026,1.69-.065,2.184A5.437,5.437,0,0,1,79-2.47a7.906,7.906,0,0,1-1.976,1.417,4.895,4.895,0,0,1,.91,1.118c.585-.351.806-.481,1.092-.689a5.522,5.522,0,0,0,2.171-2.8c.4-1.118.507-2.171.507-5.382.156-.065.26-.169.26-.247,0-.052-.091-.117-.169-.117Zm21.32,3.8c.6,0,1.508.013,2.067.039V-6.786c-.559.026-1.469.039-2.067.039H95.16c-.663,0-1.521-.013-2.067-.039v1.339c.546-.026,1.4-.039,2.067-.039h2.951a6.741,6.741,0,0,1-.572,2.4c-.533,1.118-1.365,1.716-3.6,2.574A3.481,3.481,0,0,1,94.757.767c.338-.13.494-.2.858-.364a6.145,6.145,0,0,0,3.224-2.769,9.057,9.057,0,0,0,.7-3.12Zm.845-4.472c-.39.013-1.053.026-1.56.026H96.213c-.494,0-1.157-.013-1.547-.026v1.352c.39-.013,1.118-.026,1.547-.026h4.706c.429,0,1.157.013,1.56.026Zm6.526,1.287a11.64,11.64,0,0,1,2.626,2.288l1.105-1.144a11.4,11.4,0,0,0-2.86-2.249ZM110.474.078a.336.336,0,0,0,.221.156c.091,0,.143-.078.195-.26a20.912,20.912,0,0,0,4.485-2.912,14.723,14.723,0,0,0,3.614-4.615,4.6,4.6,0,0,1-.975-1.092,19.212,19.212,0,0,1-1.261,2.119,14.034,14.034,0,0,1-2.808,2.886A19.338,19.338,0,0,1,109.629-1.2Zm22.412-9.49-.2.234-4.108.091c-.754.013-1.209.026-1.7.026-1.04,0-1.742-.013-2.613-.052l.091,1.482c.715-.026,1.04-.039,1.573-.052.78-.026,1.677-.052,2.7-.091l3.614-.117a9.962,9.962,0,0,1-1.508,3.315,11.522,11.522,0,0,1-5.33,3.848,2.98,2.98,0,0,1,.871,1.261,16.753,16.753,0,0,0,1.82-.91,12.322,12.322,0,0,0,3.666-3.107,13.876,13.876,0,0,0,1.976-4.576c.2-.091.26-.143.26-.221,0-.052-.039-.1-.1-.169Zm13.026-.962a9.19,9.19,0,0,1,.1,1.976v2.626c0,2.067-.26,2.977-1.1,3.874a6.633,6.633,0,0,1-2.847,1.651,3.758,3.758,0,0,1,.806,1.274c2.158-.9,3.419-1.911,3.991-3.224a8.419,8.419,0,0,0,.546-3.705V-8.4c0-.754,0-.962.026-1.378.208-.117.273-.2.273-.3s-.091-.156-.221-.169Zm-4.758.39c.026.351.039.91.039,1.95v2.6c0,.858-.013,1.456-.039,1.9H142.6c-.026-.468-.026-1.027-.026-1.9v-2.6c0-.481,0-.819.013-1.482.169-.117.247-.182.247-.26s-.091-.117-.234-.13Zm23.881,4.329c-.559.026-1.482.039-2.08.039h-6.6c-.663,0-1.521-.013-2.067-.039v1.417c.546-.026,1.4-.039,2.067-.039h6.6c.6,0,1.521.013,2.08.039Zm13.507-1.079a7.567,7.567,0,0,1,1.573,1.352l.637-.715a8.327,8.327,0,0,0-1.638-1.3ZM177.528-5.6a7.49,7.49,0,0,1,1.56,1.339l.65-.715a8.326,8.326,0,0,0-1.638-1.3ZM169.741-7.41c.572-.143,2-.338,6.747-.9-2.223,1.391-3.172,2.782-3.172,4.641a3.659,3.659,0,0,0,1.573,3.159A7.712,7.712,0,0,0,178.75.676a4.18,4.18,0,0,1,.455-1.417,13.58,13.58,0,0,1-2.4-.442,2.48,2.48,0,0,1-2.041-2.561,3.247,3.247,0,0,1,.377-1.612,5.814,5.814,0,0,1,2.015-2.119,7.3,7.3,0,0,1,2.093-1.144c.377-.052.4-.052.4-.182,0-.065-.013-.091-.091-.195l-.663-.858a5.219,5.219,0,0,1-2.015.429c-2.158.208-5.681.416-7.163.416h-.143Zm22.8-.624v-.871c0-.819,0-1.183.013-1.482.182-.1.247-.182.247-.247s-.078-.13-.221-.143l-1.339-.078c.026.364.039.91.039,1.95v.871h-1.911c-.455,0-.767-.013-1.1-.026.013.416.026,1.287.026,2.067v4.654c0,1-.013,1.768-.026,2.288h1.313V-.065h4.745v.78h1.313c-.026-.494-.039-1.261-.039-2.288v-4.42c0-.988.013-1.638.039-2.067-.351.013-.663.026-1.1.026Zm-1.261,3.25h-1.7V-6.838h1.7Zm1.261,0V-6.838h1.781v2.054Zm-1.261,1.2v2.327h-1.7V-3.588Zm1.261,0h1.781v2.327h-1.781Zm-7.371-6.266a9.844,9.844,0,0,1,1.417,1.7l1.04-.793a9.365,9.365,0,0,0-1.547-1.638Zm-.988,2.86a10.974,10.974,0,0,1,1.495,1.716l1.014-.806a11.108,11.108,0,0,0-1.625-1.7Zm2.743,1.846A26.644,26.644,0,0,1,184.314.013l.923.767c.1.091.117.117.169.117.078,0,.13-.078.13-.182v-.1c.169-.3.572-1,.806-1.482a38.36,38.36,0,0,0,1.573-3.64Zm21.762-2.977c-.819.52-1.365.845-1.625.988l-2.158,1.222a10.734,10.734,0,0,1-.507-3.978c.117-.091.169-.169.169-.26s-.1-.143-.221-.143l-1.534-.013a7.526,7.526,0,0,1,.221,1.378,11.478,11.478,0,0,0,.611,3.51,2.141,2.141,0,0,0,.091.208c-1.989,1.3-2.652,2.145-2.652,3.367a2.2,2.2,0,0,0,.962,1.885A6.059,6.059,0,0,0,205.413.7,25.207,25.207,0,0,0,209.82.325a6.247,6.247,0,0,1-.026-.65,6.55,6.55,0,0,1,.039-.806,19.525,19.525,0,0,1-4.42.468c-2.041,0-2.886-.338-2.886-1.2,0-1.222,1.3-2.158,6.643-4.823.312-.013.4-.039.4-.143a.322.322,0,0,0-.091-.208ZM219.4-.377h-.1c-.572,0-1.313-.013-1.82-.039V.793c.546-.026,1.274-.039,1.82-.039H225.3c.494,0,1.339.013,1.807.039V-.416c-.286.013-.585.026-.871.026V-2.444c0-.416.013-.91.039-1.144-.455.013-.858.013-1.43.013H220.8c-.585,0-.975,0-1.43-.013.013.234.026.728.026,1.144Zm1.2,0V-2.522h.728V-.377Zm4.446,0h-.78V-2.522h.78Zm-1.872,0h-.754V-2.522h.754Zm-2.73-7.176c.117-.286.234-.559.351-.845h4.1c.429,0,1.157.013,1.547.026V-9.633c-.39.026-1.053.039-1.547.039h-3.666c.078-.234.143-.481.221-.728.247-.117.3-.156.3-.247,0-.065-.078-.13-.182-.156l-1.235-.338a13.143,13.143,0,0,1-1.56,4.069v-.871l-1.027.013h-.13v-.975c0-1.157,0-1.287.013-1.482.169-.1.247-.169.247-.247s-.078-.117-.221-.13l-1.352-.091c.026.364.039.923.039,1.95v.975h-.377l-1.027-.013v1.222c.273-.013.676-.013,1.027-.013h.377v3.835c-.494.117-1.014.221-1.651.338l.442,1.235a.236.236,0,0,0,.182.169c.078,0,.156-.078.26-.26,1.04-.273,2.587-.767,3.6-1.144l-.182-1.092c-.52.169-.962.312-1.378.429v-3.51h.949c-.091.13-.169.26-.26.39a3.021,3.021,0,0,1,.689.546c.078.065.169.156.312.273a11.235,11.235,0,0,0,.806-1.417c.013.143.013.3.013.442v.91c0,.65-.013,1.079-.039,1.391h1.274v-.494h3.042v.273h1.274c-.026-.3-.039-.741-.039-1.352v-.728c0-.416.026-.91.039-1.144-.455.013-.845.013-1.43.013Zm3.952,1.9h-3.042V-6.5h3.042Zm10.985-5.369a7.066,7.066,0,0,1-.819,1.833,8.675,8.675,0,0,1-.91.039,10.892,10.892,0,0,1-1.755-.1l-.052,1.222a9.332,9.332,0,0,0,1.17.065c.273,0,.416,0,.949-.026a15,15,0,0,1-3,3.432l1.131.962a4.475,4.475,0,0,1,3.042-2.145c.611,0,.832.247.949.975a8.189,8.189,0,0,0-2.587,1.716,2.441,2.441,0,0,0-.715,1.729A1.887,1.887,0,0,0,233.883.52a6.5,6.5,0,0,0,2.7.351,25.044,25.044,0,0,0,3.952-.3,2.321,2.321,0,0,1-.026-.39,8.919,8.919,0,0,1,.078-1.027,18.43,18.43,0,0,1-4.186.416c-1.677,0-2.275-.247-2.275-.949a1.73,1.73,0,0,1,.715-1.261,6.581,6.581,0,0,1,1.3-.832v1.95h1.274v-2.47c1.495-.663,2.171-.936,3.367-1.365h.169c.1,0,.182-.039.182-.117a.281.281,0,0,0-.078-.182l-.923-.923c-1.092.533-2.184,1.04-2.808,1.287a1.644,1.644,0,0,0-1.742-1.469,2.859,2.859,0,0,0-1.209.247c.247-.338.7-1.053.975-1.521a30.949,30.949,0,0,0,3.874-.429l-.312-1.17a15.273,15.273,0,0,1-2.925.4,8.83,8.83,0,0,0,.585-1.17c.2-.078.247-.13.247-.208a.151.151,0,0,0-.13-.143ZM256.061-4.81l-.117.156H253.1c-.494,0-1.157-.013-1.547-.026v1.144c.208-.013.507-.013.806-.026a9.284,9.284,0,0,0,.507,1.3,5.386,5.386,0,0,0,.741,1.118A8.055,8.055,0,0,1,251.238.078a3.05,3.05,0,0,1,.572,1.04,9.4,9.4,0,0,0,2.574-1.482,9.176,9.176,0,0,0,2.743,1.43,3.707,3.707,0,0,1,.6-1.066,9.194,9.194,0,0,1-2.561-1.144,8.471,8.471,0,0,0,1.378-2.6c.234-.052.312-.1.312-.195s-.026-.117-.13-.221Zm-.728,1.235a5.424,5.424,0,0,1-.975,1.7,4.734,4.734,0,0,1-.975-1.7Zm-6.409-3.354h5.291v.26h1.274c-.026-.3-.039-.741-.039-1.352V-9.334c0-.416.013-.923.039-1.157-.455.013-.858.026-1.43.026h-4.966c-.585,0-.988-.013-1.443-.026.026.234.039.741.039,1.157v1.365c0,.637-.013,1.066-.039,1.378h1.274Zm5.291-.923h-5.291v-.429h5.291Zm0-1.235h-5.291v-.455h5.291Zm-7.436,8.06c-.416.065-.871.13-1.378.2L245.83.4a.236.236,0,0,0,.2.13c.078,0,.117-.052.221-.3C247.3.052,248.7-.286,249.925-.6c0,.741,0,1.3-.026,1.7h1.248c-.026-.468-.039-1.3-.039-2.288V-5.356h3.835c.793,0,1.9.013,2.587.039V-6.448c-.65.026-1.768.039-2.587.039h-6.825c-.754,0-1.924-.013-2.587-.039v1.131c.338-.013.793-.026,1.248-.026Zm1.183-3.679v-.65h1.963v.65Zm1.963,1.014v.624h-1.963v-.624Zm0,1.625v.481c-.65.143-1.3.273-1.963.377v-.858ZM265.967-10.7c.065.416.091,1.7.091,3.835V-1c0,.494-.052.546-.546.546-.3,0-.676-.013-1.3-.052A4.85,4.85,0,0,1,264.5.949c1.755-.013,2.041-.065,2.457-.377.364-.286.468-.611.468-1.5,0-.143,0-.234-.013-.806-.013-.507-.026-1.6-.026-1.95V-6.864c0-2.535,0-2.9.013-3.354.169-.1.234-.182.234-.247s-.078-.117-.182-.13Zm2.808,3.406a19.3,19.3,0,0,0,3.055,5.187c.221-.208.247-.247,1.105-.962a20.52,20.52,0,0,1-3.081-4.784Zm-5.382-.52a10.5,10.5,0,0,1-2.665,5.187,4.521,4.521,0,0,1,.975.936,11.525,11.525,0,0,0,2.86-5.252c.2-.1.247-.143.247-.221s-.026-.1-.221-.182Zm22.659,3.081v.351h1.287c-.026-.3-.039-.741-.039-1.352V-9.165c0-.416.013-.91.039-1.144-.286.013-.559.013-.936.013H282.23c-.377,0-.65,0-.936-.013.026.234.039.728.039,1.144V-.741c-.6.13-1.2.234-1.794.338L280.1.871a.223.223,0,0,0,.208.143c.065,0,.1-.039.234-.26a44.2,44.2,0,0,0,4.394-1.313l-.26-1.105c-.689.234-1.391.442-2.093.637V-4.732h.949A8.474,8.474,0,0,0,284.778-1.6a8.009,8.009,0,0,0,2.639,2.47A6.336,6.336,0,0,1,288.3-.208a8.332,8.332,0,0,1-2.444-1.976c.676-.351,1.339-.728,1.976-1.144h.1c.143,0,.221-.052.221-.13a.239.239,0,0,0-.117-.182l-1-.7a12.415,12.415,0,0,1-1.768,1.2,9.605,9.605,0,0,1-.572-1.586Zm0-1.2h-3.471V-6.994h3.471Zm0-2.249h-3.471v-.962h3.471ZM279.3-9.282A27.513,27.513,0,0,1,278.07-6.11a3.076,3.076,0,0,1,1.482,2.574c0,.468-.247.689-.741.689a5.51,5.51,0,0,1-.689-.052,8.717,8.717,0,0,1,.208,1.4c.39,0,.546,0,.689-.013a2,2,0,0,0,1.287-.416,2.014,2.014,0,0,0,.559-1.625,3.61,3.61,0,0,0-.208-1.2,3.487,3.487,0,0,0-1.209-1.56A31.373,31.373,0,0,0,280.6-9.373c.221-.091.286-.156.286-.26,0-.065-.013-.078-.156-.208l-.858-.819-.143.221h-2.171c-.377,0-.65,0-.936-.026.026.247.039.754.039,1.157v6.63c0,1.625-.026,2.938-.065,3.8h1.313c-.039-.819-.065-2.132-.065-3.8v-6.6Zm13.338-.663a7.829,7.829,0,0,1-.065,1.014,43.638,43.638,0,0,0-.338,5.213,14.906,14.906,0,0,0,.468,3.952,9.075,9.075,0,0,1,1.443-.39,12.718,12.718,0,0,1-.533-4.069,32.242,32.242,0,0,1,.416-5.057c.221-.1.286-.156.286-.26s-.078-.169-.208-.182Zm3.692,2.587c.715.026,1.547.052,2.431.052A31.522,31.522,0,0,0,302-7.488l-.039-1.326a20.986,20.986,0,0,1-3.133.208c-1.131,0-1.638-.013-2.444-.078Zm-.7,3.6c0,.078.013.234.013.741a3.162,3.162,0,0,0,.559,1.9c.546.715,1.573,1,3.679,1a21.276,21.276,0,0,0,2.639-.169,5.342,5.342,0,0,1,.2-1.43,19.249,19.249,0,0,1-2.613.221c-2.769,0-3.211-.325-3.224-2.288Zm17.355-7.163c.039.455.052.949.052,2.158-1.521.065-2.756.091-4.2.091-.572,0-.949-.013-1.677-.026l.091,1.378c1.937-.091,2.015-.091,3.835-.156.936-.026,1.274-.039,1.95-.065.013.26.013.559.013.806,0,.091,0,.208.013.507a2.709,2.709,0,0,0-1.521-.468,1.91,1.91,0,0,0-1.859,2.08,2.522,2.522,0,0,0,2.366,2.73,1.777,1.777,0,0,0,1.053-.312,3.13,3.13,0,0,1-1.43,1.378,8.983,8.983,0,0,1-1.807.663,4.287,4.287,0,0,1,.663,1.313A8.2,8.2,0,0,0,313.2-.234a4.436,4.436,0,0,0,1.417-3.445,5.331,5.331,0,0,0-.2-1.4v-2.5c1.326-.052,2.158-.078,2.509-.078.585,0,1,0,1.469-.013l-.039-1.352c-.962.091-2.379.169-3.939.221.013-.689.013-1.014.026-1.6.169-.13.221-.2.221-.286s-.1-.156-.26-.169ZM310.96-4.628a.826.826,0,0,1,.793-.923,1.563,1.563,0,0,1,1.469,1.495.928.928,0,0,1-.962.988A1.47,1.47,0,0,1,310.96-4.628ZM324.571-8.5c1.742-.3,2.054-.338,4.446-.65a29.27,29.27,0,0,1-5.395,4.537l.793,1.157a7.574,7.574,0,0,1,4.524-1.716c1.6,0,2.548.767,2.548,2.067a2.4,2.4,0,0,1-.624,1.586,2.891,2.891,0,0,1-1.573.884,3.206,3.206,0,0,0,.039-.507c0-1.157-.806-1.846-2.145-1.846A1.836,1.836,0,0,0,325.143-1.2c0,1.248.975,1.937,2.769,1.937,3,0,5.031-1.534,5.031-3.8a2.815,2.815,0,0,0-.9-2.236,4.328,4.328,0,0,0-2.821-1.014,5.226,5.226,0,0,0-2.158.468c.39-.338.663-.585.845-.741.728-.611,1.43-1.261,2.132-1.9.156-.13.377-.351.676-.611.351-.117.39-.143.39-.26,0-.065-.026-.117-.117-.208l-.858-.884a8.825,8.825,0,0,1-1.768.247c-3.081.234-3.237.234-3.991.234Zm3.471,8.06c-.13.013-.247.026-.351.026-.936,0-1.43-.286-1.43-.819,0-.416.364-.715.884-.715.624,0,.962.364.962,1.04A1.557,1.557,0,0,1,328.042-.442Zm11.583-3.822a2.74,2.74,0,0,0-.754,1.885,2.231,2.231,0,0,0,.923,1.846c.832.559,2.158.806,4.251.806A21.851,21.851,0,0,0,347.62.026c-.013-.221-.013-.312-.013-.468,0-.325.013-.689.039-1.118a14.438,14.438,0,0,1-3.614.416,8.053,8.053,0,0,1-3.094-.442,1.073,1.073,0,0,1-.65-1,1.5,1.5,0,0,1,.377-1.014ZM340-7.956c1.586.065,2.314.078,3.25.078,1.378,0,2.184-.026,3.64-.13L346.814-9.4a26.614,26.614,0,0,1-3.328.182c-1.157,0-2.522-.039-3.432-.091Zm21.827-.169c-.819.52-1.365.845-1.625.988l-2.158,1.222a10.734,10.734,0,0,1-.507-3.978c.117-.091.169-.169.169-.26s-.1-.143-.221-.143l-1.534-.013a7.525,7.525,0,0,1,.221,1.378,11.479,11.479,0,0,0,.611,3.51,2.141,2.141,0,0,0,.091.208c-1.989,1.3-2.652,2.145-2.652,3.367a2.2,2.2,0,0,0,.962,1.885A6.059,6.059,0,0,0,358.553.7,25.207,25.207,0,0,0,362.96.325a6.247,6.247,0,0,1-.026-.65,6.55,6.55,0,0,1,.039-.806,19.525,19.525,0,0,1-4.42.468c-2.041,0-2.886-.338-2.886-1.2,0-1.222,1.3-2.158,6.643-4.823.312-.013.4-.039.4-.143a.322.322,0,0,0-.091-.208Zm15.8,1.391A7.568,7.568,0,0,1,379.2-5.382l.637-.715A8.327,8.327,0,0,0,378.2-7.4ZM376.61-5.6a7.49,7.49,0,0,1,1.56,1.339l.65-.715a8.327,8.327,0,0,0-1.638-1.3ZM368.823-7.41c.572-.143,2-.338,6.747-.9-2.223,1.391-3.172,2.782-3.172,4.641a3.659,3.659,0,0,0,1.573,3.159A7.712,7.712,0,0,0,377.832.676a4.18,4.18,0,0,1,.455-1.417,13.58,13.58,0,0,1-2.4-.442,2.48,2.48,0,0,1-2.041-2.561,3.247,3.247,0,0,1,.377-1.612,5.814,5.814,0,0,1,2.015-2.119,7.3,7.3,0,0,1,2.093-1.144c.377-.052.4-.052.4-.182,0-.065-.013-.091-.091-.195l-.663-.858a5.218,5.218,0,0,1-2.015.429c-2.158.208-5.681.416-7.163.416h-.143ZM2.743,28.643H10.27v.312h1.3c-.026-.3-.039-.741-.039-1.352V25.679c0-.416.013-.91.039-1.144-.455.013-.858.013-1.43.013H2.86c-.572,0-.975,0-1.43-.013.026.234.039.728.039,1.144v2.028c0,.637-.013,1.079-.039,1.378H2.743Zm7.527-1.6v.611H7.15v-.611Zm0-.884H7.15v-.624h3.12Zm-4.381-.624v.624H2.743v-.624ZM2.743,27.044H5.889v.611H2.743ZM9.269,33.7v.481c0,.468-.052.546-.481.546a8.057,8.057,0,0,1-.923-.052,6.2,6.2,0,0,1,.247,1.378c2.054-.013,2.509-.286,2.509-1.508,0-.312-.039-.819-.039-1.222V31.841c0-1.17.013-2.132.026-2.535-.689.039-1.7.052-2.587.052H5.161c-1.053,0-2.028-.013-2.756-.052.013.4.026.884.026,2.535v1.742c0,.793-.013,1.976-.026,2.535H3.744V33.7Zm0-.988H3.744v-.65H9.269Zm0-1.638H3.744v-.637H9.269Zm13.962-1.768a8.134,8.134,0,0,1-2.457.663c.156-.9.312-1.781.39-2.119a8.856,8.856,0,0,0,2.7-.39l-.3-1.17a9.222,9.222,0,0,1-2.2.312c.091-.6.26-1.183.364-1.781.156-.091.221-.169.221-.247s-.052-.117-.221-.143l-1.365-.247a17.5,17.5,0,0,1-.312,2.405,9.377,9.377,0,0,1-2.418-.442l-.3,1.209a8.589,8.589,0,0,0,2.5.468c-.052.325-.052.377-.1.637-.065.39-.091.429-.169.91-.039.286-.078.455-.1.637-.9,0-1.235-.208-1.443-.845l-1.027.442a2.13,2.13,0,0,0,2.275,1.677,9.105,9.105,0,0,0-.182,1.638,2.731,2.731,0,0,0,.546,1.833,3.594,3.594,0,0,0,2.925,1.092c2.405,0,3.874-1.235,3.874-3.25A4.505,4.505,0,0,0,26,30.7a3.176,3.176,0,0,1-1.313.286,3.279,3.279,0,0,1,.377,1.456c0,1.274-.923,2.041-2.418,2.041-1.469,0-2.2-.546-2.2-1.677a10.555,10.555,0,0,1,.156-1.56,10.765,10.765,0,0,0,3.12-.741Zm14.456-3.172a12.247,12.247,0,0,1-2.379.351c.247-1.248.26-1.326.338-1.742.182-.078.247-.117.247-.195a.194.194,0,0,0-.169-.156l-1.378-.26c-.013.143-.026.195-.039.338-.065.585-.078.689-.143,1.053-.13.754-.169.949-.182.988-.416.013-.689.013-.793.013a13.221,13.221,0,0,1-1.417-.065l-.026,1.261a13.037,13.037,0,0,0,1.339.078c.13,0,.156,0,.663-.013a38.746,38.746,0,0,1-2.2,7.28,3.948,3.948,0,0,1,1.352.546,59.159,59.159,0,0,0,2.145-7.852,18.421,18.421,0,0,0,2.808-.351Zm-1.924,6.331-.013.429a2.244,2.244,0,0,0,.767,1.976c.585.468,1.508.637,3.406.637a19.254,19.254,0,0,0,2.236-.117,4.853,4.853,0,0,1,.208-1.365,19.072,19.072,0,0,1-2.782.182c-1.287,0-2.067-.195-2.366-.572a1.431,1.431,0,0,1-.247-.91l.013-.26Zm1.274-1.989a8.383,8.383,0,0,1,3.146-.559,13.837,13.837,0,0,1,1.664.117l.221-1.287a10.422,10.422,0,0,0-1.82-.143,10.559,10.559,0,0,0-3.653.637ZM50.414,28.76l.9-1.274c.195-.026.26-.065.26-.143,0-.052-.039-.065-.13-.169l-.494-.637a1.489,1.489,0,0,1-.52.26c.026-.845.052-1.43.065-1.755.13-.091.169-.13.169-.195s-.065-.117-.169-.117l-1.378-.065a19.775,19.775,0,0,1,.078,2.314,22.272,22.272,0,0,1-2.262.195l.13,1.43c.611-.156,1.794-.4,2.132-.455l-.026,1.989A25.3,25.3,0,0,1,46.5,33.882l.845,1.131a17.9,17.9,0,0,0,1.469-2.041c.169-.26.182-.273.312-.494-.026,1.716-.039,2.223-.1,3.406l1.43-.039c-.026-.689-.052-2.223-.065-4.589a23.193,23.193,0,0,1,1.846-2.184c1.014-1.1,1.612-1.56,2-1.56a.7.7,0,0,1,.416.169,1.41,1.41,0,0,1,.208.923c0,.364-.039,1.352-.1,2.535s-.091,1.794-.091,2.3a2.094,2.094,0,0,0,.247,1.222,1.76,1.76,0,0,0,1.482.6c1.222,0,1.781-.481,2.457-2.119-.286-.156-.806-.455-1.144-.663-.377,1.1-.7,1.521-1.183,1.521-.39,0-.468-.13-.468-.845,0-.117.013-.234.013-.338.1-2,.169-3.8.169-4.355a2.712,2.712,0,0,0-.351-1.56,1.6,1.6,0,0,0-1.313-.585,3.283,3.283,0,0,0-2.418,1.235c-.455.481-.871.936-1.742,1.911Zm13.9-3.978c.013.884.026,1.339.026,2.145,0,.871-.013,1.313-.065,3.029-.026.832-.039,1.625-.039,2.288,0,1.521.286,2.379.962,2.951a3.081,3.081,0,0,0,2.119.624,5.788,5.788,0,0,0,3.926-1.391,7.115,7.115,0,0,0,1.6-2.015,13.818,13.818,0,0,1-1.144-1.1,5.048,5.048,0,0,1-2.067,2.5,4.272,4.272,0,0,1-2.171.624q-1.326,0-1.638-.858a5.271,5.271,0,0,1-.195-1.911c0-.4.013-1.053.039-1.9.039-1.222.065-2.21.078-2.873.026-.988.039-1.209.039-1.586.169-.065.247-.156.247-.273,0-.091-.1-.156-.247-.169Zm13.936.273a7.829,7.829,0,0,1-.065,1.014,43.64,43.64,0,0,0-.338,5.213,14.907,14.907,0,0,0,.468,3.952,9.075,9.075,0,0,1,1.443-.39,12.718,12.718,0,0,1-.533-4.069,32.239,32.239,0,0,1,.416-5.057c.221-.1.286-.156.286-.26s-.078-.169-.208-.182Zm3.692,2.587c.715.026,1.547.052,2.431.052a31.522,31.522,0,0,0,3.237-.182l-.039-1.326a20.986,20.986,0,0,1-3.133.208c-1.131,0-1.638-.013-2.444-.078Zm-.7,3.6c0,.078.013.234.013.741a3.162,3.162,0,0,0,.559,1.9c.546.715,1.573,1,3.679,1a21.276,21.276,0,0,0,2.639-.169,5.342,5.342,0,0,1,.195-1.43,19.249,19.249,0,0,1-2.613.221c-2.769,0-3.211-.325-3.224-2.288ZM99.8,24.184a15.991,15.991,0,0,1-2.184,2.574c-1.5,1.443-1.989,1.911-2.21,2.106-.572.494-.715.715-.715,1.053s.143.546.676,1.014a35.2,35.2,0,0,1,2.613,2.548,19.015,19.015,0,0,1,2.08,2.535l1.209-.975A21.241,21.241,0,0,0,99.4,32.92a35.873,35.873,0,0,0-2.808-2.665c-.195-.156-.273-.26-.273-.338s.078-.156.247-.325c.325-.325,1.222-1.1,1.716-1.586.741-.715,1.573-1.573,2.509-2.587.325-.091.364-.13.364-.234s-.065-.169-.182-.247Zm8.619,1.43c.039.234.091,1.326.091,2.158,0,.767.091,2.21.195,3.094a6.5,6.5,0,0,0,.962,2.808,2.093,2.093,0,0,0,1.794,1.131,1.5,1.5,0,0,0,.936-.338,4.452,4.452,0,0,0,.91-1.391c.13-.312.182-.455.26-.624a6.716,6.716,0,0,1-1.131-.832c-.39,1.183-.728,1.755-1.04,1.755-.286,0-.663-.468-.962-1.2a12.534,12.534,0,0,1-.546-3.848V27.018c0-.286.013-.39.039-.741.182-.091.26-.182.26-.286s-.13-.2-.286-.208Zm6.955,1.6a9.616,9.616,0,0,1,1.69,2.249,11.712,11.712,0,0,1,1,2.665l1.339-.6a10.043,10.043,0,0,0-3.029-5.07Zm17.381.078-.52-1.066-6.786,3.237v1.17l6.786,3.237.52-1.053-5.6-2.756Zm10.062-1.69.494-.351a5.568,5.568,0,0,0-1.118-1.326l-.871.611a5.536,5.536,0,0,1,.845,1.066h-.637c-.754,0-1.924-.026-2.587-.052V26.81c.7-.026,1.872-.052,2.587-.052h2.158v.715h-1.664c-.741,0-1.911-.026-2.587-.052v1.261c.7-.026,1.872-.052,2.587-.052h1.664v.689h-2.6c-.754,0-1.924-.026-2.6-.052v1.261c.715-.026,1.885-.052,2.6-.052h6.487c.793,0,1.9.026,2.6.052V29.267c-.663.026-1.781.052-2.6.052h-2.639V28.63h1.69c.793,0,1.9.013,2.587.052V27.421c-.663.026-1.768.052-2.587.052h-1.69v-.715h2.236c.793,0,1.9.026,2.587.052V25.549c-.65.026-1.768.052-2.587.052h-.754c.312-.52.364-.624.507-.832.247-.026.351-.078.351-.169a.182.182,0,0,0-.117-.156l-1.248-.52a9.429,9.429,0,0,1-.793,1.677Zm1.534,7.67a5.218,5.218,0,0,0,1.742,1.56,11.509,11.509,0,0,0,3.692,1.261,3.976,3.976,0,0,1,.611-1.131,13.069,13.069,0,0,1-3.575-1.066,4.64,4.64,0,0,1-1.573-1.183H147.6c.793,0,1.9.026,2.587.052V31.5c-.663.039-1.768.052-2.587.052h-2.717q.039-.195.078-.429c.247-.091.312-.143.312-.247s-.091-.156-.273-.182l-1.287-.156c-.026.338-.052.676-.1,1.014h-2.522c-.754,0-1.924-.013-2.6-.052v1.261c.715-.026,1.885-.052,2.6-.052h2.184a3,3,0,0,1-1.2,1.222,9.1,9.1,0,0,1-3.913,1.079,3.082,3.082,0,0,1,.455,1.118,10.99,10.99,0,0,0,2.626-.52,4.8,4.8,0,0,0,3.081-2.288Zm16.549-.988c0,1.677-.026,2.964-.065,3.809h1.326c-.052-.845-.065-2.093-.065-3.809v-.442a10.179,10.179,0,0,0,2.977,3.276,4.3,4.3,0,0,1,.832-1.079,9.64,9.64,0,0,1-3.51-3.718h1.729c.429,0,1.157.013,1.547.026V29.111c-.39.013-1.053.026-1.547.026H162.1V27.265h1.625c.429,0,1.157.013,1.56.026V26.056c-.39.013-1.053.026-1.56.026H162.1c0-.507,0-1,.013-1.508.169-.1.234-.169.234-.247s-.078-.117-.182-.13l-1.339-.091c.026.234.039.481.052.728.013.416.013.832.013,1.248H159.77c-.494,0-1.157-.013-1.547-.026v1.235c.39-.013,1.118-.026,1.547-.026H160.9v1.872h-1.573c-.494,0-1.157-.013-1.547-.026v1.235c.39-.013,1.118-.026,1.547-.026h1.248a8.824,8.824,0,0,1-2.08,2.093,15.144,15.144,0,0,1-3.12,1.807,4.226,4.226,0,0,1,.7,1.157,15.731,15.731,0,0,0,3.029-1.833A10.3,10.3,0,0,0,160.9,31.8Zm-5.681-.832h1.092v.507h1.17c-.026-.494-.039-1.183-.039-2.275V27.408c0-.78.026-1.651.039-2.067-.234.013-.455.026-.767.026H154.8c-.3,0-.52-.013-.767-.026.026.429.039.832.039,2.067v3.159q0,1.54-.039,2.262h1.183Zm0-1.066V26.446h1.092v3.939Zm16.289-5.6c.013.884.026,1.339.026,2.145,0,.871-.013,1.313-.065,3.029-.026.832-.039,1.625-.039,2.288,0,1.521.286,2.379.962,2.951a3.081,3.081,0,0,0,2.119.624,5.788,5.788,0,0,0,3.926-1.391,7.115,7.115,0,0,0,1.6-2.015,13.82,13.82,0,0,1-1.144-1.1,5.048,5.048,0,0,1-2.067,2.5,4.272,4.272,0,0,1-2.171.624q-1.326,0-1.638-.858a5.27,5.27,0,0,1-.2-1.911c0-.4.013-1.053.039-1.9.039-1.222.065-2.21.078-2.873.026-.988.039-1.209.039-1.586.169-.065.247-.156.247-.273,0-.091-.1-.156-.247-.169Zm13.481.832c.039.234.091,1.326.091,2.158,0,.767.091,2.21.195,3.094a6.5,6.5,0,0,0,.962,2.808,2.093,2.093,0,0,0,1.794,1.131,1.5,1.5,0,0,0,.936-.338,4.452,4.452,0,0,0,.91-1.391c.13-.312.182-.455.26-.624a6.716,6.716,0,0,1-1.131-.832c-.39,1.183-.728,1.755-1.04,1.755-.286,0-.663-.468-.962-1.2a12.534,12.534,0,0,1-.546-3.848V27.018c0-.286.013-.39.039-.741.182-.091.26-.182.26-.286s-.13-.2-.286-.208Zm6.955,1.6a9.616,9.616,0,0,1,1.69,2.249,11.711,11.711,0,0,1,1,2.665l1.339-.6a10.043,10.043,0,0,0-3.029-5.07Zm9.893.078,5.6,2.769-5.6,2.756.533,1.053,6.773-3.237v-1.17l-6.773-3.237ZM224.8,24.314a7.916,7.916,0,0,1,1.56,1.352l.65-.715a8.722,8.722,0,0,0-1.638-1.3Zm-2.028,2.639a10.588,10.588,0,0,1,3.12,3.523l1.131-.923a12.19,12.19,0,0,0-3.367-3.484Zm1.014-1.508a7.837,7.837,0,0,1,1.56,1.339l.65-.7a9.406,9.406,0,0,0-1.638-1.313Zm-4.6-.949a16.978,16.978,0,0,1-.546,2.7c-.741.078-1.937.182-2.99.26l.273,1.417c.429-.065.442-.078.819-.143.715-.13.741-.117,1.625-.247a17.969,17.969,0,0,1-.754,2.223,17.46,17.46,0,0,1-1.963,3.848,4.063,4.063,0,0,1,1.157.715,21.374,21.374,0,0,0,2.093-4.329c.325-.871.715-2.041.871-2.613a7.418,7.418,0,0,1,1.157-.065c.871,0,1.04.273,1.04,1.781,0,.325-.026.741-.065,1.183a5.477,5.477,0,0,1-.546,2.275,1.1,1.1,0,0,1-1.053.507,6.058,6.058,0,0,1-1.118-.117,6.638,6.638,0,0,1,.117,1.417c.221.026.7.052,1.079.052a2.28,2.28,0,0,0,2.08-.962c.559-.884.819-2.444.819-4.836,0-1.261-.234-1.82-.91-2.2a2.871,2.871,0,0,0-1.443-.3c-.3,0-.741.013-.962.026.247-.9.3-1.118.481-1.963.221-.117.26-.156.26-.247s-.078-.156-.195-.169Zm21.073,1a10.676,10.676,0,0,1-.871,1c-.3-.234-.637-.455-1-.7l-.637.767a18.989,18.989,0,0,1,2.041,1.833H237.51c-.247,0-.585,0-.78-.013v1.092c.195,0,.624-.013.78-.013h1.17v4.381a3.377,3.377,0,0,1-.6-.832,17.2,17.2,0,0,0,.234-1.716c.221-.065.273-.1.273-.195,0-.065-.065-.117-.182-.143l-1.131-.273a9.757,9.757,0,0,1-.416,2.8,4.655,4.655,0,0,1-1.261,1.9,5.269,5.269,0,0,1,.754.806,4.871,4.871,0,0,0,1.326-1.82,3.584,3.584,0,0,0,.858.858c.793.559,1.612.741,3.523.767a4.957,4.957,0,0,1,.273-1.222l-.39.013a6.479,6.479,0,0,1-2.106-.221v-2.2h1.391c.247,0,.585,0,.78.013V31.282c-.2.013-.533.013-.78.013h-1.391V29.462h.949a6.675,6.675,0,0,1-.533.767,3.305,3.305,0,0,1,.871.741,8.9,8.9,0,0,0,.962-1.69c.286-.091.286-.117.286-.208a.246.246,0,0,0-.091-.182l-.689-.663-.143.169h-1.378l.676-.65c-.182-.2-.377-.39-.559-.559.221-.247.455-.494.663-.754.26-.312.507-.65.741-.988.312-.1.312-.117.312-.221a.246.246,0,0,0-.1-.195l-.754-.7-.117.143H237.9c-.26,0-.585,0-.78-.013v1.066c.195-.013.52-.026.78-.026Zm-4.459,4.9c.247,0,.585.013.78.026V29.332c-.247.026-.572.013-.78.013h-1.443l.156-.481c.26-.091.286-.1.286-.182s-.052-.1-.169-.143l-1.053-.364a6.346,6.346,0,0,1-1.079,2.535,3.041,3.041,0,0,1,.832.689,8.115,8.115,0,0,0,.585-1h.247c-.013.364-.013.728-.039,1.092h-.923c-.247,0-.572,0-.767-.013v1.092c.2-.013.52-.013.767-.013H234a4.429,4.429,0,0,1-.195.663,3.688,3.688,0,0,1-1.924,1.911,4.069,4.069,0,0,1,.819.975,5.1,5.1,0,0,0,1.534-1.248,4.708,4.708,0,0,0,.468-.7,11.33,11.33,0,0,1,.884.884l.637-.975a5.787,5.787,0,0,0-1.131-.91,4.421,4.421,0,0,0,.117-.6h.858c.26,0,.585,0,.78.013V31.477c-.195.013-.52.013-.78.013h-.793c.013-.364.026-.728.026-1.092Zm-1.573-5.187c0-.234,0-.377.013-.559.195-.065.273-.143.273-.234s-.091-.143-.208-.156l-1.261-.117c.039.546.039.78.039,1.209v1.6c0,.559.065.767.273.936a2.518,2.518,0,0,0,1.417.26,4.728,4.728,0,0,0,1.586-.13c.494-.221.663-.533.767-1.417a3.513,3.513,0,0,1-1.131-.416c-.052.585-.078.689-.2.767a1.72,1.72,0,0,1-.728.117c-.689,0-.845-.078-.845-.416v-.3a10.953,10.953,0,0,0,1.989-.689.448.448,0,0,0,.117.013h.091c.117,0,.208-.065.208-.143a.238.238,0,0,0-.078-.13l-.754-.728a13.277,13.277,0,0,1-1.573.689Zm-4,.273a9.131,9.131,0,0,1,1.4,1.872l1.053-.845a10.707,10.707,0,0,0-1.573-1.768Zm1.651,2.444a38.494,38.494,0,0,1-1.092,3.835c-.247.767-.273.806-.845,2.223l.91.715c.1.078.117.091.169.091s.117-.065.117-.156v-.117a8.674,8.674,0,0,1,.325-1.014c.429-1.183,1.066-3.3,1.521-4.953Zm13.871,2.73c.026.1.1.182.169.182s.13-.052.234-.182c.286-.039.6-.078.91-.13v2.86c0,1.2-.013,2.093-.039,2.665h1.326c-.026-.572-.039-1.469-.039-2.665V30.346c.234-.026.468-.065.7-.1.078.169.143.351.221.546l.949-.559a10.262,10.262,0,0,0-1.118-2.015l-.806.52c.117.169.221.351.338.559q-.565.058-1.131.078a22.525,22.525,0,0,0,1.95-2.99c.208-.052.286-.1.286-.195a.226.226,0,0,0-.13-.182l-1.092-.507a11.264,11.264,0,0,1-.858,1.742q-.273-.234-.546-.429a20.845,20.845,0,0,0,1-1.911c.195-.039.286-.1.286-.182a.237.237,0,0,0-.13-.169l-1.04-.429a13.813,13.813,0,0,1-.949,2.106c-.091-.065-.195-.13-.3-.195l-.559.91A14.47,14.47,0,0,1,247,28.227c-.273.4-.546.806-.819,1.2-.247,0-.507.013-.78.013Zm7.917-.689c-.39,0-.65-.013-.936-.026.013.234.026.741.026,1.157v3.419c0,.637-.013,1.079-.026,1.378h1.222v-.65h1.807v.442h1.222c-.013-.3-.026-.741-.026-1.352V31.1c0-.416.013-.923.026-1.157-.286.013-.546.026-.936.026h-.988a3.793,3.793,0,0,0,.169-.4c.1-.247.156-.4.208-.52h.689c.351,0,.767.013,1.04.026V27.941c-.286.013-.754.013-1.04.013H253.6c-.286,0-.754,0-1.04-.013v1.131c.273-.013.689-.026,1.04-.026h.585c-.091.312-.195.624-.3.923Zm2.093,4.16h-1.807v-.975h1.807Zm0-2.093h-1.807v-.949h1.807Zm-2.86-6.591H251.3c-.585,0-.988,0-1.443-.013.026.208.039.715.039,1.04v.507c0,.26-.013.793-.039,1h1.274c-.026-.182-.039-.767-.039-1v-.4h5.057v.143a7.419,7.419,0,0,1-.039.9h1.261c-.013-.156-.026-.741-.026-.9v-.377c0-.208.013-.754.026-.91-.455.013-.845.013-1.43.013h-1.833v-.9c.182-.1.26-.169.26-.26,0-.065-.091-.117-.247-.13l-1.248-.078c.013.182.013.468.013.832Zm-2.119,8.008c0,1.2-.013,2.08-.039,2.665h1.248c-.039-.611-.052-1.456-.052-2.665v-.91c0-1.807.013-1.989.013-2.223.182-.117.247-.182.247-.26s-.078-.117-.208-.13l-.312-.026a13.024,13.024,0,0,0,.559-1.82c.26-.091.312-.117.312-.221,0-.078-.065-.156-.182-.195l-1.04-.377a11.021,11.021,0,0,1-1.716,4.277,3.121,3.121,0,0,1,.767.949c.169-.26.3-.455.4-.65Zm-2.379-1.82a12.119,12.119,0,0,1,.767,2.717l1.092-.442a10.262,10.262,0,0,0-.936-2.691Zm-2.665-.325v.182a10.008,10.008,0,0,1-.468,3.289,4.983,4.983,0,0,1,1.04.442,13.154,13.154,0,0,0,.507-3.367l.117-.091c.065-.052.078-.078.078-.13,0-.078-.052-.13-.156-.143Zm17.667-6.526c.013.884.026,1.339.026,2.145,0,.871-.013,1.313-.065,3.029-.026.832-.039,1.625-.039,2.288,0,1.521.286,2.379.962,2.951a3.081,3.081,0,0,0,2.119.624,5.788,5.788,0,0,0,3.926-1.391,7.115,7.115,0,0,0,1.6-2.015,13.817,13.817,0,0,1-1.144-1.1,5.048,5.048,0,0,1-2.067,2.5,4.272,4.272,0,0,1-2.171.624q-1.326,0-1.638-.858a5.271,5.271,0,0,1-.195-1.911c0-.4.013-1.053.039-1.9.039-1.222.065-2.21.078-2.873.026-.988.039-1.209.039-1.586.169-.065.247-.156.247-.273,0-.091-.1-.156-.247-.169Zm19.318,1.352a12.246,12.246,0,0,1-2.379.351c.247-1.248.26-1.326.338-1.742.182-.078.247-.117.247-.195a.194.194,0,0,0-.169-.156l-1.378-.26c-.013.143-.026.195-.039.338-.065.585-.078.689-.143,1.053-.13.754-.169.949-.182.988-.416.013-.689.013-.793.013a13.221,13.221,0,0,1-1.417-.065l-.026,1.261a13.036,13.036,0,0,0,1.339.078c.13,0,.156,0,.663-.013a38.746,38.746,0,0,1-2.2,7.28,3.948,3.948,0,0,1,1.352.546,59.162,59.162,0,0,0,2.145-7.852,18.421,18.421,0,0,0,2.808-.351Zm-1.924,6.331-.013.429a2.244,2.244,0,0,0,.767,1.976c.585.468,1.508.637,3.406.637a19.254,19.254,0,0,0,2.236-.117,4.853,4.853,0,0,1,.208-1.365,19.072,19.072,0,0,1-2.782.182c-1.287,0-2.067-.195-2.366-.572a1.431,1.431,0,0,1-.247-.91l.013-.26Zm1.274-1.989a8.384,8.384,0,0,1,3.146-.559,13.837,13.837,0,0,1,1.664.117l.221-1.287a10.422,10.422,0,0,0-1.82-.143,10.559,10.559,0,0,0-3.653.637Zm11.349-3.133c.832-.052,1.118-.065,2.015-.117.728-.039,1.3-.065,1.638-.091l1.989-.117a11.869,11.869,0,0,1-1.69,2.886,13.072,13.072,0,0,1-5.447,4.082,2.665,2.665,0,0,1,.9,1.222,14.8,14.8,0,0,0,4.953-3.692,14.563,14.563,0,0,1,3.991,3.666l1.079-1.079a15.413,15.413,0,0,0-4.251-3.562,14.028,14.028,0,0,0,1.976-3.757c.169-.052.234-.1.234-.182,0-.039-.026-.078-.091-.13l-.962-.884-.2.247L297,25.913c-1.248.039-1.859.052-3.77.065ZM316.8,24.457a1.326,1.326,0,0,0,0,2.652,1.326,1.326,0,0,0,0-2.652Zm0,.624a.7.7,0,0,1,.689.7.685.685,0,0,1-.689.689.7.7,0,1,1,0-1.391ZM310.219,26.8a11.136,11.136,0,0,1-1.053,2.392,13.316,13.316,0,0,1-2.626,3.419,4.235,4.235,0,0,1,1.209,1.079A16.7,16.7,0,0,0,311.48,27.8c.208-.065.273-.1.273-.195a.182.182,0,0,0-.117-.143Zm3.77.767a17.624,17.624,0,0,1,2.067,2.834,15.829,15.829,0,0,1,1.417,2.9l1.43-.78a16.175,16.175,0,0,0-1.378-2.691,15.1,15.1,0,0,0-2.444-3.081Zm15.028.949c.286-.3.819-.858.884-.936s1.573-2,1.716-2.2c.182-.052.26-.117.26-.221q0-.078-.156-.156l-1.248-.572a11.353,11.353,0,0,1-2.041,2.769,22.236,22.236,0,0,1-5.551,4.277c.1.13.234.3.442.52a4.072,4.072,0,0,1,.455.637,25.434,25.434,0,0,0,4.251-3.159c.013.377.013.936.013,1.326v2.73a22.2,22.2,0,0,1-.065,2.288h1.495c-.013-.39-.039-1.365-.039-2.288V30.788c0-.975,0-1.43.013-1.859.156-.091.208-.156.208-.234s-.078-.13-.182-.143Zm10.335-1.17c.832-.052,1.118-.065,2.015-.117.728-.039,1.3-.065,1.638-.091l1.989-.117A11.869,11.869,0,0,1,343.3,29.9a13.072,13.072,0,0,1-5.447,4.082,2.665,2.665,0,0,1,.9,1.222,14.8,14.8,0,0,0,4.953-3.692,14.563,14.563,0,0,1,3.991,3.666l1.079-1.079a15.413,15.413,0,0,0-4.251-3.562,14.028,14.028,0,0,0,1.976-3.757c.169-.052.234-.1.234-.182,0-.039-.026-.078-.091-.13l-.962-.884-.2.247-2.548.078c-1.248.039-1.859.052-3.77.065Zm18.291.975a7.653,7.653,0,0,1-.845,3.133,7.719,7.719,0,0,1-3.432,3.068,2.436,2.436,0,0,1,.754,1.157c3.367-1.859,4.615-3.731,4.9-7.384l2.938-.078v.416a16.51,16.51,0,0,1-.429,4.706c-.234.572-.507.728-1.3.728-.3,0-.676-.026-1.313-.091a7.152,7.152,0,0,1,.2,1.482c1.014.013,1.118.013,1.248.013,1.274,0,1.9-.3,2.288-1.131a15.971,15.971,0,0,0,.611-5.343V27.967c.234-.143.234-.156.234-.234s-.013-.091-.13-.182l-.9-.741-.182.169-3.2.078c.052-.949.078-1.391.091-2.171.182-.1.247-.169.247-.26s-.091-.169-.234-.182l-1.456-.091a4.212,4.212,0,0,1,.026.572c0,.546-.026,1.625-.065,2.158-.52,0-2.392.039-2.6.039-.663,0-.858,0-1.417-.039l.091,1.378c.858-.065,2.782-.143,3.562-.143Zm13.507,6.773a.658.658,0,0,0,.195.078c.091,0,.156-.065.208-.247,4.134-1.846,5.577-2.73,7.995-4.888a6.855,6.855,0,0,1-.559-1.5,15.534,15.534,0,0,1-3.38,2.7,25.026,25.026,0,0,1-3.952,2.015V27.122c0-.806,0-1.066.013-1.482.2-.117.247-.182.247-.247,0-.091-.065-.13-.221-.143l-1.521-.117c.026.351.039.923.039,1.95v5.07a8.676,8.676,0,0,1-.156,2.4Zm23.595-5.746c-.559.026-1.482.039-2.08.039h-6.6c-.663,0-1.521-.013-2.067-.039v1.417c.546-.026,1.4-.039,2.067-.039h6.6c.6,0,1.521.013,2.08.039Zm13.507-1.079a7.568,7.568,0,0,1,1.573,1.352l.637-.715a8.327,8.327,0,0,0-1.638-1.3ZM407.238,29.4a7.49,7.49,0,0,1,1.56,1.339l.65-.715a8.327,8.327,0,0,0-1.638-1.3Zm-7.787-1.807c.572-.143,2-.338,6.747-.9-2.223,1.391-3.172,2.782-3.172,4.641a3.659,3.659,0,0,0,1.573,3.159,7.712,7.712,0,0,0,3.861,1.183,4.18,4.18,0,0,1,.455-1.417,13.58,13.58,0,0,1-2.4-.442,2.48,2.48,0,0,1-2.041-2.561,3.247,3.247,0,0,1,.377-1.612,5.814,5.814,0,0,1,2.015-2.119,7.3,7.3,0,0,1,2.093-1.144c.377-.052.4-.052.4-.182,0-.065-.013-.091-.091-.195l-.663-.858a5.218,5.218,0,0,1-2.015.429c-2.158.208-5.681.416-7.163.416h-.143Zm20.735-3.51c.039.455.052.949.052,2.158-1.521.065-2.756.091-4.2.091-.572,0-.949-.013-1.677-.026l.091,1.378c1.937-.091,2.015-.091,3.835-.156.936-.026,1.274-.039,1.95-.065.013.26.013.559.013.806,0,.091,0,.208.013.507a2.709,2.709,0,0,0-1.521-.468,1.91,1.91,0,0,0-1.859,2.08,2.522,2.522,0,0,0,2.366,2.73A1.777,1.777,0,0,0,420.3,32.8a3.13,3.13,0,0,1-1.43,1.378,8.983,8.983,0,0,1-1.807.663,4.287,4.287,0,0,1,.663,1.313,8.2,8.2,0,0,0,2.665-1.391,4.436,4.436,0,0,0,1.417-3.445,5.331,5.331,0,0,0-.2-1.4v-2.5c1.326-.052,2.158-.078,2.509-.078.585,0,1,0,1.469-.013l-.039-1.352c-.962.091-2.379.169-3.939.221.013-.689.013-1.014.026-1.6.169-.13.221-.195.221-.286s-.1-.156-.26-.169Zm-2.028,6.292a.826.826,0,0,1,.793-.923,1.563,1.563,0,0,1,1.469,1.5.928.928,0,0,1-.962.988A1.47,1.47,0,0,1,418.158,30.372Zm13.143,1.7a1.983,1.983,0,1,0,1.976,1.976A1.978,1.978,0,0,0,431.3,32.075Zm0,.936a1.047,1.047,0,1,1-1.053,1.04A1.043,1.043,0,0,1,431.3,33.011Z" transform="translate(397 598)"/></g></g></svg>