<svg xmlns="http://www.w3.org/2000/svg" width="150" height="74.387" viewBox="0 0 150 74.387"><defs><style>.a{fill:#fefefe;}.b{fill:#0c0c0c;}.c{fill:#202020;}</style></defs><path class="a" d="M250.234,164.44c1.159-1.457,2.259-2.735,3.249-4.1,1.238-1.706,2.566-3.348,3.847-5.024,2.015-2.637,3.615-5.587,6.029-7.927a1.23,1.23,0,0,0,.269-.53c.056-.188.1-.416-.165-.513-.223-.082-.274.107-.4.229a38.189,38.189,0,0,0-4.922,6.186c-2.742,3.938-5.717,7.7-8.774,11.407a1.16,1.16,0,0,1-.912.442c-2.316.148-4.631.329-6.949.448-5.861.3-11.725.534-17.581.916-4.127.269-8.257.482-12.4.484-.227,0-.581-.133-.6.252-.016.336.316.431.584.495a2.867,2.867,0,0,0,.611.023c3.757.05,7.5-.189,11.25-.425,4.89-.309,9.787-.516,14.681-.777,2.5-.134,4.993-.3,7.492-.433.838-.043,1.679-.007,2.548-.007-1.215,1.682-2.661,3.146-3.981,4.71-2.522,2.987-5.314,5.741-7.826,8.746-2.476,2.96-5.222,5.687-7.667,8.68-1.544,1.891-3.235,3.664-4.865,5.485a48.046,48.046,0,0,0-3.805,4.742c-.186.27-.4.638.01.855.338.178.511-.158.7-.411.686-.939,1.358-1.892,2.1-2.785,2.49-2.987,5.191-5.791,7.675-8.786,2.513-3.03,5.244-5.875,7.841-8.836,3.537-4.033,7.226-7.936,10.649-12.07a1.767,1.767,0,0,1,1.37-.676c2.19-.132,4.379-.3,6.565-.494,3.736-.325,7.466-.72,11.205-1,3.893-.3,7.783-.629,11.684-.832,4.74-.247,9.477-.571,14.215-.858q3.746-.227,7.493-.435c1.437-.079,2.875-.137,4.443-.211-.16.207-.235.3-.308.4-2.19,2.861-4.519,5.614-6.666,8.51-2.235,3.015-4.693,5.86-6.931,8.878-2.431,3.278-5.019,6.44-7.5,9.687a65.17,65.17,0,0,1-5.687,6.853,1.442,1.442,0,0,0-.385.551c-.1.294-.152.545.14.74a.5.5,0,0,0,.683-.139c.3-.336.571-.7.858-1.051,2.378-2.894,4.762-5.781,6.978-8.806,2.229-3.041,4.714-5.89,6.924-8.95,2.12-2.936,4.536-5.643,6.685-8.563,2-2.712,4.191-5.28,6.3-7.913a.665.665,0,0,1,.556-.327c.7,0,1.4-.149,2.1-.21,3.152-.276,6.311-.473,9.468-.7,3.2-.226,6.41-.459,9.587-.951a5.192,5.192,0,0,0,2.374-.766c.151-.111.422-.238.332-.455-.112-.268-.4-.146-.6-.082a18.73,18.73,0,0,1-3.511.685c-4.992.6-10.012.9-15.028,1.219a30.553,30.553,0,0,1-4.19.179,2.243,2.243,0,0,1,.141-.257c2.349-2.984,4.665-5.994,7.229-8.8a1.324,1.324,0,0,0,.363-.479.5.5,0,0,0-.171-.608c-.233-.167-.33.041-.492.173a14.8,14.8,0,0,0-2.282,2.423c-1.919,2.468-3.922,4.872-5.882,7.309a1.075,1.075,0,0,1-.834.426c-4.234.348-8.482.476-12.718.845-5.874.512-11.773.722-17.658,1.112-3.946.261-7.887.595-11.828.924-3.1.259-6.2.567-9.3.84C253.233,164.229,251.822,164.32,250.234,164.44Z" transform="translate(-195.048 -146.325)"/><path class="a" d="M320.527,247.2a4.441,4.441,0,0,0,.6-.081,13.861,13.861,0,0,0,6.329-3.2c2.653-2.443,4.277-5.32,3.914-9.044a1.055,1.055,0,0,1,.378-.927c1.316-1.3,2.6-2.632,3.839-4.008,2.653-2.941,5.4-5.791,7.911-8.867a77.423,77.423,0,0,0,7.71-10.364,5.335,5.335,0,0,0,.61-1.223.786.786,0,0,0-.154-.78.646.646,0,0,0-.789-.047,9.4,9.4,0,0,0-1.34.87,52.839,52.839,0,0,0-4.992,4.574c-2.554,2.652-5.137,5.269-7.512,8.091-2.908,3.455-5.951,6.8-8.575,10.484a1.075,1.075,0,0,1-.658.458c-1.036.257-2.064.543-3.1.8a6.627,6.627,0,0,0-2.41,1.1,13.94,13.94,0,0,0-4.5,5.643,19.2,19.2,0,0,0-.766,2.3C316.324,245.3,317.595,247.223,320.527,247.2Z" transform="translate(-268.461 -189.565)"/><path class="a" d="M509.312,246a4.5,4.5,0,0,0,1.211-.146,19.92,19.92,0,0,0,5.674-2.4,10.523,10.523,0,0,0,4.08-4.523,5.559,5.559,0,0,0,0-4.709.872.872,0,0,1,.21-.9c1.248-1.533,2.481-3.077,3.641-4.683,2.226-3.081,4.539-6.1,6.562-9.324a84.51,84.51,0,0,0,5.166-8.658,16.471,16.471,0,0,0,1.337-3.3.817.817,0,0,0-.283-.949.787.787,0,0,0-.927.121,7.292,7.292,0,0,0-1.141.889,48.457,48.457,0,0,0-3.979,4.374c-2.284,2.919-4.531,5.858-6.612,8.928-2.305,3.4-4.627,6.79-6.653,10.363a3.13,3.13,0,0,1-2.383,1.635,8.7,8.7,0,0,0-3.995,1.791,16.193,16.193,0,0,0-4.88,7.473,3.841,3.841,0,0,0-.167,2.249C506.456,245.335,507.712,246.026,509.312,246Z" transform="translate(-399.637 -187.999)"/><path class="a" d="M241.285,360.245c0,1.091.006,2.182,0,3.272,0,.3,0,.592.409.57a13.209,13.209,0,0,0,3.716-.257,3.84,3.84,0,0,0,.117-7.22,12.949,12.949,0,0,0-3.565-.275c-.557-.037-.7.2-.683.714C241.308,358.114,241.284,359.18,241.285,360.245Z" transform="translate(-216.083 -292.261)"/><path class="a" d="M462.152,363.8a3.041,3.041,0,0,0,2.425-.882c.185-.18.525-.374.206-.678-.255-.242-.547-.456-.923-.089a2.223,2.223,0,0,1-1.29.618,2.651,2.651,0,0,1-2.911-1.488,3.379,3.379,0,0,1,.625-3.872,2.6,2.6,0,0,1,3.373-.161.689.689,0,0,0,1.056-.167c.315-.43-.161-.556-.392-.72a4.123,4.123,0,0,0-4.8.207,4.311,4.311,0,0,0-1.208,4.651A3.759,3.759,0,0,0,462.152,363.8Z" transform="translate(-366.382 -291.815)"/><path class="a" d="M632.546,372.216a1.685,1.685,0,0,0,1.627-1.054c.3-.616.531-1.262.778-1.9.558-1.442,1.1-2.89,1.665-4.33.165-.42.018-.555-.391-.565a.671.671,0,0,0-.764.567c-.218.78-.494,1.544-.774,2.305-.08.217-.063.561-.394.586-.386.028-.4-.346-.491-.582-.319-.8-.615-1.606-.9-2.416a.706.706,0,0,0-1-.417c-.482.154-.165.5-.064.748q.808,1.969,1.648,3.924a1.538,1.538,0,0,1-1.1,2.126c-.469.037-.479.332-.5.607C631.846,372.214,632.167,372.222,632.546,372.216Z" transform="translate(-486.683 -297.83)"/><path class="a" d="M337.585,372.206a1.657,1.657,0,0,0,1.685-1.1c.8-2.028,1.7-4.018,2.354-6.1.06-.191.279-.445-.048-.588a.749.749,0,0,0-.8.062,1.264,1.264,0,0,0-.258.535c-.277.79-.539,1.586-.819,2.374-.064.181-.107.409-.37.429-.279.021-.313-.213-.392-.39a6.03,6.03,0,0,1-.252-.637c-.207-.651-.55-1.249-.7-1.924-.127-.556-.61-.613-1.04-.466-.5.172-.089.493-.016.736.406,1.364,1.077,2.622,1.612,3.935a1.54,1.54,0,0,1-1.021,2.128c-.4.034-.541.161-.547.539C336.962,372.2,337.268,372.2,337.585,372.206Z" transform="translate(-282.229 -297.823)"/><path class="a" d="M297.322,367.49h-.038c0-.482.033-.967-.007-1.445a1.854,1.854,0,0,0-1.181-1.855,3.159,3.159,0,0,0-2.582.252c-.273.139-.524.378-.338.7.169.295.379.533.836.238a1.674,1.674,0,0,1,1.818-.087.682.682,0,0,1,.388.689c-.056.367-.389.269-.618.26a4.339,4.339,0,0,0-1.929.386,1.446,1.446,0,0,0-.327,2.523,2.054,2.054,0,0,0,2.238.18c.349-.163.549-.274.931.009.473.351.823.066.812-.56C297.316,368.351,297.322,367.921,297.322,367.49Z" transform="translate(-251.76 -297.602)"/><path class="a" d="M161.65,356.333c-.562,0-1.124-.015-1.685.006-.336.013-.8-.2-.8.478,0,.62.386.533.77.53.664,0,1.328-.007,1.991,0,.867.009.923.088.57.855-.794,1.729-1.6,3.451-2.386,5.184-.091.2-.448.549.023.66.4.095.887.2,1.15-.407.86-2,1.773-3.982,2.655-5.974a2.683,2.683,0,0,0,.157-.659c.074-.464-.068-.715-.609-.682C162.877,356.362,162.263,356.332,161.65,356.333Z" transform="translate(-159.167 -292.251)"/><path class="a" d="M382.735,369.58c.077,0,.153,0,.23,0a1.731,1.731,0,0,0,1.846-1.476c.1-.691-.39-1.25-1.372-1.56-.315-.1-.634-.19-.945-.3-.275-.1-.522-.26-.49-.6.037-.375.337-.481.655-.517a1.3,1.3,0,0,1,1.073.3c.373.348.607.075.8-.18.243-.314.066-.559-.214-.759a2.637,2.637,0,0,0-2.686-.107,1.509,1.509,0,0,0-.706,1.5,1.263,1.263,0,0,0,.939,1.169c.433.15.872.283,1.31.417a.6.6,0,0,1,.492.6c0,.38-.28.518-.587.6a1.469,1.469,0,0,1-1.409-.393c-.392-.345-.629.006-.829.219-.267.285.061.446.245.589A2.4,2.4,0,0,0,382.735,369.58Z" transform="translate(-312.765 -297.634)"/><path class="a" d="M514.353,367.125c0-.685-.013-1.37,0-2.055.01-.41-.049-.689-.568-.672-.483.015-.511.29-.506.657.01.812.034,1.626-.016,2.435a1.291,1.291,0,0,1-1.32,1.373c-.758-.017-1.042-.4-1.059-1.436-.014-.862-.028-1.723-.034-2.585,0-.385-.222-.451-.552-.438s-.528.09-.522.477c.017,1.04-.046,2.084.023,3.12a1.84,1.84,0,0,0,2.909,1.526c.274-.151.471-.248.725.04a.671.671,0,0,0,.787.078c.276-.115.118-.406.123-.617C514.362,368.393,514.353,367.759,514.353,367.125Z" transform="translate(-402.204 -297.865)"/><path class="a" d="M594.53,366.951c0,.677.017,1.236-.006,1.794-.016.4.058.618.537.6.459-.022.635-.185.61-.649-.038-.683-.034-1.37-.026-2.055.011-1.049.333-1.421,1.367-1.546.259-.031.438-.055.447-.365.007-.252.094-.524-.105-.726-.245-.248-.53-.091-.783.006-.452.175-.82.481-1.38.075-.4-.291-.86.114-.76.638A14.768,14.768,0,0,1,594.53,366.951Z" transform="translate(-460.88 -297.497)"/><path class="a" d="M556.192,366.744h.05c0,.686.018,1.373-.007,2.059-.015.417.108.6.56.584.434-.016.584-.184.569-.607q-.04-1.1-.01-2.211c.024-.927.415-1.391,1.339-1.421.648-.021.535-.407.519-.765-.02-.475-.319-.52-.7-.378a4.594,4.594,0,0,0-.7.282c-.246.143-.439.368-.671-.034-.154-.268-.454-.191-.7-.132-.309.075-.245.346-.247.566C556.188,365.373,556.192,366.059,556.192,366.744Z" transform="translate(-434.382 -297.544)"/><path class="b" d="M250.234,164.44c1.588-.119,3-.21,4.408-.334,3.1-.273,6.2-.581,9.3-.84,3.941-.329,7.882-.662,11.828-.924,5.885-.39,11.784-.6,17.658-1.112,4.236-.369,8.483-.5,12.718-.845a1.075,1.075,0,0,0,.834-.426c1.96-2.437,3.963-4.841,5.882-7.309a14.8,14.8,0,0,1,2.282-2.423c.162-.132.259-.34.492-.173a.5.5,0,0,1,.171.608,1.324,1.324,0,0,1-.363.479c-2.564,2.809-4.881,5.819-7.229,8.8a2.243,2.243,0,0,0-.141.257,30.553,30.553,0,0,0,4.19-.179c5.016-.319,10.035-.619,15.028-1.219a18.73,18.73,0,0,0,3.511-.685c.2-.064.487-.186.6.082.091.217-.18.344-.332.455a5.192,5.192,0,0,1-2.374.766c-3.177.492-6.382.725-9.587.951-3.157.223-6.316.42-9.468.7-.7.061-1.391.212-2.1.21a.665.665,0,0,0-.556.327c-2.1,2.634-4.3,5.2-6.3,7.913-2.149,2.919-4.564,5.627-6.685,8.563-2.21,3.06-4.7,5.909-6.924,8.95-2.216,3.025-4.6,5.912-6.978,8.806-.287.35-.556.716-.858,1.051a.5.5,0,0,1-.683.139c-.292-.195-.242-.447-.14-.74a1.442,1.442,0,0,1,.385-.551,65.17,65.17,0,0,0,5.687-6.853c2.477-3.246,5.064-6.409,7.5-9.687,2.238-3.018,4.7-5.863,6.931-8.878,2.147-2.9,4.476-5.649,6.666-8.51.074-.1.148-.192.308-.4-1.568.074-3.006.132-4.443.211q-3.747.207-7.493.435c-4.738.286-9.474.611-14.215.858-3.9.2-7.791.536-11.684.832-3.739.284-7.469.679-11.205,1-2.186.19-4.374.361-6.565.494a1.767,1.767,0,0,0-1.37.676c-3.423,4.134-7.111,8.037-10.649,12.07-2.6,2.961-5.327,5.806-7.841,8.836-2.484,2.995-5.185,5.8-7.675,8.786-.744.892-1.416,1.845-2.1,2.785-.185.253-.359.589-.7.411-.41-.217-.2-.585-.01-.855a48.046,48.046,0,0,1,3.805-4.742c1.63-1.821,3.321-3.594,4.865-5.485,2.445-2.993,5.191-5.72,7.667-8.68,2.513-3,5.3-5.758,7.826-8.746,1.32-1.564,2.766-3.028,3.981-4.71-.868,0-1.71-.036-2.548.007-2.5.128-4.994.3-7.492.433-4.894.262-9.79.468-14.681.777-3.748.237-7.492.476-11.25.425a2.867,2.867,0,0,1-.611-.023c-.268-.064-.6-.159-.584-.495.018-.386.371-.252.6-.252,4.138,0,8.269-.215,12.4-.484,5.857-.383,11.721-.614,17.581-.916,2.318-.119,4.633-.3,6.949-.448a1.16,1.16,0,0,0,.912-.442c3.057-3.7,6.032-7.469,8.774-11.407a38.189,38.189,0,0,1,4.922-6.186c.128-.121.179-.31.4-.229.267.1.22.326.165.513a1.23,1.23,0,0,1-.269.53c-2.414,2.339-4.013,5.29-6.029,7.927-1.281,1.676-2.609,3.318-3.847,5.024C252.493,161.7,251.392,162.982,250.234,164.44Z" transform="translate(-195.048 -146.325)"/><path class="b" d="M320.527,247.2c-2.933.026-4.2-1.893-3.508-4.222a19.2,19.2,0,0,1,.766-2.3,13.94,13.94,0,0,1,4.5-5.643,6.627,6.627,0,0,1,2.41-1.1c1.036-.256,2.064-.542,3.1-.8a1.075,1.075,0,0,0,.658-.458c2.623-3.685,5.666-7.029,8.575-10.484,2.375-2.821,4.958-5.439,7.512-8.091a52.839,52.839,0,0,1,4.992-4.574,9.4,9.4,0,0,1,1.34-.87.646.646,0,0,1,.789.047.786.786,0,0,1,.154.78,5.335,5.335,0,0,1-.61,1.223,77.423,77.423,0,0,1-7.71,10.364c-2.507,3.077-5.257,5.926-7.911,8.867-1.242,1.377-2.523,2.707-3.839,4.008a1.055,1.055,0,0,0-.378.927c.363,3.724-1.26,6.6-3.914,9.044a13.861,13.861,0,0,1-6.329,3.2A4.441,4.441,0,0,1,320.527,247.2Zm30.268-37.6c-.268.188-.549.36-.8.567a37.47,37.47,0,0,0-3.472,3.258c-2.866,3.009-5.813,5.936-8.527,9.091-2.886,3.355-5.835,6.656-8.378,10.285a2.648,2.648,0,0,1-1.648,1.212c-.94.205-1.834.585-2.8.746a5.246,5.246,0,0,0-2.243.9,13.1,13.1,0,0,0-5.189,7.872,2.074,2.074,0,0,0,1.238,2.614,3.847,3.847,0,0,0,2.183.05,13.427,13.427,0,0,0,4.968-2.357,11.033,11.033,0,0,0,4.226-6.465,17.1,17.1,0,0,0,.079-2.961c.007-.28-.028-.549.237-.755a32.447,32.447,0,0,0,3.4-3.35c2.881-3.013,5.717-6.057,8.361-9.282s5.4-6.4,7.733-9.888A3.139,3.139,0,0,0,350.8,209.594Z" transform="translate(-268.461 -189.565)"/><path class="b" d="M509.312,246c-1.6.026-2.856-.664-3.144-1.77a3.841,3.841,0,0,1,.167-2.249,16.193,16.193,0,0,1,4.88-7.473,8.7,8.7,0,0,1,3.995-1.791,3.13,3.13,0,0,0,2.383-1.635c2.026-3.573,4.348-6.962,6.653-10.363,2.081-3.07,4.328-6.008,6.612-8.928a48.457,48.457,0,0,1,3.979-4.374,7.292,7.292,0,0,1,1.141-.889.787.787,0,0,1,.927-.121.817.817,0,0,1,.283.949,16.471,16.471,0,0,1-1.337,3.3,84.51,84.51,0,0,1-5.166,8.658c-2.023,3.228-4.335,6.243-6.562,9.324-1.16,1.606-2.393,3.149-3.641,4.683a.872.872,0,0,0-.21.9,5.559,5.559,0,0,1,0,4.709,10.523,10.523,0,0,1-4.08,4.523,19.92,19.92,0,0,1-5.674,2.4A4.526,4.526,0,0,1,509.312,246Zm26.824-38.52a7.151,7.151,0,0,0-.845.636,33.873,33.873,0,0,0-3.176,3.66c-2.284,3.071-4.779,5.978-6.921,9.166a105.8,105.8,0,0,0-6.558,10.324,4.005,4.005,0,0,1-3.021,2.219,9.059,9.059,0,0,0-4.052,1.808,16.035,16.035,0,0,0-4.027,5.738,7.169,7.169,0,0,0-.627,2.181,1.386,1.386,0,0,0,.863,1.6,3.618,3.618,0,0,0,2.313.2,18.154,18.154,0,0,0,5.464-2.245,10.3,10.3,0,0,0,3-2.752,5.6,5.6,0,0,0,.71-5.911.807.807,0,0,1,.161-.955c1.271-1.479,2.536-2.954,3.686-4.541,2.249-3.1,4.566-6.153,6.631-9.387,1.965-3.077,3.978-6.123,5.651-9.372a8.92,8.92,0,0,0,.911-2.246c0-.066.028-.163,0-.191C536.225,207.345,536.169,207.41,536.136,207.48Z" transform="translate(-399.637 -187.999)"/><path class="c" d="M241.285,360.245c0-1.065.023-2.131-.01-3.2-.016-.518.125-.751.683-.714a12.949,12.949,0,0,1,3.565.275,3.84,3.84,0,0,1-.117,7.22,13.209,13.209,0,0,1-3.716.257c-.407.022-.411-.266-.409-.57C241.29,362.427,241.285,361.336,241.285,360.245Zm1.127-.048c0,.482-.01.964,0,1.446.042,1.651-.341,1.448,1.533,1.423a2.7,2.7,0,0,0,2.866-2.808,2.726,2.726,0,0,0-2.913-2.92c-.306-.008-.614.019-.918-.006-.442-.035-.583.168-.573.581C242.425,358.675,242.413,359.436,242.412,360.2Z" transform="translate(-216.083 -292.261)"/><path class="c" d="M462.152,363.8a3.759,3.759,0,0,1-3.835-2.582,4.311,4.311,0,0,1,1.208-4.651,4.123,4.123,0,0,1,4.8-.207c.232.164.708.29.392.72a.689.689,0,0,1-1.056.167,2.6,2.6,0,0,0-3.373.161,3.379,3.379,0,0,0-.625,3.872,2.651,2.651,0,0,0,2.911,1.488,2.223,2.223,0,0,0,1.29-.618c.377-.368.668-.154.923.089.319.3-.02.5-.206.678A3.041,3.041,0,0,1,462.152,363.8Z" transform="translate(-366.382 -291.815)"/><path class="c" d="M632.546,372.216c-.379.006-.7,0-.665-.4.024-.275.033-.57.5-.607a1.538,1.538,0,0,0,1.1-2.126q-.836-1.957-1.648-3.924c-.1-.246-.418-.594.064-.748a.706.706,0,0,1,1,.417c.289.81.585,1.618.9,2.416.094.235.1.61.491.582.332-.024.315-.368.394-.586.28-.761.556-1.525.774-2.305a.671.671,0,0,1,.764-.567c.408.01.556.145.391.565-.565,1.439-1.107,2.888-1.665,4.33-.247.638-.482,1.284-.778,1.9A1.685,1.685,0,0,1,632.546,372.216Z" transform="translate(-486.683 -297.83)"/><path class="c" d="M337.585,372.206c-.317,0-.623-.005-.617-.463.005-.379.149-.505.547-.539a1.54,1.54,0,0,0,1.021-2.128c-.535-1.313-1.206-2.571-1.612-3.935-.072-.243-.487-.564.016-.736.43-.147.913-.09,1.04.466.154.675.5,1.272.7,1.924a6.03,6.03,0,0,0,.252.637c.079.177.113.411.392.39.263-.02.306-.248.37-.429.28-.789.542-1.584.819-2.374a1.264,1.264,0,0,1,.258-.535.749.749,0,0,1,.8-.062c.328.143.109.4.048.588-.658,2.08-1.557,4.07-2.354,6.1A1.657,1.657,0,0,1,337.585,372.206Z" transform="translate(-282.229 -297.823)"/><path class="c" d="M297.322,367.49c0,.431-.006.862,0,1.292.01.626-.34.91-.812.56-.382-.283-.582-.172-.931-.009a2.054,2.054,0,0,1-2.238-.18,1.446,1.446,0,0,1,.327-2.523,4.339,4.339,0,0,1,1.929-.386c.23.009.562.107.618-.26a.682.682,0,0,0-.388-.689,1.674,1.674,0,0,0-1.818.087c-.457.3-.667.057-.836-.238-.185-.324.065-.563.338-.7a3.159,3.159,0,0,1,2.582-.252,1.854,1.854,0,0,1,1.181,1.855c.04.479.007.963.007,1.445Zm-1.793-.459a3.027,3.027,0,0,0-1.234.272.688.688,0,0,0-.45.72.736.736,0,0,0,.586.625,1.406,1.406,0,0,0,1.745-.831C296.4,367.241,296.251,367.033,295.529,367.03Z" transform="translate(-251.76 -297.602)"/><path class="c" d="M161.65,356.333c.613,0,1.227.029,1.838-.009.541-.034.683.218.609.682a2.683,2.683,0,0,1-.157.659c-.882,1.993-1.8,3.972-2.655,5.974-.263.612-.748.5-1.15.407-.471-.111-.114-.458-.023-.66.784-1.733,1.592-3.455,2.386-5.184.352-.767.3-.846-.57-.855-.664-.007-1.328,0-1.991,0-.384,0-.769.09-.77-.53,0-.676.462-.465.8-.478C160.526,356.318,161.088,356.333,161.65,356.333Z" transform="translate(-159.167 -292.251)"/><path class="c" d="M382.735,369.578a2.392,2.392,0,0,1-1.644-.5c-.183-.144-.512-.3-.245-.589.2-.212.437-.564.829-.219a1.469,1.469,0,0,0,1.409.393c.307-.083.587-.222.587-.6a.6.6,0,0,0-.492-.6c-.438-.134-.877-.267-1.31-.417a1.263,1.263,0,0,1-.939-1.169,1.509,1.509,0,0,1,.706-1.5,2.637,2.637,0,0,1,2.686.107c.28.2.457.445.214.759-.2.255-.43.528-.8.18a1.3,1.3,0,0,0-1.073-.3c-.318.036-.618.142-.655.517-.033.336.215.5.49.6.311.113.63.2.945.3.982.31,1.474.869,1.372,1.56a1.731,1.731,0,0,1-1.846,1.476C382.888,369.581,382.812,369.58,382.735,369.578Z" transform="translate(-312.765 -297.634)"/><path class="c" d="M514.353,367.125c0,.634.009,1.269-.005,1.9,0,.211.154.5-.123.617a.671.671,0,0,1-.787-.078c-.254-.288-.452-.191-.725-.04A1.84,1.84,0,0,1,509.8,368c-.069-1.035-.006-2.079-.023-3.12-.006-.387.194-.464.522-.477s.55.053.552.438c.006.862.02,1.723.034,2.585.017,1.035.3,1.419,1.059,1.436a1.291,1.291,0,0,0,1.32-1.373c.049-.809.026-1.623.016-2.435,0-.367.023-.642.506-.657.519-.017.579.262.568.672C514.34,365.754,514.353,366.44,514.353,367.125Zm-.169-.012c0-.632,0-1.264,0-1.9,0-.236-.028-.5-.334-.5-.358,0-.254.316-.259.519-.022.833.038,1.674-.064,2.5-.06.487-.562.935.047,1.413.1.075.016.376.274.36.307-.02.335-.261.336-.5C514.186,368.377,514.184,367.745,514.184,367.113Zm-1.551,2.043c-1.774-.158-2.108-.53-2.11-2.233,0-.582.006-1.165,0-1.747,0-.186.06-.462-.253-.447-.246.012-.206.252-.206.42,0,.987-.028,1.976.009,2.962a1.416,1.416,0,0,0,1.026,1.371A1.307,1.307,0,0,0,512.633,369.156Z" transform="translate(-402.204 -297.865)"/><path class="c" d="M594.53,366.951a14.768,14.768,0,0,0-.1-2.232c-.1-.524.359-.929.76-.638.56.406.928.1,1.38-.075.252-.1.538-.255.783-.006.2.2.113.474.105.726-.009.31-.188.333-.447.365-1.033.125-1.356.5-1.367,1.546-.007.685-.011,1.371.026,2.055.026.465-.15.628-.61.649-.478.022-.553-.2-.537-.6C594.547,368.187,594.53,367.628,594.53,366.951Z" transform="translate(-460.88 -297.497)"/><path class="c" d="M556.192,366.744c0-.685,0-1.371,0-2.056,0-.22-.062-.491.247-.566.245-.06.544-.136.7.132.232.4.424.178.671.034a4.594,4.594,0,0,1,.7-.282c.379-.142.678-.1.7.378.016.358.129.744-.519.765-.923.03-1.314.494-1.339,1.421q-.029,1.1.01,2.211c.015.423-.135.591-.569.607-.452.016-.575-.167-.56-.584.025-.685.007-1.372.007-2.059Z" transform="translate(-434.382 -297.544)"/><path class="a" d="M352.671,211.975a3.138,3.138,0,0,1-.634,1.539c-2.329,3.488-5.078,6.65-7.733,9.888s-5.48,6.27-8.361,9.282a32.468,32.468,0,0,1-3.4,3.35c-.265.206-.23.475-.237.755a17.1,17.1,0,0,1-.079,2.961,11.032,11.032,0,0,1-4.226,6.465,13.426,13.426,0,0,1-4.968,2.357,3.847,3.847,0,0,1-2.183-.05,2.074,2.074,0,0,1-1.238-2.614,13.1,13.1,0,0,1,5.189-7.873,5.246,5.246,0,0,1,2.243-.9c.961-.16,1.855-.54,2.795-.746a2.648,2.648,0,0,0,1.648-1.212c2.542-3.63,5.491-6.93,8.378-10.285,2.714-3.154,5.661-6.082,8.527-9.091a37.462,37.462,0,0,1,3.472-3.258C352.122,212.335,352.4,212.163,352.671,211.975Z" transform="translate(-270.337 -191.946)"/><path class="a" d="M538.158,210.293a8.925,8.925,0,0,1-.911,2.245c-1.673,3.249-3.686,6.295-5.651,9.372-2.065,3.234-4.382,6.284-6.631,9.387-1.15,1.587-2.415,3.062-3.686,4.541a.807.807,0,0,0-.161.955,5.6,5.6,0,0,1-.71,5.911,10.3,10.3,0,0,1-3,2.752,18.151,18.151,0,0,1-5.464,2.245,3.618,3.618,0,0,1-2.313-.2,1.385,1.385,0,0,1-.863-1.6,7.169,7.169,0,0,1,.627-2.181,16.035,16.035,0,0,1,4.027-5.738,9.058,9.058,0,0,1,4.052-1.808,4.005,4.005,0,0,0,3.021-2.219,105.834,105.834,0,0,1,6.558-10.324c2.142-3.188,4.637-6.1,6.921-9.166a33.869,33.869,0,0,1,3.176-3.66,7.146,7.146,0,0,1,.845-.636Z" transform="translate(-401.495 -190.696)"/><path class="a" d="M604.075,209.952c.034-.07.089-.135.159-.076.033.028,0,.125,0,.191Z" transform="translate(-467.576 -190.471)"/><path class="a" d="M244.977,362.468c0-.761.013-1.522,0-2.283-.01-.413.131-.616.573-.581.3.024.612,0,.918.006a2.726,2.726,0,0,1,2.913,2.92,2.7,2.7,0,0,1-2.866,2.808c-1.874.025-1.491.228-1.533-1.423C244.966,363.433,244.976,362.95,244.977,362.468Z" transform="translate(-218.646 -294.532)"/><path class="a" d="M298.014,373.891c.722,0,.868.211.648.786a1.406,1.406,0,0,1-1.745.831.736.736,0,0,1-.586-.625.688.688,0,0,1,.45-.72A3.025,3.025,0,0,1,298.014,373.891Z" transform="translate(-254.245 -304.463)"/><path class="b" d="M522.1,367.85c0,.632,0,1.264,0,1.9,0,.239-.029.48-.336.5-.258.016-.178-.284-.274-.36-.61-.478-.107-.926-.047-1.413.1-.823.042-1.664.063-2.5.005-.2-.1-.515.259-.519.306,0,.333.26.334.5C522.1,366.586,522.1,367.218,522.1,367.85Z" transform="translate(-410.123 -298.602)"/><path class="b" d="M513.263,369.913a1.307,1.307,0,0,1-1.538.326,1.416,1.416,0,0,1-1.026-1.371c-.037-.986-.013-1.975-.009-2.962,0-.168-.039-.408.206-.42.313-.015.249.261.253.447.01.582,0,1.165,0,1.747C511.154,369.383,511.489,369.754,513.263,369.913Z" transform="translate(-402.834 -298.622)"/><path class="a" d="M250.234,164.44c1.159-1.457,2.259-2.735,3.249-4.1,1.238-1.706,2.566-3.348,3.847-5.024,2.015-2.637,3.615-5.587,6.029-7.927a1.23,1.23,0,0,0,.269-.53c.056-.188.1-.416-.165-.513-.223-.082-.274.107-.4.229a38.189,38.189,0,0,0-4.922,6.186c-2.742,3.938-5.717,7.7-8.774,11.407a1.16,1.16,0,0,1-.912.442c-2.316.148-4.631.329-6.949.448-5.861.3-11.725.534-17.581.916-4.127.269-8.257.482-12.4.484-.227,0-.581-.133-.6.252-.016.336.316.431.584.495a2.867,2.867,0,0,0,.611.023c3.757.05,7.5-.189,11.25-.425,4.89-.309,9.787-.516,14.681-.777,2.5-.134,4.993-.3,7.492-.433.838-.043,1.679-.007,2.548-.007-1.215,1.682-2.661,3.146-3.981,4.71-2.522,2.987-5.314,5.741-7.826,8.746-2.476,2.96-5.222,5.687-7.667,8.68-1.544,1.891-3.235,3.664-4.865,5.485a48.046,48.046,0,0,0-3.805,4.742c-.186.27-.4.638.01.855.338.178.511-.158.7-.411.686-.939,1.358-1.892,2.1-2.785,2.49-2.987,5.191-5.791,7.675-8.786,2.513-3.03,5.244-5.875,7.841-8.836,3.537-4.033,7.226-7.936,10.649-12.07a1.767,1.767,0,0,1,1.37-.676c2.19-.132,4.379-.3,6.565-.494,3.736-.325,7.466-.72,11.205-1,3.893-.3,7.783-.629,11.684-.832,4.74-.247,9.477-.571,14.215-.858q3.746-.227,7.493-.435c1.437-.079,2.875-.137,4.443-.211-.16.207-.235.3-.308.4-2.19,2.861-4.519,5.614-6.666,8.51-2.235,3.015-4.693,5.86-6.931,8.878-2.431,3.278-5.019,6.44-7.5,9.687a65.17,65.17,0,0,1-5.687,6.853,1.442,1.442,0,0,0-.385.551c-.1.294-.152.545.14.74a.5.5,0,0,0,.683-.139c.3-.336.571-.7.858-1.051,2.378-2.894,4.762-5.781,6.978-8.806,2.229-3.041,4.714-5.89,6.924-8.95,2.12-2.936,4.536-5.643,6.685-8.563,2-2.712,4.191-5.28,6.3-7.913a.665.665,0,0,1,.556-.327c.7,0,1.4-.149,2.1-.21,3.152-.276,6.311-.473,9.468-.7,3.2-.226,6.41-.459,9.587-.951a5.192,5.192,0,0,0,2.374-.766c.151-.111.422-.238.332-.455-.112-.268-.4-.146-.6-.082a18.73,18.73,0,0,1-3.511.685c-4.992.6-10.012.9-15.028,1.219a30.553,30.553,0,0,1-4.19.179,2.243,2.243,0,0,1,.141-.257c2.349-2.984,4.665-5.994,7.229-8.8a1.324,1.324,0,0,0,.363-.479.5.5,0,0,0-.171-.608c-.233-.167-.33.041-.492.173a14.8,14.8,0,0,0-2.282,2.423c-1.919,2.468-3.922,4.872-5.882,7.309a1.075,1.075,0,0,1-.834.426c-4.234.348-8.482.476-12.718.845-5.874.512-11.773.722-17.658,1.112-3.946.261-7.887.595-11.828.924-3.1.259-6.2.567-9.3.84C253.233,164.229,251.822,164.32,250.234,164.44Z" transform="translate(-195.048 -146.325)"/><path class="a" d="M320.527,247.2a4.441,4.441,0,0,0,.6-.081,13.861,13.861,0,0,0,6.329-3.2c2.653-2.443,4.277-5.32,3.914-9.044a1.055,1.055,0,0,1,.378-.927c1.316-1.3,2.6-2.632,3.839-4.008,2.653-2.941,5.4-5.791,7.911-8.867a77.423,77.423,0,0,0,7.71-10.364,5.335,5.335,0,0,0,.61-1.223.786.786,0,0,0-.154-.78.646.646,0,0,0-.789-.047,9.4,9.4,0,0,0-1.34.87,52.839,52.839,0,0,0-4.992,4.574c-2.554,2.652-5.137,5.269-7.512,8.091-2.908,3.455-5.951,6.8-8.575,10.484a1.075,1.075,0,0,1-.658.458c-1.036.257-2.064.543-3.1.8a6.627,6.627,0,0,0-2.41,1.1,13.94,13.94,0,0,0-4.5,5.643,19.2,19.2,0,0,0-.766,2.3C316.324,245.3,317.595,247.223,320.527,247.2Z" transform="translate(-268.461 -189.565)"/><path class="a" d="M509.312,246a4.5,4.5,0,0,0,1.211-.146,19.92,19.92,0,0,0,5.674-2.4,10.523,10.523,0,0,0,4.08-4.523,5.559,5.559,0,0,0,0-4.709.872.872,0,0,1,.21-.9c1.248-1.533,2.481-3.077,3.641-4.683,2.226-3.081,4.539-6.1,6.562-9.324a84.51,84.51,0,0,0,5.166-8.658,16.471,16.471,0,0,0,1.337-3.3.817.817,0,0,0-.283-.949.787.787,0,0,0-.927.121,7.292,7.292,0,0,0-1.141.889,48.457,48.457,0,0,0-3.979,4.374c-2.284,2.919-4.531,5.858-6.612,8.928-2.305,3.4-4.627,6.79-6.653,10.363a3.13,3.13,0,0,1-2.383,1.635,8.7,8.7,0,0,0-3.995,1.791,16.193,16.193,0,0,0-4.88,7.473,3.841,3.841,0,0,0-.167,2.249C506.456,245.335,507.712,246.026,509.312,246Z" transform="translate(-399.637 -187.999)"/><path class="a" d="M241.285,360.245c0,1.091.006,2.182,0,3.272,0,.3,0,.592.409.57a13.209,13.209,0,0,0,3.716-.257,3.84,3.84,0,0,0,.117-7.22,12.949,12.949,0,0,0-3.565-.275c-.557-.037-.7.2-.683.714C241.308,358.114,241.284,359.18,241.285,360.245Z" transform="translate(-216.083 -292.261)"/><path class="a" d="M462.152,363.8a3.041,3.041,0,0,0,2.425-.882c.185-.18.525-.374.206-.678-.255-.242-.547-.456-.923-.089a2.223,2.223,0,0,1-1.29.618,2.651,2.651,0,0,1-2.911-1.488,3.379,3.379,0,0,1,.625-3.872,2.6,2.6,0,0,1,3.373-.161.689.689,0,0,0,1.056-.167c.315-.43-.161-.556-.392-.72a4.123,4.123,0,0,0-4.8.207,4.311,4.311,0,0,0-1.208,4.651A3.759,3.759,0,0,0,462.152,363.8Z" transform="translate(-366.382 -291.815)"/><path class="a" d="M632.546,372.216a1.685,1.685,0,0,0,1.627-1.054c.3-.616.531-1.262.778-1.9.558-1.442,1.1-2.89,1.665-4.33.165-.42.018-.555-.391-.565a.671.671,0,0,0-.764.567c-.218.78-.494,1.544-.774,2.305-.08.217-.063.561-.394.586-.386.028-.4-.346-.491-.582-.319-.8-.615-1.606-.9-2.416a.706.706,0,0,0-1-.417c-.482.154-.165.5-.064.748q.808,1.969,1.648,3.924a1.538,1.538,0,0,1-1.1,2.126c-.469.037-.479.332-.5.607C631.846,372.214,632.167,372.222,632.546,372.216Z" transform="translate(-486.683 -297.83)"/><path class="a" d="M337.585,372.206a1.657,1.657,0,0,0,1.685-1.1c.8-2.028,1.7-4.018,2.354-6.1.06-.191.279-.445-.048-.588a.749.749,0,0,0-.8.062,1.264,1.264,0,0,0-.258.535c-.277.79-.539,1.586-.819,2.374-.064.181-.107.409-.37.429-.279.021-.313-.213-.392-.39a6.03,6.03,0,0,1-.252-.637c-.207-.651-.55-1.249-.7-1.924-.127-.556-.61-.613-1.04-.466-.5.172-.089.493-.016.736.406,1.364,1.077,2.622,1.612,3.935a1.54,1.54,0,0,1-1.021,2.128c-.4.034-.541.161-.547.539C336.962,372.2,337.268,372.2,337.585,372.206Z" transform="translate(-282.229 -297.823)"/><path class="a" d="M297.322,367.49h-.038c0-.482.033-.967-.007-1.445a1.854,1.854,0,0,0-1.181-1.855,3.159,3.159,0,0,0-2.582.252c-.273.139-.524.378-.338.7.169.295.379.533.836.238a1.674,1.674,0,0,1,1.818-.087.682.682,0,0,1,.388.689c-.056.367-.389.269-.618.26a4.339,4.339,0,0,0-1.929.386,1.446,1.446,0,0,0-.327,2.523,2.054,2.054,0,0,0,2.238.18c.349-.163.549-.274.931.009.473.351.823.066.812-.56C297.316,368.351,297.322,367.921,297.322,367.49Z" transform="translate(-251.76 -297.602)"/><path class="a" d="M161.65,356.333c-.562,0-1.124-.015-1.685.006-.336.013-.8-.2-.8.478,0,.62.386.533.77.53.664,0,1.328-.007,1.991,0,.867.009.923.088.57.855-.794,1.729-1.6,3.451-2.386,5.184-.091.2-.448.549.023.66.4.095.887.2,1.15-.407.86-2,1.773-3.982,2.655-5.974a2.683,2.683,0,0,0,.157-.659c.074-.464-.068-.715-.609-.682C162.877,356.362,162.263,356.332,161.65,356.333Z" transform="translate(-159.167 -292.251)"/><path class="a" d="M382.735,369.58c.077,0,.153,0,.23,0a1.731,1.731,0,0,0,1.846-1.476c.1-.691-.39-1.25-1.372-1.56-.315-.1-.634-.19-.945-.3-.275-.1-.522-.26-.49-.6.037-.375.337-.481.655-.517a1.3,1.3,0,0,1,1.073.3c.373.348.607.075.8-.18.243-.314.066-.559-.214-.759a2.637,2.637,0,0,0-2.686-.107,1.509,1.509,0,0,0-.706,1.5,1.263,1.263,0,0,0,.939,1.169c.433.15.872.283,1.31.417a.6.6,0,0,1,.492.6c0,.38-.28.518-.587.6a1.469,1.469,0,0,1-1.409-.393c-.392-.345-.629.006-.829.219-.267.285.061.446.245.589A2.4,2.4,0,0,0,382.735,369.58Z" transform="translate(-312.765 -297.634)"/><path class="a" d="M514.353,367.125c0-.685-.013-1.37,0-2.055.01-.41-.049-.689-.568-.672-.483.015-.511.29-.506.657.01.812.034,1.626-.016,2.435a1.291,1.291,0,0,1-1.32,1.373c-.758-.017-1.042-.4-1.059-1.436-.014-.862-.028-1.723-.034-2.585,0-.385-.222-.451-.552-.438s-.528.09-.522.477c.017,1.04-.046,2.084.023,3.12a1.84,1.84,0,0,0,2.909,1.526c.274-.151.471-.248.725.04a.671.671,0,0,0,.787.078c.276-.115.118-.406.123-.617C514.362,368.393,514.353,367.759,514.353,367.125Z" transform="translate(-402.204 -297.865)"/><path class="a" d="M594.53,366.951c0,.677.017,1.236-.006,1.794-.016.4.058.618.537.6.459-.022.635-.185.61-.649-.038-.683-.034-1.37-.026-2.055.011-1.049.333-1.421,1.367-1.546.259-.031.438-.055.447-.365.007-.252.094-.524-.105-.726-.245-.248-.53-.091-.783.006-.452.175-.82.481-1.38.075-.4-.291-.86.114-.76.638A14.768,14.768,0,0,1,594.53,366.951Z" transform="translate(-460.88 -297.497)"/><path class="a" d="M556.192,366.744h.05c0,.686.018,1.373-.007,2.059-.015.417.108.6.56.584.434-.016.584-.184.569-.607q-.04-1.1-.01-2.211c.024-.927.415-1.391,1.339-1.421.648-.021.535-.407.519-.765-.02-.475-.319-.52-.7-.378a4.594,4.594,0,0,0-.7.282c-.246.143-.439.368-.671-.034-.154-.268-.454-.191-.7-.132-.309.075-.245.346-.247.566C556.188,365.373,556.192,366.059,556.192,366.744Z" transform="translate(-434.382 -297.544)"/><path class="b" d="M250.234,164.44c1.588-.119,3-.21,4.408-.334,3.1-.273,6.2-.581,9.3-.84,3.941-.329,7.882-.662,11.828-.924,5.885-.39,11.784-.6,17.658-1.112,4.236-.369,8.483-.5,12.718-.845a1.075,1.075,0,0,0,.834-.426c1.96-2.437,3.963-4.841,5.882-7.309a14.8,14.8,0,0,1,2.282-2.423c.162-.132.259-.34.492-.173a.5.5,0,0,1,.171.608,1.324,1.324,0,0,1-.363.479c-2.564,2.809-4.881,5.819-7.229,8.8a2.243,2.243,0,0,0-.141.257,30.553,30.553,0,0,0,4.19-.179c5.016-.319,10.035-.619,15.028-1.219a18.73,18.73,0,0,0,3.511-.685c.2-.064.487-.186.6.082.091.217-.18.344-.332.455a5.192,5.192,0,0,1-2.374.766c-3.177.492-6.382.725-9.587.951-3.157.223-6.316.42-9.468.7-.7.061-1.391.212-2.1.21a.665.665,0,0,0-.556.327c-2.1,2.634-4.3,5.2-6.3,7.913-2.149,2.919-4.564,5.627-6.685,8.563-2.21,3.06-4.7,5.909-6.924,8.95-2.216,3.025-4.6,5.912-6.978,8.806-.287.35-.556.716-.858,1.051a.5.5,0,0,1-.683.139c-.292-.195-.242-.447-.14-.74a1.442,1.442,0,0,1,.385-.551,65.17,65.17,0,0,0,5.687-6.853c2.477-3.246,5.064-6.409,7.5-9.687,2.238-3.018,4.7-5.863,6.931-8.878,2.147-2.9,4.476-5.649,6.666-8.51.074-.1.148-.192.308-.4-1.568.074-3.006.132-4.443.211q-3.747.207-7.493.435c-4.738.286-9.474.611-14.215.858-3.9.2-7.791.536-11.684.832-3.739.284-7.469.679-11.205,1-2.186.19-4.374.361-6.565.494a1.767,1.767,0,0,0-1.37.676c-3.423,4.134-7.111,8.037-10.649,12.07-2.6,2.961-5.327,5.806-7.841,8.836-2.484,2.995-5.185,5.8-7.675,8.786-.744.892-1.416,1.845-2.1,2.785-.185.253-.359.589-.7.411-.41-.217-.2-.585-.01-.855a48.046,48.046,0,0,1,3.805-4.742c1.63-1.821,3.321-3.594,4.865-5.485,2.445-2.993,5.191-5.72,7.667-8.68,2.513-3,5.3-5.758,7.826-8.746,1.32-1.564,2.766-3.028,3.981-4.71-.868,0-1.71-.036-2.548.007-2.5.128-4.994.3-7.492.433-4.894.262-9.79.468-14.681.777-3.748.237-7.492.476-11.25.425a2.867,2.867,0,0,1-.611-.023c-.268-.064-.6-.159-.584-.495.018-.386.371-.252.6-.252,4.138,0,8.269-.215,12.4-.484,5.857-.383,11.721-.614,17.581-.916,2.318-.119,4.633-.3,6.949-.448a1.16,1.16,0,0,0,.912-.442c3.057-3.7,6.032-7.469,8.774-11.407a38.189,38.189,0,0,1,4.922-6.186c.128-.121.179-.31.4-.229.267.1.22.326.165.513a1.23,1.23,0,0,1-.269.53c-2.414,2.339-4.013,5.29-6.029,7.927-1.281,1.676-2.609,3.318-3.847,5.024C252.493,161.7,251.392,162.982,250.234,164.44Z" transform="translate(-195.048 -146.325)"/><path class="b" d="M320.527,247.2c-2.933.026-4.2-1.893-3.508-4.222a19.2,19.2,0,0,1,.766-2.3,13.94,13.94,0,0,1,4.5-5.643,6.627,6.627,0,0,1,2.41-1.1c1.036-.256,2.064-.542,3.1-.8a1.075,1.075,0,0,0,.658-.458c2.623-3.685,5.666-7.029,8.575-10.484,2.375-2.821,4.958-5.439,7.512-8.091a52.839,52.839,0,0,1,4.992-4.574,9.4,9.4,0,0,1,1.34-.87.646.646,0,0,1,.789.047.786.786,0,0,1,.154.78,5.335,5.335,0,0,1-.61,1.223,77.423,77.423,0,0,1-7.71,10.364c-2.507,3.077-5.257,5.926-7.911,8.867-1.242,1.377-2.523,2.707-3.839,4.008a1.055,1.055,0,0,0-.378.927c.363,3.724-1.26,6.6-3.914,9.044a13.861,13.861,0,0,1-6.329,3.2A4.441,4.441,0,0,1,320.527,247.2Zm30.268-37.6c-.268.188-.549.36-.8.567a37.47,37.47,0,0,0-3.472,3.258c-2.866,3.009-5.813,5.936-8.527,9.091-2.886,3.355-5.835,6.656-8.378,10.285a2.648,2.648,0,0,1-1.648,1.212c-.94.205-1.834.585-2.8.746a5.246,5.246,0,0,0-2.243.9,13.1,13.1,0,0,0-5.189,7.872,2.074,2.074,0,0,0,1.238,2.614,3.847,3.847,0,0,0,2.183.05,13.427,13.427,0,0,0,4.968-2.357,11.033,11.033,0,0,0,4.226-6.465,17.1,17.1,0,0,0,.079-2.961c.007-.28-.028-.549.237-.755a32.447,32.447,0,0,0,3.4-3.35c2.881-3.013,5.717-6.057,8.361-9.282s5.4-6.4,7.733-9.888A3.139,3.139,0,0,0,350.8,209.594Z" transform="translate(-268.461 -189.565)"/><path class="b" d="M509.312,246c-1.6.026-2.856-.664-3.144-1.77a3.841,3.841,0,0,1,.167-2.249,16.193,16.193,0,0,1,4.88-7.473,8.7,8.7,0,0,1,3.995-1.791,3.13,3.13,0,0,0,2.383-1.635c2.026-3.573,4.348-6.962,6.653-10.363,2.081-3.07,4.328-6.008,6.612-8.928a48.457,48.457,0,0,1,3.979-4.374,7.292,7.292,0,0,1,1.141-.889.787.787,0,0,1,.927-.121.817.817,0,0,1,.283.949,16.471,16.471,0,0,1-1.337,3.3,84.51,84.51,0,0,1-5.166,8.658c-2.023,3.228-4.335,6.243-6.562,9.324-1.16,1.606-2.393,3.149-3.641,4.683a.872.872,0,0,0-.21.9,5.559,5.559,0,0,1,0,4.709,10.523,10.523,0,0,1-4.08,4.523,19.92,19.92,0,0,1-5.674,2.4A4.526,4.526,0,0,1,509.312,246Zm26.824-38.52a7.151,7.151,0,0,0-.845.636,33.873,33.873,0,0,0-3.176,3.66c-2.284,3.071-4.779,5.978-6.921,9.166a105.8,105.8,0,0,0-6.558,10.324,4.005,4.005,0,0,1-3.021,2.219,9.059,9.059,0,0,0-4.052,1.808,16.035,16.035,0,0,0-4.027,5.738,7.169,7.169,0,0,0-.627,2.181,1.386,1.386,0,0,0,.863,1.6,3.618,3.618,0,0,0,2.313.2,18.154,18.154,0,0,0,5.464-2.245,10.3,10.3,0,0,0,3-2.752,5.6,5.6,0,0,0,.71-5.911.807.807,0,0,1,.161-.955c1.271-1.479,2.536-2.954,3.686-4.541,2.249-3.1,4.566-6.153,6.631-9.387,1.965-3.077,3.978-6.123,5.651-9.372a8.92,8.92,0,0,0,.911-2.246c0-.066.028-.163,0-.191C536.225,207.345,536.169,207.41,536.136,207.48Z" transform="translate(-399.637 -187.999)"/><path class="c" d="M241.285,360.245c0-1.065.023-2.131-.01-3.2-.016-.518.125-.751.683-.714a12.949,12.949,0,0,1,3.565.275,3.84,3.84,0,0,1-.117,7.22,13.209,13.209,0,0,1-3.716.257c-.407.022-.411-.266-.409-.57C241.29,362.427,241.285,361.336,241.285,360.245Zm1.127-.048c0,.482-.01.964,0,1.446.042,1.651-.341,1.448,1.533,1.423a2.7,2.7,0,0,0,2.866-2.808,2.726,2.726,0,0,0-2.913-2.92c-.306-.008-.614.019-.918-.006-.442-.035-.583.168-.573.581C242.425,358.675,242.413,359.436,242.412,360.2Z" transform="translate(-216.083 -292.261)"/><path class="c" d="M462.152,363.8a3.759,3.759,0,0,1-3.835-2.582,4.311,4.311,0,0,1,1.208-4.651,4.123,4.123,0,0,1,4.8-.207c.232.164.708.29.392.72a.689.689,0,0,1-1.056.167,2.6,2.6,0,0,0-3.373.161,3.379,3.379,0,0,0-.625,3.872,2.651,2.651,0,0,0,2.911,1.488,2.223,2.223,0,0,0,1.29-.618c.377-.368.668-.154.923.089.319.3-.02.5-.206.678A3.041,3.041,0,0,1,462.152,363.8Z" transform="translate(-366.382 -291.815)"/><path class="c" d="M632.546,372.216c-.379.006-.7,0-.665-.4.024-.275.033-.57.5-.607a1.538,1.538,0,0,0,1.1-2.126q-.836-1.957-1.648-3.924c-.1-.246-.418-.594.064-.748a.706.706,0,0,1,1,.417c.289.81.585,1.618.9,2.416.094.235.1.61.491.582.332-.024.315-.368.394-.586.28-.761.556-1.525.774-2.305a.671.671,0,0,1,.764-.567c.408.01.556.145.391.565-.565,1.439-1.107,2.888-1.665,4.33-.247.638-.482,1.284-.778,1.9A1.685,1.685,0,0,1,632.546,372.216Z" transform="translate(-486.683 -297.83)"/><path class="c" d="M337.585,372.206c-.317,0-.623-.005-.617-.463.005-.379.149-.505.547-.539a1.54,1.54,0,0,0,1.021-2.128c-.535-1.313-1.206-2.571-1.612-3.935-.072-.243-.487-.564.016-.736.43-.147.913-.09,1.04.466.154.675.5,1.272.7,1.924a6.03,6.03,0,0,0,.252.637c.079.177.113.411.392.39.263-.02.306-.248.37-.429.28-.789.542-1.584.819-2.374a1.264,1.264,0,0,1,.258-.535.749.749,0,0,1,.8-.062c.328.143.109.4.048.588-.658,2.08-1.557,4.07-2.354,6.1A1.657,1.657,0,0,1,337.585,372.206Z" transform="translate(-282.229 -297.823)"/><path class="c" d="M297.322,367.49c0,.431-.006.862,0,1.292.01.626-.34.91-.812.56-.382-.283-.582-.172-.931-.009a2.054,2.054,0,0,1-2.238-.18,1.446,1.446,0,0,1,.327-2.523,4.339,4.339,0,0,1,1.929-.386c.23.009.562.107.618-.26a.682.682,0,0,0-.388-.689,1.674,1.674,0,0,0-1.818.087c-.457.3-.667.057-.836-.238-.185-.324.065-.563.338-.7a3.159,3.159,0,0,1,2.582-.252,1.854,1.854,0,0,1,1.181,1.855c.04.479.007.963.007,1.445Zm-1.793-.459a3.027,3.027,0,0,0-1.234.272.688.688,0,0,0-.45.72.736.736,0,0,0,.586.625,1.406,1.406,0,0,0,1.745-.831C296.4,367.241,296.251,367.033,295.529,367.03Z" transform="translate(-251.76 -297.602)"/><path class="c" d="M161.65,356.333c.613,0,1.227.029,1.838-.009.541-.034.683.218.609.682a2.683,2.683,0,0,1-.157.659c-.882,1.993-1.8,3.972-2.655,5.974-.263.612-.748.5-1.15.407-.471-.111-.114-.458-.023-.66.784-1.733,1.592-3.455,2.386-5.184.352-.767.3-.846-.57-.855-.664-.007-1.328,0-1.991,0-.384,0-.769.09-.77-.53,0-.676.462-.465.8-.478C160.526,356.318,161.088,356.333,161.65,356.333Z" transform="translate(-159.167 -292.251)"/><path class="c" d="M382.735,369.578a2.392,2.392,0,0,1-1.644-.5c-.183-.144-.512-.3-.245-.589.2-.212.437-.564.829-.219a1.469,1.469,0,0,0,1.409.393c.307-.083.587-.222.587-.6a.6.6,0,0,0-.492-.6c-.438-.134-.877-.267-1.31-.417a1.263,1.263,0,0,1-.939-1.169,1.509,1.509,0,0,1,.706-1.5,2.637,2.637,0,0,1,2.686.107c.28.2.457.445.214.759-.2.255-.43.528-.8.18a1.3,1.3,0,0,0-1.073-.3c-.318.036-.618.142-.655.517-.033.336.215.5.49.6.311.113.63.2.945.3.982.31,1.474.869,1.372,1.56a1.731,1.731,0,0,1-1.846,1.476C382.888,369.581,382.812,369.58,382.735,369.578Z" transform="translate(-312.765 -297.634)"/><path class="c" d="M514.353,367.125c0,.634.009,1.269-.005,1.9,0,.211.154.5-.123.617a.671.671,0,0,1-.787-.078c-.254-.288-.452-.191-.725-.04A1.84,1.84,0,0,1,509.8,368c-.069-1.035-.006-2.079-.023-3.12-.006-.387.194-.464.522-.477s.55.053.552.438c.006.862.02,1.723.034,2.585.017,1.035.3,1.419,1.059,1.436a1.291,1.291,0,0,0,1.32-1.373c.049-.809.026-1.623.016-2.435,0-.367.023-.642.506-.657.519-.017.579.262.568.672C514.34,365.754,514.353,366.44,514.353,367.125Zm-.169-.012c0-.632,0-1.264,0-1.9,0-.236-.028-.5-.334-.5-.358,0-.254.316-.259.519-.022.833.038,1.674-.064,2.5-.06.487-.562.935.047,1.413.1.075.016.376.274.36.307-.02.335-.261.336-.5C514.186,368.377,514.184,367.745,514.184,367.113Zm-1.551,2.043c-1.774-.158-2.108-.53-2.11-2.233,0-.582.006-1.165,0-1.747,0-.186.06-.462-.253-.447-.246.012-.206.252-.206.42,0,.987-.028,1.976.009,2.962a1.416,1.416,0,0,0,1.026,1.371A1.307,1.307,0,0,0,512.633,369.156Z" transform="translate(-402.204 -297.865)"/><path class="c" d="M594.53,366.951a14.768,14.768,0,0,0-.1-2.232c-.1-.524.359-.929.76-.638.56.406.928.1,1.38-.075.252-.1.538-.255.783-.006.2.2.113.474.105.726-.009.31-.188.333-.447.365-1.033.125-1.356.5-1.367,1.546-.007.685-.011,1.371.026,2.055.026.465-.15.628-.61.649-.478.022-.553-.2-.537-.6C594.547,368.187,594.53,367.628,594.53,366.951Z" transform="translate(-460.88 -297.497)"/><path class="c" d="M556.192,366.744c0-.685,0-1.371,0-2.056,0-.22-.062-.491.247-.566.245-.06.544-.136.7.132.232.4.424.178.671.034a4.594,4.594,0,0,1,.7-.282c.379-.142.678-.1.7.378.016.358.129.744-.519.765-.923.03-1.314.494-1.339,1.421q-.029,1.1.01,2.211c.015.423-.135.591-.569.607-.452.016-.575-.167-.56-.584.025-.685.007-1.372.007-2.059Z" transform="translate(-434.382 -297.544)"/><path class="a" d="M352.671,211.975a3.138,3.138,0,0,1-.634,1.539c-2.329,3.488-5.078,6.65-7.733,9.888s-5.48,6.27-8.361,9.282a32.468,32.468,0,0,1-3.4,3.35c-.265.206-.23.475-.237.755a17.1,17.1,0,0,1-.079,2.961,11.032,11.032,0,0,1-4.226,6.465,13.426,13.426,0,0,1-4.968,2.357,3.847,3.847,0,0,1-2.183-.05,2.074,2.074,0,0,1-1.238-2.614,13.1,13.1,0,0,1,5.189-7.873,5.246,5.246,0,0,1,2.243-.9c.961-.16,1.855-.54,2.795-.746a2.648,2.648,0,0,0,1.648-1.212c2.542-3.63,5.491-6.93,8.378-10.285,2.714-3.154,5.661-6.082,8.527-9.091a37.462,37.462,0,0,1,3.472-3.258C352.122,212.335,352.4,212.163,352.671,211.975Z" transform="translate(-270.337 -191.946)"/><path class="a" d="M538.158,210.293a8.925,8.925,0,0,1-.911,2.245c-1.673,3.249-3.686,6.295-5.651,9.372-2.065,3.234-4.382,6.284-6.631,9.387-1.15,1.587-2.415,3.062-3.686,4.541a.807.807,0,0,0-.161.955,5.6,5.6,0,0,1-.71,5.911,10.3,10.3,0,0,1-3,2.752,18.151,18.151,0,0,1-5.464,2.245,3.618,3.618,0,0,1-2.313-.2,1.385,1.385,0,0,1-.863-1.6,7.169,7.169,0,0,1,.627-2.181,16.035,16.035,0,0,1,4.027-5.738,9.058,9.058,0,0,1,4.052-1.808,4.005,4.005,0,0,0,3.021-2.219,105.834,105.834,0,0,1,6.558-10.324c2.142-3.188,4.637-6.1,6.921-9.166a33.869,33.869,0,0,1,3.176-3.66,7.146,7.146,0,0,1,.845-.636Z" transform="translate(-401.495 -190.696)"/><path class="a" d="M604.075,209.952c.034-.07.089-.135.159-.076.033.028,0,.125,0,.191Z" transform="translate(-467.576 -190.471)"/><path class="a" d="M244.977,362.468c0-.761.013-1.522,0-2.283-.01-.413.131-.616.573-.581.3.024.612,0,.918.006a2.726,2.726,0,0,1,2.913,2.92,2.7,2.7,0,0,1-2.866,2.808c-1.874.025-1.491.228-1.533-1.423C244.966,363.433,244.976,362.95,244.977,362.468Z" transform="translate(-218.646 -294.532)"/><path class="a" d="M298.014,373.891c.722,0,.868.211.648.786a1.406,1.406,0,0,1-1.745.831.736.736,0,0,1-.586-.625.688.688,0,0,1,.45-.72A3.025,3.025,0,0,1,298.014,373.891Z" transform="translate(-254.245 -304.463)"/><path class="b" d="M522.1,367.85c0,.632,0,1.264,0,1.9,0,.239-.029.48-.336.5-.258.016-.178-.284-.274-.36-.61-.478-.107-.926-.047-1.413.1-.823.042-1.664.063-2.5.005-.2-.1-.515.259-.519.306,0,.333.26.334.5C522.1,366.586,522.1,367.218,522.1,367.85Z" transform="translate(-410.123 -298.602)"/><path class="b" d="M513.263,369.913a1.307,1.307,0,0,1-1.538.326,1.416,1.416,0,0,1-1.026-1.371c-.037-.986-.013-1.975-.009-2.962,0-.168-.039-.408.206-.42.313-.015.249.261.253.447.01.582,0,1.165,0,1.747C511.154,369.383,511.489,369.754,513.263,369.913Z" transform="translate(-402.834 -298.622)"/></svg>