<svg xmlns="http://www.w3.org/2000/svg" width="130" height="64.469" viewBox="0 0 130 64.469"><defs><style>.a{fill:#fefefe;}.b{fill:#0c0c0c;}.c{fill:#202020;}</style></defs><g transform="translate(-577 -45)"><g transform="translate(577 45)"><path class="a" d="M244.993,162.024c1-1.263,1.958-2.371,2.816-3.554,1.073-1.479,2.224-2.9,3.334-4.355,1.747-2.286,3.133-4.842,5.225-6.87a1.066,1.066,0,0,0,.233-.459c.048-.163.089-.36-.143-.445-.193-.071-.237.093-.348.2a33.1,33.1,0,0,0-4.265,5.361c-2.376,3.413-4.955,6.677-7.6,9.886a1.006,1.006,0,0,1-.79.383c-2.007.128-4.014.285-6.022.388-5.079.262-10.161.463-15.237.794-3.577.233-7.156.418-10.743.42-.2,0-.5-.116-.519.219-.014.291.274.374.506.429a2.483,2.483,0,0,0,.53.02c3.256.044,6.5-.163,9.75-.369,4.238-.268,8.482-.447,12.723-.674,2.165-.116,4.328-.264,6.493-.375.726-.037,1.456-.006,2.208-.006-1.053,1.458-2.306,2.727-3.45,4.082-2.186,2.589-4.605,4.976-6.783,7.58-2.146,2.566-4.526,4.928-6.645,7.523-1.339,1.639-2.8,3.175-4.217,4.754a41.64,41.64,0,0,0-3.3,4.11c-.161.234-.346.553.009.741.293.155.443-.137.6-.356.595-.814,1.177-1.64,1.822-2.413,2.158-2.589,4.5-5.019,6.652-7.614,2.178-2.626,4.544-5.092,6.8-7.658,3.066-3.5,6.262-6.878,9.229-10.461a1.531,1.531,0,0,1,1.187-.586c1.9-.115,3.795-.263,5.689-.428,3.238-.282,6.471-.624,9.711-.87,3.374-.256,6.745-.545,10.126-.721,4.108-.214,8.213-.5,12.319-.743q3.247-.2,6.494-.377c1.245-.068,2.492-.119,3.851-.183-.139.179-.2.262-.267.345-1.9,2.48-3.916,4.865-5.777,7.376-1.937,2.613-4.067,5.079-6.007,7.694-2.107,2.841-4.349,5.582-6.5,8.4a56.484,56.484,0,0,1-4.928,5.939,1.25,1.25,0,0,0-.334.478c-.088.254-.131.473.122.641a.429.429,0,0,0,.592-.12c.262-.291.5-.608.744-.911,2.061-2.508,4.127-5.01,6.048-7.632s4.085-5.1,6-7.757c1.838-2.544,3.931-4.891,5.793-7.421,1.73-2.351,3.632-4.576,5.456-6.858a.576.576,0,0,1,.482-.283c.611,0,1.213-.129,1.816-.182,2.732-.239,5.47-.41,8.206-.6,2.778-.2,5.555-.4,8.309-.824a4.5,4.5,0,0,0,2.057-.664c.131-.1.366-.206.288-.394-.1-.232-.347-.126-.519-.071a16.232,16.232,0,0,1-3.043.593c-4.327.521-8.677.78-13.024,1.057a26.48,26.48,0,0,1-3.631.155,1.946,1.946,0,0,1,.122-.223c2.035-2.586,4.043-5.2,6.265-7.63a1.147,1.147,0,0,0,.315-.415.43.43,0,0,0-.148-.527c-.2-.145-.286.035-.426.15a12.825,12.825,0,0,0-1.978,2.1c-1.663,2.139-3.4,4.222-5.1,6.335a.932.932,0,0,1-.723.369c-3.67.3-7.351.412-11.022.732-5.09.443-10.2.626-15.3.964-3.42.227-6.835.516-10.251.8-2.688.224-5.372.492-8.059.728C247.593,161.842,246.369,161.921,244.993,162.024Z" transform="translate(-197.165 -146.325)"/><path class="a" d="M320.035,242.044a3.853,3.853,0,0,0,.52-.07,12.012,12.012,0,0,0,5.485-2.769c2.3-2.117,3.707-4.61,3.392-7.838a.914.914,0,0,1,.327-.8c1.14-1.128,2.251-2.281,3.327-3.474,2.3-2.549,4.683-5.019,6.856-7.685a67.1,67.1,0,0,0,6.682-8.982,4.623,4.623,0,0,0,.529-1.06.681.681,0,0,0-.133-.676.56.56,0,0,0-.684-.041,8.143,8.143,0,0,0-1.161.754,45.783,45.783,0,0,0-4.326,3.964c-2.214,2.3-4.452,4.567-6.51,7.012-2.521,2.994-5.158,5.893-7.432,9.086a.932.932,0,0,1-.57.4c-.9.223-1.789.471-2.687.693a5.744,5.744,0,0,0-2.089.952,12.082,12.082,0,0,0-3.9,4.891,16.656,16.656,0,0,0-.664,1.992C316.392,240.4,317.493,242.066,320.035,242.044Z" transform="translate(-274.91 -192.096)"/><path class="a" d="M508.879,240.705a3.9,3.9,0,0,0,1.05-.126,17.264,17.264,0,0,0,4.917-2.077,9.119,9.119,0,0,0,3.536-3.92,4.818,4.818,0,0,0,0-4.081.756.756,0,0,1,.182-.782c1.082-1.329,2.151-2.667,3.156-4.058,1.929-2.671,3.933-5.284,5.687-8.081a73.231,73.231,0,0,0,4.477-7.5,14.271,14.271,0,0,0,1.159-2.862.708.708,0,0,0-.245-.823.682.682,0,0,0-.8.1,6.319,6.319,0,0,0-.989.77,42,42,0,0,0-3.448,3.791c-1.979,2.53-3.926,5.077-5.73,7.737-2,2.947-4.01,5.884-5.766,8.981a2.713,2.713,0,0,1-2.065,1.417,7.541,7.541,0,0,0-3.462,1.552,14.034,14.034,0,0,0-4.23,6.477,3.329,3.329,0,0,0-.145,1.95C506.4,240.13,507.492,240.728,508.879,240.705Z" transform="translate(-413.827 -190.439)"/><path class="a" d="M241.283,359.723c0,.945,0,1.891,0,2.836,0,.264,0,.513.354.494a11.447,11.447,0,0,0,3.22-.223,3.328,3.328,0,0,0,.1-6.257,11.222,11.222,0,0,0-3.09-.238c-.483-.032-.606.17-.592.619C241.3,357.876,241.283,358.8,241.283,359.723Z" transform="translate(-219.441 -300.804)"/><path class="a" d="M461.611,362.721a2.636,2.636,0,0,0,2.1-.764c.161-.156.455-.324.178-.587-.221-.21-.474-.4-.8-.077a1.927,1.927,0,0,1-1.118.535,2.3,2.3,0,0,1-2.523-1.29,2.929,2.929,0,0,1,.541-3.356,2.256,2.256,0,0,1,2.923-.14.6.6,0,0,0,.915-.145c.273-.373-.139-.481-.34-.624a3.573,3.573,0,0,0-4.156.179,3.736,3.736,0,0,0-1.047,4.031A3.257,3.257,0,0,0,461.611,362.721Z" transform="translate(-378.61 -300.332)"/><path class="a" d="M632.425,371.167a1.46,1.46,0,0,0,1.41-.914c.257-.534.46-1.094.675-1.647.484-1.25.953-2.505,1.443-3.753.143-.364.015-.481-.339-.49a.581.581,0,0,0-.662.491c-.189.676-.428,1.338-.671,2-.069.188-.054.486-.342.507-.335.025-.344-.3-.426-.5-.276-.692-.533-1.392-.784-2.094a.612.612,0,0,0-.867-.361c-.418.133-.143.435-.056.648.467,1.138.946,2.27,1.429,3.4a1.333,1.333,0,0,1-.952,1.843c-.407.032-.415.288-.436.526C631.818,371.165,632.1,371.172,632.425,371.167Z" transform="translate(-506.01 -306.699)"/><path class="a" d="M337.467,371.157a1.436,1.436,0,0,0,1.461-.952c.69-1.758,1.47-3.482,2.04-5.285.052-.165.242-.386-.042-.51a.649.649,0,0,0-.694.054,1.1,1.1,0,0,0-.223.463c-.24.685-.467,1.374-.71,2.058-.056.157-.092.354-.321.372s-.271-.185-.34-.338a5.209,5.209,0,0,1-.218-.552c-.179-.564-.477-1.082-.61-1.667-.11-.482-.528-.531-.9-.4-.437.149-.077.427-.014.638.352,1.182.933,2.273,1.4,3.41a1.334,1.334,0,0,1-.885,1.844c-.345.03-.469.139-.474.467C336.926,371.152,337.192,371.153,337.467,371.157Z" transform="translate(-289.491 -306.691)"/><path class="a" d="M296.711,367.027h-.033c0-.418.028-.838-.006-1.253a1.607,1.607,0,0,0-1.024-1.608,2.738,2.738,0,0,0-2.237.218c-.237.12-.454.328-.293.608.146.255.329.462.725.206a1.451,1.451,0,0,1,1.575-.076.591.591,0,0,1,.336.6c-.048.318-.337.233-.536.225a3.761,3.761,0,0,0-1.672.335,1.253,1.253,0,0,0-.283,2.187,1.78,1.78,0,0,0,1.939.156c.3-.141.476-.237.807.008.41.3.713.057.7-.485C296.706,367.774,296.711,367.4,296.711,367.027Z" transform="translate(-257.224 -306.458)"/><path class="a" d="M161.319,356.331c-.487,0-.974-.013-1.46,0-.291.011-.692-.172-.692.414,0,.537.335.462.667.46.575,0,1.151-.006,1.726,0,.752.008.8.076.494.741-.688,1.5-1.389,2.991-2.068,4.493-.079.175-.388.476.02.572.348.082.768.177,1-.353.745-1.735,1.536-3.451,2.3-5.178a2.324,2.324,0,0,0,.136-.571c.064-.4-.059-.62-.528-.591C162.383,356.356,161.85,356.33,161.319,356.331Z" transform="translate(-159.167 -300.793)"/><path class="a" d="M382.47,368.844c.066,0,.133,0,.2,0a1.5,1.5,0,0,0,1.6-1.28c.088-.6-.338-1.083-1.189-1.352-.273-.086-.55-.165-.819-.263-.238-.087-.453-.225-.424-.516.032-.325.292-.417.568-.448a1.122,1.122,0,0,1,.93.261c.324.3.526.065.7-.156.211-.272.057-.484-.186-.658a2.286,2.286,0,0,0-2.328-.092,1.308,1.308,0,0,0-.612,1.3,1.094,1.094,0,0,0,.814,1.014c.375.13.756.245,1.136.361a.516.516,0,0,1,.426.516c0,.329-.243.449-.509.521a1.273,1.273,0,0,1-1.221-.341c-.34-.3-.545.006-.718.19-.232.247.053.386.212.511A2.079,2.079,0,0,0,382.47,368.844Z" transform="translate(-321.829 -306.492)"/><path class="a" d="M513.742,366.761c0-.594-.011-1.188,0-1.781.009-.355-.043-.6-.493-.582-.419.013-.442.252-.438.57.009.7.029,1.409-.014,2.11a1.119,1.119,0,0,1-1.144,1.19c-.656-.015-.9-.348-.918-1.245-.012-.747-.024-1.493-.029-2.24,0-.333-.193-.391-.479-.38s-.458.078-.452.414c.015.9-.04,1.806.02,2.7a1.594,1.594,0,0,0,2.522,1.323c.237-.131.408-.215.629.034a.581.581,0,0,0,.682.068c.24-.1.1-.352.106-.535C513.75,367.861,513.742,367.311,513.742,366.761Z" transform="translate(-416.546 -306.736)"/><path class="a" d="M594.515,366.54c0,.587.015,1.071-.005,1.554-.014.343.051.536.465.516.4-.019.551-.16.528-.563-.033-.592-.029-1.187-.023-1.781.01-.909.289-1.232,1.184-1.34.225-.027.38-.047.388-.316.006-.218.081-.454-.091-.629-.212-.215-.46-.079-.678.006-.392.151-.711.417-1.2.065-.347-.252-.745.1-.659.553A12.791,12.791,0,0,1,594.515,366.54Z" transform="translate(-478.685 -306.346)"/><path class="a" d="M556.191,366.369h.044c0,.595.016,1.19-.006,1.784-.013.361.093.52.485.506.376-.014.506-.159.493-.526q-.035-.957-.009-1.916c.021-.8.36-1.206,1.16-1.231.561-.018.464-.353.45-.663-.018-.411-.277-.451-.605-.328a3.979,3.979,0,0,0-.609.244c-.213.124-.381.319-.581-.03-.133-.232-.393-.166-.605-.114-.267.065-.212.3-.214.491C556.188,365.181,556.191,365.775,556.191,366.369Z" transform="translate(-450.623 -306.396)"/><path class="b" d="M244.993,162.024c1.376-.1,2.6-.182,3.82-.29,2.687-.236,5.371-.5,8.059-.728,3.416-.285,6.831-.574,10.251-.8,5.1-.338,10.213-.52,15.3-.964,3.671-.32,7.352-.43,11.022-.732a.932.932,0,0,0,.723-.369c1.7-2.112,3.435-4.2,5.1-6.335a12.825,12.825,0,0,1,1.978-2.1c.14-.115.225-.295.426-.15a.43.43,0,0,1,.148.527,1.147,1.147,0,0,1-.315.415c-2.222,2.434-4.23,5.043-6.265,7.63a1.946,1.946,0,0,0-.122.223,26.48,26.48,0,0,0,3.631-.155c4.347-.277,8.7-.536,13.024-1.057a16.232,16.232,0,0,0,3.043-.593c.172-.055.422-.162.519.071.079.188-.156.3-.288.394a4.5,4.5,0,0,1-2.057.664c-2.754.426-5.531.628-8.309.824-2.736.193-5.474.364-8.206.6-.6.053-1.205.184-1.816.182a.576.576,0,0,0-.482.283c-1.823,2.282-3.726,4.507-5.456,6.858-1.862,2.53-3.956,4.877-5.793,7.421-1.915,2.652-4.069,5.121-6,7.757s-3.986,5.124-6.048,7.632c-.249.3-.482.62-.744.911a.429.429,0,0,1-.592.12c-.253-.169-.21-.387-.122-.641a1.25,1.25,0,0,1,.334-.478,56.484,56.484,0,0,0,4.928-5.939c2.147-2.814,4.389-5.554,6.5-8.4,1.94-2.616,4.07-5.081,6.007-7.694,1.861-2.511,3.879-4.9,5.777-7.376.064-.084.129-.166.267-.345-1.359.064-2.605.115-3.851.183q-3.247.179-6.494.377c-4.106.248-8.211.53-12.319.743-3.381.176-6.752.465-10.126.721-3.24.246-6.473.588-9.711.87-1.895.165-3.791.313-5.689.428a1.531,1.531,0,0,0-1.187.586c-2.967,3.583-6.163,6.965-9.229,10.461-2.251,2.566-4.617,5.032-6.8,7.658-2.153,2.6-4.494,5.026-6.652,7.614-.645.773-1.227,1.6-1.822,2.413-.161.219-.311.511-.6.356-.355-.188-.17-.507-.009-.741a41.64,41.64,0,0,1,3.3-4.11c1.413-1.578,2.878-3.115,4.217-4.754,2.119-2.594,4.5-4.957,6.645-7.523,2.178-2.6,4.6-4.99,6.783-7.58,1.144-1.355,2.4-2.624,3.45-4.082-.752,0-1.482-.031-2.208.006-2.165.111-4.328.259-6.493.375-4.241.227-8.485.406-12.723.674-3.248.205-6.493.412-9.75.369a2.483,2.483,0,0,1-.53-.02c-.232-.055-.52-.137-.506-.429.015-.334.322-.218.519-.219,3.587,0,7.166-.186,10.743-.42,5.076-.332,10.158-.532,15.237-.794,2.009-.1,4.015-.26,6.022-.388a1.006,1.006,0,0,0,.79-.383c2.649-3.209,5.228-6.473,7.6-9.886a33.1,33.1,0,0,1,4.265-5.361c.111-.1.155-.269.348-.2.232.085.191.282.143.445a1.066,1.066,0,0,1-.233.459c-2.092,2.027-3.478,4.584-5.225,6.87-1.11,1.453-2.261,2.876-3.334,4.355C246.951,159.654,246,160.761,244.993,162.024Z" transform="translate(-197.165 -146.325)"/><path class="b" d="M320.035,242.044c-2.542.022-3.643-1.641-3.041-3.659a16.656,16.656,0,0,1,.664-1.992,12.082,12.082,0,0,1,3.9-4.891,5.744,5.744,0,0,1,2.089-.952c.9-.222,1.789-.47,2.687-.693a.932.932,0,0,0,.57-.4c2.274-3.193,4.911-6.091,7.432-9.086,2.058-2.445,4.3-4.713,6.51-7.012a45.783,45.783,0,0,1,4.326-3.964,8.143,8.143,0,0,1,1.161-.754.56.56,0,0,1,.684.041.681.681,0,0,1,.133.676,4.623,4.623,0,0,1-.529,1.06,67.1,67.1,0,0,1-6.682,8.982c-2.173,2.667-4.556,5.136-6.856,7.685-1.076,1.193-2.187,2.346-3.327,3.474a.914.914,0,0,0-.327.8c.315,3.228-1.092,5.721-3.392,7.838a12.012,12.012,0,0,1-5.485,2.769A3.853,3.853,0,0,1,320.035,242.044Zm26.233-32.589c-.232.163-.476.312-.7.491a32.476,32.476,0,0,0-3.009,2.823c-2.484,2.607-5.038,5.145-7.39,7.879-2.5,2.908-5.057,5.768-7.26,8.914a2.3,2.3,0,0,1-1.428,1.051c-.815.178-1.589.507-2.422.646a4.546,4.546,0,0,0-1.944.783,11.349,11.349,0,0,0-4.5,6.823,1.8,1.8,0,0,0,1.073,2.266,3.334,3.334,0,0,0,1.892.043,11.638,11.638,0,0,0,4.305-2.043,9.562,9.562,0,0,0,3.662-5.6,14.823,14.823,0,0,0,.069-2.566c.006-.242-.024-.475.206-.654a28.122,28.122,0,0,0,2.944-2.9c2.5-2.611,4.955-5.25,7.246-8.045s4.683-5.547,6.7-8.57A2.721,2.721,0,0,0,346.267,209.455Z" transform="translate(-274.91 -192.096)"/><path class="b" d="M508.879,240.706c-1.387.022-2.475-.576-2.725-1.534a3.329,3.329,0,0,1,.145-1.95,14.034,14.034,0,0,1,4.23-6.477,7.541,7.541,0,0,1,3.462-1.552,2.713,2.713,0,0,0,2.065-1.417c1.756-3.1,3.768-6.034,5.766-8.981,1.8-2.66,3.751-5.207,5.73-7.737A42,42,0,0,1,531,207.266a6.319,6.319,0,0,1,.989-.77.682.682,0,0,1,.8-.1.708.708,0,0,1,.245.823,14.271,14.271,0,0,1-1.159,2.862,73.231,73.231,0,0,1-4.477,7.5c-1.753,2.8-3.757,5.411-5.687,8.081-1.005,1.392-2.074,2.729-3.156,4.058a.756.756,0,0,0-.182.782,4.818,4.818,0,0,1,0,4.081,9.119,9.119,0,0,1-3.536,3.92,17.264,17.264,0,0,1-4.917,2.077A3.923,3.923,0,0,1,508.879,240.706Zm23.247-33.384a6.2,6.2,0,0,0-.732.551,29.351,29.351,0,0,0-2.753,3.172c-1.98,2.661-4.142,5.181-6,7.944a91.685,91.685,0,0,0-5.684,8.947,3.471,3.471,0,0,1-2.618,1.923,7.851,7.851,0,0,0-3.511,1.567,13.9,13.9,0,0,0-3.49,4.973,6.214,6.214,0,0,0-.543,1.891,1.2,1.2,0,0,0,.748,1.383,3.136,3.136,0,0,0,2,.17,15.734,15.734,0,0,0,4.735-1.946,8.929,8.929,0,0,0,2.6-2.385,4.854,4.854,0,0,0,.615-5.123.7.7,0,0,1,.14-.828c1.1-1.282,2.2-2.56,3.194-3.935,1.949-2.69,3.957-5.333,5.747-8.136,1.7-2.667,3.447-5.306,4.9-8.122a7.73,7.73,0,0,0,.789-1.946c0-.057.024-.141,0-.165C532.2,207.2,532.156,207.261,532.127,207.322Z" transform="translate(-413.827 -190.439)"/><path class="c" d="M241.283,359.723c0-.923.02-1.847-.009-2.77-.014-.449.109-.65.592-.619a11.222,11.222,0,0,1,3.09.238,3.328,3.328,0,0,1-.1,6.257,11.447,11.447,0,0,1-3.22.223c-.353.019-.357-.23-.354-.494C241.288,361.614,241.283,360.669,241.283,359.723Zm.977-.042c0,.418-.009.836,0,1.253.036,1.431-.3,1.255,1.328,1.233a2.336,2.336,0,0,0,2.484-2.433,2.362,2.362,0,0,0-2.525-2.531c-.265-.007-.532.016-.8-.005-.383-.03-.505.145-.5.5C242.272,358.362,242.261,359.022,242.26,359.682Z" transform="translate(-219.441 -300.804)"/><path class="c" d="M461.611,362.721a3.257,3.257,0,0,1-3.324-2.238,3.736,3.736,0,0,1,1.047-4.031,3.573,3.573,0,0,1,4.156-.179c.2.142.613.251.34.624a.6.6,0,0,1-.915.145,2.256,2.256,0,0,0-2.923.14,2.929,2.929,0,0,0-.541,3.356,2.3,2.3,0,0,0,2.523,1.29,1.927,1.927,0,0,0,1.118-.535c.326-.319.579-.133.8.077.277.263-.018.431-.178.587A2.636,2.636,0,0,1,461.611,362.721Z" transform="translate(-378.61 -300.332)"/><path class="c" d="M632.425,371.167c-.328.005-.606,0-.576-.347.021-.238.029-.494.436-.526a1.333,1.333,0,0,0,.952-1.843c-.483-1.131-.962-2.264-1.429-3.4-.087-.213-.362-.515.056-.648a.612.612,0,0,1,.867.361c.25.7.507,1.4.784,2.094.082.2.091.529.426.5.287-.021.273-.319.342-.507.243-.659.482-1.322.671-2a.581.581,0,0,1,.662-.491c.354.008.482.126.339.49-.49,1.247-.959,2.5-1.443,3.753-.214.553-.418,1.113-.675,1.647A1.46,1.46,0,0,1,632.425,371.167Z" transform="translate(-506.01 -306.699)"/><path class="c" d="M337.467,371.157c-.275,0-.54,0-.535-.4,0-.328.129-.438.474-.467a1.334,1.334,0,0,0,.885-1.844c-.464-1.138-1.045-2.228-1.4-3.41-.063-.211-.422-.489.014-.638.373-.128.791-.078.9.4.134.585.431,1.1.61,1.667a5.209,5.209,0,0,0,.218.552c.068.153.1.356.34.338s.265-.215.321-.372c.243-.684.47-1.373.71-2.058a1.1,1.1,0,0,1,.223-.463.649.649,0,0,1,.694-.054c.284.124.094.344.042.51-.57,1.8-1.35,3.528-2.04,5.285A1.436,1.436,0,0,1,337.467,371.157Z" transform="translate(-289.491 -306.691)"/><path class="c" d="M296.711,367.027c0,.373-.005.747,0,1.12.009.542-.294.789-.7.485-.331-.245-.5-.149-.807-.008a1.78,1.78,0,0,1-1.939-.156,1.253,1.253,0,0,1,.283-2.187,3.761,3.761,0,0,1,1.672-.335c.2.008.487.093.536-.225a.591.591,0,0,0-.336-.6,1.451,1.451,0,0,0-1.575.076c-.4.256-.578.049-.725-.206-.161-.281.056-.488.293-.608a2.738,2.738,0,0,1,2.237-.218,1.607,1.607,0,0,1,1.024,1.608c.035.415.006.835.006,1.253Zm-1.554-.4a2.623,2.623,0,0,0-1.069.236.6.6,0,0,0-.39.624.638.638,0,0,0,.508.541,1.219,1.219,0,0,0,1.513-.72C295.909,366.812,295.783,366.631,295.157,366.629Z" transform="translate(-257.224 -306.458)"/><path class="c" d="M161.319,356.331c.531,0,1.064.025,1.593-.008.469-.029.592.189.528.591a2.324,2.324,0,0,1-.136.571c-.764,1.727-1.556,3.443-2.3,5.178-.228.53-.648.435-1,.353-.408-.1-.1-.4-.02-.572.679-1.5,1.38-2.995,2.068-4.493.305-.664.257-.733-.494-.741-.575-.006-1.151,0-1.726,0-.333,0-.666.078-.667-.46,0-.586.4-.4.692-.414C160.345,356.317,160.832,356.331,161.319,356.331Z" transform="translate(-159.167 -300.793)"/><path class="c" d="M382.47,368.843a2.073,2.073,0,0,1-1.425-.434c-.159-.125-.444-.264-.212-.511.173-.184.379-.488.718-.19a1.273,1.273,0,0,0,1.221.341c.266-.072.509-.192.509-.521a.516.516,0,0,0-.426-.516c-.38-.116-.76-.231-1.136-.361a1.094,1.094,0,0,1-.814-1.014,1.308,1.308,0,0,1,.612-1.3,2.286,2.286,0,0,1,2.328.092c.243.174.4.386.186.658-.171.221-.373.458-.7.156a1.122,1.122,0,0,0-.93-.261c-.276.031-.536.124-.568.448-.028.291.186.43.424.516.269.1.546.177.819.263.851.269,1.277.753,1.189,1.352a1.5,1.5,0,0,1-1.6,1.28C382.6,368.846,382.536,368.844,382.47,368.843Z" transform="translate(-321.829 -306.492)"/><path class="c" d="M513.742,366.761c0,.55.008,1.1,0,1.649,0,.183.133.435-.106.535a.581.581,0,0,1-.682-.068c-.221-.25-.391-.165-.629-.034a1.594,1.594,0,0,1-2.522-1.323c-.06-.9-.005-1.8-.02-2.7-.006-.335.168-.4.452-.414s.477.046.479.38c.005.747.018,1.493.029,2.24.014.9.261,1.23.918,1.245a1.119,1.119,0,0,0,1.144-1.19c.043-.7.022-1.407.014-2.11,0-.318.02-.557.438-.57.45-.015.5.227.493.582C513.731,365.573,513.742,366.167,513.742,366.761Zm-.146-.01c0-.548,0-1.1,0-1.644,0-.2-.024-.433-.289-.43-.311,0-.22.274-.224.45-.019.722.033,1.451-.055,2.164-.052.422-.487.81.041,1.225.084.065.014.326.238.312.266-.017.29-.226.291-.433C513.6,367.846,513.6,367.3,513.6,366.751Zm-1.344,1.771c-1.537-.137-1.827-.459-1.828-1.935,0-.5.005-1.01,0-1.514,0-.161.052-.4-.219-.387-.213.01-.178.218-.179.364,0,.856-.024,1.713.008,2.567a1.227,1.227,0,0,0,.889,1.188A1.133,1.133,0,0,0,512.252,368.522Z" transform="translate(-416.546 -306.736)"/><path class="c" d="M594.515,366.54a12.791,12.791,0,0,0-.087-1.934c-.086-.454.312-.805.659-.553.485.352.8.087,1.2-.065.219-.085.466-.221.678-.006.172.175.1.411.091.629-.008.269-.163.289-.388.316-.9.108-1.175.431-1.184,1.34-.007.594-.01,1.188.023,1.781.022.4-.13.544-.528.563-.414.019-.479-.174-.465-.516C594.529,367.611,594.515,367.127,594.515,366.54Z" transform="translate(-478.685 -306.346)"/><path class="c" d="M556.191,366.369c0-.594,0-1.188,0-1.782,0-.191-.053-.426.214-.491.212-.052.472-.118.605.114.2.349.368.154.581.03A3.979,3.979,0,0,1,558.2,364c.328-.123.587-.084.605.328.014.31.111.645-.45.663-.8.026-1.139.428-1.16,1.231q-.025.958.009,1.916c.013.366-.117.512-.493.526-.392.014-.5-.145-.485-.506.022-.594.006-1.189.006-1.784Z" transform="translate(-450.623 -306.396)"/><path class="a" d="M348.254,211.975a2.72,2.72,0,0,1-.549,1.334c-2.018,3.023-4.4,5.763-6.7,8.57s-4.749,5.434-7.246,8.045a28.143,28.143,0,0,1-2.944,2.9c-.229.179-.2.412-.206.654a14.82,14.82,0,0,1-.069,2.566,9.561,9.561,0,0,1-3.662,5.6,11.636,11.636,0,0,1-4.305,2.043,3.334,3.334,0,0,1-1.892-.043,1.8,1.8,0,0,1-1.073-2.266,11.349,11.349,0,0,1,4.5-6.823,4.547,4.547,0,0,1,1.944-.783c.833-.139,1.607-.468,2.422-.646a2.3,2.3,0,0,0,1.428-1.051c2.2-3.146,4.759-6.006,7.261-8.914,2.352-2.734,4.906-5.271,7.39-7.879a32.468,32.468,0,0,1,3.009-2.823C347.778,212.287,348.021,212.138,348.254,211.975Z" transform="translate(-276.897 -194.616)"/><path class="a" d="M534.237,210.277a7.735,7.735,0,0,1-.789,1.946c-1.45,2.816-3.194,5.455-4.9,8.122-1.789,2.8-3.8,5.446-5.747,8.136-1,1.375-2.093,2.654-3.195,3.935a.7.7,0,0,0-.14.828,4.853,4.853,0,0,1-.615,5.123,8.928,8.928,0,0,1-2.6,2.385,15.731,15.731,0,0,1-4.735,1.946,3.136,3.136,0,0,1-2-.17,1.2,1.2,0,0,1-.748-1.383,6.214,6.214,0,0,1,.543-1.891,13.9,13.9,0,0,1,3.49-4.973,7.851,7.851,0,0,1,3.511-1.567,3.471,3.471,0,0,0,2.618-1.923,91.708,91.708,0,0,1,5.684-8.947c1.856-2.763,4.018-5.283,6-7.944a29.357,29.357,0,0,1,2.753-3.172,6.2,6.2,0,0,1,.733-.551Z" transform="translate(-415.796 -193.294)"/><path class="a" d="M604.075,209.938c.029-.06.078-.117.138-.066.028.024,0,.109,0,.165Z" transform="translate(-485.776 -193.055)"/><path class="a" d="M244.976,362.086c0-.66.011-1.319,0-1.979-.008-.358.114-.534.5-.5.264.021.53,0,.8.005a2.362,2.362,0,0,1,2.525,2.531,2.337,2.337,0,0,1-2.484,2.433c-1.624.021-1.292.2-1.328-1.234C244.966,362.922,244.975,362.5,244.976,362.086Z" transform="translate(-222.156 -303.208)"/><path class="a" d="M297.789,373.891c.626,0,.752.183.562.681a1.219,1.219,0,0,1-1.513.72.638.638,0,0,1-.508-.541.6.6,0,0,1,.39-.624A2.622,2.622,0,0,1,297.789,373.891Z" transform="translate(-259.856 -313.72)"/><path class="b" d="M521.981,367.531c0,.548,0,1.1,0,1.643,0,.207-.025.416-.291.433-.223.014-.154-.246-.237-.312-.528-.414-.093-.8-.041-1.224.088-.713.036-1.442.055-2.164,0-.176-.086-.446.224-.45.265,0,.288.226.289.43C521.983,366.435,521.981,366.983,521.981,367.531Z" transform="translate(-424.932 -307.516)"/><path class="b" d="M512.918,369.322a1.133,1.133,0,0,1-1.333.282,1.228,1.228,0,0,1-.889-1.188c-.032-.855-.012-1.712-.008-2.567,0-.146-.034-.353.179-.364.271-.013.216.227.219.387.009.5,0,1.01,0,1.514C511.091,368.863,511.381,369.185,512.918,369.322Z" transform="translate(-417.213 -307.537)"/></g><g transform="translate(577 45)"><path class="a" d="M244.993,162.024c1-1.263,1.958-2.371,2.816-3.554,1.073-1.479,2.224-2.9,3.334-4.355,1.747-2.286,3.133-4.842,5.225-6.87a1.066,1.066,0,0,0,.233-.459c.048-.163.089-.36-.143-.445-.193-.071-.237.093-.348.2a33.1,33.1,0,0,0-4.265,5.361c-2.376,3.413-4.955,6.677-7.6,9.886a1.006,1.006,0,0,1-.79.383c-2.007.128-4.014.285-6.022.388-5.079.262-10.161.463-15.237.794-3.577.233-7.156.418-10.743.42-.2,0-.5-.116-.519.219-.014.291.274.374.506.429a2.483,2.483,0,0,0,.53.02c3.256.044,6.5-.163,9.75-.369,4.238-.268,8.482-.447,12.723-.674,2.165-.116,4.328-.264,6.493-.375.726-.037,1.456-.006,2.208-.006-1.053,1.458-2.306,2.727-3.45,4.082-2.186,2.589-4.605,4.976-6.783,7.58-2.146,2.566-4.526,4.928-6.645,7.523-1.339,1.639-2.8,3.175-4.217,4.754a41.64,41.64,0,0,0-3.3,4.11c-.161.234-.346.553.009.741.293.155.443-.137.6-.356.595-.814,1.177-1.64,1.822-2.413,2.158-2.589,4.5-5.019,6.652-7.614,2.178-2.626,4.544-5.092,6.8-7.658,3.066-3.5,6.262-6.878,9.229-10.461a1.531,1.531,0,0,1,1.187-.586c1.9-.115,3.795-.263,5.689-.428,3.238-.282,6.471-.624,9.711-.87,3.374-.256,6.745-.545,10.126-.721,4.108-.214,8.213-.5,12.319-.743q3.247-.2,6.494-.377c1.245-.068,2.492-.119,3.851-.183-.139.179-.2.262-.267.345-1.9,2.48-3.916,4.865-5.777,7.376-1.937,2.613-4.067,5.079-6.007,7.694-2.107,2.841-4.349,5.582-6.5,8.4a56.484,56.484,0,0,1-4.928,5.939,1.25,1.25,0,0,0-.334.478c-.088.254-.131.473.122.641a.429.429,0,0,0,.592-.12c.262-.291.5-.608.744-.911,2.061-2.508,4.127-5.01,6.048-7.632s4.085-5.1,6-7.757c1.838-2.544,3.931-4.891,5.793-7.421,1.73-2.351,3.632-4.576,5.456-6.858a.576.576,0,0,1,.482-.283c.611,0,1.213-.129,1.816-.182,2.732-.239,5.47-.41,8.206-.6,2.778-.2,5.555-.4,8.309-.824a4.5,4.5,0,0,0,2.057-.664c.131-.1.366-.206.288-.394-.1-.232-.347-.126-.519-.071a16.232,16.232,0,0,1-3.043.593c-4.327.521-8.677.78-13.024,1.057a26.48,26.48,0,0,1-3.631.155,1.946,1.946,0,0,1,.122-.223c2.035-2.586,4.043-5.2,6.265-7.63a1.147,1.147,0,0,0,.315-.415.43.43,0,0,0-.148-.527c-.2-.145-.286.035-.426.15a12.825,12.825,0,0,0-1.978,2.1c-1.663,2.139-3.4,4.222-5.1,6.335a.932.932,0,0,1-.723.369c-3.67.3-7.351.412-11.022.732-5.09.443-10.2.626-15.3.964-3.42.227-6.835.516-10.251.8-2.688.224-5.372.492-8.059.728C247.593,161.842,246.369,161.921,244.993,162.024Z" transform="translate(-197.165 -146.325)"/><path class="a" d="M320.035,242.044a3.853,3.853,0,0,0,.52-.07,12.012,12.012,0,0,0,5.485-2.769c2.3-2.117,3.707-4.61,3.392-7.838a.914.914,0,0,1,.327-.8c1.14-1.128,2.251-2.281,3.327-3.474,2.3-2.549,4.683-5.019,6.856-7.685a67.1,67.1,0,0,0,6.682-8.982,4.623,4.623,0,0,0,.529-1.06.681.681,0,0,0-.133-.676.56.56,0,0,0-.684-.041,8.143,8.143,0,0,0-1.161.754,45.783,45.783,0,0,0-4.326,3.964c-2.214,2.3-4.452,4.567-6.51,7.012-2.521,2.994-5.158,5.893-7.432,9.086a.932.932,0,0,1-.57.4c-.9.223-1.789.471-2.687.693a5.744,5.744,0,0,0-2.089.952,12.082,12.082,0,0,0-3.9,4.891,16.656,16.656,0,0,0-.664,1.992C316.392,240.4,317.493,242.066,320.035,242.044Z" transform="translate(-274.91 -192.096)"/><path class="a" d="M508.879,240.705a3.9,3.9,0,0,0,1.05-.126,17.264,17.264,0,0,0,4.917-2.077,9.119,9.119,0,0,0,3.536-3.92,4.818,4.818,0,0,0,0-4.081.756.756,0,0,1,.182-.782c1.082-1.329,2.151-2.667,3.156-4.058,1.929-2.671,3.933-5.284,5.687-8.081a73.231,73.231,0,0,0,4.477-7.5,14.271,14.271,0,0,0,1.159-2.862.708.708,0,0,0-.245-.823.682.682,0,0,0-.8.1,6.319,6.319,0,0,0-.989.77,42,42,0,0,0-3.448,3.791c-1.979,2.53-3.926,5.077-5.73,7.737-2,2.947-4.01,5.884-5.766,8.981a2.713,2.713,0,0,1-2.065,1.417,7.541,7.541,0,0,0-3.462,1.552,14.034,14.034,0,0,0-4.23,6.477,3.329,3.329,0,0,0-.145,1.95C506.4,240.13,507.492,240.728,508.879,240.705Z" transform="translate(-413.827 -190.439)"/><path class="a" d="M241.283,359.723c0,.945,0,1.891,0,2.836,0,.264,0,.513.354.494a11.447,11.447,0,0,0,3.22-.223,3.328,3.328,0,0,0,.1-6.257,11.222,11.222,0,0,0-3.09-.238c-.483-.032-.606.17-.592.619C241.3,357.876,241.283,358.8,241.283,359.723Z" transform="translate(-219.441 -300.804)"/><path class="a" d="M461.611,362.721a2.636,2.636,0,0,0,2.1-.764c.161-.156.455-.324.178-.587-.221-.21-.474-.4-.8-.077a1.927,1.927,0,0,1-1.118.535,2.3,2.3,0,0,1-2.523-1.29,2.929,2.929,0,0,1,.541-3.356,2.256,2.256,0,0,1,2.923-.14.6.6,0,0,0,.915-.145c.273-.373-.139-.481-.34-.624a3.573,3.573,0,0,0-4.156.179,3.736,3.736,0,0,0-1.047,4.031A3.257,3.257,0,0,0,461.611,362.721Z" transform="translate(-378.61 -300.332)"/><path class="a" d="M632.425,371.167a1.46,1.46,0,0,0,1.41-.914c.257-.534.46-1.094.675-1.647.484-1.25.953-2.505,1.443-3.753.143-.364.015-.481-.339-.49a.581.581,0,0,0-.662.491c-.189.676-.428,1.338-.671,2-.069.188-.054.486-.342.507-.335.025-.344-.3-.426-.5-.276-.692-.533-1.392-.784-2.094a.612.612,0,0,0-.867-.361c-.418.133-.143.435-.056.648.467,1.138.946,2.27,1.429,3.4a1.333,1.333,0,0,1-.952,1.843c-.407.032-.415.288-.436.526C631.818,371.165,632.1,371.172,632.425,371.167Z" transform="translate(-506.01 -306.699)"/><path class="a" d="M337.467,371.157a1.436,1.436,0,0,0,1.461-.952c.69-1.758,1.47-3.482,2.04-5.285.052-.165.242-.386-.042-.51a.649.649,0,0,0-.694.054,1.1,1.1,0,0,0-.223.463c-.24.685-.467,1.374-.71,2.058-.056.157-.092.354-.321.372s-.271-.185-.34-.338a5.209,5.209,0,0,1-.218-.552c-.179-.564-.477-1.082-.61-1.667-.11-.482-.528-.531-.9-.4-.437.149-.077.427-.014.638.352,1.182.933,2.273,1.4,3.41a1.334,1.334,0,0,1-.885,1.844c-.345.03-.469.139-.474.467C336.926,371.152,337.192,371.153,337.467,371.157Z" transform="translate(-289.491 -306.691)"/><path class="a" d="M296.711,367.027h-.033c0-.418.028-.838-.006-1.253a1.607,1.607,0,0,0-1.024-1.608,2.738,2.738,0,0,0-2.237.218c-.237.12-.454.328-.293.608.146.255.329.462.725.206a1.451,1.451,0,0,1,1.575-.076.591.591,0,0,1,.336.6c-.048.318-.337.233-.536.225a3.761,3.761,0,0,0-1.672.335,1.253,1.253,0,0,0-.283,2.187,1.78,1.78,0,0,0,1.939.156c.3-.141.476-.237.807.008.41.3.713.057.7-.485C296.706,367.774,296.711,367.4,296.711,367.027Z" transform="translate(-257.224 -306.458)"/><path class="a" d="M161.319,356.331c-.487,0-.974-.013-1.46,0-.291.011-.692-.172-.692.414,0,.537.335.462.667.46.575,0,1.151-.006,1.726,0,.752.008.8.076.494.741-.688,1.5-1.389,2.991-2.068,4.493-.079.175-.388.476.02.572.348.082.768.177,1-.353.745-1.735,1.536-3.451,2.3-5.178a2.324,2.324,0,0,0,.136-.571c.064-.4-.059-.62-.528-.591C162.383,356.356,161.85,356.33,161.319,356.331Z" transform="translate(-159.167 -300.793)"/><path class="a" d="M382.47,368.844c.066,0,.133,0,.2,0a1.5,1.5,0,0,0,1.6-1.28c.088-.6-.338-1.083-1.189-1.352-.273-.086-.55-.165-.819-.263-.238-.087-.453-.225-.424-.516.032-.325.292-.417.568-.448a1.122,1.122,0,0,1,.93.261c.324.3.526.065.7-.156.211-.272.057-.484-.186-.658a2.286,2.286,0,0,0-2.328-.092,1.308,1.308,0,0,0-.612,1.3,1.094,1.094,0,0,0,.814,1.014c.375.13.756.245,1.136.361a.516.516,0,0,1,.426.516c0,.329-.243.449-.509.521a1.273,1.273,0,0,1-1.221-.341c-.34-.3-.545.006-.718.19-.232.247.053.386.212.511A2.079,2.079,0,0,0,382.47,368.844Z" transform="translate(-321.829 -306.492)"/><path class="a" d="M513.742,366.761c0-.594-.011-1.188,0-1.781.009-.355-.043-.6-.493-.582-.419.013-.442.252-.438.57.009.7.029,1.409-.014,2.11a1.119,1.119,0,0,1-1.144,1.19c-.656-.015-.9-.348-.918-1.245-.012-.747-.024-1.493-.029-2.24,0-.333-.193-.391-.479-.38s-.458.078-.452.414c.015.9-.04,1.806.02,2.7a1.594,1.594,0,0,0,2.522,1.323c.237-.131.408-.215.629.034a.581.581,0,0,0,.682.068c.24-.1.1-.352.106-.535C513.75,367.861,513.742,367.311,513.742,366.761Z" transform="translate(-416.546 -306.736)"/><path class="a" d="M594.515,366.54c0,.587.015,1.071-.005,1.554-.014.343.051.536.465.516.4-.019.551-.16.528-.563-.033-.592-.029-1.187-.023-1.781.01-.909.289-1.232,1.184-1.34.225-.027.38-.047.388-.316.006-.218.081-.454-.091-.629-.212-.215-.46-.079-.678.006-.392.151-.711.417-1.2.065-.347-.252-.745.1-.659.553A12.791,12.791,0,0,1,594.515,366.54Z" transform="translate(-478.685 -306.346)"/><path class="a" d="M556.191,366.369h.044c0,.595.016,1.19-.006,1.784-.013.361.093.52.485.506.376-.014.506-.159.493-.526q-.035-.957-.009-1.916c.021-.8.36-1.206,1.16-1.231.561-.018.464-.353.45-.663-.018-.411-.277-.451-.605-.328a3.979,3.979,0,0,0-.609.244c-.213.124-.381.319-.581-.03-.133-.232-.393-.166-.605-.114-.267.065-.212.3-.214.491C556.188,365.181,556.191,365.775,556.191,366.369Z" transform="translate(-450.623 -306.396)"/><path class="b" d="M244.993,162.024c1.376-.1,2.6-.182,3.82-.29,2.687-.236,5.371-.5,8.059-.728,3.416-.285,6.831-.574,10.251-.8,5.1-.338,10.213-.52,15.3-.964,3.671-.32,7.352-.43,11.022-.732a.932.932,0,0,0,.723-.369c1.7-2.112,3.435-4.2,5.1-6.335a12.825,12.825,0,0,1,1.978-2.1c.14-.115.225-.295.426-.15a.43.43,0,0,1,.148.527,1.147,1.147,0,0,1-.315.415c-2.222,2.434-4.23,5.043-6.265,7.63a1.946,1.946,0,0,0-.122.223,26.48,26.48,0,0,0,3.631-.155c4.347-.277,8.7-.536,13.024-1.057a16.232,16.232,0,0,0,3.043-.593c.172-.055.422-.162.519.071.079.188-.156.3-.288.394a4.5,4.5,0,0,1-2.057.664c-2.754.426-5.531.628-8.309.824-2.736.193-5.474.364-8.206.6-.6.053-1.205.184-1.816.182a.576.576,0,0,0-.482.283c-1.823,2.282-3.726,4.507-5.456,6.858-1.862,2.53-3.956,4.877-5.793,7.421-1.915,2.652-4.069,5.121-6,7.757s-3.986,5.124-6.048,7.632c-.249.3-.482.62-.744.911a.429.429,0,0,1-.592.12c-.253-.169-.21-.387-.122-.641a1.25,1.25,0,0,1,.334-.478,56.484,56.484,0,0,0,4.928-5.939c2.147-2.814,4.389-5.554,6.5-8.4,1.94-2.616,4.07-5.081,6.007-7.694,1.861-2.511,3.879-4.9,5.777-7.376.064-.084.129-.166.267-.345-1.359.064-2.605.115-3.851.183q-3.247.179-6.494.377c-4.106.248-8.211.53-12.319.743-3.381.176-6.752.465-10.126.721-3.24.246-6.473.588-9.711.87-1.895.165-3.791.313-5.689.428a1.531,1.531,0,0,0-1.187.586c-2.967,3.583-6.163,6.965-9.229,10.461-2.251,2.566-4.617,5.032-6.8,7.658-2.153,2.6-4.494,5.026-6.652,7.614-.645.773-1.227,1.6-1.822,2.413-.161.219-.311.511-.6.356-.355-.188-.17-.507-.009-.741a41.64,41.64,0,0,1,3.3-4.11c1.413-1.578,2.878-3.115,4.217-4.754,2.119-2.594,4.5-4.957,6.645-7.523,2.178-2.6,4.6-4.99,6.783-7.58,1.144-1.355,2.4-2.624,3.45-4.082-.752,0-1.482-.031-2.208.006-2.165.111-4.328.259-6.493.375-4.241.227-8.485.406-12.723.674-3.248.205-6.493.412-9.75.369a2.483,2.483,0,0,1-.53-.02c-.232-.055-.52-.137-.506-.429.015-.334.322-.218.519-.219,3.587,0,7.166-.186,10.743-.42,5.076-.332,10.158-.532,15.237-.794,2.009-.1,4.015-.26,6.022-.388a1.006,1.006,0,0,0,.79-.383c2.649-3.209,5.228-6.473,7.6-9.886a33.1,33.1,0,0,1,4.265-5.361c.111-.1.155-.269.348-.2.232.085.191.282.143.445a1.066,1.066,0,0,1-.233.459c-2.092,2.027-3.478,4.584-5.225,6.87-1.11,1.453-2.261,2.876-3.334,4.355C246.951,159.654,246,160.761,244.993,162.024Z" transform="translate(-197.165 -146.325)"/><path class="b" d="M320.035,242.044c-2.542.022-3.643-1.641-3.041-3.659a16.656,16.656,0,0,1,.664-1.992,12.082,12.082,0,0,1,3.9-4.891,5.744,5.744,0,0,1,2.089-.952c.9-.222,1.789-.47,2.687-.693a.932.932,0,0,0,.57-.4c2.274-3.193,4.911-6.091,7.432-9.086,2.058-2.445,4.3-4.713,6.51-7.012a45.783,45.783,0,0,1,4.326-3.964,8.143,8.143,0,0,1,1.161-.754.56.56,0,0,1,.684.041.681.681,0,0,1,.133.676,4.623,4.623,0,0,1-.529,1.06,67.1,67.1,0,0,1-6.682,8.982c-2.173,2.667-4.556,5.136-6.856,7.685-1.076,1.193-2.187,2.346-3.327,3.474a.914.914,0,0,0-.327.8c.315,3.228-1.092,5.721-3.392,7.838a12.012,12.012,0,0,1-5.485,2.769A3.853,3.853,0,0,1,320.035,242.044Zm26.233-32.589c-.232.163-.476.312-.7.491a32.476,32.476,0,0,0-3.009,2.823c-2.484,2.607-5.038,5.145-7.39,7.879-2.5,2.908-5.057,5.768-7.26,8.914a2.3,2.3,0,0,1-1.428,1.051c-.815.178-1.589.507-2.422.646a4.546,4.546,0,0,0-1.944.783,11.349,11.349,0,0,0-4.5,6.823,1.8,1.8,0,0,0,1.073,2.266,3.334,3.334,0,0,0,1.892.043,11.638,11.638,0,0,0,4.305-2.043,9.562,9.562,0,0,0,3.662-5.6,14.823,14.823,0,0,0,.069-2.566c.006-.242-.024-.475.206-.654a28.122,28.122,0,0,0,2.944-2.9c2.5-2.611,4.955-5.25,7.246-8.045s4.683-5.547,6.7-8.57A2.721,2.721,0,0,0,346.267,209.455Z" transform="translate(-274.91 -192.096)"/><path class="b" d="M508.879,240.706c-1.387.022-2.475-.576-2.725-1.534a3.329,3.329,0,0,1,.145-1.95,14.034,14.034,0,0,1,4.23-6.477,7.541,7.541,0,0,1,3.462-1.552,2.713,2.713,0,0,0,2.065-1.417c1.756-3.1,3.768-6.034,5.766-8.981,1.8-2.66,3.751-5.207,5.73-7.737A42,42,0,0,1,531,207.266a6.319,6.319,0,0,1,.989-.77.682.682,0,0,1,.8-.1.708.708,0,0,1,.245.823,14.271,14.271,0,0,1-1.159,2.862,73.231,73.231,0,0,1-4.477,7.5c-1.753,2.8-3.757,5.411-5.687,8.081-1.005,1.392-2.074,2.729-3.156,4.058a.756.756,0,0,0-.182.782,4.818,4.818,0,0,1,0,4.081,9.119,9.119,0,0,1-3.536,3.92,17.264,17.264,0,0,1-4.917,2.077A3.923,3.923,0,0,1,508.879,240.706Zm23.247-33.384a6.2,6.2,0,0,0-.732.551,29.351,29.351,0,0,0-2.753,3.172c-1.98,2.661-4.142,5.181-6,7.944a91.685,91.685,0,0,0-5.684,8.947,3.471,3.471,0,0,1-2.618,1.923,7.851,7.851,0,0,0-3.511,1.567,13.9,13.9,0,0,0-3.49,4.973,6.214,6.214,0,0,0-.543,1.891,1.2,1.2,0,0,0,.748,1.383,3.136,3.136,0,0,0,2,.17,15.734,15.734,0,0,0,4.735-1.946,8.929,8.929,0,0,0,2.6-2.385,4.854,4.854,0,0,0,.615-5.123.7.7,0,0,1,.14-.828c1.1-1.282,2.2-2.56,3.194-3.935,1.949-2.69,3.957-5.333,5.747-8.136,1.7-2.667,3.447-5.306,4.9-8.122a7.73,7.73,0,0,0,.789-1.946c0-.057.024-.141,0-.165C532.2,207.2,532.156,207.261,532.127,207.322Z" transform="translate(-413.827 -190.439)"/><path class="c" d="M241.283,359.723c0-.923.02-1.847-.009-2.77-.014-.449.109-.65.592-.619a11.222,11.222,0,0,1,3.09.238,3.328,3.328,0,0,1-.1,6.257,11.447,11.447,0,0,1-3.22.223c-.353.019-.357-.23-.354-.494C241.288,361.614,241.283,360.669,241.283,359.723Zm.977-.042c0,.418-.009.836,0,1.253.036,1.431-.3,1.255,1.328,1.233a2.336,2.336,0,0,0,2.484-2.433,2.362,2.362,0,0,0-2.525-2.531c-.265-.007-.532.016-.8-.005-.383-.03-.505.145-.5.5C242.272,358.362,242.261,359.022,242.26,359.682Z" transform="translate(-219.441 -300.804)"/><path class="c" d="M461.611,362.721a3.257,3.257,0,0,1-3.324-2.238,3.736,3.736,0,0,1,1.047-4.031,3.573,3.573,0,0,1,4.156-.179c.2.142.613.251.34.624a.6.6,0,0,1-.915.145,2.256,2.256,0,0,0-2.923.14,2.929,2.929,0,0,0-.541,3.356,2.3,2.3,0,0,0,2.523,1.29,1.927,1.927,0,0,0,1.118-.535c.326-.319.579-.133.8.077.277.263-.018.431-.178.587A2.636,2.636,0,0,1,461.611,362.721Z" transform="translate(-378.61 -300.332)"/><path class="c" d="M632.425,371.167c-.328.005-.606,0-.576-.347.021-.238.029-.494.436-.526a1.333,1.333,0,0,0,.952-1.843c-.483-1.131-.962-2.264-1.429-3.4-.087-.213-.362-.515.056-.648a.612.612,0,0,1,.867.361c.25.7.507,1.4.784,2.094.082.2.091.529.426.5.287-.021.273-.319.342-.507.243-.659.482-1.322.671-2a.581.581,0,0,1,.662-.491c.354.008.482.126.339.49-.49,1.247-.959,2.5-1.443,3.753-.214.553-.418,1.113-.675,1.647A1.46,1.46,0,0,1,632.425,371.167Z" transform="translate(-506.01 -306.699)"/><path class="c" d="M337.467,371.157c-.275,0-.54,0-.535-.4,0-.328.129-.438.474-.467a1.334,1.334,0,0,0,.885-1.844c-.464-1.138-1.045-2.228-1.4-3.41-.063-.211-.422-.489.014-.638.373-.128.791-.078.9.4.134.585.431,1.1.61,1.667a5.209,5.209,0,0,0,.218.552c.068.153.1.356.34.338s.265-.215.321-.372c.243-.684.47-1.373.71-2.058a1.1,1.1,0,0,1,.223-.463.649.649,0,0,1,.694-.054c.284.124.094.344.042.51-.57,1.8-1.35,3.528-2.04,5.285A1.436,1.436,0,0,1,337.467,371.157Z" transform="translate(-289.491 -306.691)"/><path class="c" d="M296.711,367.027c0,.373-.005.747,0,1.12.009.542-.294.789-.7.485-.331-.245-.5-.149-.807-.008a1.78,1.78,0,0,1-1.939-.156,1.253,1.253,0,0,1,.283-2.187,3.761,3.761,0,0,1,1.672-.335c.2.008.487.093.536-.225a.591.591,0,0,0-.336-.6,1.451,1.451,0,0,0-1.575.076c-.4.256-.578.049-.725-.206-.161-.281.056-.488.293-.608a2.738,2.738,0,0,1,2.237-.218,1.607,1.607,0,0,1,1.024,1.608c.035.415.006.835.006,1.253Zm-1.554-.4a2.623,2.623,0,0,0-1.069.236.6.6,0,0,0-.39.624.638.638,0,0,0,.508.541,1.219,1.219,0,0,0,1.513-.72C295.909,366.812,295.783,366.631,295.157,366.629Z" transform="translate(-257.224 -306.458)"/><path class="c" d="M161.319,356.331c.531,0,1.064.025,1.593-.008.469-.029.592.189.528.591a2.324,2.324,0,0,1-.136.571c-.764,1.727-1.556,3.443-2.3,5.178-.228.53-.648.435-1,.353-.408-.1-.1-.4-.02-.572.679-1.5,1.38-2.995,2.068-4.493.305-.664.257-.733-.494-.741-.575-.006-1.151,0-1.726,0-.333,0-.666.078-.667-.46,0-.586.4-.4.692-.414C160.345,356.317,160.832,356.331,161.319,356.331Z" transform="translate(-159.167 -300.793)"/><path class="c" d="M382.47,368.843a2.073,2.073,0,0,1-1.425-.434c-.159-.125-.444-.264-.212-.511.173-.184.379-.488.718-.19a1.273,1.273,0,0,0,1.221.341c.266-.072.509-.192.509-.521a.516.516,0,0,0-.426-.516c-.38-.116-.76-.231-1.136-.361a1.094,1.094,0,0,1-.814-1.014,1.308,1.308,0,0,1,.612-1.3,2.286,2.286,0,0,1,2.328.092c.243.174.4.386.186.658-.171.221-.373.458-.7.156a1.122,1.122,0,0,0-.93-.261c-.276.031-.536.124-.568.448-.028.291.186.43.424.516.269.1.546.177.819.263.851.269,1.277.753,1.189,1.352a1.5,1.5,0,0,1-1.6,1.28C382.6,368.846,382.536,368.844,382.47,368.843Z" transform="translate(-321.829 -306.492)"/><path class="c" d="M513.742,366.761c0,.55.008,1.1,0,1.649,0,.183.133.435-.106.535a.581.581,0,0,1-.682-.068c-.221-.25-.391-.165-.629-.034a1.594,1.594,0,0,1-2.522-1.323c-.06-.9-.005-1.8-.02-2.7-.006-.335.168-.4.452-.414s.477.046.479.38c.005.747.018,1.493.029,2.24.014.9.261,1.23.918,1.245a1.119,1.119,0,0,0,1.144-1.19c.043-.7.022-1.407.014-2.11,0-.318.02-.557.438-.57.45-.015.5.227.493.582C513.731,365.573,513.742,366.167,513.742,366.761Zm-.146-.01c0-.548,0-1.1,0-1.644,0-.2-.024-.433-.289-.43-.311,0-.22.274-.224.45-.019.722.033,1.451-.055,2.164-.052.422-.487.81.041,1.225.084.065.014.326.238.312.266-.017.29-.226.291-.433C513.6,367.846,513.6,367.3,513.6,366.751Zm-1.344,1.771c-1.537-.137-1.827-.459-1.828-1.935,0-.5.005-1.01,0-1.514,0-.161.052-.4-.219-.387-.213.01-.178.218-.179.364,0,.856-.024,1.713.008,2.567a1.227,1.227,0,0,0,.889,1.188A1.133,1.133,0,0,0,512.252,368.522Z" transform="translate(-416.546 -306.736)"/><path class="c" d="M594.515,366.54a12.791,12.791,0,0,0-.087-1.934c-.086-.454.312-.805.659-.553.485.352.8.087,1.2-.065.219-.085.466-.221.678-.006.172.175.1.411.091.629-.008.269-.163.289-.388.316-.9.108-1.175.431-1.184,1.34-.007.594-.01,1.188.023,1.781.022.4-.13.544-.528.563-.414.019-.479-.174-.465-.516C594.529,367.611,594.515,367.127,594.515,366.54Z" transform="translate(-478.685 -306.346)"/><path class="c" d="M556.191,366.369c0-.594,0-1.188,0-1.782,0-.191-.053-.426.214-.491.212-.052.472-.118.605.114.2.349.368.154.581.03A3.979,3.979,0,0,1,558.2,364c.328-.123.587-.084.605.328.014.31.111.645-.45.663-.8.026-1.139.428-1.16,1.231q-.025.958.009,1.916c.013.366-.117.512-.493.526-.392.014-.5-.145-.485-.506.022-.594.006-1.189.006-1.784Z" transform="translate(-450.623 -306.396)"/><path class="a" d="M348.254,211.975a2.72,2.72,0,0,1-.549,1.334c-2.018,3.023-4.4,5.763-6.7,8.57s-4.749,5.434-7.246,8.045a28.143,28.143,0,0,1-2.944,2.9c-.229.179-.2.412-.206.654a14.82,14.82,0,0,1-.069,2.566,9.561,9.561,0,0,1-3.662,5.6,11.636,11.636,0,0,1-4.305,2.043,3.334,3.334,0,0,1-1.892-.043,1.8,1.8,0,0,1-1.073-2.266,11.349,11.349,0,0,1,4.5-6.823,4.547,4.547,0,0,1,1.944-.783c.833-.139,1.607-.468,2.422-.646a2.3,2.3,0,0,0,1.428-1.051c2.2-3.146,4.759-6.006,7.261-8.914,2.352-2.734,4.906-5.271,7.39-7.879a32.468,32.468,0,0,1,3.009-2.823C347.778,212.287,348.021,212.138,348.254,211.975Z" transform="translate(-276.897 -194.616)"/><path class="a" d="M534.237,210.277a7.735,7.735,0,0,1-.789,1.946c-1.45,2.816-3.194,5.455-4.9,8.122-1.789,2.8-3.8,5.446-5.747,8.136-1,1.375-2.093,2.654-3.195,3.935a.7.7,0,0,0-.14.828,4.853,4.853,0,0,1-.615,5.123,8.928,8.928,0,0,1-2.6,2.385,15.731,15.731,0,0,1-4.735,1.946,3.136,3.136,0,0,1-2-.17,1.2,1.2,0,0,1-.748-1.383,6.214,6.214,0,0,1,.543-1.891,13.9,13.9,0,0,1,3.49-4.973,7.851,7.851,0,0,1,3.511-1.567,3.471,3.471,0,0,0,2.618-1.923,91.708,91.708,0,0,1,5.684-8.947c1.856-2.763,4.018-5.283,6-7.944a29.357,29.357,0,0,1,2.753-3.172,6.2,6.2,0,0,1,.733-.551Z" transform="translate(-415.796 -193.294)"/><path class="a" d="M604.075,209.938c.029-.06.078-.117.138-.066.028.024,0,.109,0,.165Z" transform="translate(-485.776 -193.055)"/><path class="a" d="M244.976,362.086c0-.66.011-1.319,0-1.979-.008-.358.114-.534.5-.5.264.021.53,0,.8.005a2.362,2.362,0,0,1,2.525,2.531,2.337,2.337,0,0,1-2.484,2.433c-1.624.021-1.292.2-1.328-1.234C244.966,362.922,244.975,362.5,244.976,362.086Z" transform="translate(-222.156 -303.208)"/><path class="a" d="M297.789,373.891c.626,0,.752.183.562.681a1.219,1.219,0,0,1-1.513.72.638.638,0,0,1-.508-.541.6.6,0,0,1,.39-.624A2.622,2.622,0,0,1,297.789,373.891Z" transform="translate(-259.856 -313.72)"/><path class="b" d="M521.981,367.531c0,.548,0,1.1,0,1.643,0,.207-.025.416-.291.433-.223.014-.154-.246-.237-.312-.528-.414-.093-.8-.041-1.224.088-.713.036-1.442.055-2.164,0-.176-.086-.446.224-.45.265,0,.288.226.289.43C521.983,366.435,521.981,366.983,521.981,367.531Z" transform="translate(-424.932 -307.516)"/><path class="b" d="M512.918,369.322a1.133,1.133,0,0,1-1.333.282,1.228,1.228,0,0,1-.889-1.188c-.032-.855-.012-1.712-.008-2.567,0-.146-.034-.353.179-.364.271-.013.216.227.219.387.009.5,0,1.01,0,1.514C511.091,368.863,511.381,369.185,512.918,369.322Z" transform="translate(-417.213 -307.537)"/></g></g></svg>