<svg xmlns="http://www.w3.org/2000/svg" width="105.378" height="21.346" viewBox="0 0 105.378 21.346"><path d="M21.242-4.992a41.161,41.161,0,0,0-4.914-5.252,40.852,40.852,0,0,0,3.146-6.474c.364-.91.494-1.248.754-1.924.338-.13.494-.286.494-.468,0-.13-.13-.26-.312-.338l-2.7-1.066a27.318,27.318,0,0,1-3.562,8.45A44.034,44.034,0,0,0,7.722-16.3L6.24-14.17A43.014,43.014,0,0,1,12.558-9.8,23.2,23.2,0,0,1,9.62-6.552,34.007,34.007,0,0,1,2.652-1.43,6.874,6.874,0,0,1,4.394.832,34.575,34.575,0,0,0,14.69-7.93a40.3,40.3,0,0,1,4.342,4.992Zm30.394.286c-1.82.1-3.64.156-4.836.156H35.464c-1.43,0-3.146-.052-4.836-.156v3.068c1.69-.1,3.406-.156,4.836-.156H46.8c1.2,0,3.016.052,4.836.156ZM48.724-17.42c-1.4.1-2.73.13-3.822.13H37.336c-1.092,0-2.418-.026-3.822-.13V-14.4c1.56-.078,2.964-.13,3.822-.13H44.9c.858,0,2.262.052,3.822.13ZM70.85-4.134H63.362c-1.17,0-2.314-.026-3.484-.078v2.548c1.17-.052,2.314-.052,3.484-.052H75.036c1.092,0,2.418.026,3.484.052V-4.212c-1.4.052-2.418.078-3.484.078H73.528l.364-5.746c.1-1.664.182-2.288.338-3.562-.806.052-2.574.078-3.77.078H64.818c-.884,0-1.586-.026-2.236-.078v2.548c.832-.026,1.378-.026,2.236-.026h6.526Zm37.18-7.176c-1.118.052-2.964.078-4.16.078H90.662c-1.326,0-3.042-.026-4.134-.078v2.834c1.092-.052,2.808-.078,4.134-.078H103.87c1.2,0,3.042.026,4.16.078Z" transform="translate(-2.652 20.514)"/></svg>