<svg xmlns="http://www.w3.org/2000/svg" width="295.724" height="20.328" viewBox="0 0 295.724 20.328"><path d="M-147.939-16.72v2.442h7.92L-147.037,0h2.794l7.216-14.7V-16.72ZM-124.971-.242h8.932v1.1h2.222c-.044-.836-.066-2.024-.066-3.872V-13.486c0-1.32.022-2.816.066-3.5-.594.022-1.122.022-1.87.022h-9.636c-.748,0-1.276,0-1.87-.022.044.7.066,1.276.066,3.5v10.8c0,1.738-.022,3.036-.066,3.85h2.222Zm8.932-2.046h-8.932V-7.7h8.932Zm0-7.458h-8.932v-5.192h8.932Zm24.552-.99h4.378V-1.32c0,.748-.11.858-.88.858A15.8,15.8,0,0,1-89.661-.55a9.532,9.532,0,0,1,.418,2.332h.088c2,0,2.684-.11,3.3-.484.55-.352.748-.858.748-1.958A1.753,1.753,0,0,0-85.129-.9c-.022-1.76-.044-3.036-.044-3.872V-15.906c0-.7.044-1.562.066-1.958-.66.044-1.276.044-2.2.044h-3.74c-1.012,0-1.716,0-2.42-.044.044.4.066,1.254.066,1.958v3.564c0,1.034-.022,1.782-.066,2.288h1.98Zm4.378-1.694h-4.378v-1.078h4.378Zm0-2.618h-4.378v-1.078h4.378Zm-14.916,4.312h4.356v.682h2c-.044-.506-.066-1.254-.066-2.288v-3.564c0-.7.022-1.562.066-1.958-.726.044-1.43.044-2.442.044h-3.718c-.924,0-1.562,0-2.222-.044.044.4.066,1.254.066,1.958V-3.278c0,2.266-.022,3.894-.066,5.148h2.112c-.066-1.1-.088-2.816-.088-5.148Zm4.356-1.694h-4.356v-1.078h4.356Zm0-2.618h-4.356v-1.078h4.356ZM-96.877-1.1h4.686v.9h2.046c-.044-.506-.066-1.254-.066-2.288V-7.128c0-.7.044-1.562.066-1.958-.484.022-.946.044-1.584.044h-5.61c-.638,0-1.1-.022-1.584-.044.022.4.044,1.254.044,1.958v4.95c0,1.1,0,1.826-.044,2.354h2.046Zm4.686-1.848h-4.686V-4.136h4.686Zm0-3.036h-4.686v-1.21h4.686Zm22.55,3.52c-1.386.264-2.75.462-4.048.616l.814,2.09a.409.409,0,0,0,.308.264c.132,0,.264-.132.44-.44a78.6,78.6,0,0,0,8.25-1.98l-.308-1.8c-1.144.308-2.288.594-3.432.836V-5.038h1.386c.506,0,1.364.022,1.76.044V-6.93c-.4.022-1.254.044-1.76.044h-1.386c.022-1.32.022-1.342.022-1.716.308-.2.418-.308.418-.44s-.132-.2-.374-.22l-2.156-.154c.044.528.066,1.452.066,2.53h-1.474c-.506,0-1.364-.022-1.76-.044v1.936c.4-.022,1.254-.044,1.76-.044h1.474Zm8.162-6.248a18.553,18.553,0,0,1,2.222,2.288l1.3-1.87a13.089,13.089,0,0,0-3.52-2.948v-.66c0-3.96.022-4.906.022-5.676.308-.176.418-.286.418-.418,0-.11-.132-.2-.33-.22l-2.244-.154c.11.7.154,4.4.154,6.468v7.37c0,2.794-.044,4.884-.11,6.424h2.2c-.066-1.408-.11-3.542-.11-6.424Zm-15.18.924c-.88.286-1.782.572-2.684.836l.924,2.068c.066.176.176.264.308.264s.2-.088.286-.264l.132-.264c.352-.132.7-.264,1.034-.4v4.136c0,.814-.088.924-.814.924-.264,0-.836-.022-1.408-.044a14.647,14.647,0,0,1,.374,2.222c2.134-.022,2.684-.088,3.256-.44.506-.286.682-.726.682-1.65,0-.33,0-.462-.022-1.584-.022-.792-.044-3.432-.044-4.18V-6.4c.748-.352,1.562-.726,2.53-1.21l-.462-1.87c-.66.308-1.342.616-2.068.924v-3.41h.242c.506,0,1.364.022,1.76.044v-2.024c-.4.022-1.254.022-1.76.022h-.242c.022-2.97.022-3.058.022-3.718.308-.176.418-.286.418-.418,0-.11-.132-.2-.33-.22l-2.266-.154c.066.55.11,2.068.132,4.51h-.44c-.506,0-1.364,0-1.76-.022v2.024c.4-.022,1.254-.044,1.76-.044h.44Zm7.018-3.806H-71.4c-.506,0-1.364-.022-1.76-.044V-9.7c.4-.022,1.254-.044,1.76-.044h5.61c.506,0,1.342.022,1.738.044v-1.936c-.374.022-1.254.044-1.738.044h-1.826v-2.178h1.078c.506,0,1.364,0,1.76.022v-1.936c-.374.022-1.232.044-1.76.044h-1.078v-.132c0-1.056.022-1.408.022-1.826.308-.176.418-.286.418-.418s-.132-.2-.374-.22l-2.156-.154c.044.55.066,1.452.066,2.6v.154h-.946c-.528,0-1.386-.022-1.76-.044v1.936c.4-.022,1.254-.022,1.76-.022h.946Zm30.558,1.518c0,4.554-.484,6.512-1.98,8.052A10.05,10.05,0,0,1-43.549-.286a5.779,5.779,0,0,1,1.386,2A13.522,13.522,0,0,0-39.941.176a8.4,8.4,0,0,0,2.728-4.752,42.148,42.148,0,0,0,.352-6.138A32.582,32.582,0,0,0-32.7-11.22l-.264-2.31A25.71,25.71,0,0,1-36.861-13l-.044-3.652c.374-.2.462-.308.462-.484s-.176-.286-.418-.308l-2.42-.132c.066.66.066,1.034.088,1.584.044,2.156.066,2.486.088,3.1-1.166.066-2.178.11-2.97.11a22.026,22.026,0,0,1-3.63-.11v2.376c.968.022,2.31.044,2.9.044,1.21,0,2.2-.044,3.718-.132Zm-11.44-7.436c-.066.572-.132,1.166-.242,1.848a44.755,44.755,0,0,0-.814,8.536A43.352,43.352,0,0,0-50.963.528,9.675,9.675,0,0,1-48.631-.11a42.43,42.43,0,0,1-.66-7.656,41.9,41.9,0,0,1,.99-8.492c.418-.176.528-.286.528-.462,0-.154-.132-.286-.352-.33Zm24.838,4.972c.968-.242,3.388-.572,11.418-1.518C-18.029-11.7-19.635-9.35-19.635-6.2A6.192,6.192,0,0,0-16.973-.858c1.518,1.078,3.212,1.606,6.534,2a7.074,7.074,0,0,1,.77-2.4A22.983,22.983,0,0,1-13.739-2c-2.4-.792-3.454-2.09-3.454-4.334a5.5,5.5,0,0,1,.638-2.728,9.839,9.839,0,0,1,3.41-3.586A12.357,12.357,0,0,1-9.6-14.586c.638-.088.682-.088.682-.308,0-.11-.022-.154-.154-.33L-10.2-16.676a8.831,8.831,0,0,1-3.41.726c-3.652.352-9.614.7-12.122.7h-.242ZM.429-10.01c.792-.264.814-.264,1.65-.572,1.452-.506,1.628-.572,2.706-.88a22.735,22.735,0,0,1,6.358-1.1,6.728,6.728,0,0,1,3.1.572,3.663,3.663,0,0,1,1.87,3.476A4.971,4.971,0,0,1,12.683-3.85,22.693,22.693,0,0,1,5.555-2.442,8.593,8.593,0,0,1,6.3-.066c3.938-.418,5.9-.858,7.876-1.738a7.138,7.138,0,0,0,4.466-6.688c0-3.982-2.706-6.248-7.436-6.248A29.489,29.489,0,0,0,4.015-13.6c-2.926.7-3.168.77-4.554,1.034ZM37.389-18.3a27.061,27.061,0,0,1-3.7,4.356c-2.53,2.442-3.366,3.234-3.74,3.564-.968.836-1.21,1.21-1.21,1.782,0,.55.242.924,1.144,1.716a59.562,59.562,0,0,1,4.422,4.312,32.179,32.179,0,0,1,3.52,4.29L39.875.066A35.947,35.947,0,0,0,36.707-3.52a60.705,60.705,0,0,0-4.752-4.51c-.33-.264-.462-.44-.462-.572s.132-.264.418-.55c.55-.55,2.068-1.87,2.9-2.684,1.254-1.21,2.662-2.662,4.246-4.378.55-.154.616-.22.616-.4,0-.154-.11-.286-.308-.418Zm17.556,3.916c2.948-.506,3.476-.572,7.524-1.1a49.533,49.533,0,0,1-9.13,7.678l1.342,1.958a12.818,12.818,0,0,1,7.656-2.9c2.706,0,4.312,1.3,4.312,3.5a4.053,4.053,0,0,1-1.056,2.684,4.893,4.893,0,0,1-2.662,1.5A5.425,5.425,0,0,0,63-1.936c0-1.958-1.364-3.124-3.63-3.124-2.046,0-3.454,1.232-3.454,3.036,0,2.112,1.65,3.278,4.686,3.278,5.082,0,8.514-2.6,8.514-6.424A4.765,4.765,0,0,0,67.6-8.954a7.324,7.324,0,0,0-4.774-1.716,8.844,8.844,0,0,0-3.652.792c.66-.572,1.122-.99,1.43-1.254,1.232-1.034,2.42-2.134,3.608-3.212.264-.22.638-.594,1.144-1.034.594-.2.66-.242.66-.44,0-.11-.044-.2-.2-.352l-1.452-1.5a14.935,14.935,0,0,1-2.992.418c-5.214.4-5.478.4-6.754.4ZM60.819-.748c-.22.022-.418.044-.594.044-1.584,0-2.42-.484-2.42-1.386,0-.7.616-1.21,1.5-1.21,1.056,0,1.628.616,1.628,1.76A2.636,2.636,0,0,1,60.819-.748ZM85-11.308a12.952,12.952,0,0,1-1.43,5.3c-1.1,2.024-2.574,3.344-5.808,5.192a4.122,4.122,0,0,1,1.276,1.958c5.7-3.146,7.81-6.314,8.294-12.5l4.972-.132v.7c0,3.96-.264,6.82-.726,7.964-.4.968-.858,1.232-2.2,1.232-.506,0-1.144-.044-2.222-.154A12.1,12.1,0,0,1,87.483.77c1.716.022,1.892.022,2.112.022,2.156,0,3.212-.506,3.872-1.914C94.1-2.442,94.5-5.874,94.5-10.164V-11.9c.4-.242.4-.264.4-.4,0-.11-.022-.154-.22-.308L93.159-13.86l-.308.286-5.412.132c.088-1.606.132-2.354.154-3.674.308-.176.418-.286.418-.44,0-.176-.154-.286-.4-.308l-2.464-.154a7.129,7.129,0,0,1,.044.968c0,.924-.044,2.75-.11,3.652-.88,0-4.048.066-4.4.066-1.122,0-1.452,0-2.4-.066l.154,2.332c1.452-.11,4.708-.242,6.028-.242ZM107.855.154a1.115,1.115,0,0,0,.33.132c.154,0,.264-.11.352-.418,7-3.124,9.438-4.62,13.53-8.272a11.6,11.6,0,0,1-.946-2.53,26.287,26.287,0,0,1-5.72,4.576,42.352,42.352,0,0,1-6.688,3.41V-13.332c0-1.364,0-1.8.022-2.508.33-.2.418-.308.418-.418,0-.154-.11-.22-.374-.242l-2.574-.2c.044.594.066,1.562.066,3.3v8.58a14.682,14.682,0,0,1-.264,4.07Zm39.93-9.724c-.946.044-2.508.066-3.52.066H133.089c-1.122,0-2.574-.022-3.5-.066v2.4c.924-.044,2.376-.066,3.5-.066h11.176c1.012,0,2.574.022,3.52.066Z" transform="translate(147.939 18.436)"/></svg>