<svg xmlns="http://www.w3.org/2000/svg" width="151.362" height="16.146" viewBox="0 0 151.362 16.146"><path d="M7.344-9.918l.648-.126c.486-.09,1.134-.2,1.422-.252.54-.108.684-.144,1.6-.4L10.8-12.384a23.179,23.179,0,0,1-2.412.558l-1.044.18c0-.252-.018-.684-.018-.864V-13c0-.288.018-.63.018-.9.18-.126.252-.216.252-.324s-.144-.216-.324-.216l-1.836-.072c.054.594.108,1.782.108,2.61v.342c-.558.036-.846.054-1.152.054-.54,0-1.4-.036-2.214-.09V-9.81c.468.018.81.018,1.044.018.378,0,1.656-.018,2.358-.036C5.6-9.27,5.616-8.334,5.652-7A8.812,8.812,0,0,0,3.708-5.976a4.716,4.716,0,0,0-2.16,3.8C1.548-.36,2.718.7,4.68.7,5.994.7,6.714.324,7.11-.558c.288-.612.324-1.278.324-4.644v-.666A7.2,7.2,0,0,1,9.99-6.3c2.232,0,3.546.972,3.546,2.61,0,1.584-1.116,2.322-3.924,2.574A6.757,6.757,0,0,1,10.3.738,13.22,13.22,0,0,0,12.24.306c2.106-.666,3.222-2.016,3.222-3.96,0-2.574-2.034-4.212-5.184-4.212a12.673,12.673,0,0,0-2.88.378ZM5.652-4.284c-.018,1.116,0,1.89-.018,2.07-.054.882-.342,1.242-.99,1.242-.756,0-1.188-.486-1.188-1.332,0-1.206.7-2.142,2.214-2.952Zm6.66-7.362A15.906,15.906,0,0,1,15.858-8.28l1.386-1.26a14.611,14.611,0,0,0-3.8-3.384ZM21.132-13c.054.324.126,1.836.126,2.988,0,1.062.126,3.06.27,4.284A9,9,0,0,0,22.86-1.836,2.9,2.9,0,0,0,25.344-.27a2.076,2.076,0,0,0,1.3-.468A6.164,6.164,0,0,0,27.9-2.664c.18-.432.252-.63.36-.864A9.3,9.3,0,0,1,26.694-4.68c-.54,1.638-1.008,2.43-1.44,2.43-.4,0-.918-.648-1.332-1.656a17.354,17.354,0,0,1-.756-5.328v-1.818c0-.4.018-.54.054-1.026.252-.126.36-.252.36-.4,0-.126-.18-.27-.4-.288Zm9.63,2.214A13.314,13.314,0,0,1,33.1-7.668a16.216,16.216,0,0,1,1.386,3.69l1.854-.828a13.906,13.906,0,0,0-4.194-7.02ZM43.11-14.148c.018,1.224.036,1.854.036,2.97,0,1.206-.018,1.818-.09,4.194C43.02-5.832,43-4.734,43-3.816,43-1.71,43.4-.522,44.334.27a4.266,4.266,0,0,0,2.934.864A8.015,8.015,0,0,0,52.7-.792a9.852,9.852,0,0,0,2.214-2.79,19.134,19.134,0,0,1-1.584-1.53,6.99,6.99,0,0,1-2.862,3.456,5.915,5.915,0,0,1-3.006.864Q45.63-.792,45.2-1.98a7.3,7.3,0,0,1-.27-2.646c0-.558.018-1.458.054-2.628.054-1.692.09-3.06.108-3.978.036-1.368.054-1.674.054-2.2.234-.09.342-.216.342-.378,0-.126-.144-.216-.342-.234Zm22.23-.7c.252.594.36.864.612,1.548.324.846.522,1.4.72,1.8a52.113,52.113,0,0,1-5.346.306l.252,1.764a46.57,46.57,0,0,0,5.9-.45A34.437,34.437,0,0,0,69.408-6.66a7.887,7.887,0,0,0-.846-.054,7.523,7.523,0,0,0-1.008.072,5.053,5.053,0,0,1,.432,1.458c.432-.036.7-.036,1.062-.036a3.762,3.762,0,0,1,2.178.63l1.242-1.188A24.107,24.107,0,0,1,69.3-10.206c2.214-.36,2.718-.432,4.212-.792l-.54-1.674a29.8,29.8,0,0,1-4.446.882c-.648-1.422-.81-1.908-1.134-2.664.144-.144.2-.216.2-.306a.257.257,0,0,0-.252-.252ZM63.684-5.814A4.211,4.211,0,0,0,62.1-4.5a3.3,3.3,0,0,0-.594,1.872c0,2.538,2.466,3.708,7.776,3.708a25.385,25.385,0,0,0,2.79-.108c-.108-.882-.18-1.548-.2-1.89a18.265,18.265,0,0,1-2.538.162c-4,0-5.994-.7-5.994-2.088,0-.63.36-1.134,1.152-1.656Zm23.49-5.58a6.745,6.745,0,0,1,2.214.342A4.428,4.428,0,0,1,92.7-6.606a4.306,4.306,0,0,1-1.98,3.78,10.838,10.838,0,0,1-3.186,1.3A6.094,6.094,0,0,1,88.416.252,11.552,11.552,0,0,0,92.2-1.53a5.728,5.728,0,0,0,2.448-4.986,5.848,5.848,0,0,0-2.394-5A8.7,8.7,0,0,0,87.228-13a8.194,8.194,0,0,0-5.886,2.358,7.516,7.516,0,0,0-2.268,5.346c0,2.628,1.278,4.446,3.132,4.446,1.4,0,2.5-1.062,3.582-3.42a37.2,37.2,0,0,0,2-6.462c.126-.054.2-.108.2-.2s-.036-.126-.2-.2Zm-1.242.09a6.388,6.388,0,0,1-.216,1.4,30.877,30.877,0,0,1-1.44,4.446C83.448-3.6,82.764-2.682,82.17-2.682c-.72,0-1.3-1.134-1.3-2.592A6.4,6.4,0,0,1,85.932-11.3Zm13.122.756c1.278-.486,2.556-.918,3.978-1.35-.648.882-1.35,1.728-1.926,2.646A10.046,10.046,0,0,0,99.252-3.96,5.3,5.3,0,0,0,100.44-.414a4.737,4.737,0,0,0,3.852,1.44,5.421,5.421,0,0,0,5.472-3.564,15.744,15.744,0,0,0,.7-4.716,11.789,11.789,0,0,0-.45-3.312,42.271,42.271,0,0,0,3.042,5.2l1.584-1.422a34.32,34.32,0,0,1-4.464-6.372l-2.016.9a9.6,9.6,0,0,1,.558,3.978c0,3.492-.45,5.292-1.6,6.408A3.957,3.957,0,0,1,104.31-.846c-2.07,0-3.258-1.134-3.258-3.132,0-2.394,1.638-5.49,4.446-8.406.306-.09.36-.126.36-.252,0-.072-.054-.144-.18-.252l-1.134-1.1a6.868,6.868,0,0,1-2.016.666,27.955,27.955,0,0,1-4,.774ZM129.8-11.2v.288c0,.162,0,.432-.018.63a22.564,22.564,0,0,1-.432,3.708A25.956,25.956,0,0,0,125.1-7.614c.558-1.962.738-2.772,1.206-5.022.252-.09.36-.18.36-.288a.421.421,0,0,0-.2-.306l-1.314-.864a1.906,1.906,0,0,1-1.116.342,38.472,38.472,0,0,1-4.554.27l.4,1.908c1.458-.27,3.348-.54,4.482-.63a26.881,26.881,0,0,1-1.044,4.482c-3.222,0-5.472,1.872-5.472,4.554a2.442,2.442,0,0,0,2.52,2.754,3.332,3.332,0,0,0,3.006-2.2,21.729,21.729,0,0,0,1.314-3.456,25.825,25.825,0,0,1,4.176,1.17,11.277,11.277,0,0,1-3.1,4.752,4.93,4.93,0,0,1,1.494,1.188,12.1,12.1,0,0,0,2.592-3.672,14.078,14.078,0,0,0,.666-1.6,20.12,20.12,0,0,1,2.88,1.656,9.4,9.4,0,0,1,.918-1.656,26.867,26.867,0,0,0-3.33-1.71,29.763,29.763,0,0,0,.558-4.428c.234-.144.27-.162.27-.252,0-.108-.072-.162-.252-.2Zm-6.912,5.022c-.972,2.934-1.656,4.032-2.538,4.032-.5,0-.774-.414-.774-1.188a2.741,2.741,0,0,1,2.106-2.646A4.426,4.426,0,0,1,122.886-6.174Zm15.12-2.016c.648-.216.666-.216,1.35-.468,1.188-.414,1.332-.468,2.214-.72a18.6,18.6,0,0,1,5.2-.9,5.505,5.505,0,0,1,2.538.468,3,3,0,0,1,1.53,2.844,4.067,4.067,0,0,1-2.808,3.816A18.567,18.567,0,0,1,142.2-2a7.031,7.031,0,0,1,.612,1.944,19.885,19.885,0,0,0,6.444-1.422,5.84,5.84,0,0,0,3.654-5.472c0-3.258-2.214-5.112-6.084-5.112a24.128,24.128,0,0,0-5.886.936c-2.394.576-2.592.63-3.726.846Z" transform="translate(-1.548 15.012)"/></svg>